<svg width="45" height="45" viewBox="0 0 45 45" fill="none" xmlns="http://www.w3.org/2000/svg">
<g clip-path="url(#clip0_6171_2042)">
<path d="M39.7423 40.4337C34.8758 45.3003 26.9849 45.3003 22.1184 40.4337L4.45177 22.7672C-0.42012 17.9006 -0.42012 10.0097 4.45177 5.14317C9.31833 0.271286 17.2092 0.271286 22.0758 5.14317L39.7477 22.8151C44.6142 27.6816 44.6142 35.5725 39.7477 40.4391L39.7423 40.4337Z" stroke="black" stroke-width="1.59734" stroke-linecap="round" stroke-linejoin="round"/>
<path d="M8.39644 18.8157C5.71291 16.1322 5.71291 11.7714 8.39644 9.08789" stroke="black" stroke-width="1.59734" stroke-linecap="round" stroke-linejoin="round"/>
<path d="M30.9082 13.9766L13.2842 31.6006" stroke="black" stroke-width="1.59734" stroke-linecap="round" stroke-linejoin="round"/>
<path d="M31.883 19.6357L17.8477 33.671" stroke="black" stroke-width="1.59734" stroke-linecap="round" stroke-linejoin="round"/>
<path d="M37.1007 24.8545L23.0654 38.8898" stroke="black" stroke-width="1.59734" stroke-linecap="round" stroke-linejoin="round"/>
<path d="M39.1778 33.4854L31.6543 41.0088" stroke="black" stroke-width="1.59734" stroke-linecap="round" stroke-linejoin="round"/>
<path d="M32.8947 23.8428L22.2031 34.529" stroke="black" stroke-width="1.59734" stroke-linecap="round" stroke-linejoin="round"/>
<path d="M38.0056 29.1611L27.2715 39.8953" stroke="black" stroke-width="1.59734" stroke-linecap="round" stroke-linejoin="round"/>
</g>
<defs>
<clipPath id="clip0_6171_2042">
<rect width="44.1931" height="44.1931" fill="white" transform="translate(0 0.691406)"/>
</clipPath>
</defs>
</svg>
