<?xml version="1.0" encoding="utf-8"?>
<!-- Generator: Adobe Illustrator 24.2.0, SVG Export Plug-In . SVG Version: 6.00 Build 0)  -->
<svg version="1.1" id="Слой_1" xmlns="http://www.w3.org/2000/svg" xmlns:xlink="http://www.w3.org/1999/xlink" x="0px" y="0px"
	 viewBox="0 0 96 96" style="enable-background:new 0 0 96 96;" xml:space="preserve">
<path d="M24.6,1.4h27.2c1.9,0,3.7,0.8,4.9,2.1c1.3,1.3,2.1,3,2.1,4.9v30.9c3.5,1.4,5.1,4.2,6.7,7c1.1,1.9,2.2,3.8,3.9,4.8
	c1.7,1,3.2,2.2,4.3,3.6c1.2,1.5,1.8,3.3,1.8,5.5c-0.3,7.9,0.4,11.6,1.5,17.9c0.4,2,0.8,4.4,1.2,7.1c0.6,1.7,0.1,3.2-1.3,4.5
	c-1,1-2.4,1.8-4.1,2.5c-1.6,0.7-3.4,1.2-5.3,1.6c-5.3,1.2-11,0.9-12.5-1.5c-0.1-0.1-0.1-0.3-0.2-0.4c-0.1-0.4-0.3-0.8-0.5-1.3
	l-0.5-1.3c-2-1.6-4-3.4-5.8-5.4c-1.8-1.9-3.3-3.9-4.4-6.1c-1.8-0.3-2.7-0.1-4.4,0.2c-0.7,0.1-1.6,0.3-2.4,0.4
	c-2.5,0.4-4.4-0.9-5.4-2.7c-0.4-0.8-0.7-1.6-0.8-2.5c-0.1-0.9,0-1.8,0.3-2.6l0.1-0.2c0.1-0.2,0.1-0.3,0.2-0.5h-6.6
	c-1.9,0-3.7-0.8-4.9-2.1c-1.3-1.3-2.1-3-2.1-4.9V8.4c0-1.9,0.8-3.7,2.1-4.9C20.9,2.2,22.7,1.4,24.6,1.4z M58.8,58.2l4,4
	c0.8,0.8,0.8,2,0,2.7c-0.8,0.8-2,0.8-2.7,0l-4.9-4.9c-2-1.6-4-3.3-6.2-4.9c-2.4-1.8-5-3.7-7.7-5.5c-1.3-0.9-2.4-1-3.3-0.7
	c-0.4,0.2-0.7,0.4-0.9,0.7c-0.3,0.3-0.5,0.7-0.5,1.1c-0.2,0.9,0.1,2,1,2.9c2.5,2.4,4.6,4.6,6.6,6.9c1.8,2.1,3.5,4.3,5.2,6.8
	c0.4,0.3,0.6,0.7,0.7,1.2C50,68.8,50,69,50,69.2c0,0.1,0,0.2,0,0.2c0.3,2.6,0.7,4.6,1.5,6.3c0.8,1.8,2.1,3.5,4,5.3
	c0.7,0.7,0.7,1.8,0,2.5c-0.7,0.7-1.8,0.7-2.5,0c-2.2-2.2-3.7-4.1-4.8-6.4c-0.8-1.8-1.3-3.8-1.7-6.2l-10.9,0.1
	c-0.8,0-1.3,0.4-1.5,0.8l0,0.1c-0.1,0.3-0.2,0.7-0.1,1.1c0,0.4,0.2,0.8,0.3,1.1c0.3,0.6,0.9,1,1.7,0.9c1-0.2,1.7-0.3,2.3-0.4
	c2.4-0.4,3.6-0.6,6.6-0.1c0.5,0.1,1,0.5,1.3,1c1,2.2,2.5,4.2,4.2,6c1.8,1.9,3.8,3.6,5.8,5.3c0.3,0.2,0.5,0.5,0.6,0.8l0.7,1.8
	l0.4,1.2c0.9,0.9,4.8,0.7,8.7-0.2c1.7-0.4,3.3-0.8,4.6-1.4c1.3-0.5,2.3-1.2,3-1.8c0.3-0.3,0.5-0.6,0.5-0.8c-0.1-0.1-0.1-0.3-0.1-0.5
	c-0.5-2.9-0.9-5.2-1.2-7.2c-1.2-6.6-1.9-10.4-1.6-18.7c0-1.3-0.4-2.3-1-3.3c-0.8-1-1.9-1.9-3.3-2.7c-2.5-1.5-3.8-3.8-5.1-6.1
	c-1-1.8-2-3.6-3.7-4.8V58.2z M28.5,10.1H48c0.9,0,1.7,0.4,2.2,0.9c0.6,0.6,0.9,1.4,0.9,2.2v16.9c0,0.2,0,0.4-0.1,0.6
	c0,0.2-0.1,0.4-0.1,0.5l0,0c-0.1,0.2-0.2,0.3-0.3,0.4c-1.1,1.3-4.7,4.2-6.9,6.1l-1.6,1.3c-0.5,0.4-1.2,0.3-1.5-0.1
	c-0.2-0.2-0.3-0.5-0.3-0.7l0-5H28.5c-0.9,0-1.7-0.4-2.2-0.9c-0.6-0.6-0.9-1.4-0.9-2.2V13.3c0-0.9,0.4-1.7,0.9-2.2
	C26.9,10.5,27.7,10.1,28.5,10.1z M39,14.4l1.8,4.1l4.5,0.5c0.3,0,0.5,0.3,0.5,0.6c0,0.1-0.1,0.3-0.2,0.3l-3.4,3l1,4.4
	c0.1,0.3-0.1,0.6-0.4,0.6c-0.1,0-0.3,0-0.4-0.1l-3.9-2.3L34.6,28c-0.3,0.1-0.6,0.1-0.7-0.2c-0.1-0.1-0.1-0.3-0.1-0.4l1-4.4l-3.4-3
	c-0.2-0.2-0.2-0.5,0-0.8c0.1-0.1,0.2-0.2,0.4-0.2l4.5-0.4l1.8-4.1c0.1-0.3,0.4-0.4,0.7-0.3C38.8,14.2,38.9,14.3,39,14.4z M48,12.3
	H28.5c-0.3,0-0.5,0.1-0.7,0.3c-0.2,0.2-0.3,0.4-0.3,0.7v16.9c0,0.3,0.1,0.5,0.3,0.7c0.2,0.2,0.4,0.3,0.7,0.3h12.8
	c0.6,0,1.1,0.5,1.1,1.1V36c2.4-2,6.4-5.3,6.4-5.5l0-0.2l0-17.1c0-0.3-0.1-0.5-0.3-0.7C48.5,12.5,48.2,12.3,48,12.3z M55.2,55.6V40.5
	V8.4c0-0.9-0.4-1.8-1-2.4c-0.6-0.6-1.5-1-2.4-1H24.6c-0.9,0-1.8,0.4-2.4,1c-0.6,0.6-1,1.5-1,2.4v54.8c0,0.9,0.4,1.8,1,2.4
	c0.6,0.6,1.5,1,2.4,1h19.7c-0.9-1.3-1.9-2.5-2.9-3.6l0,0c-0.9,0.7-2,1.2-3.2,1.2c-1.4,0-2.6-0.5-3.5-1.4c-0.9-0.9-1.4-2.1-1.4-3.5
	c0-1.3,0.5-2.5,1.3-3.3c-1.5-1.8-1.9-3.9-1.5-5.7c0.2-1,0.6-1.8,1.2-2.6c0.6-0.8,1.4-1.4,2.3-1.8c1.9-0.8,4.2-0.7,6.6,1
	c2.7,1.9,5.3,3.7,7.8,5.6C52.5,53.5,53.9,54.5,55.2,55.6z M39.8,61.2c-1.1-1.2-2.3-2.4-3.5-3.7c-0.4,0.5-0.6,1-0.6,1.7
	c0,0.7,0.3,1.3,0.7,1.8c0.5,0.5,1.1,0.7,1.8,0.7C38.8,61.7,39.4,61.5,39.8,61.2z"/>
</svg>
