<svg width="18" height="17" viewBox="0 0 18 17" fill="none" xmlns="http://www.w3.org/2000/svg">
<path d="M8.51534 0.491636C8.66789 0.0221325 9.33211 0.0221325 9.48466 0.491636L11.1307 5.5577C11.1989 5.76767 11.3946 5.90983 11.6154 5.90983H16.9422C17.4358 5.90983 17.6411 6.54154 17.2417 6.83171L12.9323 9.96271C12.7536 10.0925 12.6789 10.3225 12.7471 10.5325L14.3932 15.5985C14.5457 16.068 14.0084 16.4585 13.609 16.1683L9.29954 13.0373C9.12093 12.9075 8.87907 12.9075 8.70046 13.0373L4.39101 16.1683C3.99163 16.4585 3.45426 16.068 3.60681 15.5985L5.25287 10.5325C5.3211 10.3225 5.24636 10.0925 5.06775 9.96271L0.758296 6.83171C0.358913 6.54154 0.564169 5.90983 1.05783 5.90983H6.38461C6.60538 5.90983 6.80105 5.76767 6.86927 5.5577L8.51534 0.491636Z" fill="#FFD069"/>
</svg>
