<svg xmlns="http://www.w3.org/2000/svg" width="119.309" height="55.26" viewBox="0 0 119.309 55.26">
    <g id="Group_684" data-name="Group 684" transform="translate(-229.231 -2530.46)">
        <g id="Group_601" data-name="Group 601">
            <g id="Group_600" data-name="Group 600">
            <path id="Path_828" data-name="Path 828" d="M316.642,2559.618c0,5.072.01,10.145,0,15.217-.013,5.248-2.765,9.168-7.311,10.452-4.8,1.355-9.331-.59-12.026-5.189q-6.041-10.3-12.074-20.648c-.719.4-.37,1-.373,1.453-.035,4.744.018,9.489-.038,14.233-.074,6.352-3.933,10.215-10.3,10.273-6.3.057-12.614.1-18.918-.012-15.233-.267-27.531-13.931-26.277-29.1,1.222-14.779,12.659-25.4,27.47-25.5,2.441-.017,4.883.042,7.322-.028,1.074-.03,1.35.336,1.389,1.386.192,5.249.223,5.3-5.012,5.231-4.637-.065-9.155.17-13.408,2.4-7.68,4.029-12.3,12.734-11.024,21.119a20.524,20.524,0,0,0,17.25,17.518c6.937.96,13.943.308,20.916.329,2.471.007,3.962-2.111,3.966-4.985q.02-15.557.005-31.111c0-.474.012-.949,0-1.423-.021-.8.161-1.517,1.019-1.777a1.621,1.621,0,0,1,2.007.941c1.618,2.808,3.255,5.605,4.886,8.405q8.106,13.914,16.215,27.826c1.218,2.087,2.846,2.936,4.622,2.464,2.041-.542,3.059-2.068,3.06-4.645q.007-16.165,0-32.33c0-1.069-.24-2.314,1.167-2.69s1.822.842,2.356,1.759q9.883,16.977,19.761,33.96c.407.7.783,1.423,1.231,2.1a3.9,3.9,0,0,0,7.257-2.085q-.02-10.878-.005-21.757c0-6.981.031-13.963-.028-20.943-.011-1.285.275-1.71,1.648-1.706,5.143.015,5.143-.041,5.143,5.137,0,12.946.019,25.892-.01,38.837-.013,6.011-3.372,9.985-9.073,10.883-3.943.62-8.008-1.506-10.3-5.429q-5.727-9.791-11.428-19.6c-.226-.387-.486-.754-.73-1.131Z"/>
            <path id="Path_829" data-name="Path 829" d="M300.972,2557.23c0-5.629.135-10.634-.036-15.629a10.268,10.268,0,0,1,7.318-10.677c4.851-1.451,9.35.547,12.15,5.315,3.659,6.232,7.27,12.492,10.931,18.722.352.6.534,1.366,1.447,1.838V2541.1c0-2.983.04-5.966-.022-8.948-.021-1.042.27-1.355,1.35-1.385,5.3-.146,5.3-.182,5.3,5.156v37.626c0,.475-.02.95,0,1.424a1.58,1.58,0,0,1-1.044,1.777c-.924.3-1.539-.2-1.992-.978-1.569-2.681-3.154-5.352-4.716-8.038q-8.148-14.01-16.285-28.027c-1.276-2.2-2.923-3.1-4.739-2.625-2,.53-3.018,2.09-3.019,4.686q-.008,16.17,0,32.339c0,1.079.2,2.326-1.2,2.67s-1.81-.882-2.345-1.8Q294.03,2557.735,284,2540.486c-1.725-2.964-3.28-3.954-5.3-3.365-2.144.624-2.853,2.01-2.853,5.578q0,15.255,0,30.508c0,2.72-.5,3.225-3.141,3.227-5.358,0-10.716.018-16.074,0-9.265-.037-17.421-7.24-18.226-16.073-.917-10.048,5.327-18.479,14.986-20.24,3.7-.675,7.441-.172,11.159-.333.7-.03.985.264.915.95a4.953,4.953,0,0,0,0,.61c.1,5.062.1,5.042-4.963,5.073a31.775,31.775,0,0,0-5.478.189c-6.029,1.08-10.329,6.181-10.01,11.941a11.838,11.838,0,0,0,11.679,11.252c3.186.09,6.376.031,9.563.012,2.311-.013,2.83-.538,2.834-2.91.013-8.543-.022-17.085.015-25.627.026-5.775,3.28-9.651,8.84-10.67,3.995-.732,8.2,1.4,10.519,5.375q5.766,9.887,11.507,19.79C300.161,2556.107,300.407,2556.415,300.972,2557.23Z"/>
            </g>
        </g>
    </g>
</svg>