<svg preserveAspectRatio="none" viewBox="0 0 197 76" fill="none" xmlns="http://www.w3.org/2000/svg">
<path d="M187.465 53.7045C184.046 52.9306 180.486 52.811 177.039 53.354C173.592 53.897 170.34 55.0895 167.515 56.8469C165.222 58.0898 162.532 58.6972 159.799 58.5892C145.417 59.156 130.824 59.1009 116.663 60.664C96.9615 62.8268 77.6489 66.9631 57.7933 68.7414C44.782 69.8265 31.8776 71.606 19.1539 74.0695C4.85092 76.9 1.36936 74.402 1.44103 61.8074C1.73156 50.9645 1.35058 40.104 0.299716 29.2723C-0.485445 22.5525 4.3053 20.7488 10.4189 20.4846C15.0986 20.293 19.8518 21.1344 22.7398 17.0193C23.364 16.0967 24.3509 16.2114 25.539 16.2932C40.6901 17.4302 54.6826 14.9054 69.0711 10.5701C78.9913 7.43642 89.3221 5.31021 99.8578 4.23392C118.912 2.54052 138.156 3.07179 157.078 0.668465C165.545 -0.414766 174.039 0.99573 182.501 1.563C187.398 1.90027 190.283 4.12366 191.651 8.4229C196.124 22.2649 196.22 36.3661 196.861 50.427C197.216 58.659 189.752 51.4947 187.461 53.7665" fill="#FFB22D"/>
</svg>
