<svg width="235" height="61" viewBox="0 0 235 61" fill="none" xmlns="http://www.w3.org/2000/svg">
<path d="M12.0176 2.71735C16.0349 3.91277 20.267 4.54747 24.4142 4.57654C28.5614 4.60562 32.5224 4.02836 36.0167 2.88561C38.84 2.12128 42.0897 1.98075 45.3383 2.48246C62.5156 4.1136 79.8979 6.32872 96.8851 7.04147C120.517 8.04362 143.829 7.23392 167.617 8.60067C183.199 9.56761 198.704 9.90154 214.044 9.60057C231.293 9.20788 235.258 11.9451 234.251 23.129C233.111 32.7235 232.77 42.4334 233.229 52.2171C233.672 58.3065 227.832 59.1985 220.529 58.5258C214.939 58.0015 209.337 56.5481 205.595 59.777C204.784 60.5044 203.617 60.256 202.207 60.0069C184.238 56.7472 167.382 56.9142 149.921 58.6318C137.873 59.9446 125.408 60.3009 112.776 59.6936C89.9505 58.3704 67.0606 55.0415 44.34 54.3688C34.1725 54.0748 24.1553 51.5602 14.1148 49.7998C8.30553 48.7732 5.03032 46.3686 3.71526 42.3442C-0.600507 29.3769 0.317523 16.8289 0.582813 4.23576C0.761957 -3.13401 9.13161 4.34207 12.0273 2.66286" fill="#404733"/>
</svg>
