<svg width="189" height="129" viewBox="0 0 189 129" fill="none" xmlns="http://www.w3.org/2000/svg">
<path d="M20.7922 37.011C23.5802 38.2637 26.612 38.844 29.6729 38.7107C32.7337 38.5774 35.7489 37.7338 38.5048 36.2397C40.7074 35.2206 43.1306 34.9228 45.4557 35.3854C57.9045 36.6219 70.4163 38.5414 82.8638 38.6982C100.178 38.929 117.532 37.0277 134.907 37.6838C146.277 38.1984 157.687 37.9667 169.07 36.9901C181.879 35.8277 184.394 38.9078 181.955 52.1889C179.658 63.5938 177.934 75.1028 176.79 86.6669C176.195 93.858 171.743 95.1503 166.447 94.6492C162.395 94.2545 158.475 92.7604 155.22 96.7344C154.51 97.6284 153.685 97.3815 152.681 97.1435C139.894 94.0111 127.41 94.8905 114.244 97.63C105.139 99.6714 95.8727 100.597 86.6285 100.389C69.958 99.7456 53.5442 96.7303 36.853 96.8528C29.3826 96.9158 22.3598 94.3439 15.2055 92.6659C11.0674 91.6855 9.01113 88.9712 8.64915 84.26C7.42485 69.0828 10.0054 54.1904 12.1103 39.271C13.3598 30.5389 18.4128 39.0512 20.8075 36.9461" fill="#F59E80"/>
</svg>
