<svg width="35" height="36" viewBox="0 0 35 36" fill="none" xmlns="http://www.w3.org/2000/svg">
<path d="M34.4808 32.4674C34.375 31.8672 33.365 26.5546 31.1378 24.9097C29.7282 23.9168 28.1356 23.2185 26.454 22.8558C25.3735 21.1131 22.9963 20.3929 22.0657 20.1884C21.921 19.765 21.8089 19.331 21.7306 18.8902C22.2851 18.5865 22.7137 18.093 22.939 17.4987C23.283 16.4985 23.8211 14.1067 23.9931 13.3776C24.3975 12.9158 24.6881 12.3643 24.8414 11.7679C24.9947 11.1716 25.0062 10.5472 24.8751 9.94553C25.2588 9.252 25.9865 7.40704 24.9457 4.54846C24.2444 2.61459 23.3183 1.43648 22.1936 1.08083C21.6748 0.907077 21.1122 0.919643 20.6015 1.11639C18.0876 -0.132843 13.1701 -1.10645 10.665 3.44593C8.38046 7.58931 9.43453 9.69212 10.0829 10.4701C9.99449 11.0571 10.0428 11.6568 10.224 12.2217C10.3537 12.6814 10.6035 13.0975 10.9473 13.4265C11.1237 14.1912 11.6573 16.4451 12.019 17.4987C12.2443 18.093 12.6729 18.5865 13.2274 18.8902C13.15 19.3202 13.0409 19.7437 12.9011 20.1573C11.9807 20.329 11.1534 20.8313 10.5724 21.571C10.356 21.871 10.1892 22.2042 10.0784 22.5579C8.45103 22.8602 5.88421 23.3893 3.81135 24.9408C1.58413 26.608 0.574164 31.9206 0.468316 32.4985C0.452446 32.5847 0.453696 32.6731 0.471992 32.7588C0.490288 32.8445 0.525267 32.9256 0.574903 32.9976C0.624538 33.0695 0.687843 33.1308 0.761151 33.178C0.834458 33.2251 0.916311 33.257 1.00197 33.272C1.04154 33.2764 1.08147 33.2764 1.12105 33.272C1.27606 33.2713 1.42589 33.2157 1.54438 33.1149C1.66287 33.0142 1.7425 32.8747 1.76937 32.7208C2.0384 31.2359 3.066 27.1237 4.6008 25.9767C6.27232 24.723 8.32754 24.1984 9.89321 23.9139C9.89681 24.3684 9.94706 24.8213 10.0432 25.2654C10.6782 28.0839 11.1457 30.0267 11.3663 30.9114C10.9241 31.1568 10.583 31.5527 10.4039 32.0284C10.2249 32.5041 10.2196 33.0285 10.389 33.5078C10.5584 33.987 10.8915 34.3899 11.3286 34.6443C11.7657 34.8987 12.2783 34.988 12.7748 34.8962C13.2713 34.8045 13.7191 34.5377 14.0383 34.1435C14.3575 33.7494 14.5271 33.2536 14.5168 32.7449C14.5065 32.2362 14.317 31.7479 13.9822 31.3671C13.6474 30.9864 13.1891 30.7382 12.6894 30.6669C12.4821 29.8177 12.0146 27.8572 11.3663 24.9675C11.2609 24.5312 11.2149 24.0826 11.2295 23.6338L11.5162 23.5716C12.0981 23.4181 12.6197 23.0893 13.0113 22.6291L16.8836 26.5991V32.0673C16.8836 32.2441 16.9533 32.4137 17.0774 32.5388C17.2014 32.6639 17.3697 32.7341 17.5451 32.7341C17.7206 32.7341 17.8889 32.6639 18.0129 32.5388C18.137 32.4137 18.2067 32.2441 18.2067 32.0673V26.5991L22.1054 22.7713C22.4748 23.1548 22.9417 23.4285 23.455 23.5627C23.7108 23.6249 24.046 23.6871 24.4297 23.7583C24.8134 23.8294 25.1486 23.8961 25.5499 23.9806C25.7286 24.5278 25.7286 25.1183 25.5499 25.6655L25.4837 25.9633C25.0572 25.8732 24.6169 25.8724 24.1901 25.961C23.7633 26.0496 23.3591 26.2257 23.0026 26.4783C22.6461 26.7309 22.3449 27.0547 22.1177 27.4296C21.8906 27.8044 21.7423 28.2224 21.682 28.6574L21.0911 33.4454C21.0718 33.6222 21.1225 33.7995 21.2322 33.9389C21.2856 34.0079 21.3521 34.0654 21.4278 34.1082C21.5036 34.1509 21.587 34.178 21.6732 34.1879L22.6611 34.2901C22.749 34.3006 22.838 34.2929 22.9228 34.2676C23.0077 34.2423 23.0865 34.1998 23.1546 34.1429C23.2226 34.0859 23.2785 34.0156 23.3188 33.9362C23.359 33.8568 23.3829 33.77 23.3888 33.681L23.4594 32.7919C23.4742 32.6182 23.4204 32.4457 23.3097 32.3117C23.1991 32.1777 23.0405 32.0931 22.8684 32.0762L22.5817 32.0495L22.9654 28.8575C23.0011 28.5976 23.0911 28.3482 23.2295 28.126C23.3678 27.9037 23.5514 27.7136 23.7681 27.5682C23.9838 27.4218 24.2274 27.3225 24.4833 27.2765C24.7393 27.2306 25.0019 27.2391 25.2544 27.3015L26.3173 27.5638C26.57 27.6257 26.8069 27.7404 27.0128 27.9004C27.2187 28.0605 27.3889 28.2623 27.5125 28.4929C27.637 28.7196 27.7127 28.9702 27.7348 29.2283C27.7568 29.4864 27.7246 29.7463 27.6404 29.9911L26.5114 33.0186L26.2467 32.9119C26.0884 32.852 25.9134 32.8555 25.7575 32.9217C25.6017 32.9878 25.4769 33.1116 25.4088 33.2676L25.0648 34.0945C25.03 34.1767 25.012 34.2652 25.012 34.3546C25.012 34.444 25.03 34.5324 25.0648 34.6146C25.0984 34.6965 25.1481 34.7707 25.2111 34.8326C25.274 34.8945 25.3488 34.9429 25.4308 34.9747L26.357 35.3437L26.4408 35.3704C26.4935 35.377 26.5468 35.377 26.5996 35.3704C26.7359 35.3694 26.8686 35.3262 26.9798 35.2467C27.0911 35.1672 27.1754 35.0552 27.2214 34.9258L28.8929 30.4401C29.0352 30.0256 29.0917 29.586 29.0589 29.1486C29.0261 28.7112 28.9047 28.2852 28.7022 27.8969C28.4997 27.5086 28.2204 27.1663 27.8815 26.8911C27.5426 26.6159 27.1513 26.4136 26.7319 26.2968L26.7936 26.0211C26.959 25.4898 27.0219 24.9314 26.9789 24.3762C28.1882 24.7016 29.3295 25.2437 30.3484 25.9767C31.8832 27.1237 32.9108 31.2359 33.1798 32.7208C33.2076 32.8739 33.2876 33.0123 33.406 33.1122C33.5244 33.212 33.6737 33.267 33.8281 33.2676C33.8677 33.272 33.9076 33.272 33.9472 33.2676C34.0356 33.2529 34.12 33.2201 34.1954 33.1712C34.2708 33.1224 34.3354 33.0586 34.3854 32.9836C34.4354 32.9087 34.4696 32.8242 34.486 32.7354C34.5024 32.6467 34.5007 32.5554 34.4808 32.4674ZM13.1833 32.7964C13.1833 32.9564 13.1362 33.1128 13.048 33.2459C12.9598 33.3789 12.8345 33.4826 12.6878 33.5439C12.5411 33.6051 12.3797 33.6211 12.224 33.5899C12.0683 33.5587 11.9253 33.4816 11.8131 33.3685C11.7008 33.2553 11.6244 33.1112 11.5934 32.9542C11.5624 32.7973 11.5783 32.6346 11.6391 32.4867C11.6998 32.3389 11.8027 32.2125 11.9347 32.1236C12.0667 32.0347 12.2219 31.9872 12.3806 31.9872C12.5932 31.9884 12.7967 32.074 12.9469 32.2255C13.0972 32.377 13.1822 32.5821 13.1833 32.7964ZM11.8117 4.04166C14.4359 -0.715228 20.0326 2.26338 20.2663 2.39231C20.3729 2.45082 20.4934 2.47884 20.6146 2.47336C20.7359 2.46787 20.8534 2.42908 20.9543 2.36119C21.0792 2.29394 21.2165 2.25332 21.3576 2.24185C21.4987 2.23038 21.6407 2.2483 21.7747 2.2945C22.4715 2.52123 23.1551 3.46816 23.6976 4.96191C24.0195 5.79859 24.1695 6.69245 24.1386 7.58931C23.5071 6.55111 22.6057 5.70703 21.5321 5.14863C21.4598 5.1029 21.379 5.07254 21.2946 5.05942C21.2103 5.0463 21.1242 5.0507 21.0416 5.07235C20.959 5.094 20.8816 5.13244 20.8143 5.18531C20.747 5.23818 20.6911 5.30437 20.65 5.37981C20.65 5.37981 19.6753 6.66906 14.6872 7.06917C12.8173 7.22032 11.4942 7.74936 10.7532 8.64739L10.6827 8.74075C10.4621 7.89607 10.5018 6.41565 11.8117 4.04166ZM12.1778 12.8174C12.1508 12.723 12.1053 12.635 12.0439 12.5586C11.9825 12.4822 11.9066 12.4191 11.8205 12.3729C11.641 12.196 11.5194 11.9679 11.4721 11.7194C11.3399 11.35 11.3184 10.9495 11.4104 10.5679V10.5457C11.4652 10.442 11.4912 10.3252 11.4853 10.2078C11.4853 10.1456 11.4853 8.69629 14.7931 8.42955C18.8727 8.10057 20.6191 7.19809 21.3469 6.59793C22.617 7.42038 23.4638 8.67406 23.4903 9.83439C23.4945 9.90257 23.5079 9.96986 23.53 10.0344C23.7814 10.6613 23.53 11.9905 22.9743 12.4396C22.8647 12.5388 22.7903 12.6716 22.7626 12.8174C22.7626 12.8486 22.079 15.9294 21.6997 17.0053C21.2851 18.2145 18.4669 18.4546 17.501 18.4368C16.3102 18.4635 13.6861 18.13 13.3024 17.0053C12.9187 15.8805 12.1778 12.8486 12.1778 12.8174ZM17.5584 25.3943L13.7434 21.5088C14.0725 20.8309 14.3155 20.1139 14.4667 19.3748C15.4178 19.6393 16.3998 19.7738 17.3864 19.7749H17.5716C18.5582 19.7738 19.5402 19.6393 20.4912 19.3748C20.5962 19.8989 20.7437 20.4134 20.9323 20.913C20.9421 20.9449 20.9539 20.976 20.9676 21.0064C21.0685 21.2471 21.1834 21.4816 21.3116 21.7088L17.5584 25.3943ZM23.0272 21.8377C23.3834 21.9819 23.7284 22.1528 24.0592 22.349L23.7725 22.2868C23.484 22.2096 23.2228 22.0525 23.0184 21.8333L23.0272 21.8377Z" fill="#475036"/>
</svg>
