<svg width="117" height="101" viewBox="0 0 117 101" fill="none" xmlns="http://www.w3.org/2000/svg">
<path d="M0.220703 50.2622L29.347 100.782L87.5995 100.782L116.984 50.2622L87.5995 1.52588e-05L29.347 1.52588e-05L0.220703 50.2622Z" fill="#A86129"/>
<path d="M50.9567 32.8204V29.9795C50.9567 29.2731 50.6191 28.6197 50.0478 28.1683C51.4332 25.191 54.4735 23.1231 58.0013 23.1231C61.5416 23.1231 64.5901 25.205 65.9695 28.1993C65.413 28.6493 65.0846 29.2941 65.0846 29.9909V32.8317C65.0846 33.6103 65.4917 34.3223 66.1711 34.7719C65.2527 35.7269 63.929 36.2869 62.5543 36.2869C62.0951 36.2869 61.6428 36.226 61.2071 36.1057C61.0411 35.3915 60.3686 34.861 59.5783 34.861C58.6564 34.861 57.9066 35.5731 57.9066 36.4485C57.9066 37.3243 58.6564 38.0368 59.5783 38.0368C59.9189 38.0368 60.2482 37.9373 60.5258 37.7535C61.1845 37.9529 61.8648 38.0537 62.5512 38.0537C63.6834 38.0537 64.769 37.7904 65.7296 37.3052C64.279 41.14 61.3625 43.7589 58.0013 43.7589C53.98 43.7589 50.597 40.0113 49.5969 34.9192C50.4167 34.5013 50.9567 33.7054 50.9567 32.8204ZM74.6029 57.1818C74.8462 57.1818 75.0838 57.2039 75.3149 57.2439C75.2706 51.6729 74.9987 48.5984 70.8675 47.1417C66.6243 45.5451 64.0671 43.948 64.0671 43.948L60.8026 54.0607L60.3677 55.4444L58.8984 51.3992C62.2714 46.8219 58.6264 46.6086 58.0277 46.6086C57.3748 46.6086 53.7841 46.8215 57.1571 51.3988L55.6882 55.4439L55.2529 54.0602L51.9884 43.9476C51.9884 43.9476 49.4317 45.5446 45.1879 47.1412C40.9721 48.611 40.6997 57.3925 40.6997 57.3925C40.6997 57.3925 41.5482 57.1813 42.0052 57.1813L74.6029 57.1818ZM47.7491 34.7856C47.9238 34.8234 48.1062 34.8443 48.2935 34.8443C48.4533 34.8443 48.6093 34.8295 48.7601 34.8017C49.8097 34.6084 50.5991 33.7747 50.5991 32.7754V29.9345C50.5991 29.1312 50.0882 28.4357 49.3426 28.0929C50.0264 24.4805 53.6597 21.7151 58.0286 21.7151C62.4008 21.7151 66.0386 24.4869 66.7162 28.1046C65.9707 28.4473 65.4602 29.1429 65.4602 29.9462V32.7871C65.4602 33.5969 65.9798 34.2968 66.7354 34.6365C65.7487 35.8569 64.1903 36.5854 62.5629 36.5854C61.9881 36.5854 61.4238 36.4968 60.885 36.3222C60.8398 35.6683 60.2746 35.1596 59.5869 35.1596C58.8674 35.1596 58.2818 35.7178 58.2818 36.4042C58.2818 37.0911 58.8675 37.6502 59.5869 37.6502C59.9101 37.6502 60.2199 37.5346 60.4614 37.3244C61.1409 37.552 61.8469 37.6672 62.5602 37.6672C64.7668 37.6672 66.7774 36.6149 67.9566 34.8484C68.0122 34.8441 68.0669 34.8389 68.1217 34.831C69.2256 34.6773 70.071 33.8205 70.071 32.787V29.9461C70.071 29.0416 69.4237 28.273 68.5222 27.992C68.4453 27.9681 68.3658 27.9477 68.2854 27.9312C67.5077 23.6401 63.2049 20.3457 58.0277 20.3457C52.8535 20.3457 48.5536 23.6344 47.7703 27.9199C47.6917 27.9364 47.6148 27.956 47.5392 27.9794C46.636 28.2597 45.9869 29.0291 45.9869 29.9349V32.7758C45.9882 33.7494 46.7386 34.5659 47.7491 34.7856ZM73.494 80.4343C73.494 80.7558 73.219 81.0173 72.8784 81.0173L43.3231 81.0177C42.9825 81.0177 42.7075 80.7562 42.7075 80.4347C42.7075 80.1119 42.9825 79.8508 43.3231 79.8508H72.8773C73.2179 79.8508 73.494 80.1124 73.494 80.4343Z" fill="#FEF6EA"/>
<path d="M74.4005 58.9324C75.6776 58.9321 76.66 59.8941 76.6917 61.0152V61.0704V61.0763V61.0766L76.6903 61.0844L73.986 75.9553L73.9763 76.0086L73.9749 76.0628C73.946 77.1814 72.9628 78.1454 71.6833 78.1454L44.5182 78.1458C43.2391 78.1458 42.2554 77.1814 42.2266 76.0632L42.2252 76.0091L42.2155 75.9558L39.5102 61.0769L39.5103 61.0769L39.5093 61.0718L39.5089 61.0701C39.5094 59.9266 40.5026 58.9324 41.8021 58.9324H74.4003H74.4005Z" stroke="#FEF6EA" stroke-width="1.40315"/>
</svg>
