<svg width="375" height="103" viewBox="0 0 375 103" fill="none" xmlns="http://www.w3.org/2000/svg">
<rect width="375" height="85" transform="translate(0 17)" fill="#F8C6BD"/>
<path d="M144.432 93.5051C141.877 93.5051 139.659 92.9024 137.778 91.697C135.922 90.4916 134.705 88.804 134.126 86.6343L138.972 85.5132C139.43 86.7187 140.129 87.6468 141.069 88.2977C142.033 88.9487 143.203 89.2741 144.577 89.2741C145.855 89.2741 146.855 88.9607 147.578 88.3339C148.302 87.7071 148.663 86.803 148.663 85.6217C148.663 84.5369 148.265 83.669 147.47 83.0181C146.674 82.3671 145.529 82.0417 144.034 82.0417H141.358L142.009 78.2085H144.288C145.397 78.2085 146.276 77.9312 146.927 77.3768C147.602 76.8223 147.94 76.0146 147.94 74.9539C147.94 74.0378 147.602 73.3025 146.927 72.748C146.252 72.1935 145.36 71.9163 144.251 71.9163C141.865 71.9163 140.406 73.1217 139.876 75.5325L135.175 74.4838C135.392 73.1578 135.934 71.9765 136.802 70.9399C137.67 69.9032 138.779 69.1077 140.129 68.5532C141.503 67.9746 142.986 67.6853 144.577 67.6853C147.181 67.6853 149.254 68.2759 150.797 69.4572C152.34 70.6144 153.111 72.1935 153.111 74.1945C153.111 75.5928 152.665 76.762 151.773 77.7022C150.881 78.6424 149.712 79.2933 148.265 79.655C149.977 79.9925 151.339 80.7157 152.352 81.8247C153.388 82.9337 153.907 84.2717 153.907 85.8387C153.907 88.1772 153.075 90.0456 151.411 91.4438C149.748 92.818 147.422 93.5051 144.432 93.5051ZM165.038 93.5051C163.109 93.5051 161.386 92.9868 159.867 91.9501C158.372 90.9135 157.191 89.4308 156.323 87.5022C155.479 85.5494 155.057 83.2712 155.057 80.6675C155.057 78.0156 155.479 75.7133 156.323 73.7605C157.191 71.8078 158.372 70.3131 159.867 69.2764C161.386 68.2157 163.109 67.6853 165.038 67.6853C166.991 67.6853 168.715 68.2157 170.209 69.2764C171.728 70.3131 172.909 71.8078 173.753 73.7605C174.621 75.7133 175.055 78.0156 175.055 80.6675C175.055 83.2712 174.621 85.5494 173.753 87.5022C172.909 89.4308 171.728 90.9135 170.209 91.9501C168.691 92.9868 166.967 93.5051 165.038 93.5051ZM160.301 80.6675C160.301 83.4882 160.723 85.6338 161.567 87.1044C162.434 88.5509 163.592 89.2741 165.038 89.2741C166.485 89.2741 167.642 88.5509 168.51 87.1044C169.378 85.6338 169.812 83.4882 169.812 80.6675C169.812 77.7986 169.378 75.6289 168.51 74.1583C167.642 72.6636 166.485 71.9163 165.038 71.9163C163.592 71.9163 162.434 72.6636 161.567 74.1583C160.723 75.6289 160.301 77.7986 160.301 80.6675ZM195.239 67.9384H199.506L181.135 93.252H176.904L195.239 67.9384ZM176.724 72.8203C176.724 71.2533 177.206 70.0117 178.17 69.0956C179.134 68.1795 180.448 67.7214 182.112 67.7214C183.775 67.7214 185.089 68.1795 186.053 69.0956C187.018 70.0117 187.5 71.2533 187.5 72.8203C187.5 74.3873 187.018 75.6289 186.053 76.545C185.089 77.4611 183.775 77.9192 182.112 77.9192C180.448 77.9192 179.134 77.4611 178.17 76.545C177.206 75.6289 176.724 74.3873 176.724 72.8203ZM180.304 72.8203C180.304 73.5436 180.46 74.1222 180.774 74.5561C181.087 74.99 181.533 75.207 182.112 75.207C182.69 75.207 183.136 74.99 183.45 74.5561C183.763 74.1222 183.92 73.5436 183.92 72.8203C183.92 72.0971 183.763 71.5185 183.45 71.0845C183.136 70.6506 182.69 70.4336 182.112 70.4336C181.533 70.4336 181.087 70.6506 180.774 71.0845C180.46 71.5185 180.304 72.0971 180.304 72.8203ZM188.91 88.4062C188.91 86.8392 189.392 85.5976 190.357 84.6815C191.321 83.7654 192.635 83.3074 194.298 83.3074C195.962 83.3074 197.276 83.7654 198.24 84.6815C199.204 85.5976 199.687 86.8392 199.687 88.4062C199.687 89.9732 199.204 91.2148 198.24 92.1309C197.276 93.047 195.962 93.5051 194.298 93.5051C192.635 93.5051 191.321 93.047 190.357 92.1309C189.392 91.2148 188.91 89.9732 188.91 88.4062ZM192.49 88.4062C192.49 89.1295 192.647 89.7081 192.96 90.142C193.274 90.576 193.72 90.7929 194.298 90.7929C194.853 90.7929 195.287 90.576 195.6 90.142C195.938 89.7081 196.107 89.1295 196.107 88.4062C196.107 87.683 195.938 87.1044 195.6 86.6704C195.287 86.2365 194.853 86.0195 194.298 86.0195C193.72 86.0195 193.274 86.2365 192.96 86.6704C192.647 87.1044 192.49 87.683 192.49 88.4062ZM218.719 93.4736C216.502 93.4736 214.591 93.0303 212.986 92.1435C211.403 91.2356 210.189 89.9372 209.344 88.2481C208.5 86.5379 208.078 84.511 208.078 82.1675C208.078 79.8239 208.5 77.8076 209.344 76.1185C210.189 74.4083 211.403 73.1098 212.986 72.2231C214.591 71.3152 216.502 70.8613 218.719 70.8613C220.936 70.8613 222.846 71.3152 224.451 72.2231C226.056 73.1098 227.28 74.4083 228.125 76.1185C228.969 77.8076 229.391 79.8239 229.391 82.1675C229.391 84.511 228.969 86.5379 228.125 88.2481C227.28 89.9372 226.056 91.2356 224.451 92.1435C222.846 93.0303 220.936 93.4736 218.719 93.4736ZM212.638 82.1675C212.638 84.5322 213.176 86.3901 214.253 87.7414C215.351 89.0926 216.84 89.7683 218.719 89.7683C220.598 89.7683 222.076 89.0926 223.152 87.7414C224.25 86.3901 224.799 84.5322 224.799 82.1675C224.799 79.8028 224.25 77.9448 223.152 76.5935C222.076 75.2423 220.598 74.5667 218.719 74.5667C216.84 74.5667 215.351 75.2423 214.253 76.5935C213.176 77.9448 212.638 79.8028 212.638 82.1675ZM231.09 71.083H245.753V74.5667H235.524V80.7106H244.106V84.1943H235.524V93.252H231.09V71.083ZM246.934 71.083H261.597V74.5667H251.367V80.7106H259.95V84.1943H251.367V93.252H246.934V71.083Z" fill="#404733"/>
<path d="M142.577 9.90146C142.827 9.41009 143.106 8.94 143.503 8.55151C143.788 8.27212 144.115 8.06723 144.521 8.02199C144.937 7.97587 145.288 8.10004 145.565 8.42379C145.781 8.67746 145.913 8.97459 146.015 9.2868C146.232 9.95379 146.301 10.6456 146.33 11.3419C146.402 13.0528 146.239 14.7496 146.004 16.441C145.593 19.3973 144.913 22.2958 144.094 25.1634C143.976 25.5785 143.85 25.9909 143.728 26.4051C143.625 26.7546 143.558 26.8025 143.182 26.7617C142.46 26.6836 141.738 26.6003 141.017 26.5178C140.71 26.4823 140.665 26.4442 140.653 26.1187C140.62 25.119 140.575 24.1194 140.574 23.1198C140.571 20.4217 140.727 17.7324 141.156 15.0645C141.39 13.6178 141.697 12.188 142.209 10.8097C142.322 10.5037 142.453 10.2048 142.576 9.90235L142.577 9.90146ZM142.325 26.2295C142.355 26.1426 142.38 26.0858 142.396 26.0255C142.439 25.8632 142.483 25.7 142.518 25.5359C143.305 21.8586 143.85 18.1431 144.286 14.4099C144.359 13.7846 144.364 13.1513 144.393 12.5207C144.399 12.4062 144.383 12.2883 144.355 12.1765C144.32 12.0311 144.136 11.8616 144.027 11.8679C143.864 11.8776 143.798 12.0071 143.75 12.1357C143.629 12.4603 143.495 12.7832 143.403 13.1167C143.054 14.3877 142.857 15.6889 142.677 16.9927C142.282 19.8514 142.061 22.7251 141.935 25.6078C141.927 25.7949 141.916 25.9821 141.906 26.1825C142.051 26.1985 142.174 26.2127 142.326 26.2295H142.325Z" fill="#404733"/>
<path d="M133.484 29.01C132.252 28.0292 131.129 27.169 130.043 26.2647C127.344 24.0152 124.754 21.645 122.543 18.8749C121.838 17.991 121.176 17.0738 120.669 16.0541C120.416 15.5432 120.211 15.0032 120.03 14.46C119.851 13.9178 119.848 13.3508 120 12.7936C120.157 12.218 120.528 11.8095 121.026 11.5314C121.355 11.3482 121.724 11.3536 122.09 11.4322C122.688 11.5605 123.221 11.8397 123.734 12.1641C124.845 12.8701 125.829 13.7421 126.772 14.6604C129.253 17.0759 131.446 19.7512 133.486 22.5558C134.553 24.0228 135.55 25.5415 136.574 27.0419C136.794 27.3631 136.779 27.4137 136.522 27.7004C136.005 28.2749 135.486 28.8473 134.974 29.425C134.736 29.6934 134.602 29.7311 134.299 29.5446C133.977 29.3463 133.666 29.1318 133.483 29.01H133.484ZM135.268 28.2253C135.474 28.0141 135.484 28.0055 135.291 27.7522C134.226 26.3456 133.184 24.9195 132.08 23.5463C130.045 21.0134 127.922 18.5602 125.509 16.3872C124.974 15.9043 124.426 15.4343 123.78 15.1056C123.503 14.9644 123.271 15.1142 123.284 15.43C123.291 15.5788 123.34 15.7308 123.395 15.872C123.647 16.5208 124.03 17.091 124.439 17.6429C125.273 18.766 126.203 19.804 127.167 20.8097C129.702 23.4558 132.464 25.8433 135.267 28.2264L135.268 28.2253Z" fill="#404733"/>
<path d="M128.281 37.2885L128.167 44.5823C128.167 49.6347 128.717 52.6738 129.819 53.6995C129.971 53.8515 130.047 54.0224 130.047 54.2124C130.047 54.7822 128.812 55.0671 126.343 55.0671C123.912 55.0671 122.62 54.3453 122.468 52.9018C122.43 52.5599 122.411 51.8571 122.411 50.7934L122.639 41.6762C122.639 41.4102 122.487 41.2773 122.183 41.2773C120.36 41.2773 118.65 41.7901 117.055 42.8158C115.459 43.8415 114.662 45.1521 114.662 46.7476C114.662 47.5834 114.89 48.2862 115.345 48.856C115.801 49.4258 116.352 49.7107 116.998 49.7107C117.682 49.7107 118.233 49.5778 118.65 49.3118C119.106 49.0459 119.372 48.894 119.448 48.856C120.094 48.932 120.417 49.6157 120.417 50.9074C120.417 52.161 119.828 53.1867 118.65 53.9844C117.473 54.7442 116.238 55.1241 114.947 55.1241C113.655 55.1241 112.534 54.8961 111.585 54.4403C110.673 53.9844 110.008 53.4716 109.59 52.9018C109.172 52.3319 108.83 51.6861 108.565 50.9643C108.299 50.0906 108.166 49.3308 108.166 48.685C108.166 46.0258 109.001 43.8985 110.673 42.303C112.344 40.7075 114.491 39.5678 117.112 38.884C120.569 38.2002 122.373 37.5734 122.525 37.0036C122.639 36.5857 122.696 35.8829 122.696 34.8952C122.696 32.8818 121.671 31.8751 119.619 31.8751C118.745 31.8751 117.967 32.1601 117.283 32.7299C116.599 33.2617 116.257 33.9455 116.257 34.7813L116.599 36.1488C116.523 36.7946 115.839 37.1745 114.548 37.2885L113.921 37.3455C112.781 37.3455 111.87 37.0606 111.186 36.4907C110.54 35.9209 110.217 35.1611 110.217 34.2114C110.217 33.6036 110.407 32.9388 110.787 32.217C111.205 31.4573 111.718 30.8494 112.325 30.3936C112.933 29.9377 113.864 29.5388 115.118 29.197C116.409 28.8171 117.644 28.6271 118.821 28.6271C119.999 28.6271 120.911 28.6651 121.557 28.7411C122.202 28.8171 123.076 29.007 124.178 29.3109C125.317 29.5768 126.248 30.1087 126.97 30.9064C127.73 31.7042 128.129 32.5589 128.167 33.4707C128.243 34.3444 128.281 35.617 128.281 37.2885ZM149.053 46.5767C149.053 48.2102 148.73 49.6347 148.084 50.8504C147.476 52.066 146.773 52.9587 145.975 53.5286C145.178 54.0984 144.228 54.5542 143.126 54.8961C141.683 55.352 140.372 55.5799 139.194 55.5799C136.725 55.5799 134.674 55.1051 133.04 54.1554C131.407 53.1677 130.59 51.6101 130.59 49.4828C130.59 48.2292 130.932 47.2035 131.616 46.4057C132.679 45.2281 133.952 44.6393 135.434 44.6393C135.89 44.6393 136.117 44.8482 136.117 45.2661C136.117 45.3041 136.022 45.608 135.833 46.1778C135.681 46.7096 135.605 47.3934 135.605 48.2292C135.605 49.0649 135.927 49.8057 136.573 50.4515C137.257 51.0973 138.074 51.4202 139.024 51.4202C139.973 51.4202 140.733 51.2682 141.303 50.9643C141.873 50.6224 142.272 50.2046 142.499 49.7107C142.841 49.0269 143.012 48.3811 143.012 47.7733C143.012 46.6716 142.462 45.7219 141.36 44.9242C140.258 44.1264 139.043 43.4996 137.713 43.0437C136.383 42.5879 135.168 41.8281 134.066 40.7644C132.964 39.7008 132.414 38.3712 132.414 36.7756C132.414 34.0405 133.268 31.9891 134.978 30.6215C136.725 29.2539 139.081 28.5701 142.044 28.5701C143.335 28.5701 144.684 28.7601 146.089 29.14C147.533 29.4819 148.255 30.0897 148.255 30.9634C148.255 31.7992 148.103 32.5779 147.799 33.2997C147.533 34.0215 147.191 34.3824 146.773 34.3824C146.545 34.3824 146.393 34.3064 146.317 34.1544C146.241 33.9645 146.108 33.7556 145.918 33.5276C145.729 33.2997 145.273 33.0148 144.551 32.6729C143.829 32.293 143.202 32.1031 142.67 32.1031C142.177 32.1031 141.835 32.1221 141.645 32.1601C141.493 32.1601 141.208 32.217 140.79 32.331C140.372 32.407 139.992 32.5399 139.65 32.7299C138.777 33.2237 138.34 33.9455 138.34 34.8952C138.34 35.503 138.473 35.9589 138.739 36.2628C139.005 36.5287 139.213 36.7377 139.365 36.8896C139.517 37.0416 139.783 37.2315 140.163 37.4594C140.543 37.6494 140.809 37.7823 140.961 37.8583C141.113 37.9343 141.455 38.1052 141.987 38.3712C142.518 38.5991 142.86 38.751 143.012 38.827C147.039 40.7264 149.053 43.3097 149.053 46.5767ZM150.463 32.1601L150.634 29.8807C150.672 29.5388 150.938 29.3679 151.432 29.3679H153.426L153.198 24.8093V24.5814C153.198 23.7076 153.863 22.8719 155.192 22.0741C156.522 21.2764 157.738 20.8775 158.839 20.8775C159.181 20.8775 159.352 21.0294 159.352 21.3333V21.3903C159.2 22.416 159.048 25.0562 158.896 29.3109C160.568 29.3109 161.631 29.2729 162.087 29.197C162.543 29.121 162.79 29.083 162.828 29.083C163.094 29.083 163.227 29.3109 163.227 29.7668C163.227 30.2226 163.018 30.8115 162.6 31.5332C162.182 32.217 161.726 32.5779 161.233 32.6159H158.839C158.801 33.9075 158.782 36.0919 158.782 39.1689C158.782 42.208 158.801 44.7152 158.839 46.6906C158.915 48.666 158.991 50.1666 159.067 51.1923C159.143 52.18 159.219 52.9777 159.295 53.5855C159.409 54.1934 159.485 54.6302 159.523 54.8961C159.599 55.1621 159.637 55.333 159.637 55.409C159.637 55.7889 159.39 55.9978 158.896 56.0358C157.415 56.0358 155.933 55.8269 154.452 55.409C153.008 54.9911 152.286 54.2693 152.286 53.2436C153.084 46.8616 153.483 40.0047 153.483 32.6729C152.457 32.6729 151.678 32.7109 151.147 32.7869H151.09C150.748 32.7869 150.539 32.5779 150.463 32.1601ZM168.918 39.9097L168.975 41.3343C168.975 41.5622 169.127 41.6762 169.43 41.6762C170.646 41.5622 171.71 41.2583 172.622 40.7644C173.533 40.2326 174.217 39.6438 174.673 38.998C175.585 37.5924 176.078 36.3768 176.154 35.3511L176.211 34.6673C176.211 32.6159 175.395 31.5902 173.761 31.5902C172.546 31.5902 171.558 32.1221 170.798 33.1857C169.544 34.8572 168.918 37.0986 168.918 39.9097ZM181.34 47.4884C181.34 48.932 181.036 50.2046 180.428 51.3062C179.858 52.3699 179.194 53.1677 178.434 53.6995C177.712 54.1934 176.857 54.5922 175.87 54.8961C174.616 55.276 173.419 55.466 172.28 55.466C169.089 55.466 166.733 54.2693 165.214 51.8761C163.694 49.4828 162.934 46.4437 162.934 42.7588C162.934 39.036 163.865 35.731 165.727 32.8438C167.626 29.9567 170.456 28.5132 174.217 28.5132C177.636 28.5132 179.953 29.7098 181.169 32.1031C181.663 33.0148 181.91 33.8885 181.91 34.7243C181.91 35.522 181.872 36.1678 181.796 36.6617C181.72 37.1175 181.454 37.8203 180.998 38.77C180.542 39.7198 179.934 40.5745 179.175 41.3343C178.415 42.094 177.218 42.8158 175.585 43.4996C173.951 44.1834 172.033 44.6393 169.829 44.8672C169.525 44.8672 169.374 45.0002 169.374 45.2661C169.374 45.608 169.487 46.1208 169.715 46.8046C169.981 47.4504 170.266 48.0012 170.57 48.4571C171.406 49.5208 172.641 50.0526 174.274 50.0526C175.908 50.0526 177.294 49.5208 178.434 48.4571C179.042 47.8873 179.535 47.1845 179.915 46.3487C180.067 46.0448 180.257 45.8929 180.485 45.8929C180.751 45.8929 180.96 46.1018 181.112 46.5197C181.264 46.9376 181.34 47.2605 181.34 47.4884ZM201.307 39.1119L201.534 41.1063C201.534 41.8281 200.851 42.189 199.483 42.189C196.71 42.189 195.323 41.1443 195.323 39.055C195.323 38.5611 195.456 37.8773 195.722 37.0036C195.988 36.1298 196.121 35.3701 196.121 34.7243C196.121 34.0785 195.931 33.5276 195.551 33.0718C195.171 32.5779 194.621 32.331 193.899 32.331C193.177 32.331 192.55 32.5969 192.018 33.1288C191.524 33.6226 191.221 34.1355 191.107 34.6673L190.879 35.465C190.651 36.6427 190.537 38.6181 190.537 41.3912C190.537 44.1264 190.575 46.2918 190.651 47.8873C190.727 49.4448 190.803 50.5275 190.879 51.1353C190.955 51.7051 190.993 52.047 190.993 52.161C190.993 53.1107 190.404 53.8705 189.226 54.4403C188.049 55.0481 186.871 55.352 185.693 55.352C184.516 55.352 183.927 55.1051 183.927 54.6112L184.212 52.8448C184.744 49.5398 185.009 45.2281 185.009 39.9097C185.009 34.5913 184.82 30.9824 184.44 29.083C184.44 28.6271 184.839 28.3992 185.636 28.3992C187.688 28.3992 189.055 29.102 189.739 30.5076C189.777 30.6595 189.834 30.7355 189.91 30.7355C190.024 30.7355 190.29 30.5645 190.708 30.2226C191.961 29.197 193.443 28.6841 195.152 28.6841C196.216 28.6841 197.28 28.893 198.343 29.3109C200.509 30.1847 201.591 32.0081 201.591 34.7813L201.307 39.1119Z" fill="#404733"/>
<path d="M108.787 54.9472C108.787 57.8863 107.842 60.0697 105.953 61.4972C104.105 62.9248 101.502 63.6386 98.143 63.6386C92.7686 63.6386 88.8008 61.8541 86.2396 58.2852C83.7204 54.7163 82.4608 50.0557 82.4608 44.3034C82.4608 43.3797 82.5028 42.0361 82.5867 40.2727H79.0598C78.7239 40.2727 78.556 40.1467 78.556 39.8948C78.556 39.181 78.9128 38.3203 79.6266 37.3126C80.3404 36.3049 81.1172 35.801 81.9569 35.801H83.1536C83.6994 32.7779 84.5811 30.1118 85.7988 27.8025C87.0584 25.4932 88.36 23.7087 89.7036 22.4491C91.0891 21.1895 92.6007 20.1818 94.2382 19.426C96.8414 18.1664 99.5706 17.5366 102.426 17.5366C105.281 17.5366 107.065 17.9984 107.779 18.9221C108.115 19.384 108.283 20.2447 108.283 21.5044C108.283 22.722 108.136 23.3308 107.842 23.3308C107.8 23.3308 107.611 23.2468 107.275 23.0789C106.184 22.575 104.819 22.3231 103.181 22.3231C99.6126 22.3231 96.8204 23.5827 94.805 26.102C92.8316 28.6212 91.509 31.8542 90.8372 35.801C94.0283 35.759 98.3529 35.738 103.811 35.738C104.231 35.738 104.441 35.885 104.441 36.1789C104.441 36.8507 104.105 37.7114 103.433 38.7611C102.762 39.7688 102.006 40.2727 101.166 40.2727H90.3334C90.2914 40.7765 90.2704 41.8892 90.2704 43.6107C90.2704 45.2901 90.5643 47.0746 91.1521 48.964C91.7819 50.8115 92.9156 52.386 94.5531 53.6876C96.2326 54.9892 98.3949 55.64 101.04 55.64C103.685 55.64 105.911 55.0522 107.716 53.8765C107.926 53.7086 108.115 53.6246 108.283 53.6246C108.619 53.6246 108.787 54.0655 108.787 54.9472Z" fill="#404733"/>
<path d="M231.712 36.3925H228.445C228.369 32.847 226.102 31.0743 221.645 31.0743C219.821 31.0743 218.353 31.4921 217.238 32.3279C216.124 33.1383 215.567 34.2146 215.567 35.5568C215.567 36.5698 215.896 37.3802 216.555 37.988C217.238 38.5705 218.403 39.077 220.049 39.5075L226.507 41.1789C230.61 42.2679 232.661 44.5472 232.661 48.0167C232.661 50.5238 231.661 52.5625 229.66 54.1327C227.887 55.5002 225.342 56.184 222.025 56.184C217.821 56.184 214.769 54.9177 212.87 52.3852C211.857 51.0177 211.325 49.1816 211.274 46.8771H214.541V46.953C214.541 48.9284 215.212 50.4605 216.555 51.5495C217.922 52.6132 219.821 53.145 222.253 53.145C224.481 53.145 226.14 52.7778 227.229 52.0433C228.521 51.157 229.166 49.916 229.166 48.3206C229.166 46.2946 227.508 44.8637 224.19 44.028L217.428 42.2806C213.883 41.3689 212.11 39.2796 212.11 36.0126C212.11 33.4295 213.085 31.4288 215.035 30.0106C216.732 28.7697 218.973 28.1492 221.759 28.1492C225.71 28.1492 228.533 29.3015 230.23 31.6061C231.218 32.9483 231.712 34.4045 231.712 35.9747C231.712 36.0506 231.712 36.1899 231.712 36.3925ZM250.944 47.5988H240.459L237.572 55.7661H233.887L243.574 28.5671H248.057L257.591 55.7661H253.755L250.944 47.5988ZM249.956 44.6738L245.777 32.3279L241.333 44.6738H249.956ZM263.452 28.5671V52.6891H276.861V55.7661H259.995V28.5671H263.452ZM283.391 43.3822V52.6891H299.422V55.7661H279.935V28.5671H298.776V31.6441H283.391V40.3052H298.206V43.3822H283.391Z" fill="#404733"/>
<path d="M119.785 75.041C119.785 77.7974 118.069 79.1081 115.975 79.1081C113.881 79.1081 112.165 77.7974 112.165 75.041V69.5417H113.543V75.0546C113.543 77.1083 114.61 77.9731 115.975 77.9731C117.34 77.9731 118.407 77.1083 118.407 75.0546V69.5417H119.785V75.041ZM123.488 69.5417H120.191V79H121.529V75.8112H123.488C125.65 75.8112 126.947 74.6897 126.947 72.6765C126.947 70.6632 125.65 69.5417 123.488 69.5417ZM121.529 74.7032V70.6497H123.488C124.893 70.6497 125.609 71.5009 125.609 72.6765C125.609 73.852 124.893 74.7032 123.488 74.7032H121.529ZM118.88 83.5417H111.449V84.7443H114.503V93H115.84V84.7443H118.88V83.5417ZM127.525 88.2709C127.525 85.001 125.499 83.4742 123.012 83.4471C120.526 83.4201 118.499 84.9875 118.499 88.2709C118.499 91.5407 120.526 93.0946 123.012 93.0946C125.499 93.0946 127.525 91.5407 127.525 88.2709ZM126.107 88.2709C126.107 90.8786 124.755 91.9596 123.012 91.9596C121.269 91.9596 119.918 90.8786 119.918 88.2709C119.918 85.6631 121.269 84.5551 123.012 84.5821C124.742 84.5957 126.107 85.6496 126.107 88.2709Z" fill="#404733"/>
<path d="M28.7332 82.3537C31.3632 87.8204 29.0567 94.3874 23.5814 97.0215C18.1062 99.6557 11.5356 97.3595 8.90557 91.8928C6.27557 86.4261 6.43857 75.4037 11.9138 72.7695C17.3891 70.1354 26.1032 76.8871 28.7332 82.3537Z" fill="#FBDCD6"/>
<path d="M22.7926 41.1173C18.8338 45.9766 11.6792 46.7015 6.81232 42.7365C1.94544 38.7715 1.20926 31.6181 5.16802 26.7589C9.12679 21.8996 19.5079 17.2143 24.3748 21.1792C29.2416 25.1442 26.7513 36.2581 22.7926 41.1173Z" fill="#FBDCD6"/>
<path d="M51.131 62.9934C53.213 66.652 51.9303 71.3083 48.2659 73.3936C44.6015 75.4789 39.9432 74.2034 37.8612 70.5448C35.7792 66.8862 35.3651 59.248 39.0294 57.1628C42.6938 55.0775 49.049 59.3348 51.131 62.9934Z" fill="#FBDCD6"/>
<path fill-rule="evenodd" clip-rule="evenodd" d="M84 101.944H64C67.6043 97.0491 74.8053 92.2999 79.5755 94.5948C82.0385 95.7798 83.4386 98.643 84 101.944Z" fill="#FBDCD6"/>
<path d="M319.689 36.4419C316.704 40.1049 311.311 40.6514 307.642 37.6625C303.973 34.6736 303.418 29.2811 306.403 25.618C309.387 21.955 317.212 18.423 320.881 21.4119C324.55 24.4009 322.673 32.7789 319.689 36.4419Z" fill="#FBDCD6"/>
<path d="M368.839 59.6693C372.14 67.1604 368.734 75.9137 361.231 79.2202C353.728 82.5268 344.97 79.1345 341.668 71.6434C338.367 64.1523 339.082 49.2936 346.585 45.9871C354.088 42.6805 365.537 52.1782 368.839 59.6693Z" fill="#FBDCD6"/>
<path fill-rule="evenodd" clip-rule="evenodd" d="M305 102.094H332.932C327.898 95.2583 317.841 88.6257 311.179 91.8308C307.739 93.4856 305.784 97.4843 305 102.094Z" fill="#FBDCD6"/>
<path d="M296.736 74.6062C298.818 78.2648 297.536 82.9211 293.871 85.0064C290.207 87.0917 285.549 85.8162 283.467 82.1576C281.385 78.499 280.971 70.8608 284.635 68.7756C288.299 66.6903 294.654 70.9476 296.736 74.6062Z" fill="#FBDCD6"/>
</svg>
