<svg width="792" height="142" viewBox="0 0 792 142" fill="none" xmlns="http://www.w3.org/2000/svg">
<path d="M513.51 102.871C507.799 102.871 502.841 101.524 498.639 98.8297C494.489 96.1355 491.768 92.3636 490.475 87.5141L501.306 85.0085C502.33 87.7027 503.892 89.7772 505.994 91.2321C508.149 92.6869 510.762 93.4144 513.834 93.4144C516.69 93.4144 518.926 92.7139 520.542 91.3129C522.159 89.9119 522.967 87.8913 522.967 85.251C522.967 82.8262 522.078 80.8864 520.3 79.4316C518.522 77.9767 515.962 77.2493 512.621 77.2493H506.64L508.095 68.6818H513.187C515.666 68.6818 517.633 68.0621 519.087 66.8228C520.596 65.5835 521.35 63.7784 521.35 61.4075C521.35 59.3599 520.596 57.7165 519.087 56.4771C517.579 55.2378 515.585 54.6182 513.106 54.6182C507.772 54.6182 504.512 57.3123 503.326 62.7007L492.819 60.3568C493.304 57.3932 494.516 54.7529 496.456 52.4359C498.396 50.1189 500.875 48.3407 503.892 47.1014C506.964 45.8082 510.277 45.1616 513.834 45.1616C519.653 45.1616 524.287 46.4817 527.736 49.122C531.184 51.7084 532.909 55.2378 532.909 59.7102C532.909 62.8354 531.912 65.4488 529.918 67.5502C527.924 69.6517 525.311 71.1066 522.078 71.9148C525.904 72.6692 528.948 74.2857 531.211 76.7643C533.528 79.243 534.687 82.2335 534.687 85.736C534.687 90.9627 532.828 95.1387 529.11 98.2639C525.392 101.335 520.192 102.871 513.51 102.871ZM559.566 102.871C555.256 102.871 551.403 101.712 548.008 99.3955C544.668 97.0785 542.027 93.7646 540.087 89.4539C538.202 85.0894 537.259 79.9974 537.259 74.1779C537.259 68.2507 538.202 63.1048 540.087 58.7403C542.027 54.3757 544.668 51.0349 548.008 48.7179C551.403 46.347 555.256 45.1616 559.566 45.1616C563.931 45.1616 567.784 46.347 571.124 48.7179C574.519 51.0349 577.159 54.3757 579.045 58.7403C580.985 63.1048 581.955 68.2507 581.955 74.1779C581.955 79.9974 580.985 85.0894 579.045 89.4539C577.159 93.7646 574.519 97.0785 571.124 99.3955C567.73 101.712 563.877 102.871 559.566 102.871ZM548.978 74.1779C548.978 80.4823 549.921 85.2779 551.807 88.5648C553.747 91.7979 556.333 93.4144 559.566 93.4144C562.799 93.4144 565.386 91.7979 567.326 88.5648C569.265 85.2779 570.235 80.4823 570.235 74.1779C570.235 67.7658 569.265 62.9162 567.326 59.6293C565.386 56.2886 562.799 54.6182 559.566 54.6182C556.333 54.6182 553.747 56.2886 551.807 59.6293C549.921 62.9162 548.978 67.7658 548.978 74.1779ZM624.541 45.7274H634.079L593.019 102.305H583.563L624.541 45.7274ZM583.159 56.6388C583.159 53.1364 584.236 50.3614 586.392 48.3138C588.547 46.2662 591.484 45.2424 595.202 45.2424C598.92 45.2424 601.856 46.2662 604.012 48.3138C606.167 50.3614 607.245 53.1364 607.245 56.6388C607.245 60.1412 606.167 62.9162 604.012 64.9638C601.856 67.0114 598.92 68.0352 595.202 68.0352C591.484 68.0352 588.547 67.0114 586.392 64.9638C584.236 62.9162 583.159 60.1412 583.159 56.6388ZM591.16 56.6388C591.16 58.2553 591.511 59.5485 592.211 60.5184C592.912 61.4883 593.908 61.9733 595.202 61.9733C596.495 61.9733 597.492 61.4883 598.192 60.5184C598.893 59.5485 599.243 58.2553 599.243 56.6388C599.243 55.0223 598.893 53.7291 598.192 52.7592C597.492 51.7893 596.495 51.3043 595.202 51.3043C593.908 51.3043 592.912 51.7893 592.211 52.7592C591.511 53.7291 591.16 55.0223 591.16 56.6388ZM610.397 91.4746C610.397 87.9721 611.474 85.1971 613.63 83.1495C615.785 81.102 618.722 80.0782 622.44 80.0782C626.158 80.0782 629.094 81.102 631.25 83.1495C633.405 85.1971 634.483 87.9721 634.483 91.4746C634.483 94.977 633.405 97.752 631.25 99.7996C629.094 101.847 626.158 102.871 622.44 102.871C618.722 102.871 615.785 101.847 613.63 99.7996C611.474 97.752 610.397 94.977 610.397 91.4746ZM618.398 91.4746C618.398 93.0911 618.749 94.3843 619.449 95.3542C620.15 96.3241 621.147 96.809 622.44 96.809C623.679 96.809 624.649 96.3241 625.349 95.3542C626.104 94.3843 626.481 93.0911 626.481 91.4746C626.481 89.8581 626.104 88.5648 625.349 87.5949C624.649 86.625 623.679 86.1401 622.44 86.1401C621.147 86.1401 620.15 86.625 619.449 87.5949C618.749 88.5648 618.398 89.8581 618.398 91.4746ZM680.656 102.871C674.998 102.871 670.121 101.739 666.026 99.4763C661.985 97.1593 658.887 93.8454 656.731 89.5348C654.576 85.1702 653.498 79.9974 653.498 74.0163C653.498 68.0352 654.576 62.8893 656.731 58.5786C658.887 54.214 661.985 50.9002 666.026 48.6371C670.121 46.3201 674.998 45.1616 680.656 45.1616C686.313 45.1616 691.19 46.3201 695.285 48.6371C699.38 50.9002 702.505 54.214 704.661 58.5786C706.816 62.8893 707.894 68.0352 707.894 74.0163C707.894 79.9974 706.816 85.1702 704.661 89.5348C702.505 93.8454 699.38 97.1593 695.285 99.4763C691.19 101.739 686.313 102.871 680.656 102.871ZM665.137 74.0163C665.137 80.0512 666.511 84.793 669.259 88.2415C672.061 91.6901 675.86 93.4144 680.656 93.4144C685.451 93.4144 689.223 91.6901 691.971 88.2415C694.773 84.793 696.174 80.0512 696.174 74.0163C696.174 67.9813 694.773 63.2395 691.971 59.791C689.223 56.3424 685.451 54.6182 680.656 54.6182C675.86 54.6182 672.061 56.3424 669.259 59.791C666.511 63.2395 665.137 67.9813 665.137 74.0163ZM712.229 45.7274H749.651V54.6182H723.544V70.2983H745.448V79.1891H723.544V102.305H712.229V45.7274ZM752.663 45.7274H790.086V54.6182H763.979V70.2983H785.883V79.1891H763.979V102.305H752.663V45.7274Z" fill="#404733"/>
<path d="M127.429 18.3983C127.894 17.4853 128.411 16.6118 129.15 15.8899C129.679 15.3707 130.286 14.99 131.041 14.9059C131.815 14.8202 132.466 15.051 132.98 15.6525C133.383 16.1239 133.627 16.676 133.816 17.2562C134.22 18.4956 134.349 19.7811 134.402 21.0749C134.535 24.2541 134.234 27.4069 133.797 30.5499C133.033 36.0431 131.768 41.4292 130.248 46.7575C130.027 47.5289 129.795 48.2952 129.567 49.0649C129.376 49.7143 129.251 49.8033 128.553 49.7275C127.211 49.5824 125.87 49.4275 124.53 49.2742C123.959 49.2083 123.875 49.1374 123.854 48.5326C123.791 46.6751 123.709 44.8177 123.707 42.9603C123.701 37.9467 123.991 32.9496 124.789 27.992C125.222 25.3039 125.793 22.6472 126.744 20.086C126.955 19.5174 127.198 18.962 127.427 18.4L127.429 18.3983ZM126.96 48.7386C127.016 48.5771 127.063 48.4716 127.092 48.3595C127.171 48.0579 127.254 47.7547 127.32 47.4498C128.781 40.6166 129.795 33.7127 130.604 26.7757C130.74 25.6138 130.749 24.437 130.804 23.2652C130.814 23.0526 130.784 22.8334 130.733 22.6257C130.667 22.3555 130.326 22.0407 130.123 22.0522C129.82 22.0703 129.697 22.311 129.608 22.5499C129.383 23.1531 129.135 23.7531 128.964 24.3728C128.314 26.7345 127.95 29.1523 127.615 31.575C126.881 36.8869 126.471 42.2269 126.235 47.5832C126.22 47.931 126.2 48.2788 126.182 48.6512C126.451 48.6809 126.68 48.7073 126.962 48.7386H126.96Z" fill="#404733"/>
<path d="M110.53 53.9058C108.241 52.0832 106.155 50.485 104.137 48.8046C99.1209 44.6246 94.3089 40.2204 90.2002 35.073C88.8894 33.4307 87.659 31.7263 86.7185 29.8316C86.2483 28.8822 85.8662 27.8788 85.5312 26.8694C85.1981 25.8619 85.1922 24.8084 85.4744 23.773C85.7663 22.7034 86.456 21.9444 87.3808 21.4276C87.9921 21.0871 88.6778 21.0972 89.3577 21.2434C90.4686 21.4817 91.46 22.0004 92.4123 22.6033C94.4774 23.9152 96.3054 25.5355 98.059 27.2419C102.669 31.7303 106.743 36.7014 110.534 41.9128C112.517 44.6386 114.37 47.4607 116.273 50.2486C116.68 50.8455 116.653 50.9396 116.175 51.4724C115.215 52.5399 114.251 53.6034 113.298 54.6769C112.858 55.1756 112.607 55.2457 112.044 54.8992C111.447 54.5307 110.869 54.1321 110.528 53.9058H110.53ZM113.845 52.4478C114.227 52.0552 114.247 52.0392 113.888 51.5685C111.909 48.9548 109.973 46.305 107.922 43.7534C104.141 39.0467 100.195 34.4882 95.7117 30.4505C94.7164 29.5532 93.6995 28.6799 92.4985 28.0691C91.9832 27.8067 91.5521 28.0851 91.5776 28.6719C91.5894 28.9483 91.6814 29.2307 91.7833 29.4931C92.2516 30.6988 92.9628 31.7583 93.723 32.7838C95.2728 34.8707 97.0009 36.7995 98.7917 38.6682C103.502 43.5851 108.635 48.0215 113.843 52.4498L113.845 52.4478Z" fill="#404733"/>
<path d="M101.1 69.2457L100.888 82.7988C100.888 92.1871 101.911 97.8342 103.958 99.7401C104.241 100.022 104.382 100.34 104.382 100.693C104.382 101.752 102.088 102.281 97.4996 102.281C92.9819 102.281 90.5819 100.94 90.2995 98.2578C90.2289 97.6225 90.1937 96.3166 90.1937 94.3401L90.6172 77.3988C90.6172 76.9046 90.3348 76.6576 89.7701 76.6576C86.3818 76.6576 83.2053 77.6105 80.2406 79.5164C77.2759 81.4223 75.7935 83.8576 75.7935 86.8224C75.7935 88.3753 76.217 89.6812 77.0641 90.7401C77.9112 91.7989 78.9347 92.3283 80.1347 92.3283C81.4053 92.3283 82.4289 92.0812 83.2053 91.5871C84.0524 91.093 84.5465 90.8106 84.6877 90.7401C85.8877 90.8812 86.4877 92.1518 86.4877 94.5519C86.4877 96.8813 85.3936 98.7872 83.2053 100.27C81.0171 101.681 78.723 102.387 76.3229 102.387C73.9229 102.387 71.8405 101.964 70.0758 101.117C68.3817 100.27 67.1464 99.3166 66.3699 98.2578C65.5934 97.1989 64.9581 95.9989 64.464 94.6577C63.9699 93.0342 63.7228 91.6224 63.7228 90.4224C63.7228 85.4812 65.2758 81.5282 68.3817 78.5635C71.4876 75.5987 75.4759 73.4811 80.3465 72.2105C86.7701 70.9399 90.1231 69.7751 90.4054 68.7163C90.6172 67.9398 90.7231 66.6339 90.7231 64.7986C90.7231 61.0574 88.8172 59.1868 85.0054 59.1868C83.3818 59.1868 81.9347 59.7162 80.6641 60.7751C79.3935 61.7633 78.7582 63.0339 78.7582 64.5869L79.3935 67.1281C79.2524 68.3281 77.9818 69.034 75.5817 69.2457L74.417 69.3516C72.2994 69.3516 70.6052 68.8222 69.3346 67.7634C68.1346 66.7045 67.5346 65.2928 67.5346 63.528C67.5346 62.3986 67.8876 61.1633 68.5934 59.8221C69.3699 58.4103 70.3229 57.2809 71.4523 56.4338C72.5817 55.5868 74.3111 54.8456 76.6406 54.2103C79.0406 53.5044 81.3347 53.1515 83.523 53.1515C85.7113 53.1515 87.4054 53.222 88.6054 53.3632C89.8054 53.5044 91.429 53.8573 93.476 54.4221C95.5937 54.9162 97.3231 55.9044 98.6643 57.3868C100.076 58.8692 100.817 60.4574 100.888 62.1515C101.029 63.7751 101.1 66.1398 101.1 69.2457ZM139.697 86.5047C139.697 89.54 139.097 92.1871 137.897 94.446C136.768 96.7048 135.462 98.3637 133.98 99.4225C132.497 100.481 130.733 101.328 128.686 101.964C126.003 102.811 123.568 103.234 121.38 103.234C116.791 103.234 112.98 102.352 109.944 100.587C106.909 98.7519 105.391 95.8578 105.391 91.9048C105.391 89.5753 106.027 87.6694 107.297 86.1871C109.274 83.9988 111.638 82.9047 114.391 82.9047C115.238 82.9047 115.662 83.2929 115.662 84.0694C115.662 84.14 115.485 84.7047 115.132 85.7635C114.85 86.7518 114.709 88.0224 114.709 89.5753C114.709 91.1283 115.309 92.5048 116.509 93.7048C117.78 94.9048 119.297 95.5048 121.062 95.5048C122.827 95.5048 124.238 95.2225 125.297 94.6577C126.356 94.0224 127.097 93.246 127.521 92.3283C128.156 91.0577 128.474 89.8577 128.474 88.7283C128.474 86.6812 127.45 84.9165 125.403 83.4341C123.356 81.9517 121.097 80.787 118.627 79.9399C116.156 79.0929 113.897 77.6811 111.85 75.7046C109.803 73.7281 108.779 71.2575 108.779 68.2928C108.779 63.2104 110.368 59.3986 113.544 56.8574C116.791 54.3162 121.168 53.0456 126.674 53.0456C129.074 53.0456 131.58 53.3985 134.192 54.1044C136.874 54.7397 138.215 55.8691 138.215 57.4927C138.215 59.0456 137.933 60.4927 137.368 61.8339C136.874 63.1751 136.239 63.8457 135.462 63.8457C135.039 63.8457 134.756 63.7045 134.615 63.4221C134.474 63.0692 134.227 62.681 133.874 62.2574C133.521 61.8339 132.674 61.3045 131.333 60.6692C129.991 59.9633 128.827 59.6103 127.838 59.6103C126.921 59.6103 126.286 59.6456 125.933 59.7162C125.65 59.7162 125.121 59.8221 124.344 60.0339C123.568 60.1751 122.862 60.4221 122.227 60.7751C120.603 61.6927 119.791 63.0339 119.791 64.7986C119.791 65.9281 120.038 66.7751 120.533 67.3398C121.027 67.834 121.415 68.2222 121.697 68.5045C121.98 68.7869 122.474 69.1398 123.18 69.5634C123.886 69.9163 124.38 70.1634 124.662 70.3046C124.944 70.4457 125.58 70.7634 126.568 71.2575C127.556 71.681 128.191 71.9634 128.474 72.1046C135.956 75.634 139.697 80.4341 139.697 86.5047ZM142.318 59.7162L142.636 55.4809C142.706 54.8456 143.2 54.5279 144.118 54.5279H147.824L147.4 46.0573V45.6337C147.4 44.0102 148.636 42.4572 151.106 40.9749C153.577 39.4925 155.836 38.7513 157.883 38.7513C158.518 38.7513 158.836 39.0337 158.836 39.5984V39.7043C158.553 41.6102 158.271 46.5161 157.989 54.4221C161.095 54.4221 163.071 54.3515 163.918 54.2103C164.765 54.0691 165.224 53.9985 165.295 53.9985C165.789 53.9985 166.036 54.4221 166.036 55.2691C166.036 56.1162 165.648 57.2103 164.871 58.5515C164.095 59.8221 163.248 60.4927 162.33 60.5633H157.883C157.812 62.9633 157.777 67.0222 157.777 72.7399C157.777 78.387 157.812 83.0459 157.883 86.7165C158.024 90.3871 158.165 93.1754 158.306 95.0813C158.448 96.9166 158.589 98.399 158.73 99.5284C158.942 100.658 159.083 101.47 159.154 101.964C159.295 102.458 159.365 102.775 159.365 102.917C159.365 103.623 158.906 104.011 157.989 104.081C155.236 104.081 152.483 103.693 149.73 102.917C147.048 102.14 145.706 100.799 145.706 98.8931C147.189 87.0341 147.93 74.2928 147.93 60.6692C146.024 60.6692 144.577 60.7398 143.589 60.8809H143.483C142.847 60.8809 142.459 60.4927 142.318 59.7162ZM176.61 74.1164L176.716 76.7634C176.716 77.187 176.998 77.3988 177.563 77.3988C179.822 77.187 181.798 76.6223 183.493 75.7046C185.187 74.7164 186.457 73.6222 187.304 72.4222C188.999 69.8104 189.916 67.5516 190.057 65.6457L190.163 64.3751C190.163 60.5633 188.646 58.6574 185.61 58.6574C183.351 58.6574 181.516 59.6456 180.104 61.6221C177.775 64.728 176.61 68.8928 176.61 74.1164ZM199.693 88.1989C199.693 90.8812 199.128 93.246 197.999 95.293C196.94 97.2695 195.704 98.7519 194.293 99.7401C192.952 100.658 191.363 101.399 189.528 101.964C187.199 102.67 184.975 103.023 182.857 103.023C176.928 103.023 172.551 100.799 169.728 96.3519C166.904 91.9048 165.492 86.2577 165.492 79.4105C165.492 72.4928 167.222 66.3516 170.681 60.9868C174.21 55.6221 179.469 52.9397 186.457 52.9397C192.81 52.9397 197.116 55.1632 199.375 59.6103C200.293 61.3045 200.752 62.928 200.752 64.481C200.752 65.9633 200.681 67.1634 200.54 68.081C200.399 68.9281 199.905 70.234 199.057 71.9987C198.21 73.7634 197.081 75.3517 195.669 76.7634C194.257 78.1752 192.034 79.5164 188.999 80.787C185.963 82.0576 182.398 82.9047 178.304 83.3282C177.74 83.3282 177.457 83.5753 177.457 84.0694C177.457 84.7047 177.669 85.6577 178.093 86.9283C178.587 88.1283 179.116 89.1518 179.681 89.9989C181.234 91.9754 183.528 92.9636 186.563 92.9636C189.599 92.9636 192.175 91.9754 194.293 89.9989C195.422 88.94 196.34 87.6341 197.046 86.0812C197.328 85.5165 197.681 85.2341 198.105 85.2341C198.599 85.2341 198.987 85.6224 199.269 86.3988C199.552 87.1753 199.693 87.7753 199.693 88.1989ZM236.794 72.634L237.218 76.3399C237.218 77.6811 235.947 78.3517 233.406 78.3517C228.253 78.3517 225.676 76.4105 225.676 72.5281C225.676 71.6105 225.923 70.3399 226.418 68.7163C226.912 67.0928 227.159 65.681 227.159 64.481C227.159 63.281 226.806 62.2574 226.1 61.4104C225.394 60.4927 224.37 60.0339 223.029 60.0339C221.688 60.0339 220.523 60.528 219.535 61.5162C218.617 62.4339 218.053 63.3869 217.841 64.3751L217.417 65.8575C216.994 68.0457 216.782 71.7163 216.782 76.8693C216.782 81.9517 216.853 85.9753 216.994 88.94C217.135 91.8342 217.276 93.846 217.417 94.9754C217.559 96.0342 217.629 96.6695 217.629 96.8813C217.629 98.646 216.535 100.058 214.347 101.117C212.159 102.246 209.97 102.811 207.782 102.811C205.594 102.811 204.5 102.352 204.5 101.434L205.029 98.1519C206.017 92.0107 206.511 83.9988 206.511 74.1164C206.511 64.2339 206.159 57.528 205.453 53.9985C205.453 53.1515 206.194 52.7279 207.676 52.7279C211.488 52.7279 214.029 54.0338 215.3 56.6456C215.37 56.928 215.476 57.0691 215.617 57.0691C215.829 57.0691 216.323 56.7515 217.1 56.1162C219.429 54.2103 222.182 53.2573 225.359 53.2573C227.335 53.2573 229.312 53.6456 231.288 54.4221C235.312 56.0456 237.324 59.4339 237.324 64.5869L236.794 72.634Z" fill="#404733"/>
<path d="M63.837 101.767C63.837 107.229 62.0816 111.286 58.5707 113.938C55.1379 116.591 50.3007 117.917 44.0591 117.917C34.0726 117.917 26.6998 114.601 21.9406 107.97C17.2595 101.338 14.9189 92.678 14.9189 81.9893C14.9189 80.2729 14.9969 77.7763 15.153 74.4995H8.59933C7.97517 74.4995 7.66309 74.2654 7.66309 73.7973C7.66309 72.471 8.32626 70.8716 9.65259 68.9991C10.9789 67.1266 12.4223 66.1904 13.9827 66.1904H16.2062C17.2205 60.573 18.8589 55.6188 21.1214 51.3277C23.462 47.0367 25.8806 43.7208 28.3772 41.3802C30.9519 39.0397 33.7606 37.1672 36.8033 35.7629C41.6405 33.4223 46.7118 32.252 52.0171 32.252C57.3224 32.252 60.6382 33.1102 61.9645 34.8266C62.5887 35.6848 62.9008 37.2842 62.9008 39.6248C62.9008 41.8874 62.6277 43.0187 62.0816 43.0187C62.0036 43.0187 61.6525 42.8626 61.0283 42.5505C58.9998 41.6143 56.4642 41.1462 53.4214 41.1462C46.7898 41.1462 41.6015 43.4868 37.8566 48.1679C34.1897 52.8491 31.7321 58.8566 30.4837 66.1904C36.4132 66.1124 44.4492 66.0734 54.5917 66.0734C55.3719 66.0734 55.762 66.3464 55.762 66.8926C55.762 68.1409 55.1379 69.7403 53.8895 71.6908C52.6412 73.5632 51.2369 74.4995 49.6765 74.4995H29.5475C29.4695 75.4357 29.4305 77.5032 29.4305 80.702C29.4305 83.8228 29.9766 87.1386 31.0689 90.6495C32.2392 94.0823 34.3457 97.008 37.3885 99.4266C40.5092 101.845 44.5272 103.055 49.4424 103.055C54.3577 103.055 58.4927 101.962 61.8475 99.7777C62.2376 99.4656 62.5887 99.3096 62.9008 99.3096C63.5249 99.3096 63.837 100.129 63.837 101.767Z" fill="#404733"/>
<path d="M293.078 68.0201H287.008C286.867 61.432 282.655 58.138 274.373 58.138C270.985 58.138 268.255 58.9144 266.185 60.4673C264.114 61.9732 263.079 63.9732 263.079 66.4672C263.079 68.3496 263.691 69.8554 264.914 70.9848C266.185 72.0671 268.349 73.0083 271.408 73.8083L283.408 76.9141C291.031 78.9376 294.843 83.1728 294.843 89.6198C294.843 94.2785 292.984 98.0667 289.267 100.984C285.973 103.525 281.243 104.796 275.079 104.796C267.267 104.796 261.597 102.443 258.067 97.7373C256.185 95.1962 255.197 91.7844 255.102 87.5022H261.173V87.6433C261.173 91.3139 262.42 94.1609 264.914 96.1844C267.455 98.1608 270.985 99.149 275.502 99.149C279.643 99.149 282.726 98.4667 284.749 97.102C287.149 95.455 288.349 93.1491 288.349 90.1845C288.349 86.4198 285.267 83.7611 279.102 82.2081L266.538 78.9611C259.949 77.267 256.655 73.3848 256.655 67.3143C256.655 62.5144 258.467 58.7968 262.091 56.1615C265.243 53.8557 269.408 52.7028 274.585 52.7028C281.926 52.7028 287.173 54.8439 290.325 59.1262C292.161 61.6203 293.078 64.3261 293.078 67.2437C293.078 67.3849 293.078 67.6437 293.078 68.0201ZM328.815 88.8433H309.333L303.968 104.02H297.121L315.121 53.4792H323.45L341.167 104.02H334.038L328.815 88.8433ZM326.979 83.4081L319.215 60.4673L310.956 83.4081H326.979ZM352.057 53.4792V98.302H376.974V104.02H345.634V53.4792H352.057ZM389.108 81.0082V98.302H418.896V104.02H382.685V53.4792H417.696V59.1968H389.108V75.2906H416.637V81.0082H389.108Z" fill="#404733"/>
</svg>
