<svg xmlns="http://www.w3.org/2000/svg" width="241.749" height="27.776" viewBox="0 0 241.749 27.776">
    <g id="Group_684" data-name="Group 684" transform="translate(-678.688 -2544.202)">
        <g id="Group_593" data-name="Group 593">
            <g id="Group_592" data-name="Group 592">
            <path id="Path_685" data-name="Path 685" d="M862.382,2558.181a6.737,6.737,0,0,1,2.824,1.4,6.058,6.058,0,0,1,1.931,3.31c.268,1.143.372,2.312.6,3.461a5.314,5.314,0,0,0,.148.535,1.191,1.191,0,0,0,1.212.881c.378.015.38.019.354.389-.028.4-.074.8-.085,1.2-.005.213-.106.282-.286.288a19.321,19.321,0,0,1-2.76-.03,5.937,5.937,0,0,1-1.49-.338,3.407,3.407,0,0,1-1.993-2.327,23.883,23.883,0,0,1-.7-3.38,8.782,8.782,0,0,0-.6-2.225,3.354,3.354,0,0,0-2.54-1.921,8.577,8.577,0,0,0-1.525-.142c-.174,0-.245.039-.244.231.006,2.225-.007,4.451.008,6.676.008,1.191.4,1.539,1.659,1.567.39.008.781.014,1.172.012.141,0,.2.033.187.19-.044.491-.076.982-.109,1.474-.008.124-.062.189-.189.19h-9.915c-.356,0-.352,0-.325-.354.034-.426.067-.852.086-1.279.007-.161.053-.226.225-.238.612-.043,1.222-.109,1.834-.153.186-.014.278-.05.278-.272-.007-5.121,0-10.241-.012-15.362a5.258,5.258,0,0,0-.309-1.943,2.141,2.141,0,0,0-2.043-1.453c-.214-.01-.267-.07-.26-.273.015-.437.011-.875,0-1.313,0-.172.036-.248.23-.247,3.286.02,6.574-.061,9.858.044a15.51,15.51,0,0,1,5.138.921,5.142,5.142,0,0,1,2.822,2.2,4.808,4.808,0,0,1-.8,5.83,9.049,9.049,0,0,1-4.042,2.308A.611.611,0,0,0,862.382,2558.181Zm-5.157-5.277c0,1.369.005,2.738,0,4.106,0,.205.046.269.26.267a8.5,8.5,0,0,0,2.207-.283,4.057,4.057,0,0,0,2.591-1.838,4.889,4.889,0,0,0,.552-2.993,3.462,3.462,0,0,0-2.121-3.005,7.875,7.875,0,0,0-3.209-.6c-.215,0-.283.047-.281.274C857.231,2550.186,857.225,2551.545,857.225,2552.9Z"/>
            <path id="Path_686" data-name="Path 686" d="M683.689,2546.68c1.535,0,3.073-.047,4.606.011a13.466,13.466,0,0,1,6.431,1.673,8.748,8.748,0,0,1,3.964,4.955,15.472,15.472,0,0,1,.63,6.335,11.356,11.356,0,0,1-1.467,4.807,9.616,9.616,0,0,1-5.231,4.245,14.637,14.637,0,0,1-4.728.828c-2.848.059-5.7.008-8.544.028-.184,0-.243-.051-.226-.239q.067-.736.1-1.474c.007-.153.1-.157.2-.165.685-.053,1.37-.113,2.056-.157.193-.012.268-.061.268-.276q-.011-7.735-.008-15.47a4.937,4.937,0,0,0-.332-1.909,2.1,2.1,0,0,0-1.712-1.3,5.545,5.545,0,0,0-.8-.076c-.165,0-.205-.066-.2-.216.006-.457.011-.913,0-1.369-.006-.2.061-.25.254-.249,1.582.007,3.164,0,4.747,0Zm10.373,11.653a16.3,16.3,0,0,0-.795-5.8,5.341,5.341,0,0,0-3.007-3.329,8.985,8.985,0,0,0-3.053-.562c-.28-.013-.33.077-.33.339q.012,8.658.007,17.314a4.178,4.178,0,0,0,.024.5.729.729,0,0,0,.754.712,5.4,5.4,0,0,0,2.928-.647,6.378,6.378,0,0,0,2.941-4.091A14.763,14.763,0,0,0,694.062,2558.333Z"/>
            <path id="Path_687" data-name="Path 687" d="M813.632,2546.735c1.694,0,3.389,0,5.083-.005.224,0,.285.063.278.28-.015.447-.012.894,0,1.341,0,.166-.046.223-.214.238-.676.062-1.35.144-2.026.207-.185.017-.228.049-.12.225q1.752,2.863,3.49,5.734c.154.254.218.076.3-.04q1.243-1.851,2.483-3.7c.31-.463.632-.919.925-1.392.382-.619.275-.832-.45-.91-.527-.057-1.055-.1-1.583-.13-.191-.012-.247-.076-.241-.267.015-.446.011-.894,0-1.34,0-.173.035-.242.23-.241q3.882.009,7.764,0c.181,0,.246.052.242.238-.011.456-.01.912,0,1.368,0,.163-.043.229-.213.244-.713.066-1.423.151-2.136.215a.418.418,0,0,0-.337.2q-2.7,3.808-5.411,7.61a.373.373,0,0,0,0,.51q3.087,4.607,6.159,9.223a3.559,3.559,0,0,0,1.159,1.185,2.246,2.246,0,0,0,1.27.238c.2-.011.256.047.235.25-.046.444-.071.889-.095,1.335-.01.19-.091.248-.279.248q-5.042-.007-10.083,0c-.167,0-.23-.035-.214-.218.043-.462.067-.927.095-1.391.009-.153.065-.226.236-.238.64-.042,1.278-.109,1.917-.15.249-.016.221-.095.112-.26q-1.073-1.629-2.135-3.264c-.564-.863-1.134-1.722-1.689-2.59-.126-.2-.187-.162-.3,0q-1.806,2.614-3.62,5.223a2.889,2.889,0,0,0-.2.333c-.191.375-.111.545.3.583.462.042.928.048,1.392.071.371.019.742.046,1.113.058.143.005.2.055.186.2q-.054.736-.1,1.475c-.007.12-.06.162-.173.164-.2.006-.408.027-.612.027-2.588,0-5.176,0-7.764.008-.282,0-.354-.084-.318-.346.061-.443.106-.887.146-1.332.013-.143.071-.182.207-.191.714-.05,1.427-.116,2.141-.162a.464.464,0,0,0,.387-.214q2.841-3.966,5.693-7.922a.307.307,0,0,0,.006-.413q-2.965-4.586-5.919-9.178a2.75,2.75,0,0,0-2.441-1.306c-.231,0-.307-.059-.292-.293q.037-.627.025-1.255c-.005-.218.056-.287.281-.286,1.3.01,2.606.005,3.91.005Z"/>
            <path id="Path_688" data-name="Path 688" d="M797.939,2546.735c2.7,0,5.4,0,8.1-.005.247,0,.344.042.375.322.17,1.552.366,3.1.56,4.652.069.545.078.543-.474.543-.307,0-.615-.015-.921.006a.47.47,0,0,1-.477-.256,12.723,12.723,0,0,1-1.117-2.513c-.041-.114-.075-.23-.111-.345a.436.436,0,0,0-.409-.323c-.185-.016-.371-.04-.556-.04-1.648,0-3.3,0-4.943-.007-.241,0-.293.078-.292.3q.011,3.672,0,7.345c0,.22.056.294.281.284,1.086-.046,2.173.076,3.261-.033a1.886,1.886,0,0,0,1.979-1.773c.033-.172.1-.211.253-.209.353.007.708.016,1.061,0,.234-.013.3.066.3.3-.009,1.638,0,3.277,0,4.915,0,.289-.013.578,0,.866.013.223-.045.321-.29.305a3.654,3.654,0,0,1-.969-.031c-.293-.107-.4-.485-.574-.755a2.527,2.527,0,0,0-2.361-1.2c-.894.013-1.788.008-2.681,0-.194,0-.258.054-.257.252q.008,3.867,0,7.736c0,.326.105.453.4.452,1.349-.008,2.7.053,4.047-.036a3.251,3.251,0,0,0,2.111-.75,3.767,3.767,0,0,0,.862-1.382c.231-.557.474-1.11.682-1.675a.932.932,0,0,1,.946-.676,4.669,4.669,0,0,1,.943.077c.183.037.217.113.2.283-.105.952-.2,1.905-.3,2.857-.107,1.027-.223,2.052-.318,3.079-.023.243-.094.329-.353.329q-7.877-.012-15.752-.007c-.344,0-.688-.024-1.032-.024-.148,0-.2-.055-.191-.2.037-.5.075-1,.1-1.5.008-.147.105-.13.192-.137.686-.057,1.371-.118,2.057-.162.2-.013.27-.066.27-.278q-.009-7.848-.006-15.7a4.486,4.486,0,0,0-.31-1.717,2.233,2.233,0,0,0-2.061-1.328h-.028c-.2-.015-.485.045-.585-.064-.134-.145-.037-.424-.042-.645-.007-.289.014-.579-.007-.866-.017-.23.07-.272.282-.271,2.308.007,4.617,0,6.926,0Z"/>
            <path id="Path_689" data-name="Path 689" d="M878.779,2569.621H870.6c-.37,0-.372,0-.349-.357.028-.417.068-.834.087-1.252.008-.172.061-.243.243-.256.63-.044,1.258-.112,1.888-.159.168-.013.238-.076.225-.239,0-.047,0-.093,0-.14q0-7.722,0-15.445a4.811,4.811,0,0,0-.322-1.883,2.19,2.19,0,0,0-1.983-1.311c-.1-.011-.2-.018-.306-.02-.431-.01-.431-.009-.431-.454,0-.391.005-.782,0-1.173,0-.145.048-.208.192-.2.056,0,.112,0,.168,0q8.1,0,16.2,0c.218,0,.324.028.352.284.149,1.368.321,2.733.485,4.1.036.3.059.612.106.915.024.16-.016.222-.182.22-.456-.006-.913-.007-1.369,0-.174,0-.241-.116-.32-.229a9.57,9.57,0,0,1-.994-2.109c-.092-.242-.177-.488-.252-.736a.482.482,0,0,0-.446-.359,4.994,4.994,0,0,0-.584-.041c-1.63,0-3.259,0-4.888-.007-.229,0-.3.055-.3.292.009,2.457.005,4.915.006,7.373,0,.121-.046.266.174.266a33.279,33.279,0,0,0,3.458-.036,1.836,1.836,0,0,0,1.868-1.688c.044-.242.137-.305.364-.292a8.7,8.7,0,0,0,.977,0c.235-.014.3.065.3.3-.009,1.7,0,3.407,0,5.111,0,.233-.017.467,0,.7.024.258-.09.282-.318.313a1.3,1.3,0,0,1-1.517-.769,2.1,2.1,0,0,0-1.407-1.145,5.052,5.052,0,0,0-1.135-.118c-.837,0-1.675.014-2.512.01-.192,0-.255.047-.255.246.007,2.579,0,5.158.006,7.737,0,.322.108.458.392.456,1.368-.009,2.736.047,4.1-.033a4.881,4.881,0,0,0,1.043-.181,2.846,2.846,0,0,0,1.863-1.885c.254-.627.516-1.252.769-1.88a.784.784,0,0,1,.7-.515,3.6,3.6,0,0,1,1.138.066c.145.033.2.081.183.241-.144,1.331-.279,2.663-.418,3.995-.068.647-.162,1.293-.2,1.942-.017.306-.13.357-.4.357C884.253,2569.617,881.516,2569.621,878.779,2569.621Z"/>
            <path id="Path_690" data-name="Path 690" d="M836.834,2569.619c-1.759,0-3.519,0-5.278,0-.219,0-.3-.054-.279-.281.044-.462.074-.926.1-1.39.007-.139.043-.192.19-.2.556-.043,1.11-.11,1.666-.149.2-.015.293-.058.293-.29q-.011-7.917-.009-15.834a4.08,4.08,0,0,0-.263-1.448,2.222,2.222,0,0,0-2.167-1.46c-.23-.011-.277-.085-.27-.293.014-.418.018-.838,0-1.256-.011-.245.063-.322.313-.317,1.227.023,2.456.005,3.684.027,1.647.029,3.295,0,4.943.01a19.773,19.773,0,0,1,5.079.616,7.239,7.239,0,0,1,3.159,1.635,5.1,5.1,0,0,1,1.557,3.756,6.742,6.742,0,0,1-1.616,4.82,7.4,7.4,0,0,1-3.847,2.276,11.047,11.047,0,0,1-5.22.025c-.2-.045-.238.013-.237.2.005,1.853,0,3.705.006,5.558a6.8,6.8,0,0,0,.074.888c.1.724.515,1.075,1.337,1.172a16.382,16.382,0,0,0,2.256.076c.245-.005.3.07.274.3-.047.415-.073.833-.094,1.251-.012.229-.1.314-.341.313C840.372,2569.614,838.6,2569.619,836.834,2569.619Zm1.8-16.417c0,1.488,0,2.977,0,4.466,0,.2.06.273.267.283a7.422,7.422,0,0,0,2.3-.176,4.055,4.055,0,0,0,2.734-2.107,5.524,5.524,0,0,0,.443-3.345,3.824,3.824,0,0,0-1.791-2.853,7.122,7.122,0,0,0-3.768-.914c-.213,0-.179.135-.179.263Z"/>
            <path id="Path_691" data-name="Path 691" d="M714.6,2569.534c-1.629,0-3.258-.006-4.887.005-.26,0-.315-.079-.287-.32.051-.443.077-.889.106-1.334.009-.136.054-.185.2-.194.854-.048,1.706-.116,2.559-.162.21-.012.295-.024.225-.282-.4-1.461-.773-2.926-1.146-4.393a.233.233,0,0,0-.266-.211q-3.422,0-6.842,0a.218.218,0,0,0-.246.166c-.334.974-.71,1.935-1.009,2.919-.377,1.239.249,1.668,1.259,1.867a7.931,7.931,0,0,0,1.693.1c.15,0,.2.052.193.194-.037.482-.078.963-.106,1.446-.009.159-.075.2-.226.2-.512-.007-1.024,0-1.536,0-2.122,0-4.244,0-6.367,0-.246,0-.349-.035-.306-.323.062-.412.071-.832.094-1.25.01-.186.073-.272.28-.287.574-.042,1.146-.12,1.72-.166.192-.016.217-.152.264-.275q.7-1.835,1.386-3.671,1.965-5.221,3.93-10.443c.785-2.083,1.576-4.164,2.354-6.249a.269.269,0,0,1,.3-.214c1.173,0,2.346.008,3.518,0,.194,0,.251.079.3.24.439,1.515.884,3.029,1.325,4.544q.931,3.194,1.86,6.389.973,3.34,1.946,6.682c.177.606.345,1.215.535,1.816a1.8,1.8,0,0,0,1.757,1.335c.158.006.316.029.474.022.2-.01.28.062.259.273-.044.463-.078.927-.1,1.391-.01.232-.166.183-.295.183Q717.06,2569.535,714.6,2569.534Zm-6.265-18.314-.057.007q-.252.675-.5,1.351-1.387,3.758-2.775,7.517c-.123.335-.12.336.247.336h5.165c.3,0,.32-.024.243-.32-.152-.584-.308-1.167-.46-1.751q-.541-2.09-1.081-4.178Q708.728,2552.7,708.337,2551.22Z"/>
            <path id="Path_692" data-name="Path 692" d="M758.374,2556.986q1.435-2.724,2.867-5.443c.284-.541.6-1.069.833-1.635a3.492,3.492,0,0,0,.178-.556.54.54,0,0,0-.406-.711,5.2,5.2,0,0,0-1.519-.153c-.558-.006-.558,0-.558-.549,0-.336.015-.671-.005-1-.013-.224.06-.277.279-.277,2.243.008,4.486.005,6.73.005.2,0,.392.011.586,0s.263.044.256.247c-.015.446-.013.894,0,1.34.005.177-.054.252-.226.27-.62.063-1.238.137-1.858.2a.359.359,0,0,0-.322.21q-2.882,5.34-5.777,10.672a.787.787,0,0,0-.093.4q0,3,0,6.005a1.4,1.4,0,0,0,1.461,1.6,16.265,16.265,0,0,0,2.033.093c.2,0,.26.058.244.251-.038.482-.066.965-.09,1.447-.006.134-.062.183-.189.172-.065-.005-.13,0-.2,0q-4.9,0-9.8,0c-.446,0-.892-.023-1.338-.022-.162,0-.214-.056-.2-.214.053-.48.107-.961.14-1.443.012-.172.1-.189.231-.2.816-.056,1.632-.122,2.448-.167.188-.011.231-.072.231-.248q-.008-3.659,0-7.317a.784.784,0,0,0-.106-.4c-1.8-3.214-3.6-6.425-5.388-9.649a2.551,2.551,0,0,0-2.407-1.412c-.241,0-.3-.08-.29-.3.016-.409.022-.82,0-1.228-.015-.261.083-.3.318-.3,3.22.008,6.441,0,9.662.008.266,0,.608-.119.779.058.156.161.038.5.045.754s-.008.522.005.782c.009.168-.05.229-.216.241-.6.042-1.2.1-1.8.145-.241.019-.481.044-.722.053-.217.008-.274.054-.155.274.663,1.223,1.312,2.454,1.965,3.682q1.09,2.052,2.182,4.1C758.221,2556.836,758.242,2556.938,758.374,2556.986Z"/>
            <path id="Path_693" data-name="Path 693" d="M912.506,2570.089a7.507,7.507,0,0,1-4.527-1.228.231.231,0,0,0-.317.025,4.06,4.06,0,0,1-2.251.71c-.229.016-.21-.118-.2-.262q.141-1.416.285-2.831c.13-1.277.266-2.552.388-3.83.019-.2.058-.292.278-.252a2.421,2.421,0,0,0,.419.006,1.162,1.162,0,0,1,1.307,1.028,8.9,8.9,0,0,0,1.1,2.754,4.3,4.3,0,0,0,5.739,1.334,3.372,3.372,0,0,0,.2-5.557,15.179,15.179,0,0,0-3.335-1.709,10.61,10.61,0,0,1-4.011-2.643,7.3,7.3,0,0,1-.93-7.953,6.305,6.305,0,0,1,3.555-2.921,10.081,10.081,0,0,1,4.205-.518,5.476,5.476,0,0,1,2.862.985.3.3,0,0,0,.413.009,3.237,3.237,0,0,1,1.615-.555c.215-.021.323.034.321.285a33.65,33.65,0,0,0,.508,5.632c.074.457.077.456-.4.456-.363,0-.728-.02-1.089.006a.436.436,0,0,1-.519-.35,11.089,11.089,0,0,0-1.372-2.7,4.241,4.241,0,0,0-5.067-1.55,2.938,2.938,0,0,0-1.876,3.2,3.68,3.68,0,0,0,2.154,2.917,25.99,25.99,0,0,0,2.985,1.3,12.152,12.152,0,0,1,3.05,1.764,6.275,6.275,0,0,1,2.4,4.431,7.153,7.153,0,0,1-1.4,5.169,7.07,7.07,0,0,1-3.766,2.5A8.285,8.285,0,0,1,912.506,2570.089Z"/>
            <path id="Path_694" data-name="Path 694" d="M896.205,2570.086a7.453,7.453,0,0,1-4.543-1.223c-.085-.055-.154-.087-.248-.012a3.926,3.926,0,0,1-2.263.75c-.242.018-.259-.068-.239-.261.1-.925.184-1.85.279-2.775.135-1.313.277-2.625.407-3.939.015-.152.054-.212.213-.2.231.015.466,0,.7.019a1.079,1.079,0,0,1,1.016.813,17.3,17.3,0,0,0,.591,1.884,4.8,4.8,0,0,0,2.261,2.581,4.361,4.361,0,0,0,4.725-.7,3.207,3.207,0,0,0,.858-1.865c.244-1.767-.681-2.856-2.1-3.671a30.807,30.807,0,0,0-3.005-1.384,9.644,9.644,0,0,1-3.863-2.8,6.571,6.571,0,0,1-1.378-3.559,7.035,7.035,0,0,1,.654-3.905,6.415,6.415,0,0,1,4.093-3.247,9.958,9.958,0,0,1,4-.343,5.426,5.426,0,0,1,2.58.973.338.338,0,0,0,.461.017,3,3,0,0,1,1.675-.532c.173,0,.25.035.245.229a30.748,30.748,0,0,0,.353,4.724c.052.4.124.789.212,1.178.044.192-.019.225-.187.223-.484-.006-.969-.016-1.452,0a.348.348,0,0,1-.4-.279,11.418,11.418,0,0,0-1.371-2.724,4.218,4.218,0,0,0-5.579-1.387,3.146,3.146,0,0,0-1.371,3.215,3.8,3.8,0,0,0,2.12,2.7,24.493,24.493,0,0,0,2.956,1.288,11.041,11.041,0,0,1,3.7,2.334,6.159,6.159,0,0,1,1.8,4.03,7.277,7.277,0,0,1-.87,4.192,7.006,7.006,0,0,1-4.3,3.318A7.848,7.848,0,0,1,896.205,2570.086Z"/>
            <path id="Path_695" data-name="Path 695" d="M741.527,2569.559q-3.6,0-7.2,0c-.576,0-1.153-.021-1.729-.021-.157,0-.22-.049-.208-.208.038-.491.071-.983.1-1.474.012-.183.151-.161.266-.17.769-.058,1.538-.12,2.308-.163.205-.011.259-.07.259-.276q-.009-7.988-.008-15.974a3.173,3.173,0,0,0-.483-1.777,2.181,2.181,0,0,0-1.64-.936,7.508,7.508,0,0,0-.749-.068c-.153,0-.188-.072-.187-.207,0-.475.006-.949,0-1.424,0-.142.043-.211.191-.2.055,0,.111,0,.167,0q5.7,0,11.394-.007c.288,0,.366.075.349.356a10.915,10.915,0,0,0,0,1.2c.01.219-.066.3-.278.308-.9.041-1.8.092-2.7.141-.25.014-.5.042-.75.053-.128.006-.19.053-.181.185,0,.065,0,.13,0,.2v17.592c0,.075,0,.15,0,.224.019.414.146.553.566.551,1.033,0,2.065.018,3.1-.029a2.807,2.807,0,0,0,2.581-1.684c.42-.86.778-1.744,1.11-2.641.266-.719.488-.872,1.262-.871a3.989,3.989,0,0,1,.721.07c.174.032.22.1.2.281-.106.98-.192,1.961-.294,2.941-.129,1.249-.275,2.495-.391,3.745-.024.255-.117.292-.342.291Q745.241,2569.553,741.527,2569.559Z"/>
            <path id="Path_696" data-name="Path 696" d="M725.587,2546.662c1.778,0,3.556,0,5.334-.005.246,0,.324.061.31.31-.021.409-.017.82,0,1.229.009.224-.06.311-.291.326-.769.05-1.537.13-2.307.176-.24.014-.3.087-.3.327q.014,5.013.006,10.026,0,3.156,0,6.312a4.959,4.959,0,0,0,.136,1.243,1.2,1.2,0,0,0,.991.9,8.878,8.878,0,0,0,1.912.181c.208,0,.252.075.236.259-.039.463-.074.927-.1,1.391-.008.15-.078.195-.209.194h-.168c-3.379,0-6.759,0-10.138.007-.282,0-.346-.083-.318-.342.044-.406.066-.815.088-1.223.01-.2.086-.288.3-.3.613-.034,1.223-.114,1.835-.137.278-.011.312-.126.308-.358-.012-.7-.005-1.4-.005-2.095q0-6.857,0-13.713a3.43,3.43,0,0,0-.261-1.386,2.437,2.437,0,0,0-1.991-1.427,5.076,5.076,0,0,0-.776-.068c-.175,0-.223-.061-.22-.228.009-.447.015-.894,0-1.34-.007-.211.055-.269.265-.267,1.07.011,2.141.005,3.211.005Z"/>
            <path id="Path_697" data-name="Path 697" d="M775.886,2554.468a.306.306,0,0,0,.226.029.814.814,0,0,0,.153.058c.87.146,1.729.342,2.584.556a20.181,20.181,0,0,1,4.052,1.356.377.377,0,0,1,.248.437c-.033.229-.081.456-.123.684-.159.06-.112.167-.062.274l-.026.173a.339.339,0,0,0-.073.391l-.012.112c-.134.042-.113.125-.057.218a.322.322,0,0,1-.034.229c-.1.1-.169.2-.064.335l-.014.112c-.156.06-.1.168-.061.271a.233.233,0,0,1-.026.175c-.079.1-.16.2-.068.335l-.021.168c-.139.055-.073.167-.072.261a.392.392,0,0,1-.026.244c-.082.057-.144.119-.054.219l-.015.114c-.139.057-.075.168-.07.264a.38.38,0,0,1-.021.24c-.087.056-.155.116-.059.221l-.02.169c-.134.056-.072.166-.072.259l-.023.188c-.111.025-.131.08-.053.166l-.031.169c-.114.055-.065.155-.066.242l-.021.149c-.109.027-.125.082-.052.165l-.033.17c-.086.119-.181.236-.074.391l-.012.112a1.551,1.551,0,0,0-.248.932c0,.007.012.016.011.023a.437.437,0,0,1-.015.048c-.185.141-.168.343-.165.542,0,.008.009.018.007.026a.532.532,0,0,1-.019.05c-.117.019-.142.072-.063.165l0,.113-.031,0c-.074.029-.081.087-.064.154l-.018.075c-.031.018-.081.028-.09.054a7.488,7.488,0,0,1-.625,1.289c-.087.146-.236.272-.222.469a.09.09,0,0,1-.069.087c-.084.008-.11.059-.1.137a.024.024,0,0,1-.019.033l-.047.051,0,0a1.062,1.062,0,0,0-.5.6l-.122.124a.1.1,0,0,0-.1.117h0a.15.15,0,0,0-.169.169l0,0a.1.1,0,0,0-.117.1.473.473,0,0,1-.2.182.487.487,0,0,0-.4.342l0,0a.5.5,0,0,0-.407.322l-.007.012h-.015a.152.152,0,0,0-.2.143c0,.019-.015.026-.033.021-.074-.011-.125.01-.135.092a.026.026,0,0,1-.036.019c-.113,0-.217.02-.243.157a.145.145,0,0,1-.129.073c-.082-.017-.14,0-.15.095a9.345,9.345,0,0,1-2.536.974,1.421,1.421,0,0,1-1.532-.456,10.64,10.64,0,0,1-2.808-4.893,10.942,10.942,0,0,1-.038-4.537c.228-1.386.542-2.753.834-4.125.257-1.208.568-2.4.852-3.6a.22.22,0,0,1,.284-.19,19.467,19.467,0,0,0,2.249.16c.446.022.877.164,1.326.147A.238.238,0,0,0,775.886,2554.468Zm3.966,13.455h0c.09-.006.114-.06.1-.14l0-.017.015-.01c.125-.012.172-.082.151-.2l.008-.021c.145-.02.163-.127.165-.244a.024.024,0,0,1,.016-.034c.032-.016.076-.023.094-.049a4.466,4.466,0,0,0,.668-1.831l.019-.131c.112-.023.137-.076.057-.166l.023-.113c.111-.038.077-.125.068-.2l.016-.132c.147-.035.127-.121.067-.219a.228.228,0,0,1,.027-.171c.1-.041.067-.122.061-.2l.024-.2c.185-.127.095-.288.055-.442a.185.185,0,0,1,.035-.172c.094-.078.1-.168-.011-.215a1.106,1.106,0,0,0-.522-.163l-.13-.022c-.078-.168-.237-.126-.373-.144l-.129-.03c-.013-.068-.032-.124-.11-.049l-.113-.03c-.025-.073-.081-.076-.143-.064l-.137-.03c-.014-.065-.034-.118-.108-.048a.225.225,0,0,1-.171-.033c-.045-.094-.126-.063-.2-.057l-.191-.028c-.026-.1-.081-.119-.163-.053a.237.237,0,0,1-.172-.034c-.079-.077-.155-.169-.278-.07l-.113-.015c-.053-.142-.167-.076-.261-.075l-.131-.01c-.085-.149-.2-.148-.333-.067l-.225-.02c-.008-.035-.024-.075-.064-.06-.024.009-.034.052-.051.08l-.049.118c-.074.079-.166.154-.07.277l-.017.114c-.116.038-.081.126-.069.207a.257.257,0,0,1-.024.184c-.143.04-.123.124-.06.22l-.016.115c-.114.038-.08.126-.068.206a.815.815,0,0,1-.042.329c-.278,1.146-.551,2.294-.835,3.439-.289,1.172-.588,2.342-.883,3.512-.141.048-.118.13-.048.223l-.006.117a.122.122,0,0,0,0,.193.112.112,0,0,0,.183-.045.182.182,0,0,1,.179-.064c.081.028.14.015.156-.081l.079-.018c.121-.013.257,0,.312-.149l.076-.021c.118.009.223-.007.259-.145a.384.384,0,0,1,.232-.119.068.068,0,0,0,.041-.025l.091-.042c.072.012.127,0,.139-.087a.042.042,0,0,1,.048-.018c.053,0,.1-.009.114-.069l.071-.038.043-.037.051-.024.061-.04.111-.07.058-.044.131-.081a.152.152,0,0,0,.206-.145l.008-.017h.019c.167-.031.327-.071.358-.277l0,0a.1.1,0,0,0,.12-.1.226.226,0,0,1,.129-.11.241.241,0,0,0,.26-.234l.06-.051c.117.011.177-.038.166-.16l.006-.017.018,0q.15.018.132-.132a.089.089,0,0,1,.066-.081.152.152,0,0,0,.165-.172v0c.089,0,.118-.051.108-.133l.123-.142a.22.22,0,0,0,.211-.252c-.005-.017,0-.026.018-.029Zm-4.1-6.423c.107-.044.071-.129.058-.207a5.137,5.137,0,0,1,.128-.907c.024-.19-.041-.246-.219-.167a.3.3,0,0,0-.2.244c-.047.274-.114.546-.173.818-.58,2.687-1.157,5.375-1.685,8.074a2.872,2.872,0,0,0,.114,1.667c.051.126.108.207.227.058a2.658,2.658,0,0,0,.567-.919c.306-1.09.624-2.179.894-3.279.48-1.957.927-3.923,1.39-5.885.116-.489.118-.486-.262-.75-.144-.1-.229-.093-.272.1-.187.837-.471,1.649-.63,2.493-.1.027-.114.083-.053.162a.233.233,0,0,1-.036.174c-.093.116-.113.007-.149-.049a.224.224,0,0,1,.027-.173c.1-.06.058-.156.058-.241l.028-.206c.129-.047.108-.128.051-.219a.353.353,0,0,1,.035-.228c.086-.049.057-.126.05-.2A.767.767,0,0,1,775.755,2561.5Zm-5.522,2.781a9.5,9.5,0,0,0,.963,4.223,10.19,10.19,0,0,0,1.188,1.883c.042.053.08.144.172.107.071-.029.053-.112.062-.173.043-.285.079-.571.127-.855.3-1.77.789-3.5,1.133-5.26.178-.912.372-1.821.567-2.73.043-.2-.011-.251-.209-.273-.461-.051-.918-.142-1.379-.2a11.8,11.8,0,0,0-1.971-.139.23.23,0,0,0-.246.207A14.983,14.983,0,0,0,770.233,2564.281Zm12.465-7.343a.161.161,0,0,0-.116-.192,20.965,20.965,0,0,0-3.3-1.181c-.207-.045-.271.009-.325.2-.239.85-.415,1.716-.616,2.575-.05.216-.187.472-.118.641.084.207.4.162.623.219,1.06.278,2.114.573,3.151.927.19.065.281.068.293-.179.016-.323.081-.645.125-.967C782.505,2558.3,782.642,2557.625,782.7,2556.938Zm-7.625,1.329c.126.021.185-.05.211-.163.044-.19.09-.379.133-.57q.274-1.222.546-2.446c.026-.117.067-.227-.135-.251-1.152-.136-2.3-.264-3.464-.324-.137-.007-.229,0-.262.165q-.3,1.446-.615,2.888c-.045.209,0,.3.238.317.685.056,1.367.137,2.05.216C774.208,2558.148,774.64,2558.211,775.073,2558.267Zm.008.65a1.863,1.863,0,0,0-.567.057c-.267.078-.163.321-.179.495s.152.133.249.125a4.583,4.583,0,0,1,1,.038,10.6,10.6,0,0,1,2.649.64c.061.026.134.081.205.006a.481.481,0,0,0-.083-.589,4.414,4.414,0,0,0-1.06-.489.233.233,0,0,1-.182-.307q.143-.951.267-1.905a.544.544,0,0,1,.2-.378.65.65,0,0,0,.274-.605.589.589,0,0,0-.479-.518.638.638,0,0,0-.635.269.553.553,0,0,0-.028.651.357.357,0,0,1,.054.286q-.281,1.006-.55,2.015a.272.272,0,0,1-.343.229A2.832,2.832,0,0,0,775.081,2558.917Z"/>
            <path id="Path_698" data-name="Path 698" d="M786.4,2558.254l.028.117a.119.119,0,0,0,.058.147.264.264,0,0,0,.031.188.086.086,0,0,0,.048.107.218.218,0,0,0,.039.173c-.1.17-.288.173-.438.25-.051.027-.108.045-.1.113.007.05.063.057.1.081.233.148.328-.073.458-.185l.118.234a.384.384,0,0,0,.07.289.086.086,0,0,0,.025.109.2.2,0,0,0,.036.17.071.071,0,0,0,.032.1c.084.58.284,1.134.389,1.709a8.779,8.779,0,0,1,.26,2.094,1.593,1.593,0,0,1-.88,1.4,5.884,5.884,0,0,1-.831.391c-.173.061-.184.125-.077.268.534.716,1.06,1.438,1.585,2.159.153.211.3.425.442.644.1.146.077.25-.131.235-.307-.022-.612-.051-.919-.065-.15-.007-.2-.114-.266-.214q-.829-1.257-1.735-2.463a.682.682,0,0,0-.86-.164.2.2,0,0,0-.075.108,1.006,1.006,0,0,0,.017.927,11.608,11.608,0,0,1,.778,1.692c.087.189.018.223-.156.222-.624-.005-1.248.01-1.871-.005-.846-.02-1.691.087-2.537.012-.1-.009-.205.021-.288-.059.133-.347.422-.381.731-.378.753.009,1.507.021,2.26.024.316,0,.632-.021.948-.022.192,0,.258-.072.189-.256a5.309,5.309,0,0,0-1.187-1.933.645.645,0,0,0-.285-.17c-.312-.09-.623-.185-.935-.278a7.852,7.852,0,0,1,.317-1.293c.048-.248.161-.284.389-.214.552.168,1.083.389,1.618.6a.215.215,0,0,0,.316-.1,9.631,9.631,0,0,0,1.594-6.332,7.211,7.211,0,0,0-1.519-3.748c-.048-.059-.076-.156-.19-.125-.036.154.031.315-.047.466a.61.61,0,0,1-.922.126,7.277,7.277,0,0,1-.936-.955,6.818,6.818,0,0,0-1.941-1.735,2.89,2.89,0,0,0-2.344-.136,4.638,4.638,0,0,1,1.836,1,3.873,3.873,0,0,1,1.053,1.827l-1.115-.3c-.118-.031-.3-.01-.144-.225a.088.088,0,0,0-.081-.136c-.113.014-.2-.108-.308-.047-.045.091.14.171.009.245-.1.056-.175,0-.219-.1-.036-.081-.117-.029-.172-.052-.216-.087-.556.121-.648-.272,0-.022-.114,0-.156-.034-.175-.115-.191.16-.344.126-.374-.081-.752-.142-1.13-.211.019-.082.063-.075.1-.083.061-.014.12-.056.091-.11-.045-.082-.149-.06-.229-.073-.059-.01-.13.013-.094.085.116.232-.1.093-.147.138-.2-.04-.4-.092-.6-.115s-.2-.107-.11-.237a3.6,3.6,0,0,1,.352-.467.277.277,0,0,0,.032-.408c-.491-.758-1.059-1.463-1.554-2.215a3.484,3.484,0,0,0-1.851-1.393.363.363,0,0,1-.276-.242,32.445,32.445,0,0,0-1.439-3.8.332.332,0,0,1-.009-.094c.114.006.161.093.221.152.921.908,1.838,1.82,2.806,2.679a.344.344,0,0,1,.153.253,2.746,2.746,0,0,0,.64,1.573c.591.824,1.221,1.619,1.781,2.465.116.175.215.256.432.088a3.291,3.291,0,0,1,1.145-.493c.058-.016.153.006.158-.077a.178.178,0,0,0-.127-.2c-.619-.13-.691-.586-.682-1.1a1.963,1.963,0,0,0-.212-.889,1.375,1.375,0,0,1-.03-1.26.367.367,0,0,0-.02-.386c-.114-.2-.234-.411-.076-.65a.136.136,0,0,0,.02-.106,3.575,3.575,0,0,1,.174-1.954c.059-.345.423-.518.764-.628.64-.205,1.313-.256,1.958-.437.26-.072.523-.13.784-.2a.39.39,0,0,1,.407.113,27.328,27.328,0,0,1,2.114,2.219.771.771,0,0,1,.134.933,2.715,2.715,0,0,0-.132,1.041,5.8,5.8,0,0,1-.268,1.068c-.1-.116.042-.316-.137-.408a.206.206,0,0,0-.056-.292c-.083-.058-.149.042-.2.094-.251.244.129.127.133.227a.074.074,0,0,1-.083.05.838.838,0,0,0-.574.095c.033.141.179.134.24.223l-.111.017c-.125-.03-.249-.065-.375-.09-.145-.03-.2.014-.118.159.027.047.05.1.075.145,0,.087,0,.18-.131.172a.235.235,0,0,0-.2-.25c-.1-.015-.163.092-.177.2h-.16a4.708,4.708,0,0,0,.054-2.4c-.05-.251-.109-.519-.438-.612a9.853,9.853,0,0,0-1.24-.318,2.2,2.2,0,0,0-.963.1.2.2,0,0,0-.143.282.21.21,0,0,0,.285.148c.106-.035.214-.064.322-.091a1.407,1.407,0,0,1,1.1.278c-.289.052-.591-.2-.877.073.477.076.5.084.689.291-.048,0-.081.006-.114.006-.591-.013-.591-.013-.371.487a.162.162,0,0,1-.156.029,1.416,1.416,0,0,1-.688-.34c-.253-.21-.376-.19-.5.1-.075.169-.135.345-.2.52-.038.11-.114.226.012.331a.433.433,0,0,0,.432.127,1.035,1.035,0,0,1,.267-.073c.122-.007.177.088.2.2s-.051.165-.122.146a1.006,1.006,0,0,0-.618.112c-.136.043-.229.075-.229.217,0,.19.212.137.246.119.383-.206.686.184,1.044.125.048-.008.084.04.083.092,0,.071-.06.057-.1.054a.682.682,0,0,1-.192-.029,1.414,1.414,0,0,0-.849.043c-.083.019-.167.069-.158.168.011.115.116.1.2.1s.187-.017.278-.008c.16.016.18.17.189.272.012.131-.123.066-.194.07-.383.017-.473.093-.5.438-.006.061-.052.136.027.174s.11-.048.147-.093c.156-.195.308-.179.46,0a.758.758,0,0,0,.326.248,1.649,1.649,0,0,0,1.926-.678c.132-.2.236-.417.353-.627.045.084-.093.2.041.266a.764.764,0,0,0-.061.091.159.159,0,0,0,.064.233.192.192,0,0,0,.25-.037c.059-.1-.048-.156-.121-.209-.029-.021-.055-.046-.083-.07.089-.011.137-.086.206-.128s.161-.124.222.019c-.058.013-.143-.019-.164.057s.053.106.107.14a.724.724,0,0,0,.393.085c.108.074-.266.059-.029.156l-.192.119a1.986,1.986,0,0,0,.227.165.251.251,0,0,0,.357-.247c.07,0,.135,0,.138-.1.082.007.165.042.245-.01l.095,0c.037.208-.072.4-.078.6a3.56,3.56,0,0,0,1.213,2.79,9.339,9.339,0,0,1,2.62,4.206A.1.1,0,0,0,786.4,2558.254Zm-5.1-9.715c-.2.111-.1.264-.023.414l.039-.391.1.065a1.04,1.04,0,0,1-.008.423c-.152.024-.179.092-.1.225a.174.174,0,0,0,.271.068c.184-.1,0-.173-.02-.257l.016-.16c.089.072.143.2.289.179.083-.011.178-.012.2-.11s-.087-.1-.143-.133a.476.476,0,0,0-.348-.035v-.168c.079-.023.137-.066.1-.157a.239.239,0,0,0-.222-.136C781.336,2548.352,781.314,2548.44,781.3,2548.539Zm1.533-.049a5.157,5.157,0,0,0,.134-1.415c0-.119.079-.326-.079-.332-.137,0-.084.213-.1.332a9.284,9.284,0,0,1-.119.957.4.4,0,0,1-.176-.457c.054-.273.055-.555.1-.83a.727.727,0,0,0-.317-.754,5.089,5.089,0,0,0-3.521-1.046c-.121.013-.178.049-.2.177-.05.312-.118.62-.181.929-.072.352-.073.359.285.35a4.661,4.661,0,0,1,3.329,1.172c.058.051.145.088.14.183-.055.074-.181-.1-.193.056-.007.1.047.232.151.24.21.016-.009-.19.126-.251Zm-10.587-.634.074-.046c.077.111.158.22.231.334.676,1.046,1.458,2.017,2.156,3.046.048.071.086.183.212.095.108-.075.07-.157.016-.239-.159-.24-.317-.48-.478-.718a4.31,4.31,0,0,1-.789-1.553.81.81,0,0,0-.295-.5c-.713-.6-1.353-1.288-2.041-1.934.313.879.651,1.747.995,2.612.047.119.127.265.287.187.179-.086.051-.227.009-.337C772.508,2548.484,772.377,2548.171,772.251,2547.856Zm14.765,20.74c.036-.008.131.042.17-.036s-.043-.134-.083-.193q-.825-1.206-1.65-2.411c-.138-.2-.343-.121-.474-.059-.172.082-.026.223.045.321.536.734,1.079,1.464,1.613,2.2A.366.366,0,0,0,787.016,2568.6Zm-10.775-15.655a.24.24,0,0,0-.019-.069,15.447,15.447,0,0,0-.908-1.267.126.126,0,0,0-.176-.024c-.09.059-.046.129,0,.191q.441.627.883,1.252c.031.043.066.1.135.063A.168.168,0,0,0,776.241,2552.941Zm2.115-7.757c.041-.164-.045-.171-.167-.133a.252.252,0,0,0-.167.232c-.058.337-.122.673-.175,1.011-.011.073-.11.2.053.217a.194.194,0,0,0,.228-.185C778.2,2545.944,778.279,2545.564,778.356,2545.184Zm1.444-.462a10.394,10.394,0,0,1,1.6.507c-.16-.359-.482-.452-.654-.692-.043-.059-.124-.02-.168.034-.119.145-.274.125-.435.116C780.034,2544.68,779.917,2544.606,779.8,2544.722Zm-2.417,1.1c0-.1.014-.171-.054-.182-.087-.014-.1.069-.111.129-.049.263-.094.527-.137.791-.01.061-.033.146.054.161.07.012.115-.054.126-.122C777.306,2546.326,777.347,2546.052,777.383,2545.822Zm.442,7.478a.773.773,0,0,0,.145-.039c.089-.046.2-.093.159-.222-.044-.154-.162-.072-.251-.062-.072.008-.141.036-.213.051-.053.01-.128,0-.143.06s.048.112.108.139S777.765,2553.278,777.825,2553.3Zm8.454,9.4a2.983,2.983,0,0,0,.3.184c.119.052.217-.022.3-.1s.021-.142-.019-.2c-.079-.123-.153-.027-.234.009A3.5,3.5,0,0,1,786.279,2562.7Zm.068,2.308c.106-.007.232-.026.2-.142-.061-.225-.308-.086-.45-.188-.072-.051-.146.054-.128.126C786.021,2565,786.208,2564.973,786.347,2565.007Zm-.2-1.975c-.081.045-.277-.087-.264.116.01.148.2.159.319.161.1,0,.249-.059.232-.189C786.41,2562.955,786.259,2563.038,786.145,2563.032Zm-7.119-9.015a.7.7,0,0,0,.513.159c.08-.012.188,0,.176-.121s-.1-.2-.209-.159C779.361,2553.957,779.2,2553.927,779.026,2554.017Zm7.358,9.789c-.1-.154-.247-.1-.377-.1-.067,0-.206-.026-.173.1.037.147.189.168.318.167A.255.255,0,0,0,786.384,2563.806Zm-3.507-10.047c.137.117.313.164.378.353.027.08.157.086.25.067.019,0,.045-.064.037-.089a.144.144,0,0,0-.161-.118c-.085.007-.129-.032-.147-.124C783.182,2553.582,783.041,2553.642,782.877,2553.759Zm4.188,10.142c.16.005.276-.027.28-.2,0-.086-.029-.161-.124-.134-.144.041-.348.043-.373.228C786.827,2563.938,786.992,2563.882,787.065,2563.9Zm-8.528-9.314c.064-.023.185.041.172-.076-.025-.219-.239-.194-.384-.247-.069-.025-.187-.013-.162.081C778.21,2554.521,778.4,2554.524,778.537,2554.587Zm7.508,9.77a.7.7,0,0,0-.428-.175.131.131,0,0,0-.139.074c-.03.06.016.1.057.14C785.714,2564.564,785.878,2564.532,786.045,2564.357Zm.055-1.759c.11-.024.238-.083.239-.188,0-.146-.138-.047-.213-.065a1.846,1.846,0,0,1-.181-.052c-.045-.015-.09-.033-.124.013a.118.118,0,0,0,.015.151A.437.437,0,0,0,786.1,2562.6Zm-8.338-8.43c.137.005.235.011.243-.1s-.1-.075-.16-.094a.42.42,0,0,0-.133-.029c-.1,0-.236-.148-.282-.009-.055.164.153.158.249.221A.133.133,0,0,0,777.762,2554.168Zm3.9-1.444c.121.006.2,0,.19-.123-.016-.236-.223-.13-.336-.187-.054-.027-.166-.021-.151.093C781.392,2552.7,781.558,2552.7,781.664,2552.724Zm.57-.08c.118.029.184-.064.251-.155.029-.038.051-.087.015-.127-.088-.1-.167,0-.25.019a.419.419,0,0,0-.053.014c-.074.031-.22-.037-.206.112C782,2552.616,782.132,2552.6,782.234,2552.644Zm-.146-1.145c-.11.046-.306,0-.362.153-.039.1.147.177.208.153.11-.042.3.015.319-.193C782.261,2551.5,782.189,2551.5,782.088,2551.5Zm3.754,11.976c-.019-.059-.068-.112-.119-.1-.136.044-.261-.1-.388-.017-.045.03-.007.088.027.119.1.09.2.172.341.114C785.756,2563.574,785.828,2563.552,785.842,2563.475Zm-.613,1.2c.056.2.145.327.338.319.074,0,.169-.058.138-.165C785.623,2564.55,785.405,2564.73,785.229,2564.676Zm-5.495-10.263c-.057.032-.231-.077-.213.078s.2.155.341.164c.074,0,.172,0,.162-.1C780.008,2554.4,779.887,2554.384,779.734,2554.413Zm-2.136-.852c.115.086.184.143.259.194.109.074.186-.03.272-.063a.087.087,0,0,0,.028-.14c-.064-.086-.142-.048-.224-.031S777.742,2553.545,777.6,2553.561Zm8.87,6.646c.108.009.214,0,.225-.136.007-.083-.024-.179-.125-.188a.265.265,0,0,0-.284.175C786.249,2560.181,786.387,2560.177,786.468,2560.207Zm-7.985-6.814c.134,0,.271.02.3-.135.02-.095-.066-.126-.145-.113-.142.022-.331.024-.366.179C778.253,2553.426,778.418,2553.373,778.483,2553.393Zm2.767-2.629c-.09.011-.211,0-.194.112.021.141.168.191.287.213a.145.145,0,0,0,.172-.162C781.489,2550.782,781.358,2550.776,781.25,2550.764Zm-.872.932c.071-.06.243.052.238-.141,0-.079-.055-.171-.131-.137-.117.053-.317-.024-.345.144C780.118,2551.692,780.282,2551.663,780.378,2551.7Zm5.728,10.078c.1-.008.231,0,.2-.127s-.184-.156-.312-.16c-.083,0-.194,0-.182.113C785.831,2561.773,785.995,2561.745,786.106,2561.774Zm.786,2.435c-.225-.151-.414-.2-.593.01C786.485,2564.529,786.671,2564.351,786.892,2564.209Zm-5.885-12.035c-.076.048-.253-.077-.249.094,0,.108.165.171.285.161.088-.007.242,0,.247-.114C781.3,2552.13,781.126,2552.194,781.007,2552.174Zm5.337,8.664a.434.434,0,0,0,.355.117.151.151,0,0,0,.149-.189c-.024-.113-.119-.125-.216-.078S786.457,2560.778,786.344,2560.838Zm-5.041-9.512a.44.44,0,0,0,.4.137.166.166,0,0,0,.138-.231c-.04-.1-.127-.046-.183,0C781.562,2551.3,781.444,2551.273,781.3,2551.326Zm5.041,12.109a.371.371,0,0,0,.249.188c.1.041.173-.032.233-.1.026-.032.075-.07.029-.117a.21.21,0,0,0-.208-.029C786.55,2563.392,786.442,2563.35,786.344,2563.435Zm-4.936-11.655c-.108.007-.259-.031-.255.126,0,.132.153.146.258.146s.252.009.259-.136C781.679,2551.718,781.5,2551.815,781.408,2551.78Zm-1.87.056c.173.22.413.23.519.035.016-.029.035-.078.023-.1s-.083-.041-.1-.029C779.86,2551.87,779.693,2551.809,779.538,2551.836Zm6.695,8.8c.068-.066.244.026.272-.136.018-.1-.1-.13-.176-.118-.11.017-.267,0-.3.134C786.005,2560.62,786.128,2560.619,786.233,2560.635Zm-7.42-6.7c-.183-.043-.309-.209-.483-.091-.059.04-.042.116.017.165C778.5,2554.136,778.645,2554.106,778.813,2553.932Zm7.858,7.3c-.146-.051-.248-.085-.35-.122-.06-.023-.123-.06-.162.027s.012.126.065.163C786.377,2561.4,786.512,2561.354,786.671,2561.228Zm-7.72-7.487c.078-.008.143-.013.208-.022s.113-.033.117-.1-.055-.142-.113-.135a2.207,2.207,0,0,0-.445.109c-.051.019-.014.09.029.1A1.285,1.285,0,0,0,778.951,2553.741Zm8.07,10.649c-.075.062-.26.031-.272.188-.006.091.111.161.227.155.158-.006.187-.133.208-.247C787.2,2564.4,787.117,2564.394,787.021,2564.39Zm-.251-2.73c.1,0,.219,0,.226-.143,0-.083-.04-.2-.133-.167-.113.037-.267.093-.288.222C786.558,2561.679,786.7,2561.633,786.77,2561.66Zm-5.921-9.735c-.023-.032-.042-.072-.053-.07-.156.03-.311.066-.465.1a.064.064,0,0,0,0,.048c.048.068.11.143.2.107A.7.7,0,0,0,780.849,2551.925Zm5.418,6.724c0-.02,0-.114-.105-.087s-.263.05-.279.184c-.014.11.12.11.205.131C786.238,2558.915,786.253,2558.811,786.267,2558.649Zm-3.98-9.851a.317.317,0,0,0,.274-.155c.037-.048,0-.083-.037-.112-.1-.076-.167,0-.237.062a.212.212,0,0,1-.048.025c-.052.024-.151,0-.132.1S782.215,2548.795,782.287,2548.8Zm.346,4.157c-.015-.073-.033-.179-.119-.151s-.252,0-.26.146c-.005.11.124.126.21.143S782.617,2553.051,782.633,2552.955Zm-.935-.807a.588.588,0,0,0,.429.032c.074-.014.117-.055.095-.134a.091.091,0,0,0-.125-.071C781.963,2552.019,781.806,2552.012,781.7,2552.148Zm4.535,9.891c.086.044.142.076.2.1.117.052.194-.008.261-.1.029-.036.076-.084.034-.118a.288.288,0,0,0-.268-.013A1.4,1.4,0,0,0,786.233,2562.039Zm-6.5-7.036a3.141,3.141,0,0,0,.39.151.128.128,0,0,0,.174-.126c0-.11-.053-.2-.162-.171A.7.7,0,0,0,779.734,2555Zm7.483,8.06c-.007-.072,0-.172-.1-.158s-.249.03-.249.17c0,.1.108.141.207.149C787.185,2563.233,787.206,2563.152,787.217,2563.063Zm-6.479-12.027c-.046.054-.192-.05-.18.089.011.114.149.133.248.135.084,0,.231,0,.221-.106C781.014,2551,780.847,2551.081,780.738,2551.036Zm5.5,14.186c-.139-.009-.275-.139-.407-.018-.045.04-.013.11.037.138C786.022,2565.425,786.14,2565.361,786.24,2565.222Zm-.871-1.156c.053,0,.156.019.149-.058-.017-.183-.212-.125-.319-.192-.035-.022-.136-.014-.118.059C785.114,2564.008,785.244,2564.034,785.369,2564.066Zm-4.077-16.782c-.052,0-.155-.034-.138.09a.164.164,0,0,0,.17.154c.087,0,.184-.045.18-.138S781.4,2547.282,781.292,2547.284Zm5.676,14.789a.154.154,0,0,0-.166.151c-.016.112.082.1.152.108.09,0,.18-.033.187-.125S787.056,2562.079,786.968,2562.073Zm-6.682-9.819c-.041-.131-.15-.074-.231-.073s-.234-.021-.208.1c.022.1.186.095.29.108A.137.137,0,0,0,780.286,2552.254Zm3,2.379c.126.074.249.161.374.024a.092.092,0,0,0-.008-.147C783.495,2554.405,783.425,2554.619,783.289,2554.633Zm2.65,3.585c.113,0,.141-.079.153-.163s-.056-.1-.124-.11a.151.151,0,0,0-.192.115C785.765,2558.15,785.856,2558.2,785.939,2558.218Zm-.05,1.545c.015.063-.032.169.1.173.086,0,.189-.028.188-.117s-.1-.169-.2-.193S785.9,2559.7,785.889,2559.763Zm-3.745-11.41a.283.283,0,0,0-.209-.136c-.07-.014-.164-.024-.167.081a.161.161,0,0,0,.159.159A.181.181,0,0,0,782.144,2548.353Zm-.083,5.416a.171.171,0,0,0-.2-.123c-.066.011-.152.031-.135.106s.117.114.2.128S782.042,2553.831,782.061,2553.769Zm-1.244-1.169c-.058-.043-.114-.086-.171-.126a.166.166,0,0,0-.207,0c-.025.018-.052.072-.042.089a.2.2,0,0,0,.186.1C780.663,2552.664,780.752,2552.687,780.817,2552.6Zm1.365-1.366c.082,0,.191.029.193-.118,0-.082-.022-.154-.123-.141s-.226.042-.251.131S782.092,2551.221,782.182,2551.234Zm-5.212,2.949c.04.23.189.244.355.226.055,0,.117-.008.124-.079s-.047-.089-.1-.1Zm6.443,1.081c-.1-.131-.17-.226-.311-.185a.069.069,0,0,0-.042.108C783.142,2555.291,783.253,2555.3,783.413,2555.264Zm-.89-1.473c-.053.023-.154-.005-.136.09s.129.113.216.134c.058.014.125,0,.113-.07A.184.184,0,0,0,782.523,2553.791Zm.415.9c-.1,0-.212,0-.212.119,0,.087.1.093.171.093s.173-.006.183-.117S782.995,2554.7,782.938,2554.689Zm-5.843-.906-.413-.082C776.87,2553.935,776.87,2553.935,777.095,2553.783Zm5.857-.432a.148.148,0,0,0-.173-.128c-.076.005-.158.037-.151.123.008.112.111.1.191.1S782.951,2553.451,782.952,2553.351Zm-1.585-1.845a2.011,2.011,0,0,0-.58-.03C780.948,2551.705,781.11,2551.7,781.367,2551.506Zm-2.051,2.842c-.208,0-.268-.219-.446-.131-.046.023-.032.085,0,.12C778.977,2554.452,779.1,2554.48,779.316,2554.348Zm3.662.042c.075-.027.207.029.219-.1.008-.089-.086-.116-.163-.093s-.209-.027-.208.118C782.828,2554.407,782.911,2554.391,782.978,2554.39Zm-1.435-6.661c-.059,0-.112.015-.108.068a.2.2,0,0,0,.179.184c.054.011.124-.02.117-.087C781.72,2547.787,781.629,2547.751,781.543,2547.729Zm.014,5.5a.157.157,0,0,0-.145-.138c-.065,0-.164-.018-.16.091a.143.143,0,0,0,.152.127C781.465,2553.309,781.533,2553.306,781.557,2553.226Zm-.432-.332c.073-.038.219.017.229-.092s-.12-.111-.211-.115-.209.011-.207.126C780.937,2552.886,781.045,2552.893,781.125,2552.894Zm1.224,1.253c-.031-.093-.116-.107-.2-.122-.048-.009-.106.01-.095.068a.16.16,0,0,0,.162.128C782.275,2554.224,782.334,2554.228,782.349,2554.147Zm-.2-.582c.12-.023.229.062.294-.061.024-.045-.026-.113-.078-.13C782.226,2553.327,782.208,2553.44,782.153,2553.565Zm1.648,1.515a.122.122,0,0,0-.14-.1c-.04,0-.11.035-.112.06-.006.075.062.1.125.116A.1.1,0,0,0,783.8,2555.08Zm-7.081-2.1a.3.3,0,0,0,.375,0A.276.276,0,0,0,776.72,2552.984Zm8.052,12.385c.083.094.15.155.264.113.016-.007.035-.06.028-.067A.234.234,0,0,0,784.772,2565.369Zm.83-2.668c-.108-.022-.192.067-.18.1.036.106.151.114.252.122a.1.1,0,0,0,.125-.11C785.786,2562.687,785.667,2562.719,785.6,2562.7Zm-9.3-8.882c.051,0,.1-.014.1-.065,0-.08-.07-.1-.136-.109-.049-.008-.1,0-.1.056C776.176,2553.777,776.238,2553.806,776.306,2553.819Zm6.252.78c.037-.03.135.017.134-.08s-.088-.1-.161-.1-.167-.007-.16.1S782.481,2554.58,782.558,2554.6Zm-5.672-1.177c.112.059.2.133.317.115.081-.012.168-.059.149-.16s-.11-.075-.177-.056C777.082,2553.346,776.993,2553.384,776.886,2553.422Zm5.1-.108c-.107-.013-.192-.05-.248.043-.009.016,0,.064.012.069C781.849,2553.468,781.924,2553.434,781.985,2553.314Zm2.833,11.477c.048,0,.094-.019.1-.068s-.053-.06-.094-.065-.1,0-.1.057S784.773,2564.782,784.818,2564.791Z"/>
            <path id="Path_699" data-name="Path 699" d="M782.451,2549.263a.074.074,0,0,0,.083-.05l.126-.029c.179.092.033.292.137.408a.331.331,0,0,1-.032.231c-.079.078-.169.153-.072.277l-.016.114c-.124.042-.1.126-.059.214l-.024.122-.095,0a.222.222,0,0,1,.023-.191l-.022-.085-.076-.1c-.142-.217.149-.159.172-.272-.017-.125.108-.282-.085-.367l-.02.011-.132.044-.05-.111Z"/>
            <path id="Path_700" data-name="Path 700" d="M780.2,2568.059c-.014-.2.135-.323.222-.469a7.488,7.488,0,0,0,.625-1.289c.009-.026.059-.036.09-.054A5.749,5.749,0,0,1,780.2,2568.059Z"/>
            <path id="Path_701" data-name="Path 701" d="M779.46,2568.972a1.062,1.062,0,0,1,.5-.6A2.045,2.045,0,0,1,779.46,2568.972Z"/>
            <path id="Path_702" data-name="Path 702" d="M778.357,2570.007a.487.487,0,0,1,.4-.342A1,1,0,0,1,778.357,2570.007Z"/>
            <path id="Path_703" data-name="Path 703" d="M777.953,2570.327a.5.5,0,0,1,.407-.322A1.031,1.031,0,0,1,777.953,2570.327Z"/>
            <path id="Path_704" data-name="Path 704" d="M782.693,2550.1c-.1-.124-.007-.2.072-.277A.3.3,0,0,1,782.693,2550.1Z"/>
            <path id="Path_705" data-name="Path 705" d="M782.618,2550.428c-.041-.088-.065-.172.059-.214A.2.2,0,0,1,782.618,2550.428Z"/>
            <path id="Path_706" data-name="Path 706" d="M777.282,2570.77c.026-.137.13-.154.243-.157A.338.338,0,0,1,777.282,2570.77Z"/>
            <path id="Path_707" data-name="Path 707" d="M779.073,2569.381a.15.15,0,0,1,.169-.169A.266.266,0,0,1,779.073,2569.381Z"/>
            <path id="Path_708" data-name="Path 708" d="M777.729,2570.481a.152.152,0,0,1,.2-.143A.306.306,0,0,1,777.729,2570.481Z"/>
            <path id="Path_709" data-name="Path 709" d="M777,2570.938c.01-.093.068-.112.15-.095A.191.191,0,0,1,777,2570.938Z"/>
            <path id="Path_710" data-name="Path 710" d="M780.029,2568.283c-.012-.078.014-.129.1-.137A.153.153,0,0,1,780.029,2568.283Z"/>
            <path id="Path_711" data-name="Path 711" d="M781.151,2566.172c-.017-.067-.01-.125.064-.154A.134.134,0,0,1,781.151,2566.172Z"/>
            <path id="Path_712" data-name="Path 712" d="M779.241,2569.213a.1.1,0,0,1,.1-.117A.116.116,0,0,1,779.241,2569.213Z"/>
            <path id="Path_713" data-name="Path 713" d="M778.958,2569.483a.1.1,0,0,1,.117-.1A.124.124,0,0,1,778.958,2569.483Z"/>
            <path id="Path_714" data-name="Path 714" d="M777.561,2570.594c.01-.082.061-.1.135-.092A.153.153,0,0,1,777.561,2570.594Z"/>
            <path id="Path_715" data-name="Path 715" d="M779.963,2568.367l.047-.051C780.014,2568.351,780,2568.366,779.963,2568.367Z"/>
            <path id="Path_716" data-name="Path 716" d="M775.608,2563.175c-.137.813-.36,1.608-.536,2.413-.1.461-.216.918-.342,1.375a1.68,1.68,0,0,1,.073-.7c.188-1.005.4-2.006.6-3.009a.523.523,0,0,1,.056-.123C775.495,2563.182,775.515,2563.291,775.608,2563.175Z"/>
            <path id="Path_717" data-name="Path 717" d="M780.307,2567.254a7.536,7.536,0,0,0,.7-1.793c.009-.032.042-.058.064-.087a4.466,4.466,0,0,1-.668,1.831C780.383,2567.231,780.339,2567.238,780.307,2567.254Z"/>
            <path id="Path_718" data-name="Path 718" d="M781.734,2564.124a2.919,2.919,0,0,1-.248.931A1.55,1.55,0,0,1,781.734,2564.124Z"/>
            <path id="Path_719" data-name="Path 719" d="M781.521,2563.232c0-.146-.112-.18-.224-.228s-.234-.044-.309-.15a1.106,1.106,0,0,1,.522.163C781.623,2563.064,781.615,2563.154,781.521,2563.232Z"/>
            <path id="Path_720" data-name="Path 720" d="M781.482,2565.127a1.1,1.1,0,0,1-.165.542C781.314,2565.47,781.3,2565.268,781.482,2565.127Z"/>
            <path id="Path_721" data-name="Path 721" d="M781.431,2563.846c.016-.148-.032-.3.055-.442C781.526,2563.558,781.616,2563.719,781.431,2563.846Z"/>
            <path id="Path_722" data-name="Path 722" d="M777.869,2569.869a.928.928,0,0,1,.358-.277C778.2,2569.8,778.036,2569.838,777.869,2569.869Z"/>
            <path id="Path_723" data-name="Path 723" d="M781.82,2563.621a.681.681,0,0,1-.074.391C781.639,2563.857,781.734,2563.74,781.82,2563.621Z"/>
            <path id="Path_724" data-name="Path 724" d="M782.938,2558.035a.665.665,0,0,1-.073.391A.339.339,0,0,1,782.938,2558.035Z"/>
            <path id="Path_725" data-name="Path 725" d="M775.205,2571.056c.053.057.078.149.179.148a.112.112,0,0,1-.183.045A.122.122,0,0,1,775.205,2571.056Z"/>
            <path id="Path_726" data-name="Path 726" d="M782.762,2558.985a.476.476,0,0,1-.064.335C782.593,2559.184,782.662,2559.081,782.762,2558.985Z"/>
            <path id="Path_727" data-name="Path 727" d="M778.065,2562.062a.6.6,0,0,1-.333-.067C777.864,2561.914,777.98,2561.913,778.065,2562.062Z"/>
            <path id="Path_728" data-name="Path 728" d="M782.6,2559.878a.475.475,0,0,1-.068.335C782.437,2560.078,782.518,2559.978,782.6,2559.878Z"/>
            <path id="Path_729" data-name="Path 729" d="M778.473,2569.382a.638.638,0,0,1,.26-.234A.241.241,0,0,1,778.473,2569.382Z"/>
            <path id="Path_730" data-name="Path 730" d="M780.858,2562.832a.671.671,0,0,1-.373-.144C780.621,2562.706,780.78,2562.664,780.858,2562.832Z"/>
            <path id="Path_731" data-name="Path 731" d="M778.848,2562.232a.336.336,0,0,1-.278-.07C778.693,2562.063,778.769,2562.155,778.848,2562.232Z"/>
            <path id="Path_732" data-name="Path 732" d="M779.576,2568.26a.453.453,0,0,1,.211-.252A.22.22,0,0,1,779.576,2568.26Z"/>
            <path id="Path_733" data-name="Path 733" d="M783.026,2557.588a.365.365,0,0,1-.062.274C782.914,2557.755,782.867,2557.648,783.026,2557.588Z"/>
            <path id="Path_734" data-name="Path 734" d="M782.684,2559.432a.3.3,0,0,1-.061.271C782.588,2559.6,782.528,2559.492,782.684,2559.432Z"/>
            <path id="Path_735" data-name="Path 735" d="M777.343,2562.113a.314.314,0,0,1-.07.277C777.177,2562.267,777.269,2562.192,777.343,2562.113Z"/>
            <path id="Path_736" data-name="Path 736" d="M775.8,2571.041a.572.572,0,0,1,.312-.149C776.055,2571.044,775.919,2571.028,775.8,2571.041Z"/>
            <path id="Path_737" data-name="Path 737" d="M775.572,2562.506c-.008-.079-.024-.159.051-.219C775.68,2562.378,775.7,2562.459,775.572,2562.506Z"/>
            <path id="Path_738" data-name="Path 738" d="M782.171,2562.113a.266.266,0,0,1-.072.259C782.1,2562.279,782.037,2562.169,782.171,2562.113Z"/>
            <path id="Path_739" data-name="Path 739" d="M776.186,2570.871a.476.476,0,0,1,.259-.145C776.409,2570.864,776.3,2570.88,776.186,2570.871Z"/>
            <path id="Path_740" data-name="Path 740" d="M782.341,2561.219a.254.254,0,0,1-.07.263C782.266,2561.387,782.2,2561.276,782.341,2561.219Z"/>
            <path id="Path_741" data-name="Path 741" d="M777.163,2562.9a.24.24,0,0,1-.06.22C777.04,2563.019,777.02,2562.935,777.163,2562.9Z"/>
            <path id="Path_742" data-name="Path 742" d="M775.259,2570.716a.255.255,0,0,1-.048.223C775.141,2570.846,775.118,2570.764,775.259,2570.716Z"/>
            <path id="Path_743" data-name="Path 743" d="M782.508,2560.381a.269.269,0,0,1-.072.261C782.435,2560.548,782.369,2560.436,782.508,2560.381Z"/>
            <path id="Path_744" data-name="Path 744" d="M778.457,2562.147a.294.294,0,0,1-.261-.075C778.29,2562.071,778.4,2562,778.457,2562.147Z"/>
            <path id="Path_745" data-name="Path 745" d="M781.252,2564.628a.233.233,0,0,1,.067-.219C781.379,2564.507,781.4,2564.593,781.252,2564.628Z"/>
            <path id="Path_746" data-name="Path 746" d="M780.126,2567.532a.435.435,0,0,1,.165-.244C780.289,2567.405,780.271,2567.512,780.126,2567.532Z"/>
            <path id="Path_747" data-name="Path 747" d="M782.853,2558.538a.225.225,0,0,1-.057.218C782.74,2558.663,782.719,2558.58,782.853,2558.538Z"/>
            <path id="Path_748" data-name="Path 748" d="M779.181,2568.705a.243.243,0,0,1,.165-.172A.152.152,0,0,1,779.181,2568.705Z"/>
            <path id="Path_749" data-name="Path 749" d="M779.967,2567.756a.333.333,0,0,1,.151-.2C780.139,2567.674,780.092,2567.744,779.967,2567.756Z"/>
            <path id="Path_750" data-name="Path 750" d="M777.636,2570.032a.311.311,0,0,1,.206-.145A.152.152,0,0,1,777.636,2570.032Z"/>
            <path id="Path_751" data-name="Path 751" d="M782.25,2561.723a.242.242,0,0,1-.059.221C782.095,2561.839,782.163,2561.779,782.25,2561.723Z"/>
            <path id="Path_752" data-name="Path 752" d="M782.41,2560.886a.234.234,0,0,1-.054.219C782.266,2561,782.328,2560.943,782.41,2560.886Z"/>
            <path id="Path_753" data-name="Path 753" d="M781.992,2562.9a.245.245,0,0,1-.066.242C781.927,2563.05,781.878,2562.95,781.992,2562.9Z"/>
            <path id="Path_754" data-name="Path 754" d="M779.183,2562.319a.147.147,0,0,1-.163-.053C779.1,2562.2,779.157,2562.214,779.183,2562.319Z"/>
            <path id="Path_755" data-name="Path 755" d="M781.905,2563.286a.148.148,0,0,1-.052.165C781.78,2563.368,781.8,2563.313,781.905,2563.286Z"/>
            <path id="Path_756" data-name="Path 756" d="M778.793,2569.1a.282.282,0,0,1,.166-.16C778.97,2569.059,778.91,2569.108,778.793,2569.1Z"/>
            <path id="Path_757" data-name="Path 757" d="M777.256,2562.5a.19.19,0,0,1-.069.207C777.175,2562.63,777.14,2562.542,777.256,2562.5Z"/>
            <path id="Path_758" data-name="Path 758" d="M781.168,2564.964a.189.189,0,0,1,.068-.2C781.245,2564.839,781.279,2564.926,781.168,2564.964Z"/>
            <path id="Path_759" data-name="Path 759" d="M781.088,2565.243a.167.167,0,0,1,.057-.166C781.225,2565.167,781.2,2565.22,781.088,2565.243Z"/>
            <path id="Path_760" data-name="Path 760" d="M775.7,2562.839a.14.14,0,0,1-.053.162C775.583,2562.922,775.595,2562.866,775.7,2562.839Z"/>
            <path id="Path_761" data-name="Path 761" d="M775.755,2561.5a.166.166,0,0,1,.058-.207C775.826,2561.371,775.862,2561.456,775.755,2561.5Z"/>
            <path id="Path_762" data-name="Path 762" d="M775.486,2562.953a.265.265,0,0,1,.059-.241C775.544,2562.8,775.59,2562.893,775.486,2562.953Z"/>
            <path id="Path_763" data-name="Path 763" d="M782.076,2562.56a.15.15,0,0,1-.053.166C781.945,2562.64,781.965,2562.585,782.076,2562.56Z"/>
            <path id="Path_764" data-name="Path 764" d="M781.3,2565.745a.159.159,0,0,1-.063.165C781.163,2565.817,781.188,2565.764,781.3,2565.745Z"/>
            <path id="Path_765" data-name="Path 765" d="M777.087,2563.23a.192.192,0,0,1-.068.206C777.007,2563.356,776.973,2563.268,777.087,2563.23Z"/>
            <path id="Path_766" data-name="Path 766" d="M775.658,2562.059a.167.167,0,0,1,.05-.2C775.715,2561.933,775.744,2562.01,775.658,2562.059Z"/>
            <path id="Path_767" data-name="Path 767" d="M781.346,2564.238a.183.183,0,0,1,.061-.2C781.413,2564.116,781.443,2564.2,781.346,2564.238Z"/>
            <path id="Path_768" data-name="Path 768" d="M779.574,2562.4a.183.183,0,0,1-.2-.057C779.448,2562.341,779.529,2562.31,779.574,2562.4Z"/>
            <path id="Path_769" data-name="Path 769" d="M775.563,2571.14a.152.152,0,0,1,.156-.081C775.7,2571.155,775.644,2571.168,775.563,2571.14Z"/>
            <path id="Path_770" data-name="Path 770" d="M780.356,2562.658a.1.1,0,0,1-.11-.049C780.324,2562.534,780.343,2562.59,780.356,2562.658Z"/>
            <path id="Path_771" data-name="Path 771" d="M779.852,2567.923a.163.163,0,0,1,.1-.14C779.966,2567.863,779.942,2567.917,779.852,2567.923Z"/>
            <path id="Path_772" data-name="Path 772" d="M780.133,2562.579a.12.12,0,0,1-.143-.064C780.052,2562.5,780.108,2562.506,780.133,2562.579Z"/>
            <path id="Path_773" data-name="Path 773" d="M779.853,2562.485a.092.092,0,0,1-.108-.048C779.819,2562.367,779.839,2562.42,779.853,2562.485Z"/>
            <path id="Path_774" data-name="Path 774" d="M779.345,2568.535a.18.18,0,0,1,.108-.133C779.463,2568.484,779.434,2568.534,779.345,2568.535Z"/>
            <path id="Path_775" data-name="Path 775" d="M778.983,2568.918a.191.191,0,0,1,.132-.132Q779.133,2568.936,778.983,2568.918Z"/>
            <path id="Path_776" data-name="Path 776" d="M777.507,2561.975l-.115.02c.017-.028.027-.071.051-.08C777.483,2561.9,777.5,2561.94,777.507,2561.975Z"/>
            <path id="Path_777" data-name="Path 777" d="M778.224,2569.594a.133.133,0,0,1,.12-.1A.1.1,0,0,1,778.224,2569.594Z"/>
            <path id="Path_778" data-name="Path 778" d="M776.809,2570.54a.154.154,0,0,1,.139-.087C776.936,2570.537,776.881,2570.552,776.809,2570.54Z"/>
            <path id="Path_779" data-name="Path 779" d="M777,2570.435a.116.116,0,0,1,.114-.069C777.095,2570.426,777.049,2570.437,777,2570.435Z"/>
            <path id="Path_780" data-name="Path 780" d="M777.181,2570.328c0-.029.013-.044.043-.037Z"/>
            <path id="Path_781" data-name="Path 781" d="M777.447,2570.157a.046.046,0,0,1,.058-.044Z"/>
            <path id="Path_782" data-name="Path 782" d="M777.275,2570.267l.061-.04Z"/>
            <path id="Path_783" data-name="Path 783" d="M776.677,2570.607l.041-.025A.068.068,0,0,1,776.677,2570.607Z"/>
            <path id="Path_784" data-name="Path 784" d="M779.8,2567.979l.047-.056Z"/>
            <path id="Path_785" data-name="Path 785" d="M780.9,2550.02l.024-.084h.16c.108.143.249.034.374.049s.127-.085.131-.172l.288.014a.07.07,0,0,0,.039-.031.312.312,0,0,0,.091-.2l.111-.017.05,0,.085.064c-.124.115.057.144.063.222-.027.053-.077.061-.127.07h-.14a.115.115,0,0,0-.128.044c-.03.049-.131.051-.111.119a.136.136,0,0,0,.146.1c.09-.008.182,0,.272,0l.109.026c.038.128-.44.131-.082.337,0,.093-.068.1-.138.1a1.523,1.523,0,0,0-.392-.037c-.237-.1.137-.082.029-.156l.07-.024c.157-.089.072-.13-.033-.167a.028.028,0,0,1-.039-.012c-.014-.028-.032-.034-.054-.007a.109.109,0,0,1-.116-.011.071.071,0,0,0-.04-.034l-.124-.027c-.061-.143-.148-.065-.222-.019s-.117.117-.206.128a.037.037,0,0,1-.049-.008C780.806,2550.216,780.944,2550.1,780.9,2550.02Z"/>
            <path id="Path_786" data-name="Path 786" d="M781.424,2548.627l.16.032v.267l-.016.16-.154-.036A1.04,1.04,0,0,0,781.424,2548.627Z"/>
            <path id="Path_787" data-name="Path 787" d="M781.3,2548.539l.015.006v.017l-.039.391C781.205,2548.8,781.1,2548.65,781.3,2548.539Z"/>
            <path id="Path_788" data-name="Path 788" d="M782.315,2549.871l.281.037c-.023.113-.314.055-.172.272l-.088.045-.109-.026c.129-.108.072-.187-.039-.258C782.238,2549.932,782.288,2549.924,782.315,2549.871Z"/>
            <path id="Path_789" data-name="Path 789" d="M782.359,2549.6a.094.094,0,0,1-.107.053l-.085-.064.142-.1Z"/>
            <path id="Path_790" data-name="Path 790" d="M782.511,2549.542l0,.021-.017-.01Z"/>
            <path id="Path_791" data-name="Path 791" d="M782.522,2550.361a.059.059,0,0,1-.022-.085Z"/>
            <path id="Path_792" data-name="Path 792" d="M779.366,2549.657a1.085,1.085,0,0,1-.616-.745c-.02-.075.026-.1.093-.094a.34.34,0,0,1,.33.251A5.758,5.758,0,0,0,779.366,2549.657Z"/>
            <path id="Path_793" data-name="Path 793" d="M780.06,2547.388c-.017.012-.028.026-.04.027a.139.139,0,0,1-.046-.016c.009-.011.017-.03.027-.031A.192.192,0,0,1,780.06,2547.388Z"/>
            <path id="Path_794" data-name="Path 794" d="M781.823,2550.443l-.032-.167C781.9,2550.313,781.98,2550.354,781.823,2550.443Z"/>
            <path id="Path_795" data-name="Path 795" d="M782.048,2549.942a.11.11,0,0,1-.128.044A.115.115,0,0,1,782.048,2549.942Z"/>
            <path id="Path_796" data-name="Path 796" d="M781.751,2550.264l-.054-.007C781.719,2550.23,781.737,2550.236,781.751,2550.264Z"/>
            <path id="Path_797" data-name="Path 797" d="M781.581,2550.246l-.04-.034A.071.071,0,0,1,781.581,2550.246Z"/>
            <path id="Path_798" data-name="Path 798" d="M781.876,2549.826c0-.03.013-.037.039-.031A.07.07,0,0,1,781.876,2549.826Z"/>
            </g>
        </g>
    </g>
</svg>