<?xml version="1.0" encoding="utf-8"?>
<!-- Generator: Adobe Illustrator 24.2.0, SVG Export Plug-In . SVG Version: 6.00 Build 0)  -->
<svg version="1.1" id="Слой_1" xmlns="http://www.w3.org/2000/svg" xmlns:xlink="http://www.w3.org/1999/xlink" x="0px" y="0px"
	 viewBox="0 0 96 96" style="enable-background:new 0 0 96 96;" xml:space="preserve">
<style type="text/css">
	.st0{stroke:#000000;stroke-width:0.5;}
</style>
<path class="st0" d="M75.8,48.5V33.7h2.4c0.8,0,1.4-0.6,1.4-1.4v-6.6c0-0.8-0.6-1.4-1.4-1.4H54.6c-0.8,0-1.4,0.6-1.4,1.4v6.6
	c0,0.8,0.6,1.4,1.4,1.4h2.4v14.8c-0.3,0.1-0.6,0.3-1,0.4l-4.6-7.2V13.5h0.7c2.6,0,4.7-2.1,4.7-4.7C56.8,6.2,54.6,4,52,4H31.6
	C29,4,26.9,6,26.9,8.7c0,2.6,2.1,4.7,4.7,4.7h0.8v28.2L4.9,84.5c-2.2,3.5,0.3,8,4.4,8c14.3,0,57.7,0,74.3,0c0.4,0,0.7-0.1,1-0.4
	C98.5,78.8,93.7,55.4,75.8,48.5z M55.8,27.1h20.8v3.9c-2.6,0-17.6,0-20.8,0V27.1z M58.6,50.7c0.6-0.1,1-0.7,1-1.2V33.7H73v15.8
	c0,0.6,0.4,1.1,1,1.2c6.6,2.2,12,7.5,14.4,14.1H44.2C46.7,58.4,51.8,53.1,58.6,50.7z M29.5,8.7c0-1.1,0.8-1.9,1.9-1.9H52
	c1.1,0,1.9,0.8,1.9,1.9c0,1.1-0.8,1.9-1.9,1.9c-8,0-13.7,0-20.5,0C30.5,10.7,29.5,9.8,29.5,8.7z M34.9,42.9c0.1-0.3,0.3-0.4,0.3-0.7
	V13.5h13.4v28.6c0,0.3,0.1,0.6,0.3,0.7l4.7,7.2c-4.3,2.4-8,6.2-10.5,10.9H23.3L34.9,42.9z M9.3,89.8c-1.9,0-3-2.1-2.1-3.7l14.3-22.1
	h20.2c-3.5,8.9-1.7,18.8,4.2,25.9H9.3z M83,89.8H49.6c-5.8-5.8-8.2-14.1-6.2-22.1h45.8c0.4,1.8,0.7,3.6,0.7,5.5
	C89.9,79.4,87.4,85.3,83,89.8z"/>
<path d="M81,66c-2.9,0-5.4,2.4-5.4,5.4c0,2.9,2.4,5.4,5.4,5.4c3,0,5.4-2.4,5.4-5.4C86.4,68.5,83.9,66,81,66z M81,74
	c-1.4,0-2.6-1.1-2.6-2.6c0-1.4,1.1-2.6,2.6-2.6c1.5,0,2.6,1.1,2.6,2.6C83.6,72.9,82.4,74,81,74z"/>
<path d="M59.7,71.1c-2.9,0-5.4,2.4-5.4,5.4c0,3,2.4,5.4,5.4,5.4c2.9,0,5.4-2.4,5.4-5.4C65.1,73.5,62.6,71.1,59.7,71.1z M59.7,79.2
	c-1.4,0-2.6-1.1-2.6-2.6c0-1.5,1.1-2.6,2.6-2.6c1.4,0,2.6,1.1,2.6,2.6C62.3,78,61.1,79.2,59.7,79.2z"/>
<path d="M28.3,68.8c-3,0-5.7,2.5-5.7,5.7c0,3.2,2.5,5.7,5.7,5.7c3.2,0,5.7-2.5,5.7-5.7C34,71.3,31.3,68.8,28.3,68.8z M28.3,77.2
	c-1.5,0-2.9-1.2-2.9-2.9c0-1.7,1.2-2.9,2.9-2.9c1.5,0,2.9,1.2,2.9,2.9C31.2,76,29.8,77.2,28.3,77.2z"/>
<path d="M40.6,53.4c2.9,0,5.4-2.4,5.4-5.4s-2.4-5.4-5.4-5.4c-3,0-5.4,2.4-5.4,5.4S37.7,53.4,40.6,53.4z M40.6,45.5
	c1.4,0,2.6,1.1,2.6,2.6c0,1.5-1.1,2.6-2.6,2.6c-1.5,0-2.6-1.1-2.6-2.6C38,46.6,39.2,45.5,40.6,45.5z"/>
</svg>
