<svg width="132" height="31" viewBox="0 0 132 31" fill="none" xmlns="http://www.w3.org/2000/svg">
<path d="M11.2681 12.6817C13.8816 12.7248 15.6815 13.796 16.7531 16.7946L21.3369 14.5673C19.6664 10.1969 15.5961 8.52607 11.2681 8.48336C5.65543 8.44024 0 12.0393 0 19.4516C0 26.8634 5.65543 30.4625 11.2681 30.4197C15.5961 30.3766 19.6664 28.7054 21.3369 24.3358L16.7531 22.1077C15.6815 25.1067 13.8816 26.1779 11.2681 26.2206C8.35478 26.2633 5.56959 24.6783 5.56959 19.4516C5.56959 14.224 8.35478 12.639 11.2681 12.6817ZM36.9547 16.3235C36.9547 26.1352 33.0133 26.9492 31.5129 26.9492C29.1138 26.9492 28.9425 24.4644 28.9425 20.8225V8.74006H23.3721V20.8225C23.3721 25.3634 23.9295 30.5052 29.9275 30.5052C32.7981 30.5052 35.3262 29.0488 36.9547 25.878V30.1626H42.5247V8.74006H36.9547V16.3235ZM58.0184 8.39752H57.933C54.4191 8.39752 52.0627 9.68306 50.6913 12.6817V8.74006H45.1209V30.1626H50.6913V23.2647C50.6913 15.4237 53.0908 13.2818 58.0184 13.2818V8.39752ZM68.5684 8.61191C64.4121 8.56879 59.3133 10.1969 58.585 15.2524L63.8548 16.4094C64.4121 13.0251 67.2824 12.6817 68.6538 12.6817C70.2824 12.6817 72.3812 13.1959 72.3812 15.8097C72.3812 19.8368 57.7278 14.61 57.7278 24.5071C57.7278 32.0474 67.7539 32.2618 72.3812 26.8634V30.1626H77.9516V17.0094C77.9516 10.5821 73.1526 8.65463 68.5684 8.61191ZM72.3812 19.8368C72.3812 29.0057 63.2982 28.9198 63.2982 24.5071C63.2982 19.323 69.854 21.1651 72.3812 19.4943V19.8368ZM90.7073 30.1626H96.2777V8.74006H90.7073V30.1626ZM93.4276 0.171272C91.4996 0.171272 89.9363 1.73447 89.9363 3.66238C89.9363 5.59069 91.4996 7.15389 93.4276 7.15389C95.356 7.15389 96.9197 5.59069 96.9197 3.66238C96.9197 1.73447 95.356 0.171272 93.4276 0.171272ZM110.591 8.74006H106.992V6.02955C106.992 3.71598 107.763 2.98737 110.462 2.98737V0C103.736 0 101.422 2.1419 101.422 7.58348V8.74006H98.0803V13.1959H101.422V30.1626H106.992V13.1959H110.591V8.74006ZM132 19.4516C132 12.0393 126.73 8.52607 121.159 8.48336C115.547 8.44024 110.362 12.0393 110.362 19.4516C110.362 26.8634 115.547 30.4625 121.159 30.4197C126.258 30.3766 129.771 28.0203 131.4 24.1214L127.072 22.3221C125.744 24.9782 123.644 25.9208 121.159 25.9635C119.017 26.0066 116.575 24.9782 116.061 21.1651H131.871C131.956 20.6081 132 20.0512 132 19.4516ZM116.146 17.1807C116.875 14.0527 119.06 12.853 121.159 12.8961C123.301 12.9388 125.487 14.0958 126.172 17.1807H116.146ZM85.2812 24.1331V0H79.7116V22.5788C79.7116 28.0203 82.0244 30.1626 88.7515 30.1626V27.1749C86.0521 27.1749 85.2812 26.4463 85.2812 24.1331Z" fill="black"/>
</svg>
