<svg xmlns="http://www.w3.org/2000/svg" xmlns:xlink="http://www.w3.org/1999/xlink" viewBox="0 0 409.42 94.87"><defs><style>.cls-1{fill:none;}.cls-2{clip-path:url(#clip-path);}.cls-3{fill:#010101;}</style><clipPath id="clip-path" transform="translate(0 0)"><rect class="cls-1" width="409.42" height="94.87"/></clipPath></defs><g id="Layer_2" data-name="Layer 2"><g id="Layer_1-2" data-name="Layer 1"><g class="cls-2"><path class="cls-3" d="M264.51,74.85V0H247.24V70c0,16.88,7.17,23.53,28,23.53V84.29c-8.38,0-10.77-2.26-10.77-9.44m95.74-21.56c2.26-9.7,9-13.42,15.55-13.29s13.42,3.72,15.54,13.29Zm49.17,7c0-23-16.35-33.88-33.62-34s-33.49,11-33.49,34,16.08,34.16,33.49,34c15.81-.13,26.71-7.44,31.76-19.53l-13.42-5.58C390,77.48,383.5,80.4,375.8,80.53c-6.65.14-14.22-3-15.82-14.88h49a35.31,35.31,0,0,0,.4-5.32M343,27.11H331.85V18.7c0-7.18,2.39-9.43,10.77-9.43V0c-20.87,0-28,6.64-28,23.52v3.59H304.21V40.93h10.37V93.56h17.27V40.93H343ZM289.78.53a10.83,10.83,0,1,0,10.83,10.83A10.83,10.83,0,0,0,289.78.53m-8.44,93h17.28V27.11H281.34Zm-56.84-32C224.5,90,196.33,89.7,196.33,76c0-16.09,20.33-10.37,28.17-15.55ZM212.68,26.71c-12.9-.13-28.71,4.92-31,20.6l16.35,3.59c1.72-10.5,10.63-11.56,14.88-11.56,5.05,0,11.56,1.59,11.56,9.7,0,12.49-45.45-3.72-45.45,27,0,23.38,31.1,24,45.45,7.3V93.56h17.28V52.76c0-19.94-14.89-25.92-29.1-26M180,26.05h-.26c-10.9,0-18.21,4-22.46,13.29V27.11H140V93.56h17.28V72.16c0-24.32,7.44-31,22.72-31ZM114.62,50.63c0,30.44-12.23,33-16.88,33-7.44,0-8-7.71-8-19V27.11H72.49V64.59c0,14.08,1.73,30,20.33,30,8.91,0,16.75-4.52,21.8-14.35V93.56H131.9V27.11H114.62ZM35,39.34c8.11.13,13.69,3.45,17,12.75l14.22-6.91C61,31.63,48.37,26.45,35,26.31,17.54,26.18,0,37.34,0,60.33s17.54,34.16,35,34C48.37,94.22,61,89,66.18,75.48L52,68.57c-3.32,9.31-8.9,12.63-17,12.76-9,.13-17.68-4.78-17.68-21S25.91,39.2,35,39.34" transform="translate(0 0)"/></g></g></g></svg>