<svg width="919" height="730" viewBox="0 0 919 730" fill="none" xmlns="http://www.w3.org/2000/svg">
<path d="M57.8748 688.513C310.512 663.222 561.136 638.034 811.772 613.128C857.837 608.547 903.979 605.924 950.02 600.818C976.168 597.918 993.809 584.841 966.986 551.178C945.09 523.702 957.963 509.486 975.431 492.205C1014.11 453.931 1023.72 392.032 998.032 337.886C989.532 319.964 974.344 302.538 994.504 287.235C1030.89 259.625 1030.48 211.276 1039.96 167.864C1045.29 143.406 1051.02 119.07 1055.71 94.4091C1059.82 72.8621 1085.67 55.8341 1072.05 33.6145C1057.17 9.34906 1033.79 26.8268 1014.16 32.8929C754.629 113.086 495.127 193.491 235.594 273.696C179.255 291.11 143.536 334.831 136.237 414.584C134.359 435.106 126.96 453.093 113.852 458.45C73.7045 474.858 57.8756 530.684 23.4557 556.488C10.6307 566.103 -3.67256 596.107 8.25976 608.559C29.3402 630.563 23.9516 683.757 57.8748 688.513Z" fill="#FAF5E9"/>
</svg>
