<svg width="891" height="449" viewBox="0 0 891 449" fill="none" xmlns="http://www.w3.org/2000/svg">
<path d="M-370.007 241.481C-367.556 187.557 -453.639 178.789 -421.49 105.127C-416.803 94.0269 -416.294 81.9795 -420.067 71.496C-423.841 61.0125 -431.607 52.9019 -441.745 48.8552C-503.442 27.9234 -517.299 -40.3936 -564.443 -75.7396C-575.813 -84.2195 -585.928 -115.335 -581.744 -119.785C-522.849 -176.867 -546.91 -272.206 -476.551 -321.094C-435.152 -349.245 -392.893 -361.761 -343.43 -349.927C21.3969 -258.426 381.082 -152.213 740.955 -46.5726C757.431 -41.8079 816.243 -48.6159 762.381 1.44215C751.499 11.4895 768.594 23.4989 778.307 25.8226C823.153 40.769 827.512 68.4502 807.653 113.376C761.493 220.404 862.921 283.857 863.301 377.747C863.386 399.263 903.059 407.83 885.777 432.287C866.158 460.3 835.065 444.839 810.905 441.013C612.002 409.813 413.375 377.479 215.025 344.012C42.5666 315.299 -129.609 285.728 -302.001 256.518C-323.035 252.925 -343.684 247.573 -370.102 241.767" fill="#B9D27F" fill-opacity="0.48"/>
</svg>
