<svg width="117" height="102" viewBox="0 0 117 102" fill="none" xmlns="http://www.w3.org/2000/svg">
<path d="M0.220703 50.7757L29.347 101.296L87.5995 101.296L116.984 50.7757L87.5995 0.513565L29.347 0.513565L0.220703 50.7757Z" fill="#A86129"/>
<path d="M63.7873 50.4591H62.8469V47.9511C62.8469 45.7561 61.0287 43.9379 58.8337 43.9379C56.6388 43.9379 54.8205 45.7561 54.8205 47.9511V50.4591H53.8801C52.7516 50.4591 51.8108 51.3995 51.8108 52.5284V59.3633C51.8108 60.4918 52.7512 61.4326 53.8801 61.4326H56.3881V63.69C56.3881 63.8155 56.4507 63.9406 56.5137 64.0662L57.1409 65.0066C57.329 65.2572 57.2664 65.5708 57.0784 65.8219L56.5766 66.3861C56.3886 66.6368 56.3886 67.0134 56.5766 67.2015L57.0158 67.7032C57.2039 67.9538 57.2039 68.3304 57.0158 68.5185L56.5766 69.0202C56.3886 69.2708 56.3886 69.6474 56.5766 69.8355L57.0784 70.3998C57.2664 70.6504 57.2664 70.964 57.1409 71.2151L56.5137 72.1555C56.4511 72.281 56.3881 72.4061 56.3881 72.5317V73.4721C56.3881 73.6602 56.4507 73.8482 56.5762 73.9738L58.3945 75.667C58.6451 75.9176 59.0217 75.9176 59.2723 75.667L61.0906 73.9738C61.2161 73.8482 61.2787 73.6602 61.2787 73.4721L61.2791 61.4325H63.7871C64.9156 61.4325 65.8564 60.4921 65.8564 59.3632V52.5283C65.8564 51.3994 64.916 50.459 63.7871 50.459L63.7873 50.4591ZM57.2661 47.9506C57.2661 47.0728 57.9559 46.383 58.8338 46.383C59.7116 46.383 60.4014 47.0728 60.4014 47.9506V50.4586H57.3287V47.9506H57.2661ZM60.2133 58.2974C60.2758 58.611 60.0878 58.8616 59.7741 58.8616H57.9559C57.6423 58.8616 57.4542 58.548 57.5167 58.2974L58.144 55.9144C57.6423 55.6638 57.2661 55.1621 57.2661 54.5349C57.2661 53.657 57.9559 52.9672 58.8338 52.9672C59.7116 52.9672 60.4014 53.657 60.4014 54.5349C60.4014 55.1621 60.0252 55.6634 59.5235 55.9144L60.2133 58.2974Z" fill="#FEF6EA"/>
<path d="M79.2678 34.8106C79.9984 35.5412 81.183 35.5412 81.9136 34.8106C82.6442 34.0799 82.6442 32.8954 81.9136 32.1647C81.183 31.4341 79.9984 31.4341 79.2678 32.1647C78.5372 32.8954 78.5372 34.0799 79.2678 34.8106ZM69.9248 44.6497L80.8388 33.7357L80.3427 33.2396L69.4287 44.1536L69.9248 44.6497Z" fill="#FEF6EA"/>
<path d="M39.0383 34.5657C38.3077 35.2963 37.1231 35.2963 36.3925 34.5657C35.6619 33.8351 35.6619 32.6505 36.3925 31.9199C37.1231 31.1892 38.3077 31.1893 39.0383 31.9199C39.769 32.6505 39.769 33.8351 39.0383 34.5657ZM48.3813 44.4048L37.4674 33.4908L37.9635 32.9947L48.8774 43.9087L48.3813 44.4048Z" fill="#FEF6EA"/>
<path d="M59.1531 25.2915C60.1863 25.2915 61.0239 24.4539 61.0239 23.4207C61.0239 22.3874 60.1863 21.5498 59.1531 21.5498C58.1198 21.5498 57.2822 22.3874 57.2822 23.4207C57.2822 24.4539 58.1198 25.2915 59.1531 25.2915ZM59.5039 38.8553V23.4207H58.8023V38.8553H59.5039Z" fill="#FEF6EA"/>
<path d="M86.7481 54.2902C86.7481 55.3234 87.5857 56.161 88.619 56.161C89.6523 56.161 90.4899 55.3234 90.4899 54.2902C90.4899 53.2569 89.6523 52.4193 88.619 52.4193C87.5857 52.4193 86.7481 53.2569 86.7481 54.2902ZM73.1843 54.6409H88.619V53.9394H73.1843V54.6409Z" fill="#FEF6EA"/>
<path d="M30.8561 54.5349C30.8561 55.5682 30.0185 56.4058 28.9852 56.4058C27.952 56.4058 27.1144 55.5682 27.1144 54.5349C27.1144 53.5017 27.952 52.664 28.9852 52.664C30.0185 52.664 30.8561 53.5017 30.8561 54.5349ZM44.4199 54.8857H28.9852V54.1841H44.4199V54.8857Z" fill="#FEF6EA"/>
<path d="M78.5511 73.7182C77.8288 74.4571 77.8422 75.6416 78.5811 76.3639C79.3199 77.0862 80.5044 77.0727 81.2267 76.3339C81.949 75.595 81.9356 74.4105 81.1967 73.6882C80.4579 72.9659 79.2734 72.9794 78.5511 73.7182ZM68.7299 64.6078L79.6437 75.2769L80.1341 74.7752L69.2203 64.1061L68.7299 64.6078Z" fill="#FEF6EA"/>
<path d="M39.0533 73.7182C38.331 72.9794 37.1465 72.9659 36.4076 73.6882C35.6688 74.4105 35.6553 75.595 36.3776 76.3339C37.0999 77.0727 38.2844 77.0862 39.0232 76.3639C39.7621 75.6416 39.7755 74.4571 39.0533 73.7182ZM48.3842 64.1061L37.4702 74.7752L37.9606 75.2769L48.8746 64.6078L48.3842 64.1061Z" fill="#FEF6EA"/>
<rect x="58.4514" y="24.3672" width="1.40315" height="14.7331" rx="0.701576" fill="#FEF6EA"/>
<rect x="38.1057" y="34.4799" width="1.40315" height="14.7331" rx="0.701576" transform="rotate(-45 38.1057 34.4799)" fill="#FEF6EA"/>
<rect width="1.40315" height="14.7331" rx="0.701576" transform="matrix(-0.707107 -0.707107 -0.707107 0.707107 80.3853 34.4799)" fill="#FEF6EA"/>
<rect x="29.687" y="55.2365" width="1.40315" height="15.4347" rx="0.701576" transform="rotate(-90 29.687 55.2365)" fill="#FEF6EA"/>
<rect width="1.40315" height="15.4347" rx="0.701576" transform="matrix(0 -1 -1 0 87.9175 55.2365)" fill="#FEF6EA"/>
<rect x="48.5237" y="63.6554" width="1.40315" height="14.7331" rx="0.701576" transform="rotate(45 48.5237 63.6554)" fill="#FEF6EA"/>
<rect width="1.40315" height="14.7331" rx="0.701576" transform="matrix(-0.707107 0.707107 0.707107 0.707107 69.2656 63.6554)" fill="#FEF6EA"/>
</svg>
