<svg width="36" height="36" viewBox="0 0 36 36" fill="none" xmlns="http://www.w3.org/2000/svg">
<path d="M24.9191 35.643H2.18857C0.98175 35.643 0 34.6612 0 33.4541V2.55527C0 1.34845 0.981485 0.366699 2.18857 0.366699H18.3409C18.5279 0.366699 18.7078 0.441111 18.8401 0.573403L26.8948 8.63536C27.0267 8.76799 27.1011 8.94714 27.1011 9.13419V19.7295C27.1011 20.1192 26.7852 20.4351 26.3956 20.4351C26.006 20.4351 25.6901 20.1192 25.6901 19.7295V9.42611L18.0484 1.7775H2.18892C1.76002 1.7775 1.41139 2.12613 1.41139 2.55504V33.4539C1.41139 33.89 1.75244 34.2318 2.18892 34.2318H24.9195C25.3442 34.2318 25.6901 33.8828 25.6901 33.4539V31.8216C25.6901 31.432 26.006 31.1161 26.3956 31.1161C26.7853 31.1161 27.1012 31.432 27.1012 31.8216V33.4539C27.1012 34.6611 26.1221 35.6428 24.9191 35.6428L24.9191 35.643Z" fill="#475036"/>
<path d="M26.3951 9.83606H19.8198C18.6137 9.83606 17.6326 8.85495 17.6326 7.64888V1.07357C17.6326 0.788332 17.8045 0.531005 18.068 0.421801C18.3319 0.311908 18.6343 0.372539 18.8369 0.574756L26.8938 8.63164C27.0957 8.83351 27.156 9.13667 27.0467 9.40055C26.9375 9.66408 26.6802 9.83598 26.395 9.83598L26.3951 9.83606ZM19.0433 2.77677V7.64888C19.0433 8.07674 19.3916 8.42501 19.8195 8.42501H24.6916L19.0433 2.77677Z" fill="#475036"/>
<path d="M15.0793 9.41835H5.61836C5.22874 9.41835 4.91284 9.10246 4.91284 8.71284C4.91284 8.32322 5.22874 8.00732 5.61836 8.00732H15.0793C15.4689 8.00732 15.7848 8.32322 15.7848 8.71284C15.7848 9.10246 15.4689 9.41835 15.0793 9.41835Z" fill="#475036"/>
<path d="M21.4863 14.0634H5.61933C5.22971 14.0634 4.91382 13.7475 4.91382 13.3579C4.91382 12.9682 5.22971 12.6523 5.61933 12.6523H21.4863C21.876 12.6523 22.1919 12.9682 22.1919 13.3579C22.1919 13.7475 21.876 14.0634 21.4863 14.0634Z" fill="#475036"/>
<path d="M21.4863 18.7084H5.61933C5.22971 18.7084 4.91382 18.3925 4.91382 18.0029C4.91382 17.6133 5.22971 17.2974 5.61933 17.2974H21.4863C21.876 17.2974 22.1919 17.6133 22.1919 18.0029C22.1919 18.3925 21.876 18.7084 21.4863 18.7084Z" fill="#475036"/>
<path d="M20.1502 23.351H5.61665C5.22703 23.351 4.91113 23.0351 4.91113 22.6455C4.91113 22.2558 5.22703 21.9399 5.61665 21.9399H20.1502C20.5399 21.9399 20.8558 22.2558 20.8558 22.6455C20.8561 23.0351 20.5402 23.351 20.1506 23.351H20.1502Z" fill="#475036"/>
<path d="M19.4765 28.0004H5.61665C5.22703 28.0004 4.91113 27.6845 4.91113 27.2949C4.91113 26.9052 5.22703 26.5894 5.61665 26.5894H19.4765C19.8661 26.5894 20.182 26.9052 20.182 27.2949C20.182 27.6845 19.8658 28.0004 19.4765 28.0004Z" fill="#475036"/>
<path d="M25.4268 32.6062C23.6562 32.6062 21.8955 31.9262 20.5809 30.6117C19.2891 29.3201 18.5784 27.6029 18.5791 25.7768C18.5801 23.951 19.2918 22.234 20.5836 20.9426C21.8741 19.6518 23.5904 18.9408 25.4158 18.9404H25.4172C27.243 18.9404 28.9592 19.6515 30.25 20.9426C32.5213 23.2135 32.8999 26.8106 31.1505 29.4966C30.8994 29.8879 30.5956 30.2634 30.25 30.6089C29.9031 30.9558 29.5266 31.2607 29.1311 31.5146C28.0018 32.2481 26.7114 32.6063 25.4268 32.6063L25.4268 32.6062ZM25.4168 20.3515H25.4158C23.9672 20.3518 22.6051 20.9161 21.581 21.9403C20.5554 22.9655 19.9905 24.3283 19.9898 25.7776C19.9891 27.2265 20.5534 28.5893 21.5782 29.6142C23.3789 31.4148 26.233 31.7155 28.365 30.3297C28.6792 30.1278 28.9765 29.887 29.2521 29.6114C29.5263 29.3372 29.7661 29.0409 29.9652 28.7305C31.3556 26.5965 31.0545 23.7424 29.2521 21.9403C28.2276 20.9158 26.8658 20.3515 25.4169 20.3515L25.4168 20.3515Z" fill="#475036"/>
<path d="M32.746 35.6233C32.1021 35.6233 31.458 35.3784 30.9674 34.8878L27.7777 31.6978C27.5021 31.4222 27.5021 30.9758 27.7777 30.7002C28.0533 30.4247 28.4998 30.4247 28.7753 30.7002L31.965 33.8902C32.3956 34.3208 33.0963 34.3208 33.5269 33.8902C33.7339 33.6832 33.8528 33.3983 33.8528 33.1093C33.8528 32.8127 33.7377 32.5347 33.5293 32.3259L30.3397 29.1359C30.0641 28.8603 30.0641 28.4139 30.3397 28.1383C30.6153 27.8628 31.0617 27.8627 31.3373 28.1383L34.5269 31.3283C35.0019 31.8033 35.2638 32.4359 35.2638 33.1093C35.2638 33.77 34.9944 34.418 34.5245 34.8879C34.0339 35.3781 33.3901 35.6234 32.7459 35.6234L32.746 35.6233Z" fill="#475036"/>
</svg>
