<svg width="87" height="86" viewBox="0 0 87 86" fill="none" xmlns="http://www.w3.org/2000/svg">
<path d="M22.1556 13.4912L21.9757 14.4517L21.615 16.0729L18.1337 15.8921L17.9537 15.2923L14.8924 14.9316L13.1696 14.4317C8.07539 19.7507 4.49662 26.3352 2.80396 33.503L2.86727 33.7212L3.24798 34.2585L3.66786 35.2791L4.56841 36.8394V38.5196L5.58891 39.4202L6.84934 40.9205L8.22972 40.8006L9.13027 40.08L10.0908 40.8006L10.9313 41.7011L11.6519 41.2813L12.4925 41.8811L13.0331 42.3609L12.8532 43.5014L13.3331 44.2819L14.8934 45.0625L16.1538 45.1825L16.4495 46.0289L15.2616 47.7267L15.4315 51.8861L16.7903 54.5178L19.931 57.0644L20.9498 59.017L21.3738 62.2426L21.4588 66.8261V69.1178L22.4776 69.7118L22.7325 70.8156L22.5626 72.6833L23.3265 73.7021L25.1942 75.5698L26.5979 74.2953L26.8378 73.5155L25.8773 71.6545L26.418 70.0342L26.9578 69.0736L28.3981 69.3136L29.1787 67.8132L27.9783 66.2521L29.8394 65.8922L31.2797 64.4518V63.3114L31.4597 61.871L32.6601 60.8505L34.8211 60.3099V58.9295L35.061 56.9484L36.0815 54.3675L37.042 53.9468L37.3419 52.3265L36.3214 52.5065L35.8416 50.8862L34.2204 50.4663L33.3807 49.7457L31.5796 49.9856L31.0998 49.5058L30.1393 49.8057L28.5181 49.5058L29.1788 48.4253L28.7581 46.5642L27.2577 46.0244L26.5371 45.5438L25.3975 44.824L23.8963 44.0434L22.7558 43.9834L21.7962 43.1429L20.235 42.723V44.2242L19.7552 43.9843L19.9351 42.9637L18.7347 43.7443L18.194 44.1642L16.8736 43.5036L16.5137 44.2842L15.0134 44.1042L14.3528 43.4436L14.2928 42.7838L14.4727 41.6433L14.2928 41.1635L12.8524 40.6228L12.9124 39.4824L13.3323 38.4619L11.8919 39.3624L10.8714 39.8422L9.13031 39.1825L9.07033 36.8415L9.4902 35.0404L11.1105 33.72L12.3709 34.3198L12.6708 33.7791L14.292 33.2393L15.1917 33.9599L15.7923 35.821L16.9927 36.1809L16.8736 35.1595L16.9336 33.1185L18.9746 32.158L19.9351 29.6373L20.9556 28.9175L22.6359 27.2364L25.1575 26.3967L25.8773 25.796L26.2372 23.695L28.6381 24.2357L30.3192 23.5151L30.919 21.714L29.5986 20.2737L29.4786 19.7339L27.4976 18.4135H25.6374L24.9767 20.0938L22.6959 22.9146L21.3755 22.6747L21.1356 21.2943L19.6352 19.1333L20.6549 17.8729L22.276 16.7324L24.437 16.6724L26.5372 16.1926L26.598 14.9313L24.8569 15.7119L24.437 15.352L23.6564 13.9716L22.1556 13.4912Z" stroke="black" stroke-width="1.5"/>
<path d="M75.77 58.5786L75.6771 58.6715L75.6419 58.7982L75.217 60.326L75.2121 60.3438L75.2085 60.3618L75.0175 61.3155L74.2401 61.4885L73.9269 60.6L74.1342 59.7031L74.7821 58.4876L74.792 58.469L74.8003 58.4496L75.2755 57.3423L76.1987 56.3575L76.4403 56.5184L76.6823 57.6664L75.77 58.5786Z" stroke="black"/>
<path d="M62.55 14.3315L61.1996 14.7214L60.0592 15.322L59.0987 16.2226L58.7388 16.7624L58.0182 17.2131H57.2076L56.427 18.2636L56.7569 18.9234L57.8974 19.2533L58.678 19.3132L59.2486 20.2438L59.5185 20.5737L60.9297 19.5532L61.3496 19.0134L60.9889 18.0229L60.4191 17.4231L61.3496 16.6725L62.4901 16.3126L63.4506 16.0727L63.7205 16.4326L62.73 17.0923L62.3701 17.8429L63.8105 18.4735L64.3803 18.1137L65.4608 17.9637L65.6407 18.5635L65.25 19.2241L64.1695 19.3141H63.4189L62.5484 20.2147L62.3685 21.0852L62.2785 21.4151L60.7482 21.1452L59.9676 21.2651L57.3568 21.9857L55.8556 22.4656L55.3458 23.2753L54.4753 23.6952L53.3348 23.8451H51.9561V24.5049L52.8866 25.1647L53.5173 25.7054V26.426L52.3768 26.7267L51.567 26.5768L50.4266 26.3968L50.0359 27.9272L50.0059 29.3675L50.2458 30.0581H51.6862L53.0965 29.8782L54.1171 29.0376L54.4178 28.1671L55.6782 27.4465L55.6482 26.516L56.6987 26.426L57.2094 27.5065L57.8092 26.9658L58.5898 26.5459L59.3703 26.8458L60.9315 26.7859L62.042 27.6856L62.7317 28.6761L62.9417 29.4858L63.1216 30.2364L64.1721 30.3563L64.2321 29.5758L63.8414 28.2554L65.4617 28.1654L65.7316 28.3453L65.6416 27.5348L65.4317 26.6042L66.0623 25.8537L66.603 25.1039L67.9834 25.2239L67.8634 26.2744L68.6731 26.3044L69.1238 25.6737L70.1143 26.1236L71.1048 26.9342L71.3747 28.0146L70.4442 28.4645L68.4632 28.0746L67.2328 28.5245L66.1523 29.1851L66.2722 29.9948L67.2028 30.3547L69.3038 30.2947L69.4237 31.0153L69.3337 32.7256L68.5832 33.1455L65.7924 32.7256L64.532 32.6056L63.3615 31.885L62.5518 32.6956L61.4397 33.5995L59.9993 32.609L59.0988 32.2483L58.2882 31.3186L57.8383 30.388L56.0048 30.6663H54.6461L53.5856 31.0478L52.3968 31.2178L50.9115 31.7268L49.6802 33.213L48.1524 34.4434L47.6434 35.5047L46.582 36.1412L45.9881 37.584L46.1155 38.5604L46.582 39.6217L46.4546 40.7671L45.6907 41.4036L45.9881 42.9314L46.7945 43.9928L48.1099 45.0116L49.1712 46.1154L50.8265 46.2853L52.3543 46.3703L54.1795 46.1162L55.4108 45.7763L56.0897 45.9888L56.9386 46.5827L57.6176 47.2192L57.83 48.6629L57.5751 49.8933L58.2965 51.2095L59.2304 51.8885L59.6128 53.0348L59.4428 54.2235L59.7402 55.3698L59.1462 56.8552L59.0188 57.7465L59.4853 59.1894L60.1217 60.1657L60.8432 61.2695L60.5033 62.2034L60.5882 62.7974L61.2672 63.9012L61.4796 64.3252L61.862 65.2166L61.9894 65.8955L62.3285 66.5745L63.6447 66.5728L64.0688 66.6578L65.809 65.9364L66.1906 65.2999L67.1669 64.4935L69.4586 61.4795L69.7127 60.2065L69.7552 59.0603L69.8827 57.7015L70.6891 57.0226L71.7504 56.3436L72.0053 56.0037L72.4293 54.6459L71.962 53.542L71.877 51.3779L72.0894 50.2316L72.5993 49.6368L73.4482 49.0003L74.0846 48.5338L75.4009 47.515L76.5038 45.9446L77.0986 44.7984L77.6076 43.737L77.5652 42.9306L76.9712 42.6332L75.7824 43.1431L74.7636 43.6521L73.5756 43.4821L73.0666 42.5924L72.3027 41.362L71.4963 40.2157L70.7749 39.2394L70.3501 37.5841L69.6286 36.5236L68.7797 35.0807L69.0347 34.3168L69.4162 34.4018L70.0951 35.3781L70.4775 35.9721L71.2414 37.1601L72.1328 38.5604L73.2791 40.3432L73.7881 41.3195L73.9156 41.786L74.9769 42.2959L76.2498 41.8718L77.3961 41.1504L78.245 40.4715L79.6029 39.4951L80.4093 38.8162L80.5367 37.9248L80.0269 37.0334L78.669 36.5669L77.6077 36.2695L76.7588 36.0146L75.9099 35.2932L75.3584 34.5293L75.1035 33.6804L75.5284 33.1705L75.6983 33.0856L77.0562 33.807L77.4811 34.316L78.5849 34.6134L79.4338 35.1232L80.4526 35.5056L81.3864 35.7605H82.2353L82.4053 35.718L83.6115 35.5356L83.6099 35.5348C82.2337 28.039 78.8089 21.0696 73.7164 15.3997L72.0644 15.3514L71.2239 15.5314L70.3233 15.3814L69.6327 15.3214L69.3628 15.9812L69.6027 16.3719L67.8616 16.9117L67.0211 16.6718L66.8111 16.3419L66.3005 15.7421L66.6604 15.4422L67.0211 14.9624L66.1205 14.7824L63.8096 14.6625L62.55 14.3315Z" stroke="black" stroke-width="1.5"/>
<path d="M34.0683 9.64801H32.658L30.4671 9.13818L29.8065 9.28813L29.5366 9.61803L30.2572 9.94793L30.4671 10.1279L30.1072 10.5477L29.6873 10.7277L29.3875 11.6282L29.9273 12.3788L30.4971 12.3188L31.3976 11.749L31.9983 11.2692L33.0188 11.839L33.3487 12.0789L34.4291 12.0189L36.1394 11.5391L36.77 12.2597L37.0999 13.82L36.95 14.8105L36.5301 15.6211L36.2002 17.0614L36.4401 17.752L37.1307 18.1719L38.0613 18.3518L39.0218 17.4813L40.0423 16.5208L41.6026 16.1909L42.4132 16.0709L43.0138 15.861L44.0643 15.2304H45.2647L45.8654 15.2004L46.1953 14.4498L46.6151 13.8192L47.4257 12.8887L48.2663 12.5588L48.9868 11.9581L49.7674 10.9676L49.9174 10.247L48.9868 9.85717L46.6759 9.73721L45.5955 9.97713L43.6744 10.0971L41.6035 9.97713L39.5025 10.337L38.362 10.0971L37.1316 9.91715L36.1411 10.367L35.4205 10.6669L34.8807 10.517L34.4908 10.0071L34.0683 9.64801Z" stroke="black" stroke-width="1.5"/>
<path d="M43 1C19.8141 1 1 19.8138 1 43C1 66.1862 19.8138 85 43 85C66.1862 85 85 66.1862 85 43C85 19.8138 66.1862 1 43 1ZM43 2.39286C65.4289 2.39286 83.5882 20.5701 83.5882 43.0003C83.5882 65.4304 65.4284 83.5885 43 83.5885C20.5716 83.5885 2.39261 65.4287 2.39261 43.0003C2.39261 20.5718 20.5699 2.39286 43 2.39286Z" fill="black" stroke="black"/>
</svg>
