<svg width="1010" height="880" viewBox="0 0 1010 880" fill="none" xmlns="http://www.w3.org/2000/svg">
<path d="M67.3938 879.46C345.336 834.396 621.059 789.569 896.809 745.088C947.488 736.91 998.352 731.144 1048.98 722.318C1077.73 717.305 1096.58 700.187 1065.26 660.075C1039.69 627.334 1053.21 609.07 1071.65 586.769C1112.49 537.376 1120.03 460.392 1088.94 394.917C1078.65 373.246 1061 352.551 1082.52 332.546C1121.36 296.451 1118.5 236.753 1126.8 182.611C1131.48 152.109 1136.6 121.736 1140.56 91.0182C1144.02 64.1786 1171.74 41.731 1155.58 15.0308C1137.93 -14.1277 1112.96 8.74018 1091.57 17.3073C808.743 130.564 525.96 244.083 243.133 357.354C181.737 381.946 144.441 437.906 140.348 536.816C139.295 562.267 132.014 584.89 117.795 592.224C74.243 614.689 59.5311 684.511 22.7775 718.267C9.08305 730.846 -5.22935 768.69 8.57811 783.417C32.9715 809.442 29.6666 875.442 67.3938 879.46Z" fill="#F0D4A6"/>
</svg>
