<svg width="1920" height="142" viewBox="0 0 1920 142" fill="none" xmlns="http://www.w3.org/2000/svg">
<rect width="1920" height="101" transform="translate(0 21)" fill="#F8C6BD"/>
<path d="M405.511 93.1979C397.332 106.35 380.023 110.37 366.851 102.178C353.678 93.9865 349.63 76.6841 357.809 63.5323C365.989 50.3806 389.964 35.6409 403.136 43.8328C416.308 52.0247 413.69 80.0462 405.511 93.1979Z" fill="#FBDCD6"/>
<path d="M1557.43 48.5044C1562.98 57.837 1559.9 69.9106 1550.56 75.4716C1541.21 81.0325 1529.13 77.9749 1523.58 68.6423C1518.03 59.3097 1516.58 39.6297 1525.92 34.0687C1535.27 28.5078 1551.88 39.1717 1557.43 48.5044Z" fill="#FBDCD6"/>
<path d="M1405.35 94.2838C1398.92 104.627 1385.3 107.789 1374.94 101.346C1364.58 94.904 1361.4 81.2969 1367.83 70.954C1374.27 60.6112 1393.12 49.0194 1403.48 55.4618C1413.84 61.9041 1411.78 83.9409 1405.35 94.2838Z" fill="#FBDCD6"/>
<path d="M1850.51 78.1979C1842.33 91.3496 1825.02 95.3704 1811.85 87.1784C1798.68 78.9865 1794.63 61.6841 1802.81 48.5323C1810.99 35.3806 1834.96 20.6409 1848.14 28.8328C1861.31 37.0247 1858.69 65.0462 1850.51 78.1979Z" fill="#FBDCD6"/>
<path d="M1741.46 74.7005C1747.54 92.4866 1738.02 111.837 1720.2 117.922C1702.39 124.006 1683.02 114.52 1676.95 96.7334C1670.88 78.9474 1675.44 45.1005 1693.26 39.0162C1711.07 32.932 1735.39 56.9144 1741.46 74.7005Z" fill="#FBDCD6"/>
<path d="M553.645 55.1002C554.668 66.9448 545.879 77.3769 534.016 78.401C522.153 79.425 511.707 70.6533 510.685 58.8087C509.662 46.9641 517.617 26.8783 529.48 25.8543C541.343 24.8302 552.623 43.2557 553.645 55.1002Z" fill="#FBDCD6"/>
<path d="M1485.15 111.848C1481.14 118.434 1472.54 120.513 1465.94 116.494C1459.35 112.474 1457.25 103.877 1461.27 97.2912C1465.28 90.7058 1477.15 83.2587 1483.75 87.2785C1490.34 91.2984 1489.17 105.263 1485.15 111.848Z" fill="#FBDCD6"/>
<path d="M50.1518 82.8483C46.1382 89.4337 37.5377 91.5135 30.942 87.4937C24.3462 83.4738 22.2529 74.8766 26.2664 68.2912C30.28 61.7058 42.1516 54.2587 48.7474 58.2785C55.3431 62.2984 54.1653 76.2629 50.1518 82.8483Z" fill="#FBDCD6"/>
<path d="M1909.15 111.848C1905.14 118.434 1896.54 120.513 1889.94 116.494C1883.35 112.474 1881.25 103.877 1885.27 97.2912C1889.28 90.7058 1901.15 83.2587 1907.75 87.2785C1914.34 91.2984 1913.17 105.263 1909.15 111.848Z" fill="#FBDCD6"/>
<path d="M1044.34 40.8511C1042.56 45.5716 1037.29 47.9531 1032.56 46.1703C1027.83 44.3874 1025.44 39.1153 1027.22 34.3948C1029 29.6742 1035.73 23.4453 1040.46 25.2281C1045.19 27.011 1046.12 36.1305 1044.34 40.8511Z" fill="#FBDCD6"/>
<path d="M173.456 49.6337C178.751 60.539 174.19 73.6786 163.267 78.9819C152.345 84.2853 139.198 79.744 133.903 68.8388C128.608 57.9336 128.854 35.9059 139.777 30.6025C150.699 25.2992 168.161 38.7285 173.456 49.6337Z" fill="#FBDCD6"/>
<path d="M1022.64 66.1777C1022.64 72.3202 1018.81 75.2409 1014.14 75.2409C1009.48 75.2409 1005.65 72.3202 1005.65 66.1777V53.9228H1008.72V66.2078C1008.72 70.7846 1011.1 72.7116 1014.14 72.7116C1017.19 72.7116 1019.56 70.7846 1019.56 66.2078V53.9228H1022.64V66.1777ZM1030.89 53.9228H1023.54V75H1026.52V67.894H1030.89C1035.7 67.894 1038.59 65.3948 1038.59 60.9084C1038.59 56.422 1035.7 53.9228 1030.89 53.9228ZM1026.52 65.425V56.3919H1030.89C1034.02 56.3919 1035.61 58.2888 1035.61 60.9084C1035.61 63.528 1034.02 65.425 1030.89 65.425H1026.52ZM1020.62 83.9228H1004.06V86.6027H1010.86V105H1013.84V86.6027H1020.62V83.9228ZM1039.88 94.4614C1039.88 87.1748 1035.37 83.7723 1029.83 83.7121C1024.29 83.6519 1019.77 87.1446 1019.77 94.4614C1019.77 101.748 1024.29 105.211 1029.83 105.211C1035.37 105.211 1039.88 101.748 1039.88 94.4614ZM1036.72 94.4614C1036.72 100.273 1033.71 102.682 1029.83 102.682C1025.94 102.682 1022.93 100.273 1022.93 94.4614C1022.93 88.6502 1025.94 86.1811 1029.83 86.2413C1033.68 86.2714 1036.72 88.62 1036.72 94.4614Z" fill="#404733"/>
<path d="M257.152 109.848C253.138 116.434 244.538 118.513 237.942 114.494C231.346 110.474 229.253 101.877 233.266 95.2912C237.28 88.7058 249.152 81.2587 255.747 85.2785C262.343 89.2984 261.165 103.263 257.152 109.848Z" fill="#FBDCD6"/>
<path d="M1068.51 102.871C1062.8 102.871 1057.84 101.524 1053.64 98.8297C1049.49 96.1355 1046.77 92.3636 1045.48 87.5141L1056.31 85.0085C1057.33 87.7027 1058.89 89.7772 1060.99 91.2321C1063.15 92.6869 1065.76 93.4144 1068.83 93.4144C1071.69 93.4144 1073.93 92.7139 1075.54 91.3129C1077.16 89.9119 1077.97 87.8913 1077.97 85.251C1077.97 82.8262 1077.08 80.8864 1075.3 79.4316C1073.52 77.9767 1070.96 77.2493 1067.62 77.2493H1061.64L1063.1 68.6818H1068.19C1070.67 68.6818 1072.63 68.0621 1074.09 66.8228C1075.6 65.5835 1076.35 63.7784 1076.35 61.4075C1076.35 59.3599 1075.6 57.7165 1074.09 56.4771C1072.58 55.2378 1070.58 54.6182 1068.11 54.6182C1062.77 54.6182 1059.51 57.3123 1058.33 62.7007L1047.82 60.3568C1048.3 57.3932 1049.52 54.7529 1051.46 52.4359C1053.4 50.1189 1055.87 48.3407 1058.89 47.1014C1061.96 45.8082 1065.28 45.1616 1068.83 45.1616C1074.65 45.1616 1079.29 46.4817 1082.74 49.122C1086.18 51.7084 1087.91 55.2378 1087.91 59.7102C1087.91 62.8354 1086.91 65.4488 1084.92 67.5502C1082.92 69.6517 1080.31 71.1066 1077.08 71.9148C1080.9 72.6692 1083.95 74.2857 1086.21 76.7643C1088.53 79.243 1089.69 82.2335 1089.69 85.736C1089.69 90.9627 1087.83 95.1387 1084.11 98.2639C1080.39 101.335 1075.19 102.871 1068.51 102.871ZM1114.57 102.871C1110.26 102.871 1106.4 101.712 1103.01 99.3955C1099.67 97.0785 1097.03 93.7646 1095.09 89.4539C1093.2 85.0894 1092.26 79.9974 1092.26 74.1779C1092.26 68.2507 1093.2 63.1048 1095.09 58.7403C1097.03 54.3757 1099.67 51.0349 1103.01 48.7179C1106.4 46.347 1110.26 45.1616 1114.57 45.1616C1118.93 45.1616 1122.78 46.347 1126.12 48.7179C1129.52 51.0349 1132.16 54.3757 1134.05 58.7403C1135.99 63.1048 1136.96 68.2507 1136.96 74.1779C1136.96 79.9974 1135.99 85.0894 1134.05 89.4539C1132.16 93.7646 1129.52 97.0785 1126.12 99.3955C1122.73 101.712 1118.88 102.871 1114.57 102.871ZM1103.98 74.1779C1103.98 80.4823 1104.92 85.2779 1106.81 88.5648C1108.75 91.7979 1111.33 93.4144 1114.57 93.4144C1117.8 93.4144 1120.39 91.7979 1122.33 88.5648C1124.27 85.2779 1125.24 80.4823 1125.24 74.1779C1125.24 67.7658 1124.27 62.9162 1122.33 59.6293C1120.39 56.2886 1117.8 54.6182 1114.57 54.6182C1111.33 54.6182 1108.75 56.2886 1106.81 59.6293C1104.92 62.9162 1103.98 67.7658 1103.98 74.1779ZM1179.54 45.7274H1189.08L1148.02 102.305H1138.56L1179.54 45.7274ZM1138.16 56.6388C1138.16 53.1364 1139.24 50.3614 1141.39 48.3138C1143.55 46.2662 1146.48 45.2424 1150.2 45.2424C1153.92 45.2424 1156.86 46.2662 1159.01 48.3138C1161.17 50.3614 1162.24 53.1364 1162.24 56.6388C1162.24 60.1412 1161.17 62.9162 1159.01 64.9638C1156.86 67.0114 1153.92 68.0352 1150.2 68.0352C1146.48 68.0352 1143.55 67.0114 1141.39 64.9638C1139.24 62.9162 1138.16 60.1412 1138.16 56.6388ZM1146.16 56.6388C1146.16 58.2553 1146.51 59.5485 1147.21 60.5184C1147.91 61.4883 1148.91 61.9733 1150.2 61.9733C1151.49 61.9733 1152.49 61.4883 1153.19 60.5184C1153.89 59.5485 1154.24 58.2553 1154.24 56.6388C1154.24 55.0223 1153.89 53.7291 1153.19 52.7592C1152.49 51.7893 1151.49 51.3043 1150.2 51.3043C1148.91 51.3043 1147.91 51.7893 1147.21 52.7592C1146.51 53.7291 1146.16 55.0223 1146.16 56.6388ZM1165.4 91.4746C1165.4 87.9721 1166.47 85.1971 1168.63 83.1495C1170.79 81.102 1173.72 80.0782 1177.44 80.0782C1181.16 80.0782 1184.09 81.102 1186.25 83.1495C1188.41 85.1971 1189.48 87.9721 1189.48 91.4746C1189.48 94.977 1188.41 97.752 1186.25 99.7996C1184.09 101.847 1181.16 102.871 1177.44 102.871C1173.72 102.871 1170.79 101.847 1168.63 99.7996C1166.47 97.752 1165.4 94.977 1165.4 91.4746ZM1173.4 91.4746C1173.4 93.0911 1173.75 94.3843 1174.45 95.3542C1175.15 96.3241 1176.15 96.809 1177.44 96.809C1178.68 96.809 1179.65 96.3241 1180.35 95.3542C1181.1 94.3843 1181.48 93.0911 1181.48 91.4746C1181.48 89.8581 1181.1 88.5648 1180.35 87.5949C1179.65 86.625 1178.68 86.1401 1177.44 86.1401C1176.15 86.1401 1175.15 86.625 1174.45 87.5949C1173.75 88.5648 1173.4 89.8581 1173.4 91.4746ZM1235.66 102.871C1230 102.871 1225.12 101.739 1221.03 99.4763C1216.98 97.1593 1213.89 93.8454 1211.73 89.5348C1209.58 85.1702 1208.5 79.9974 1208.5 74.0163C1208.5 68.0352 1209.58 62.8893 1211.73 58.5786C1213.89 54.214 1216.98 50.9002 1221.03 48.6371C1225.12 46.3201 1230 45.1616 1235.66 45.1616C1241.31 45.1616 1246.19 46.3201 1250.28 48.6371C1254.38 50.9002 1257.51 54.214 1259.66 58.5786C1261.82 62.8893 1262.89 68.0352 1262.89 74.0163C1262.89 79.9974 1261.82 85.1702 1259.66 89.5348C1257.51 93.8454 1254.38 97.1593 1250.28 99.4763C1246.19 101.739 1241.31 102.871 1235.66 102.871ZM1220.14 74.0163C1220.14 80.0512 1221.51 84.793 1224.26 88.2415C1227.06 91.6901 1230.86 93.4144 1235.66 93.4144C1240.45 93.4144 1244.22 91.6901 1246.97 88.2415C1249.77 84.793 1251.17 80.0512 1251.17 74.0163C1251.17 67.9813 1249.77 63.2395 1246.97 59.791C1244.22 56.3424 1240.45 54.6182 1235.66 54.6182C1230.86 54.6182 1227.06 56.3424 1224.26 59.791C1221.51 63.2395 1220.14 67.9813 1220.14 74.0163ZM1267.23 45.7274H1304.65V54.6182H1278.54V70.2983H1300.45V79.1891H1278.54V102.305H1267.23V45.7274ZM1307.66 45.7274H1345.09V54.6182H1318.98V70.2983H1340.88V79.1891H1318.98V102.305H1307.66V45.7274Z" fill="#404733"/>
<path d="M682.429 18.3983C682.894 17.4853 683.411 16.6118 684.15 15.8899C684.679 15.3707 685.286 14.99 686.041 14.9059C686.815 14.8202 687.466 15.051 687.98 15.6525C688.383 16.1239 688.627 16.676 688.816 17.2562C689.22 18.4956 689.349 19.7811 689.402 21.0749C689.535 24.2541 689.234 27.4069 688.797 30.5499C688.033 36.0431 686.768 41.4292 685.248 46.7575C685.027 47.5289 684.795 48.2952 684.567 49.0649C684.376 49.7143 684.251 49.8033 683.553 49.7275C682.211 49.5824 680.87 49.4275 679.53 49.2742C678.959 49.2083 678.875 49.1374 678.854 48.5326C678.791 46.6751 678.709 44.8177 678.707 42.9603C678.701 37.9467 678.991 32.9496 679.789 27.992C680.222 25.3039 680.793 22.6472 681.744 20.086C681.955 19.5174 682.198 18.962 682.427 18.4L682.429 18.3983ZM681.96 48.7386C682.016 48.5771 682.063 48.4716 682.092 48.3595C682.171 48.0579 682.254 47.7547 682.32 47.4498C683.781 40.6166 684.795 33.7127 685.604 26.7757C685.74 25.6138 685.749 24.437 685.804 23.2652C685.814 23.0526 685.784 22.8334 685.733 22.6257C685.667 22.3555 685.326 22.0407 685.123 22.0522C684.82 22.0703 684.697 22.311 684.608 22.5499C684.383 23.1531 684.135 23.7531 683.964 24.3728C683.314 26.7345 682.95 29.1523 682.615 31.575C681.881 36.8869 681.471 42.2269 681.235 47.5832C681.22 47.931 681.2 48.2788 681.182 48.6512C681.451 48.6809 681.68 48.7073 681.962 48.7386H681.96Z" fill="#404733"/>
<path d="M665.53 53.9058C663.241 52.0832 661.155 50.485 659.137 48.8046C654.121 44.6246 649.309 40.2204 645.2 35.073C643.889 33.4307 642.659 31.7263 641.719 29.8316C641.248 28.8822 640.866 27.8788 640.531 26.8694C640.198 25.8619 640.192 24.8084 640.474 23.773C640.766 22.7034 641.456 21.9444 642.381 21.4276C642.992 21.0871 643.678 21.0972 644.358 21.2434C645.469 21.4817 646.46 22.0004 647.412 22.6033C649.477 23.9152 651.305 25.5355 653.059 27.2419C657.669 31.7303 661.743 36.7014 665.534 41.9128C667.517 44.6386 669.37 47.4607 671.273 50.2486C671.68 50.8455 671.653 50.9396 671.175 51.4724C670.215 52.5399 669.251 53.6034 668.298 54.6769C667.858 55.1756 667.607 55.2457 667.044 54.8992C666.447 54.5307 665.869 54.1321 665.528 53.9058H665.53ZM668.845 52.4478C669.227 52.0552 669.247 52.0392 668.888 51.5685C666.909 48.9548 664.973 46.305 662.922 43.7534C659.141 39.0467 655.195 34.4882 650.712 30.4505C649.716 29.5532 648.7 28.6799 647.498 28.0691C646.983 27.8067 646.552 28.0851 646.578 28.6719C646.589 28.9483 646.681 29.2307 646.783 29.4931C647.252 30.6988 647.963 31.7583 648.723 32.7838C650.273 34.8707 652.001 36.7995 653.792 38.6682C658.502 43.5851 663.635 48.0215 668.843 52.4498L668.845 52.4478Z" fill="#404733"/>
<path d="M656.1 69.2457L655.888 82.7988C655.888 92.1871 656.911 97.8342 658.958 99.7401C659.241 100.022 659.382 100.34 659.382 100.693C659.382 101.752 657.088 102.281 652.5 102.281C647.982 102.281 645.582 100.94 645.3 98.2578C645.229 97.6225 645.194 96.3166 645.194 94.3401L645.617 77.3988C645.617 76.9046 645.335 76.6576 644.77 76.6576C641.382 76.6576 638.205 77.6105 635.241 79.5164C632.276 81.4223 630.794 83.8576 630.794 86.8224C630.794 88.3753 631.217 89.6812 632.064 90.7401C632.911 91.7989 633.935 92.3283 635.135 92.3283C636.405 92.3283 637.429 92.0812 638.205 91.5871C639.052 91.093 639.547 90.8106 639.688 90.7401C640.888 90.8812 641.488 92.1518 641.488 94.5519C641.488 96.8813 640.394 98.7872 638.205 100.27C636.017 101.681 633.723 102.387 631.323 102.387C628.923 102.387 626.841 101.964 625.076 101.117C623.382 100.27 622.146 99.3166 621.37 98.2578C620.593 97.1989 619.958 95.9989 619.464 94.6577C618.97 93.0342 618.723 91.6224 618.723 90.4224C618.723 85.4812 620.276 81.5282 623.382 78.5635C626.488 75.5987 630.476 73.4811 635.346 72.2105C641.77 70.9399 645.123 69.7751 645.405 68.7163C645.617 67.9398 645.723 66.6339 645.723 64.7986C645.723 61.0574 643.817 59.1868 640.005 59.1868C638.382 59.1868 636.935 59.7162 635.664 60.7751C634.394 61.7633 633.758 63.0339 633.758 64.5869L634.394 67.1281C634.252 68.3281 632.982 69.034 630.582 69.2457L629.417 69.3516C627.299 69.3516 625.605 68.8222 624.335 67.7634C623.135 66.7045 622.535 65.2928 622.535 63.528C622.535 62.3986 622.888 61.1633 623.593 59.8221C624.37 58.4103 625.323 57.2809 626.452 56.4338C627.582 55.5868 629.311 54.8456 631.641 54.2103C634.041 53.5044 636.335 53.1515 638.523 53.1515C640.711 53.1515 642.405 53.222 643.605 53.3632C644.805 53.5044 646.429 53.8573 648.476 54.4221C650.594 54.9162 652.323 55.9044 653.664 57.3868C655.076 58.8692 655.817 60.4574 655.888 62.1515C656.029 63.7751 656.1 66.1398 656.1 69.2457ZM694.697 86.5047C694.697 89.54 694.097 92.1871 692.897 94.446C691.768 96.7048 690.462 98.3637 688.98 99.4225C687.497 100.481 685.733 101.328 683.686 101.964C681.003 102.811 678.568 103.234 676.38 103.234C671.791 103.234 667.98 102.352 664.944 100.587C661.909 98.7519 660.391 95.8578 660.391 91.9048C660.391 89.5753 661.027 87.6694 662.297 86.1871C664.274 83.9988 666.638 82.9047 669.391 82.9047C670.238 82.9047 670.662 83.2929 670.662 84.0694C670.662 84.14 670.485 84.7047 670.132 85.7635C669.85 86.7518 669.709 88.0224 669.709 89.5753C669.709 91.1283 670.309 92.5048 671.509 93.7048C672.78 94.9048 674.297 95.5048 676.062 95.5048C677.827 95.5048 679.238 95.2225 680.297 94.6577C681.356 94.0224 682.097 93.246 682.521 92.3283C683.156 91.0577 683.474 89.8577 683.474 88.7283C683.474 86.6812 682.45 84.9165 680.403 83.4341C678.356 81.9517 676.097 80.787 673.627 79.9399C671.156 79.0929 668.897 77.6811 666.85 75.7046C664.803 73.7281 663.779 71.2575 663.779 68.2928C663.779 63.2104 665.368 59.3986 668.544 56.8574C671.791 54.3162 676.168 53.0456 681.674 53.0456C684.074 53.0456 686.58 53.3985 689.192 54.1044C691.874 54.7397 693.215 55.8691 693.215 57.4927C693.215 59.0456 692.933 60.4927 692.368 61.8339C691.874 63.1751 691.239 63.8457 690.462 63.8457C690.039 63.8457 689.756 63.7045 689.615 63.4221C689.474 63.0692 689.227 62.681 688.874 62.2574C688.521 61.8339 687.674 61.3045 686.333 60.6692C684.991 59.9633 683.827 59.6103 682.838 59.6103C681.921 59.6103 681.286 59.6456 680.933 59.7162C680.65 59.7162 680.121 59.8221 679.344 60.0339C678.568 60.1751 677.862 60.4221 677.227 60.7751C675.603 61.6927 674.791 63.0339 674.791 64.7986C674.791 65.9281 675.038 66.7751 675.533 67.3398C676.027 67.834 676.415 68.2222 676.697 68.5045C676.98 68.7869 677.474 69.1398 678.18 69.5634C678.886 69.9163 679.38 70.1634 679.662 70.3046C679.944 70.4457 680.58 70.7634 681.568 71.2575C682.556 71.681 683.191 71.9634 683.474 72.1046C690.956 75.634 694.697 80.4341 694.697 86.5047ZM697.318 59.7162L697.636 55.4809C697.706 54.8456 698.2 54.5279 699.118 54.5279H702.824L702.4 46.0573V45.6337C702.4 44.0102 703.636 42.4572 706.106 40.9749C708.577 39.4925 710.836 38.7513 712.883 38.7513C713.518 38.7513 713.836 39.0337 713.836 39.5984V39.7043C713.553 41.6102 713.271 46.5161 712.989 54.4221C716.095 54.4221 718.071 54.3515 718.918 54.2103C719.765 54.0691 720.224 53.9985 720.295 53.9985C720.789 53.9985 721.036 54.4221 721.036 55.2691C721.036 56.1162 720.648 57.2103 719.871 58.5515C719.095 59.8221 718.248 60.4927 717.33 60.5633H712.883C712.812 62.9633 712.777 67.0222 712.777 72.7399C712.777 78.387 712.812 83.0459 712.883 86.7165C713.024 90.3871 713.165 93.1754 713.306 95.0813C713.448 96.9166 713.589 98.399 713.73 99.5284C713.942 100.658 714.083 101.47 714.154 101.964C714.295 102.458 714.365 102.775 714.365 102.917C714.365 103.623 713.906 104.011 712.989 104.081C710.236 104.081 707.483 103.693 704.73 102.917C702.048 102.14 700.706 100.799 700.706 98.8931C702.189 87.0341 702.93 74.2928 702.93 60.6692C701.024 60.6692 699.577 60.7398 698.589 60.8809H698.483C697.847 60.8809 697.459 60.4927 697.318 59.7162ZM731.61 74.1164L731.716 76.7634C731.716 77.187 731.998 77.3988 732.563 77.3988C734.822 77.187 736.798 76.6223 738.493 75.7046C740.187 74.7164 741.457 73.6222 742.304 72.4222C743.999 69.8104 744.916 67.5516 745.057 65.6457L745.163 64.3751C745.163 60.5633 743.646 58.6574 740.61 58.6574C738.351 58.6574 736.516 59.6456 735.104 61.6221C732.775 64.728 731.61 68.8928 731.61 74.1164ZM754.693 88.1989C754.693 90.8812 754.128 93.246 752.999 95.293C751.94 97.2695 750.704 98.7519 749.293 99.7401C747.952 100.658 746.363 101.399 744.528 101.964C742.199 102.67 739.975 103.023 737.857 103.023C731.928 103.023 727.551 100.799 724.728 96.3519C721.904 91.9048 720.492 86.2577 720.492 79.4105C720.492 72.4928 722.222 66.3516 725.681 60.9868C729.21 55.6221 734.469 52.9397 741.457 52.9397C747.81 52.9397 752.116 55.1632 754.375 59.6103C755.293 61.3045 755.752 62.928 755.752 64.481C755.752 65.9633 755.681 67.1634 755.54 68.081C755.399 68.9281 754.905 70.234 754.057 71.9987C753.21 73.7634 752.081 75.3517 750.669 76.7634C749.257 78.1752 747.034 79.5164 743.999 80.787C740.963 82.0576 737.398 82.9047 733.304 83.3282C732.74 83.3282 732.457 83.5753 732.457 84.0694C732.457 84.7047 732.669 85.6577 733.093 86.9283C733.587 88.1283 734.116 89.1518 734.681 89.9989C736.234 91.9754 738.528 92.9636 741.563 92.9636C744.599 92.9636 747.175 91.9754 749.293 89.9989C750.422 88.94 751.34 87.6341 752.046 86.0812C752.328 85.5165 752.681 85.2341 753.105 85.2341C753.599 85.2341 753.987 85.6224 754.269 86.3988C754.552 87.1753 754.693 87.7753 754.693 88.1989ZM791.794 72.634L792.218 76.3399C792.218 77.6811 790.947 78.3517 788.406 78.3517C783.253 78.3517 780.676 76.4105 780.676 72.5281C780.676 71.6105 780.923 70.3399 781.418 68.7163C781.912 67.0928 782.159 65.681 782.159 64.481C782.159 63.281 781.806 62.2574 781.1 61.4104C780.394 60.4927 779.37 60.0339 778.029 60.0339C776.688 60.0339 775.523 60.528 774.535 61.5162C773.617 62.4339 773.053 63.3869 772.841 64.3751L772.417 65.8575C771.994 68.0457 771.782 71.7163 771.782 76.8693C771.782 81.9517 771.853 85.9753 771.994 88.94C772.135 91.8342 772.276 93.846 772.417 94.9754C772.559 96.0342 772.629 96.6695 772.629 96.8813C772.629 98.646 771.535 100.058 769.347 101.117C767.159 102.246 764.97 102.811 762.782 102.811C760.594 102.811 759.5 102.352 759.5 101.434L760.029 98.1519C761.017 92.0107 761.511 83.9988 761.511 74.1164C761.511 64.2339 761.159 57.528 760.453 53.9985C760.453 53.1515 761.194 52.7279 762.676 52.7279C766.488 52.7279 769.029 54.0338 770.3 56.6456C770.37 56.928 770.476 57.0691 770.617 57.0691C770.829 57.0691 771.323 56.7515 772.1 56.1162C774.429 54.2103 777.182 53.2573 780.359 53.2573C782.335 53.2573 784.312 53.6456 786.288 54.4221C790.312 56.0456 792.324 59.4339 792.324 64.5869L791.794 72.634Z" fill="#404733"/>
<path d="M618.837 101.767C618.837 107.229 617.082 111.286 613.571 113.938C610.138 116.591 605.301 117.917 599.059 117.917C589.073 117.917 581.7 114.601 576.941 107.97C572.259 101.338 569.919 92.678 569.919 81.9893C569.919 80.2729 569.997 77.7763 570.153 74.4995H563.599C562.975 74.4995 562.663 74.2654 562.663 73.7973C562.663 72.471 563.326 70.8716 564.653 68.9991C565.979 67.1266 567.422 66.1904 568.983 66.1904H571.206C572.22 60.573 573.859 55.6188 576.121 51.3277C578.462 47.0367 580.881 43.7208 583.377 41.3802C585.952 39.0397 588.761 37.1672 591.803 35.7629C596.641 33.4223 601.712 32.252 607.017 32.252C612.322 32.252 615.638 33.1102 616.965 34.8266C617.589 35.6848 617.901 37.2842 617.901 39.6248C617.901 41.8874 617.628 43.0187 617.082 43.0187C617.004 43.0187 616.652 42.8626 616.028 42.5505C614 41.6143 611.464 41.1462 608.421 41.1462C601.79 41.1462 596.602 43.4868 592.857 48.1679C589.19 52.8491 586.732 58.8566 585.484 66.1904C591.413 66.1124 599.449 66.0734 609.592 66.0734C610.372 66.0734 610.762 66.3464 610.762 66.8926C610.762 68.1409 610.138 69.7403 608.89 71.6908C607.641 73.5632 606.237 74.4995 604.677 74.4995H584.548C584.469 75.4357 584.43 77.5032 584.43 80.702C584.43 83.8228 584.977 87.1386 586.069 90.6495C587.239 94.0823 589.346 97.008 592.388 99.4266C595.509 101.845 599.527 103.055 604.442 103.055C609.358 103.055 613.493 101.962 616.848 99.7777C617.238 99.4656 617.589 99.3096 617.901 99.3096C618.525 99.3096 618.837 100.129 618.837 101.767Z" fill="#404733"/>
<path d="M848.078 68.0201H842.008C841.867 61.432 837.655 58.138 829.373 58.138C825.985 58.138 823.255 58.9144 821.185 60.4673C819.114 61.9732 818.079 63.9732 818.079 66.4672C818.079 68.3496 818.691 69.8554 819.914 70.9848C821.185 72.0671 823.349 73.0083 826.408 73.8083L838.408 76.9141C846.031 78.9376 849.843 83.1728 849.843 89.6198C849.843 94.2785 847.984 98.0667 844.267 100.984C840.973 103.525 836.243 104.796 830.079 104.796C822.267 104.796 816.597 102.443 813.067 97.7373C811.185 95.1962 810.197 91.7844 810.102 87.5022H816.173V87.6433C816.173 91.3139 817.42 94.1609 819.914 96.1844C822.455 98.1608 825.985 99.149 830.502 99.149C834.643 99.149 837.726 98.4667 839.749 97.102C842.149 95.455 843.349 93.1491 843.349 90.1845C843.349 86.4198 840.267 83.7611 834.102 82.2081L821.538 78.9611C814.949 77.267 811.655 73.3848 811.655 67.3143C811.655 62.5144 813.467 58.7968 817.091 56.1615C820.243 53.8557 824.408 52.7028 829.585 52.7028C836.926 52.7028 842.173 54.8439 845.325 59.1262C847.161 61.6203 848.078 64.3261 848.078 67.2437C848.078 67.3849 848.078 67.6437 848.078 68.0201ZM883.815 88.8433H864.333L858.968 104.02H852.121L870.121 53.4792H878.45L896.167 104.02H889.038L883.815 88.8433ZM881.979 83.4081L874.215 60.4673L865.956 83.4081H881.979ZM907.057 53.4792V98.302H931.974V104.02H900.634V53.4792H907.057ZM944.108 81.0082V98.302H973.896V104.02H937.685V53.4792H972.696V59.1968H944.108V75.2906H971.637V81.0082H944.108Z" fill="#404733"/>
</svg>
