<svg xmlns="http://www.w3.org/2000/svg" width="151.598" height="54.111" viewBox="0 0 151.598 54.111">
    <g id="Group_684" data-name="Group 684" transform="translate(-444.633 -2531.034)">
        <g id="Group_605" data-name="Group 605">
            <g id="Group_604" data-name="Group 604">
            <path id="Path_868" data-name="Path 868" d="M596.231,2585.038c-.049.092-.138.086-.222.086-.185,0-.37,0-.555,0q-75.108,0-150.217,0c-.2,0-.424.093-.6-.083.007-.155.021-.311.021-.466q0-26.055,0-52.108c0-.469,0-.938-.005-1.407l.006-.011c.156,0,.313-.011.469-.011H595.566c.213,0,.426.007.639.01l.007.01c0,.028-.005.057-.005.085q0,26.291,0,52.58C596.208,2584.159,596.223,2584.6,596.231,2585.038ZM479.4,2535.673c-.89.054-1.779.136-2.668.218a42.339,42.339,0,0,0-6.005.973,24.87,24.87,0,0,0-12.328,6.426,13.687,13.687,0,0,0-4.059,7.236,7.351,7.351,0,0,0,2.272,7.09,13.719,13.719,0,0,0,3.9,2.473,43.177,43.177,0,0,0,7.062,2.178c2.855.713,5.789.984,8.674,1.531a13.415,13.415,0,0,1,3.713,1.04,2.01,2.01,0,0,1,.437,3.537,5.046,5.046,0,0,1-2.3,1.049,21.027,21.027,0,0,1-6.942.264,10.049,10.049,0,0,1-4.024-1.1,5.192,5.192,0,0,1-2.792-3.658c-.052-.31-.184-.384-.474-.366-.993.059-1.978.208-2.96.339q-3.819.513-7.645.97c-1.928.232-3.851.5-5.78.729-.339.039-.344.181-.322.441a10.561,10.561,0,0,0,1.161,4.022,12.525,12.525,0,0,0,5.156,5.175,26.4,26.4,0,0,0,8.174,2.776,47.706,47.706,0,0,0,13.779.526,48.764,48.764,0,0,0,11.458-2.424,28.961,28.961,0,0,0,6.7-3.294c3.462-2.368,5.926-5.442,6.541-9.73a7.916,7.916,0,0,0-1.5-6.157,11.641,11.641,0,0,0-5.37-3.756,49.384,49.384,0,0,0-9.6-2.364c-2.074-.331-4.15-.65-6.222-1a15,15,0,0,1-3.6-1.005,1.707,1.707,0,0,1-.636-2.836,3.964,3.964,0,0,1,2.076-1.259,15.178,15.178,0,0,1,4.715-.532,14.718,14.718,0,0,1,3.324.453,5.366,5.366,0,0,1,4.028,3.2c.3.754.125.6.947.518.042-.005.082-.021.124-.03,2.089-.462,4.2-.83,6.287-1.3,2.656-.6,5.334-1.1,8-1.639.529-.108.56-.172.423-.683a9.66,9.66,0,0,0-1.934-3.8,16.5,16.5,0,0,0-8.651-5.041,30.651,30.651,0,0,0-5.347-.991,26.566,26.566,0,0,0-3.21-.269A43.464,43.464,0,0,0,479.4,2535.673Zm46.721,38.454c-.333,1.616-.719,3.126-1.128,4.63-.081.3-.084.418.289.417q7.547,0,15.092.024c.273,0,.4-.077.475-.347q1.569-6.008,3.154-12.012,2.483-9.417,4.976-18.832c.092-.348.047-.429-.318-.428q-8.058.015-16.117,0c-.262,0-.352.076-.418.336q-1.422,5.539-2.872,11.074c-.665,2.536-1.285,5.083-2.009,7.6a6.379,6.379,0,0,1-7.8,4.178,1.687,1.687,0,0,1-1.273-1.3,3.136,3.136,0,0,1,.05-1.561q.588-2.46,1.24-4.9c1.025-3.85,2.072-7.693,3.1-11.543.31-1.164.572-2.341.87-3.509.084-.327,0-.427-.339-.408-.367.022-.738-.023-1.107-.021q-7.461.024-14.921.048a.394.394,0,0,0-.458.358c-.344,1.375-.7,2.747-1.058,4.119q-1.908,7.326-3.817,14.65a41.066,41.066,0,0,0-1.259,5.553,5.682,5.682,0,0,0,3.5,6.263,15.192,15.192,0,0,0,5.564,1.3,27.011,27.011,0,0,0,7.952-.672,15.433,15.433,0,0,0,7.865-4.239A4.164,4.164,0,0,1,526.118,2574.127Zm40.9-22.265c.288-1.285.566-2.527.846-3.769.12-.533.123-.534-.41-.533l-14.027.025c-.242,0-.485.015-.725,0a.333.333,0,0,0-.413.3c-.1.442-.23.877-.348,1.315-1.361,5.037-2.732,10.071-4.078,15.112-1.287,4.821-2.607,9.634-3.807,14.479-.086.349-.02.439.341.438q8.016-.007,16.032.016c.347,0,.46-.124.535-.425.855-3.426,1.705-6.853,2.584-10.273.725-2.814,1.339-5.658,2.217-8.432a8.975,8.975,0,0,1,1.129-2.6c1.569-2.183,4.8-2.523,6.712-1.938a1.638,1.638,0,0,1,1.155,1.306,4.292,4.292,0,0,1-.061,1.942c-.258,1.047-.51,2.095-.786,3.136-1.488,5.606-2.865,11.24-4.425,16.827-.131.466-.129.469.366.469q7.887-.007,15.776,0c.375,0,.471-.145.553-.46,1.225-4.691,2.5-9.369,3.68-14.072.864-3.445,2.1-6.811,2.3-10.408a6.224,6.224,0,0,0-.8-3.635,6.475,6.475,0,0,0-3.267-2.55,20.744,20.744,0,0,0-7.94-1.25,22.594,22.594,0,0,0-5.187.645,14.594,14.594,0,0,0-7.4,3.866A1.751,1.751,0,0,1,567.018,2551.862Zm-38.187-8.1c1.148,0,2.213-.007,3.278,0,.224,0,.283-.1.335-.285.231-.833.489-1.659.708-2.5a.345.345,0,0,1,.407-.312c.71.012,1.421.01,2.132,0,.24,0,.323.038.249.31-.214.794-.387,1.6-.6,2.4-.071.274.006.351.277.348.938-.01,1.876-.012,2.814,0,.243,0,.341-.076.405-.315q1.011-3.759,2.052-7.509c.082-.3-.012-.331-.269-.328-.924.01-1.848.021-2.771-.005-.316-.009-.412.122-.484.387-.214.793-.454,1.58-.673,2.371-.054.194-.1.332-.354.327-.739-.015-1.479-.012-2.218,0-.239,0-.285-.063-.217-.3.235-.8.439-1.614.673-2.417.081-.276.038-.371-.271-.366-.938.016-1.876.02-2.814,0a.44.44,0,0,0-.519.395c-.359,1.357-.74,2.708-1.114,4.061C529.523,2541.253,529.183,2542.481,528.831,2543.757Zm16.144-.037v-.048c1.321,0,2.643-.007,3.964.007.282,0,.433-.046.485-.362a8,8,0,0,1,.306-1.15c.083-.261.036-.339-.256-.335-1.278.015-2.557,0-3.835,0-1.078,0-1.069,0-.78-1.042a.416.416,0,0,1,.489-.37c1.179.021,2.358,0,3.537.015a.387.387,0,0,0,.46-.358c.078-.36.18-.715.293-1.065.082-.257.036-.345-.255-.34-1.023.017-2.046.008-3.069.009-.912,0-.9,0-.662-.886a.426.426,0,0,1,.5-.373c1.122.018,2.244.01,3.367.006.482,0,1.083.159,1.414-.069.374-.257.325-.927.507-1.4.133-.344.014-.4-.306-.394q-3.986.015-7.97,0c-.293,0-.418.08-.494.365q-.99,3.7-2.011,7.382c-.094.336-.026.415.314.411C542.3,2543.71,543.64,2543.72,544.975,2543.72Zm-19.127-8.144c-.9,0-1.789,0-2.684,0-.482,0-1.072-.155-1.415.067s-.3.869-.437,1.327c-.016.054-.033.108-.054.161-.135.34-.086.508.345.477.523-.037,1.051,0,1.575-.015.294-.009.4.039.3.374-.5,1.758-.972,3.522-1.455,5.285-.129.474-.13.481.377.488.824.011,1.648,0,2.47.023.3.009.41-.082.495-.37.53-1.807,1.094-3.6,1.625-5.411a.446.446,0,0,1,.531-.388c.51.023,1.023-.006,1.533.009a.36.36,0,0,0,.424-.3c.127-.464.272-.925.429-1.379.1-.284.022-.356-.271-.353C528.375,2535.584,527.111,2535.576,525.848,2535.576Z"/>
            </g>
        </g>
    </g>
</svg>