<svg width="141" height="79" viewBox="0 0 141 79" fill="none" xmlns="http://www.w3.org/2000/svg">
<path d="M117.81 4.6754C118.546 2.89159 119.437 3.50062 120.085 4.28342C123.556 8.47507 127.201 7.49571 130.75 9.14827C132.784 10.0951 134.715 12.1655 136.699 13.6221C138.293 14.7927 139.052 18.2365 139.04 24.0292C139.011 37.7819 138.512 51.3548 137.819 64.8668C137.637 68.4029 137.359 69.3896 136.299 67.9563C134.326 65.2887 132.31 63.6804 130.227 67.8507C129.421 69.4649 128.435 67.4907 127.531 67.0699C124.43 65.6263 121.308 64.8774 118.201 63.5773C113.951 61.7991 109.641 64.25 105.345 63.0156C101.247 61.8391 7.37335 69.4611 3.25693 69.224C1.54615 69.1257 0.89279 66.658 1.20874 60.3986C1.88987 46.9101 2.50627 33.3783 3.10975 19.8423C3.39246 13.5012 4.7496 14.4384 5.83534 14.8061C6.94488 15.1815 7.97848 16.7575 8.95018 13.1791C9.55877 10.938 9.92403 14.5292 10.4921 14.6C13.5473 14.9804 106.295 8.97632 109.408 6.61817C112.138 4.54989 114.998 3.46899 117.837 4.62031C117.835 4.79688 117.822 4.98412 117.834 5.14565C117.842 5.24258 117.888 5.29925 117.918 5.37387C117.882 5.14105 117.846 4.90823 117.81 4.6754Z" fill="#F0D4A6"/>
</svg>
