<svg width="204" height="121" viewBox="0 0 204 121" fill="none" xmlns="http://www.w3.org/2000/svg">
<path d="M17.8713 36.2199C21.0787 37.3343 24.4925 37.7786 27.8709 37.5213C31.2492 37.2641 34.5096 36.3115 37.4212 34.7311C39.7647 33.64 42.4211 33.2476 45.0408 33.6056C58.9494 34.3048 72.9926 35.6719 86.7974 35.3117C106.001 34.8229 125.046 32.2398 144.357 32.1661C157.002 32.2014 169.621 31.5027 182.14 30.0738C196.219 28.4038 199.298 31.323 197.854 44.4592C196.39 55.7478 195.571 67.1151 195.4 78.5125C195.422 85.5952 190.613 87.0474 184.698 86.7744C180.172 86.5544 175.687 85.2498 172.458 89.2848C171.756 90.1916 170.818 89.9833 169.683 89.7913C155.22 87.2451 141.473 88.624 127.147 91.8566C117.254 94.2364 107.076 95.528 96.8147 95.7056C78.2853 95.7627 59.8154 93.4812 41.3356 94.2909C33.0655 94.6614 25.0415 92.4272 16.9566 91.0759C12.2793 90.2845 9.74397 87.7054 8.89647 83.0963C6.10176 68.2505 7.54924 53.5271 8.46725 38.7968C9.02396 30.1746 15.4286 38.3206 17.8821 36.1556" fill="#404733"/>
</svg>
