<svg width="147" height="79" viewBox="0 0 147 79" fill="none" xmlns="http://www.w3.org/2000/svg">
<path d="M122.844 4.63974C123.611 2.85527 124.54 3.46349 125.216 4.24571C128.835 8.43421 132.636 7.45154 136.337 9.10089C138.458 10.0459 140.471 12.1145 142.54 13.5693C144.202 14.7385 144.993 18.1816 144.981 23.9743C144.951 37.727 144.431 51.3003 143.708 64.813C143.519 68.3492 143.229 69.3362 142.124 67.9039C140.066 65.2381 137.964 63.6316 135.792 67.8038C134.952 69.4187 133.923 67.4454 132.981 67.0254C129.748 65.5846 126.492 64.8385 123.252 63.5412C118.821 61.7669 114.327 64.2217 109.847 62.9913C105.575 61.8184 7.69044 69.5255 3.39819 69.2921C1.61432 69.1954 0.933004 66.7283 1.26235 60.4686C1.97236 46.9795 2.61485 33.4472 3.24389 19.9106C3.53856 13.5692 4.95369 14.5052 6.08582 14.8719C7.24276 15.2463 8.32055 16.8214 9.3337 13.2421C9.96826 11.0004 10.3492 14.5913 10.9415 14.6616C14.1272 15.0392 110.837 8.9511 114.082 6.59013C116.929 4.51938 119.912 3.43588 122.872 4.58463C122.87 4.7612 122.856 4.94846 122.869 5.10998C122.877 5.2069 122.925 5.26353 122.956 5.33812C122.918 5.10533 122.881 4.87254 122.844 4.63974Z" fill="white"/>
</svg>
