<svg width="247" height="67" viewBox="0 0 247 67" fill="none" xmlns="http://www.w3.org/2000/svg">
<path d="M210.12 1.97706C211.514 0.209207 213.066 0.836497 214.18 1.63246C220.143 5.89459 226.664 4.99125 232.889 6.71688C236.455 7.70556 239.785 9.81525 243.238 11.3125C246.014 12.5157 247.194 15.974 246.894 21.7643C246.18 35.5112 244.638 49.0686 242.755 62.5612C242.262 66.0922 241.721 67.0727 239.907 65.618C236.532 62.9105 233.027 61.2609 229.127 65.3864C227.618 66.9833 225.962 64.9894 224.376 64.5499C218.939 63.0425 213.43 62.2291 207.974 60.8649C200.51 58.9992 192.738 61.3597 185.166 60.0366C177.945 58.7755 10.8428 64.4459 3.5429 64.1235C0.509024 63.9898 -0.53243 61.5094 0.330674 55.2589C2.19107 41.7896 3.93858 28.2757 5.66333 14.7573C6.47132 8.42443 8.83659 9.38948 10.7473 9.77954C12.6999 10.1778 14.4597 11.7747 16.3582 8.21783C17.5473 5.99016 18.0228 9.58762 19.0283 9.67021C24.4364 10.1138 189.461 6.03734 195.103 3.74469C200.051 1.73386 205.184 0.712739 210.171 1.92256C210.159 2.09901 210.126 2.28592 210.141 2.44765C210.149 2.54469 210.229 2.60231 210.278 2.67751C210.225 2.44403 210.172 2.21055 210.12 1.97706Z" fill="#E8E8B0"/>
</svg>
