<svg width="92" height="40" viewBox="0 0 92 40" fill="none" xmlns="http://www.w3.org/2000/svg">
<path d="M76.7876 2.22292C77.2611 1.30086 77.8441 1.62431 78.2696 2.03629C80.5479 4.2423 82.9207 3.76057 85.2411 4.64679C86.5705 5.15454 87.8371 6.24579 89.1357 7.01829C90.1795 7.63906 90.6865 9.43566 90.6998 12.4479C90.7312 19.5995 90.4552 26.6539 90.0524 33.6752C89.9471 35.5127 89.7694 36.0237 89.073 35.2704C87.777 33.8682 86.4562 33.0166 85.1136 35.1695C84.594 36.0029 83.9438 34.9688 83.3528 34.7431C81.326 33.9689 79.2878 33.5559 77.2571 32.8563C74.4796 31.8994 71.6786 33.1414 68.8727 32.467C66.1971 31.8242 5.01927 35.0778 2.33452 34.9234C1.21873 34.8594 0.78375 33.5712 0.966944 30.3185C1.3619 23.3093 1.7145 16.2771 2.05864 9.24263C2.21987 5.94723 3.10813 6.44487 3.81738 6.64427C4.54216 6.84788 5.22181 7.67527 5.84232 5.82176C6.23095 4.66092 6.48218 6.53121 6.8528 6.57233C8.84616 6.79323 69.2957 4.37242 71.3164 3.16966C73.0888 2.11476 74.9499 1.57429 76.8052 2.19448C76.8043 2.28628 76.7966 2.38356 76.8053 2.46765C76.8103 2.51811 76.841 2.54793 76.8603 2.58696C76.836 2.46561 76.8118 2.34427 76.7876 2.22292Z" fill="#D9D9D9"/>
</svg>
