<svg xmlns="http://www.w3.org/2000/svg" width="177.042" height="64.858" viewBox="0 0 177.042 64.858">
    <g id="Group_684" data-name="Group 684" transform="translate(-994.636 -2428.733)">
        <g id="Group_595" data-name="Group 595">
            <g id="Group_594" data-name="Group 594">
            <path id="Path_799" data-name="Path 799" d="M1067.638,2428.75v14.529c.144-.028.191-.142.259-.22a8.869,8.869,0,0,1,7.75-2.935,8.38,8.38,0,0,1,5.558,2.46,9.753,9.753,0,0,1,2.505,4.874,15.039,15.039,0,0,1,.345,3.277q0,8.349.008,16.7c0,.29-.071.361-.358.36q-4.437-.016-8.873,0c-.3,0-.355-.087-.354-.367q.014-7.131.006-14.262a6.781,6.781,0,0,0-.232-1.959,2.92,2.92,0,0,0-2.546-2.28,3.216,3.216,0,0,0-3.444,1.742,5.124,5.124,0,0,0-.556,2.359q-.008,4.332-.007,8.662c0,1.913-.006,3.826.007,5.74,0,.284-.063.366-.357.364q-4.419-.016-8.838,0c-.323,0-.393-.086-.393-.4q.012-19.1.006-38.194c0-.15-.013-.3-.02-.45Z"/>
            <path id="Path_800" data-name="Path 800" d="M994.636,2440.716c3.328,0,6.656.012,9.984,0a.481.481,0,0,1,.535.381q2.977,7.657,5.979,15.305c.016.041.041.079.088.167.421-1.064.826-2.085,1.229-3.106q2.436-6.174,4.863-12.351a.527.527,0,0,1,.6-.4q4.662.019,9.324,0c.313,0,.326.063.214.334q-5.676,13.653-11.336,27.313c-1.262,3.041-2.529,6.081-3.779,9.127a.453.453,0,0,1-.5.336q-4.715-.016-9.428,0c-.352,0-.341-.091-.225-.362q1.962-4.609,3.912-9.223a.563.563,0,0,0,0-.486q-5.43-12.8-10.855-25.6a6.856,6.856,0,0,0-.6-1.306Z"/>
            <path id="Path_801" data-name="Path 801" d="M1171.678,2428.819c-.58,1.383-1.166,2.763-1.739,4.148q-4.113,9.927-8.214,19.861a.613.613,0,0,1-.682.442c-3.489-.016-6.979-.01-10.468-.01-.391,0-.391,0-.238-.369l10-24.141q5.532,0,11.065,0C1171.49,2428.754,1171.616,2428.676,1171.678,2428.819Z"/>
            <path id="Path_802" data-name="Path 802" d="M1102.573,2493.591a10.25,10.25,0,0,1-1.806-.458,7.1,7.1,0,0,1-4.271-4.82,8.845,8.845,0,0,1,1.6-8.538,6.7,6.7,0,0,1,7.764-1.833,5.014,5.014,0,0,1,1.861,1.481c0-.494.011-.906-.005-1.317-.009-.229.067-.295.3-.294q2.47.012,4.94,0c.238,0,.29.082.29.3q-.006,7.392,0,14.783c0,.207-.056.28-.273.279q-2.487-.012-4.975,0c-.209,0-.287-.051-.279-.271.017-.416.005-.833.005-1.3-.254.25-.466.487-.706.692a5.4,5.4,0,0,1-2.791,1.227c-.067.01-.142,0-.187.067Zm2.126-5.008a3.094,3.094,0,1,0,.051-6.187,3.095,3.095,0,1,0-.051,6.187Z"/>
            <path id="Path_803" data-name="Path 803" d="M1152.262,2493.591a10.291,10.291,0,0,0-1.21-.239,7.279,7.279,0,0,1-5.831-6.529,8.29,8.29,0,0,1,1.605-6.358,7.758,7.758,0,0,1,5.615-3.022,8.047,8.047,0,0,1,5.549,1.358,7.6,7.6,0,0,1,3.1,5.155,12.024,12.024,0,0,1,.128,2.6c-.011.263-.085.365-.381.364-3.293-.012-6.586,0-9.879-.015-.322,0-.385.066-.314.38a2.619,2.619,0,0,0,2.3,1.923,3,3,0,0,0,2.822-1.077.244.244,0,0,1,.327-.086c1.456.564,2.911,1.133,4.372,1.684.293.11.127.241.051.358a7.362,7.362,0,0,1-4.377,3.16c-.59.164-1.2.2-1.8.345Zm.94-9.878c.775,0,1.551-.007,2.325,0,.237,0,.322-.061.227-.294-.026-.063-.033-.134-.054-.2a2.537,2.537,0,0,0-2.819-1.577,2.413,2.413,0,0,0-2.2,1.73c-.062.242-.034.351.263.343C1151.7,2483.7,1152.45,2483.713,1153.2,2483.713Z"/>
            <path id="Path_804" data-name="Path 804" d="M1139.527,2493.591c-.451-.089-.906-.163-1.353-.268a7.462,7.462,0,0,1-5.823-6.3,8.208,8.208,0,0,1,1.766-6.87,7.732,7.732,0,0,1,4.806-2.627,8.762,8.762,0,0,1,4.873.531.417.417,0,0,1,.315.454c-.014,1.461-.006,2.921-.006,4.382,0,.385,0,.385-.33.2a4.658,4.658,0,0,0-3.618-.5,3,3,0,0,0,.123,5.839,4.523,4.523,0,0,0,3.441-.555.861.861,0,0,1,.339-.174c.082.073.043.172.043.256,0,1.5,0,2.991.007,4.486a.387.387,0,0,1-.266.416,8.879,8.879,0,0,1-2.226.648c-.074.012-.168-.02-.212.079Z"/>
            <path id="Path_805" data-name="Path 805" d="M1045.715,2465.265a7.559,7.559,0,0,1-3.991,2.716,11.765,11.765,0,0,1-11.019-2.2,13.434,13.434,0,0,1-4.864-8.262,15.21,15.21,0,0,1,1.923-11.259,12.279,12.279,0,0,1,8.589-5.987,10.142,10.142,0,0,1,8.057,1.714,6.8,6.8,0,0,1,1.3,1.28v-1.094c0-.394.014-.789-.006-1.183-.011-.223.066-.265.274-.265q4.35.011,8.7,0c.212,0,.3.058.273.273a1.966,1.966,0,0,0,0,.243q0,13.062.008,26.124c0,.35-.079.435-.433.433q-4.209-.025-8.42,0c-.35,0-.415-.1-.4-.42C1045.733,2466.7,1045.715,2466.031,1045.715,2465.265Zm-10.954-10.994a5.582,5.582,0,1,0,5.636-5.546A5.493,5.493,0,0,0,1034.761,2454.271Z"/>
            <path id="Path_806" data-name="Path 806" d="M1145.552,2454.725a13.909,13.909,0,0,1-11.684,13.52,15.1,15.1,0,0,1-9.257-1.158,13.331,13.331,0,0,1-7.768-10.209,14.02,14.02,0,0,1,2.512-11.124,13.5,13.5,0,0,1,8.3-5.3,15.042,15.042,0,0,1,10.583,1.378,13.465,13.465,0,0,1,6.99,9.329A15.906,15.906,0,0,1,1145.552,2454.725Zm-14.466,5.006a5.443,5.443,0,1,0-5.407-5.417A5.307,5.307,0,0,0,1131.086,2459.731Z"/>
            <path id="Path_807" data-name="Path 807" d="M1086.042,2454.148a13.906,13.906,0,0,1,12.009-13.867,14.943,14.943,0,0,1,9.871,1.687,13.356,13.356,0,0,1,6.836,9.746,14.173,14.173,0,0,1-1.486,9.486,13.431,13.431,0,0,1-8.849,6.793,14.929,14.929,0,0,1-11.145-1.3,13.437,13.437,0,0,1-7.074-10.227A17.492,17.492,0,0,1,1086.042,2454.148Zm14.445,5.582a5.442,5.442,0,1,0-5.361-5.491A5.312,5.312,0,0,0,1100.487,2459.73Z"/>
            <path id="Path_808" data-name="Path 808" d="M1085.034,2479.43a6.241,6.241,0,0,1,1.642-1.42,5.2,5.2,0,0,1,7.679,3.6,8.867,8.867,0,0,1,.183,1.794c0,3.13,0,6.26.01,9.39,0,.317-.09.38-.389.377q-2.436-.023-4.871,0c-.278,0-.372-.053-.37-.356.013-2.631.007-5.263.006-7.9a3.669,3.669,0,0,0-.2-1.263,1.665,1.665,0,0,0-1.608-1.166,1.751,1.751,0,0,0-1.714.913,3.09,3.09,0,0,0-.37,1.57c0,2.6,0,5.194.007,7.791,0,.3-.05.413-.388.409-1.647-.02-3.294-.014-4.941,0-.244,0-.313-.064-.312-.309q.009-7.374,0-14.747c0-.247.075-.31.316-.308q2.505.015,5.009,0c.239,0,.328.058.317.308C1085.021,2478.555,1085.034,2478.993,1085.034,2479.43Z"/>
            <path id="Path_809" data-name="Path 809" d="M1121.18,2479.447a4.933,4.933,0,0,1,2.431-1.776c2.664-.83,6.174.064,6.936,4.13a8.028,8.028,0,0,1,.144,1.484q0,4.782.006,9.563c0,.262-.068.329-.328.327q-2.469-.018-4.939,0c-.284,0-.372-.061-.37-.359.012-2.608.007-5.216.006-7.824a4.29,4.29,0,0,0-.087-1.036,1.733,1.733,0,0,0-1.641-1.446,1.812,1.812,0,0,0-1.93,1.222,3.83,3.83,0,0,0-.214,1.434q0,3.772,0,7.546c0,.563.018.455-.47.456-1.6,0-3.2,0-4.8.007-.261,0-.355-.044-.354-.334q.014-7.355,0-14.709c0-.231.049-.32.3-.319,1.67.011,3.34.008,5.009,0,.219,0,.312.05.3.289C1121.167,2478.549,1121.18,2479,1121.18,2479.447Z"/>
            <path id="Path_810" data-name="Path 810" d="M1060.185,2487.711c0-1.681-.007-3.362.007-5.042,0-.276-.069-.358-.346-.345-.485.023-.973,0-1.46.011-.218.006-.273-.069-.271-.278q.012-1.983,0-3.964c0-.215.073-.284.282-.28.463.01.928-.014,1.391.009.306.015.419-.063.407-.4a7.878,7.878,0,0,1,.517-3.164,5.835,5.835,0,0,1,4.631-3.762,8.106,8.106,0,0,1,3.853.14c.566.164.564.17.564.755,0,1.252-.005,2.5.005,3.756,0,.279-.064.322-.333.228a3.179,3.179,0,0,0-2.66.071,2.288,2.288,0,0,0-1.006,2.22c.043.2.184.143.3.144,1.043,0,2.087.012,3.13,0,.283-.005.349.087.347.355q-.019,1.929,0,3.86c0,.245-.069.315-.311.312-1-.012-1.994-.007-2.991,0-.524,0-.471-.066-.471.455,0,3.326-.006,6.653.008,9.979,0,.339-.088.416-.423.412q-2.4-.03-4.8,0c-.329,0-.374-.107-.372-.391C1060.19,2491.095,1060.184,2489.4,1060.185,2487.711Z"/>
            <path id="Path_811" data-name="Path 811" d="M1153.176,2455.634a6.1,6.1,0,0,1,6.189,6.15,6.358,6.358,0,0,1-6.27,6.484,6.131,6.131,0,0,1-6.358-6.2A6.4,6.4,0,0,1,1153.176,2455.634Z"/>
            <path id="Path_812" data-name="Path 812" d="M1071.464,2485.521q0-3.635,0-7.268c0-.5-.055-.435.452-.436,1.6,0,3.2.005,4.8-.006.274,0,.381.053.38.359q-.015,7.32,0,14.639c0,.288-.072.369-.363.367-1.635-.014-3.27-.017-4.905,0-.323,0-.373-.1-.371-.39C1071.469,2490.366,1071.464,2487.943,1071.464,2485.521Z"/>
            <path id="Path_813" data-name="Path 813" d="M1074.245,2476.413a3.1,3.1,0,1,1,.044-6.2,3.1,3.1,0,1,1-.044,6.2Z"/>
            </g>
        </g>
    </g>
</svg>