<svg width="117" height="101" viewBox="0 0 117 101" fill="none" xmlns="http://www.w3.org/2000/svg">
<path d="M0.22876 50.2621L29.355 100.782L87.6076 100.782L116.992 50.2621L87.6076 -4.57764e-05L29.355 -4.57764e-05L0.22876 50.2621Z" fill="#A86129"/>
<path d="M69.5605 61.4897C69.1921 61.1213 68.5941 61.1213 68.2343 61.4897L56.2626 73.4608C55.8942 73.8292 55.8942 74.4272 56.2626 74.787C56.631 75.1554 57.229 75.1554 57.5889 74.787L68.8888 63.4871L80.1887 74.787C80.5571 75.1554 81.1551 75.1554 81.5149 74.787C81.8833 74.4186 81.8833 73.8206 81.5149 73.4608L69.5605 61.4897Z" fill="#FEF6EA"/>
<path d="M41.4834 27.6344C42.9336 29.9813 42.2065 33.0594 39.8601 34.5096C37.5131 35.9598 34.4351 35.2327 32.9849 32.8863C31.5347 30.5393 32.2612 27.4613 34.6082 26.0111C36.9552 24.5609 40.0332 25.288 41.4834 27.6344Z" fill="#FEF6EA"/>
<path d="M88.0483 26.5509H73.5961C73.5961 25.7895 72.9655 25.1344 72.1876 25.1344H65.6044C64.8265 25.1344 64.1959 25.7895 64.1959 26.5509H49.7443C48.1227 26.5509 46.772 27.8937 46.772 29.5152V34.7065L49.6136 35.1977V29.5152C49.6136 29.4495 49.6793 29.3844 49.7444 29.3844H88.0492C88.1149 29.3844 88.1554 29.4416 88.1554 29.5152V56.5364C88.1554 56.6021 88.1229 56.5689 88.0492 56.5689H49.7444C49.6787 56.5689 49.6136 56.6015 49.6136 56.5364L49.613 44.3682L46.772 43.877V56.5357C46.772 58.1573 48.1228 59.4098 49.7443 59.4098H88.0491C89.6707 59.4098 90.9889 58.1572 90.9889 56.5357V29.5146C90.9883 27.8936 89.67 26.5507 88.0486 26.5507L88.0483 26.5509Z" fill="#FEF6EA"/>
<path d="M59.6351 41.5105C59.8887 40.2002 58.9389 38.7425 57.5063 38.489L45.011 36.2946C44.0365 36.1226 43.0376 36.049 42.0467 36.049L39.32 36.0569L37.2238 38.1612L35.1276 36.065H33.9156C32.7447 36.065 31.6966 36.8018 31.2951 37.899L25.6371 53.3426C25.1379 54.71 25.8502 56.151 27.2096 56.6913C28.577 57.1254 30.0591 56.5028 30.5504 55.1354L31.9098 51.3526V72.4782C31.9098 73.9272 33.0806 75.0901 34.5303 75.0987C35.9793 75.0987 37.1508 73.9358 37.1508 72.4782V57.6414C37.1508 57.3633 37.3718 57.1171 37.642 57.0925C37.9533 57.06 38.24 57.3056 38.24 57.6168V72.4712C38.24 73.9202 39.4275 75.0831 40.8765 75.0917C42.3255 75.0917 43.4805 73.9288 43.4805 72.4712V41.3968L56.5574 43.6729C58.0064 43.919 59.3898 42.9281 59.6354 41.5116L59.6351 41.5105Z" fill="#FEF6EA"/>
<path d="M63.017 50.9591C62.8205 50.9917 62.6321 51.0573 62.4521 51.1556L59.6437 49.1903C59.6763 48.9938 59.6763 48.7893 59.6357 48.5923C59.4804 47.7161 58.7184 47.0776 57.8263 47.0776C57.72 47.0776 57.6132 47.0856 57.507 47.1021C56.508 47.2741 55.8449 48.2319 56.0169 49.2309C56.1722 50.1071 56.9342 50.7456 57.8263 50.7456C57.9326 50.7456 58.0394 50.7376 58.1456 50.721C58.2764 50.6965 58.4078 50.6639 58.5306 50.6062L61.4949 52.6859C61.4869 52.8167 61.4949 52.9561 61.5194 53.0869C61.6748 53.963 62.4367 54.6015 63.3289 54.6015C63.4351 54.6015 63.5419 54.5936 63.6482 54.577C64.6471 54.4051 65.3102 53.4472 65.1383 52.4482C65.1217 52.3579 65.0971 52.2597 65.0646 52.17L69.6333 45.6439C69.8624 45.693 70.1 45.693 70.3296 45.6519C70.5095 45.6193 70.6734 45.5616 70.8373 45.4879L74.2192 47.8543C74.2192 47.9606 74.2272 48.0754 74.2438 48.1816C74.3991 49.0578 75.1611 49.6963 76.0532 49.6963C76.1595 49.6963 76.2663 49.6883 76.3725 49.6717C77.3715 49.4998 78.0346 48.542 77.8626 47.5429C77.8381 47.4036 77.797 47.2728 77.7478 47.15L84.102 38.0776C84.274 38.0941 84.4459 38.0941 84.6178 38.061C85.6168 37.8891 86.2799 36.9312 86.1079 35.9322C85.9526 35.056 85.1906 34.4175 84.2985 34.4175C84.1922 34.4175 84.0854 34.4255 83.9792 34.4421C82.9802 34.614 82.3171 35.5719 82.4891 36.5709C82.5136 36.7348 82.5707 36.8902 82.6364 37.0375L76.3313 46.038C76.1349 46.0055 75.9384 46.0134 75.7419 46.046C75.5209 46.0871 75.3078 46.1608 75.1193 46.2836L71.8522 43.9909C71.8688 43.8356 71.8602 43.6716 71.8277 43.5243C71.6723 42.6481 70.9104 42.0096 70.0182 42.0096C69.912 42.0096 69.8052 42.0176 69.6989 42.0341C68.7 42.2061 68.0369 43.1639 68.2088 44.1629C68.2254 44.2612 68.25 44.3514 68.2825 44.4497L63.7138 50.9758C63.4836 50.9181 63.2466 50.9181 63.0169 50.9593L63.017 50.9591Z" fill="#FEF6EA"/>
</svg>
