<svg width="38" height="37" viewBox="0 0 38 37" fill="none" xmlns="http://www.w3.org/2000/svg">
<mask id="path-1-inside-1_543_144" fill="white">
<path d="M4.06198 29.1584H4.14481C4.31106 28.2163 4.79812 27.3606 5.52379 26.7375L5.53087 11.5535C5.53087 11.1727 5.83968 10.8639 6.22052 10.8639C6.60137 10.8639 6.91017 11.1727 6.91017 11.5535L6.87569 25.958L7.24114 25.8407L7.48252 25.7856C7.6423 25.7613 7.80363 25.7474 7.96527 25.7443H8.15154C8.34519 25.744 8.53885 25.7579 8.73066 25.7856H8.82734C8.98836 25.8111 9.14753 25.8481 9.30332 25.8958H9.36551L9.3652 12.8547L9.11706 12.9031H8.96527C8.80518 12.9246 8.64385 12.936 8.48252 12.9376C8.34459 12.9446 8.20666 12.9446 8.06873 12.9376C7.87938 12.9151 7.6925 12.8757 7.51024 12.8203C6.91757 12.6556 6.37819 12.3394 5.9447 11.9031C5.84956 11.807 5.75966 11.7057 5.67561 11.5995C5.11712 10.8945 4.84591 10.0044 4.91607 9.10754C4.98627 8.21068 5.39267 7.37357 6.05427 6.764C6.71559 6.1544 7.58293 5.81725 8.48254 5.82032C9.01363 5.82032 9.53766 5.94317 10.0136 6.179L27.0618 1.58579C27.6323 0.731094 28.5439 0.164006 29.5629 0.0304112C30.5817 -0.103515 31.6091 0.208979 32.381 0.887231C33.1528 1.5658 33.5946 2.54452 33.5925 3.57221C33.5928 4.10761 33.4699 4.63624 33.2341 5.11687C32.9539 5.70214 32.5201 6.2006 31.9788 6.55835C31.5872 6.80773 31.1519 6.98076 30.6959 7.06851V12.3376L36.5167 15.2409C36.8083 15.3877 37.0537 15.6122 37.2252 15.8899C37.397 16.1673 37.4881 16.4872 37.489 16.8135V19.372C37.489 19.7529 37.1805 20.0617 36.7994 20.0617C36.4185 20.0617 36.1097 19.7529 36.1097 19.372V16.8135C36.1097 16.671 36.03 16.5401 35.9028 16.4755L29.9996 13.5444L24.1098 16.8135C23.9934 16.8807 23.9205 17.0032 23.9168 17.1374V19.3721C23.9168 19.7529 23.608 20.0617 23.2271 20.0617C22.8463 20.0617 22.5375 19.7529 22.5375 19.3721V17.1374C22.5412 16.824 22.6286 16.5174 22.7912 16.2492C22.9538 15.981 23.1853 15.7615 23.4618 15.6134L29.3099 12.3582V7.05497C28.8542 6.97 28.4201 6.79389 28.034 6.53774C27.7317 6.32745 27.4641 6.07161 27.2409 5.77912C26.7437 5.15043 26.4716 4.37334 26.4685 3.57225C26.4617 3.43894 26.4617 3.30532 26.4685 3.17201L11.379 7.22738V7.26864C11.4744 7.39518 11.5597 7.52879 11.6342 7.66857C11.6613 7.71721 11.6844 7.76801 11.7032 7.82035C11.7595 7.92688 11.8081 8.03741 11.8479 8.15132L11.9101 8.32374C11.9448 8.44165 11.9726 8.56142 11.9929 8.68242C11.996 8.73537 11.996 8.78833 11.9929 8.84097C12.0338 9.02693 12.0594 9.21627 12.0686 9.40655V9.68241L22.489 6.84807C22.8511 6.76371 23.2147 6.98138 23.3117 7.34006C23.4084 7.69905 23.203 8.07004 22.8477 8.17907L11.5446 11.2135C11.3368 11.5577 11.0738 11.8656 10.7653 12.1239V26.6822C11.5255 27.3072 12.0329 28.1872 12.193 29.1582H12.9377C14.014 29.16 15.0454 29.5886 15.8056 30.3503C16.5661 31.1117 16.9931 32.144 16.9931 33.22V34.7234C16.9931 35.0497 16.8638 35.3625 16.6338 35.5941C16.4038 35.8253 16.0916 35.9561 15.7652 35.958H1.23453C0.906948 35.958 0.592907 35.8281 0.361393 35.5965C0.129875 35.365 -5.72205e-05 35.051 -5.72205e-05 34.7234V33.22C-5.72205e-05 32.1428 0.427891 31.1096 1.1896 30.3479C1.95161 29.5862 2.98439 29.1584 4.06198 29.1584ZM28.3029 4.92372C28.4489 5.10445 28.621 5.26239 28.8131 5.39262C29.1712 5.62568 29.5893 5.74975 30.0166 5.74975C30.444 5.74975 30.8621 5.62568 31.2202 5.39262C31.8344 4.98653 32.207 4.30148 32.2131 3.56501C32.2134 2.98035 31.9791 2.42004 31.5632 2.00932C31.1472 1.59861 30.5841 1.37139 29.9994 1.37878C29.6118 1.38371 29.2319 1.49055 28.8991 1.68913C28.5659 1.88771 28.2913 2.17096 28.1029 2.50993C27.9271 2.83628 27.8347 3.20111 27.8338 3.57214C27.8353 4.06229 28.0003 4.53799 28.3029 4.92372ZM6.30353 9.40644C6.30538 9.93506 6.49812 10.4452 6.84632 10.843C7.19454 11.2405 7.67453 11.4991 8.19819 11.5712C8.72189 11.6429 9.25395 11.5231 9.69635 11.234C10.0298 11.0161 10.297 10.7107 10.4688 10.3514C10.5316 10.219 10.5803 10.0801 10.6138 9.93758V9.84091C10.6569 9.69989 10.6825 9.55397 10.6896 9.40649C10.6856 9.25779 10.6671 9.11001 10.6345 8.96499C10.6178 8.88371 10.5972 8.80304 10.5723 8.72361C10.5455 8.64572 10.5135 8.56968 10.4759 8.49609C10.4312 8.39542 10.378 8.29844 10.317 8.20638L10.2413 8.10293C10.1572 7.99702 10.0673 7.89573 9.9722 7.79966L9.84104 7.70299C9.7573 7.62879 9.66771 7.56198 9.57226 7.50317C9.2496 7.3166 8.88292 7.219 8.51036 7.22023C7.92785 7.21839 7.36877 7.44745 6.95498 7.85723C6.5415 8.26702 6.30692 8.82429 6.30353 9.40644ZM10.2552 28.1168L9.56554 27.4893C8.98919 27.1525 8.30935 27.0395 7.65517 27.1719C7.2814 27.243 6.92826 27.3964 6.6207 27.6202C6.10377 27.9961 5.73306 28.5395 5.57235 29.1584H10.793C10.6927 28.7757 10.5089 28.4201 10.2552 28.1168ZM1.3796 34.5788H15.6139V33.1995C15.6139 32.4893 15.3322 31.808 14.8304 31.3049C14.3289 30.8021 13.6485 30.5185 12.9378 30.5167H4.06226C3.35076 30.5167 2.66815 30.7993 2.16514 31.3027C1.66207 31.8058 1.37943 32.488 1.37943 33.1995L1.3796 34.5788Z"/>
</mask>
<path d="M4.06198 29.1584H4.14481C4.31106 28.2163 4.79812 27.3606 5.52379 26.7375L5.53087 11.5535C5.53087 11.1727 5.83968 10.8639 6.22052 10.8639C6.60137 10.8639 6.91017 11.1727 6.91017 11.5535L6.87569 25.958L7.24114 25.8407L7.48252 25.7856C7.6423 25.7613 7.80363 25.7474 7.96527 25.7443H8.15154C8.34519 25.744 8.53885 25.7579 8.73066 25.7856H8.82734C8.98836 25.8111 9.14753 25.8481 9.30332 25.8958H9.36551L9.3652 12.8547L9.11706 12.9031H8.96527C8.80518 12.9246 8.64385 12.936 8.48252 12.9376C8.34459 12.9446 8.20666 12.9446 8.06873 12.9376C7.87938 12.9151 7.6925 12.8757 7.51024 12.8203C6.91757 12.6556 6.37819 12.3394 5.9447 11.9031C5.84956 11.807 5.75966 11.7057 5.67561 11.5995C5.11712 10.8945 4.84591 10.0044 4.91607 9.10754C4.98627 8.21068 5.39267 7.37357 6.05427 6.764C6.71559 6.1544 7.58293 5.81725 8.48254 5.82032C9.01363 5.82032 9.53766 5.94317 10.0136 6.179L27.0618 1.58579C27.6323 0.731094 28.5439 0.164006 29.5629 0.0304112C30.5817 -0.103515 31.6091 0.208979 32.381 0.887231C33.1528 1.5658 33.5946 2.54452 33.5925 3.57221C33.5928 4.10761 33.4699 4.63624 33.2341 5.11687C32.9539 5.70214 32.5201 6.2006 31.9788 6.55835C31.5872 6.80773 31.1519 6.98076 30.6959 7.06851V12.3376L36.5167 15.2409C36.8083 15.3877 37.0537 15.6122 37.2252 15.8899C37.397 16.1673 37.4881 16.4872 37.489 16.8135V19.372C37.489 19.7529 37.1805 20.0617 36.7994 20.0617C36.4185 20.0617 36.1097 19.7529 36.1097 19.372V16.8135C36.1097 16.671 36.03 16.5401 35.9028 16.4755L29.9996 13.5444L24.1098 16.8135C23.9934 16.8807 23.9205 17.0032 23.9168 17.1374V19.3721C23.9168 19.7529 23.608 20.0617 23.2271 20.0617C22.8463 20.0617 22.5375 19.7529 22.5375 19.3721V17.1374C22.5412 16.824 22.6286 16.5174 22.7912 16.2492C22.9538 15.981 23.1853 15.7615 23.4618 15.6134L29.3099 12.3582V7.05497C28.8542 6.97 28.4201 6.79389 28.034 6.53774C27.7317 6.32745 27.4641 6.07161 27.2409 5.77912C26.7437 5.15043 26.4716 4.37334 26.4685 3.57225C26.4617 3.43894 26.4617 3.30532 26.4685 3.17201L11.379 7.22738V7.26864C11.4744 7.39518 11.5597 7.52879 11.6342 7.66857C11.6613 7.71721 11.6844 7.76801 11.7032 7.82035C11.7595 7.92688 11.8081 8.03741 11.8479 8.15132L11.9101 8.32374C11.9448 8.44165 11.9726 8.56142 11.9929 8.68242C11.996 8.73537 11.996 8.78833 11.9929 8.84097C12.0338 9.02693 12.0594 9.21627 12.0686 9.40655V9.68241L22.489 6.84807C22.8511 6.76371 23.2147 6.98138 23.3117 7.34006C23.4084 7.69905 23.203 8.07004 22.8477 8.17907L11.5446 11.2135C11.3368 11.5577 11.0738 11.8656 10.7653 12.1239V26.6822C11.5255 27.3072 12.0329 28.1872 12.193 29.1582H12.9377C14.014 29.16 15.0454 29.5886 15.8056 30.3503C16.5661 31.1117 16.9931 32.144 16.9931 33.22V34.7234C16.9931 35.0497 16.8638 35.3625 16.6338 35.5941C16.4038 35.8253 16.0916 35.9561 15.7652 35.958H1.23453C0.906948 35.958 0.592907 35.8281 0.361393 35.5965C0.129875 35.365 -5.72205e-05 35.051 -5.72205e-05 34.7234V33.22C-5.72205e-05 32.1428 0.427891 31.1096 1.1896 30.3479C1.95161 29.5862 2.98439 29.1584 4.06198 29.1584ZM28.3029 4.92372C28.4489 5.10445 28.621 5.26239 28.8131 5.39262C29.1712 5.62568 29.5893 5.74975 30.0166 5.74975C30.444 5.74975 30.8621 5.62568 31.2202 5.39262C31.8344 4.98653 32.207 4.30148 32.2131 3.56501C32.2134 2.98035 31.9791 2.42004 31.5632 2.00932C31.1472 1.59861 30.5841 1.37139 29.9994 1.37878C29.6118 1.38371 29.2319 1.49055 28.8991 1.68913C28.5659 1.88771 28.2913 2.17096 28.1029 2.50993C27.9271 2.83628 27.8347 3.20111 27.8338 3.57214C27.8353 4.06229 28.0003 4.53799 28.3029 4.92372ZM6.30353 9.40644C6.30538 9.93506 6.49812 10.4452 6.84632 10.843C7.19454 11.2405 7.67453 11.4991 8.19819 11.5712C8.72189 11.6429 9.25395 11.5231 9.69635 11.234C10.0298 11.0161 10.297 10.7107 10.4688 10.3514C10.5316 10.219 10.5803 10.0801 10.6138 9.93758V9.84091C10.6569 9.69989 10.6825 9.55397 10.6896 9.40649C10.6856 9.25779 10.6671 9.11001 10.6345 8.96499C10.6178 8.88371 10.5972 8.80304 10.5723 8.72361C10.5455 8.64572 10.5135 8.56968 10.4759 8.49609C10.4312 8.39542 10.378 8.29844 10.317 8.20638L10.2413 8.10293C10.1572 7.99702 10.0673 7.89573 9.9722 7.79966L9.84104 7.70299C9.7573 7.62879 9.66771 7.56198 9.57226 7.50317C9.2496 7.3166 8.88292 7.219 8.51036 7.22023C7.92785 7.21839 7.36877 7.44745 6.95498 7.85723C6.5415 8.26702 6.30692 8.82429 6.30353 9.40644ZM10.2552 28.1168L9.56554 27.4893C8.98919 27.1525 8.30935 27.0395 7.65517 27.1719C7.2814 27.243 6.92826 27.3964 6.6207 27.6202C6.10377 27.9961 5.73306 28.5395 5.57235 29.1584H10.793C10.6927 28.7757 10.5089 28.4201 10.2552 28.1168ZM1.3796 34.5788H15.6139V33.1995C15.6139 32.4893 15.3322 31.808 14.8304 31.3049C14.3289 30.8021 13.6485 30.5185 12.9378 30.5167H4.06226C3.35076 30.5167 2.66815 30.7993 2.16514 31.3027C1.66207 31.8058 1.37943 32.488 1.37943 33.1995L1.3796 34.5788Z" fill="#404733" stroke="#404733" stroke-width="2.59881" mask="url(#path-1-inside-1_543_144)"/>
<path d="M28.3663 23.2333V22.4218H27.8769C27.6146 22.4218 27.4024 22.2095 27.4024 21.9473V20.5963C27.4024 20.334 27.6146 20.1218 27.8769 20.1218H33.4828C33.7425 20.1218 33.9547 20.334 33.9547 20.5963V21.9472C33.9547 22.2094 33.7425 22.4217 33.4828 22.4217H32.9934V23.2308C34.6191 23.6528 35.7852 25.1486 35.7852 26.8416V34.5677C35.7852 35.3244 35.1709 35.9387 34.4142 35.9387H26.9477C26.191 35.9387 25.5767 35.3244 25.5767 34.5677V26.8442C25.5742 25.1512 26.7404 23.6554 28.366 23.2334L28.3663 23.2333ZM35.4208 27.5307H25.9368L25.9366 32.7523H35.421L35.4208 27.5307ZM33.5903 21.9472V20.5962C33.5903 20.5313 33.5429 20.4839 33.4804 20.4839H27.8745C27.8121 20.4839 27.7622 20.5338 27.7622 20.5962V21.9472C27.7622 22.0096 27.8121 22.0595 27.8745 22.0595L33.4831 22.0596C33.543 22.0596 33.5905 22.0096 33.5905 21.9472L33.5903 21.9472ZM32.7712 23.5529C32.6888 23.5354 32.6289 23.4604 32.6289 23.3756V22.4216H28.7282V23.3756C28.7282 23.4606 28.6683 23.5354 28.5858 23.5529C27.05 23.8875 25.9364 25.2709 25.9364 26.8441V27.1688L35.4207 27.1686V26.844C35.4207 25.2684 34.307 23.885 32.7712 23.5528L32.7712 23.5529ZM26.9454 35.5815H34.412C34.9689 35.5815 35.4208 35.1294 35.4208 34.5727V33.1169H25.9368V34.5727C25.9368 35.127 26.3888 35.5815 26.9457 35.5815H26.9454Z" fill="#404733" stroke="#404733" stroke-width="0.678991"/>
</svg>
