<svg width="36" height="37" viewBox="0 0 36 37" fill="none" xmlns="http://www.w3.org/2000/svg">
<path d="M28.6385 18.6775V12.7768H29.5762C29.907 12.7768 30.1276 12.5562 30.1276 12.2253V9.5782C30.1276 9.24738 29.907 9.02674 29.5762 9.02674H20.201C19.8702 9.02674 19.6496 9.24737 19.6496 9.5782V12.2253C19.6496 12.5561 19.8702 12.7768 20.201 12.7768H21.1387V18.6778C21.0285 18.7329 20.918 18.788 20.7528 18.8433L18.9328 15.9756L18.9326 4.72529H19.2083C20.2561 4.72529 21.0833 3.89808 21.0833 2.85026C21.0833 1.80245 20.2011 0.919922 19.1533 0.919922H11.0462C9.99839 0.919922 9.17117 1.74714 9.17117 2.79495C9.17117 3.84277 9.99839 4.66998 11.0462 4.66998H11.377V15.9203L0.402302 33.0171C-0.479966 34.3957 0.512744 36.2156 2.1671 36.2156H31.7823C31.9478 36.2156 32.058 36.1605 32.1682 36.0501C37.6833 30.7559 35.8083 21.4355 28.6388 18.6784L28.6385 18.6775ZM20.6972 10.1298H28.9694V11.674H20.6972V10.1298ZM21.8004 19.5602C22.021 19.5051 22.1863 19.2845 22.1863 19.0638V12.7769H27.5359V19.0638C27.5359 19.2845 27.7014 19.5051 27.9218 19.5602C30.5689 20.4425 32.7196 22.5381 33.6573 25.1855L16.0652 25.1852C17.0577 22.5932 19.0982 20.4976 21.8007 19.5602L21.8004 19.5602ZM10.2193 2.79489C10.2193 2.35362 10.5501 2.0228 10.9914 2.0228H19.153C19.5943 2.0228 19.9251 2.35362 19.9251 2.79489C19.9251 3.23616 19.5943 3.56699 19.153 3.56699H10.9914C10.6054 3.62234 10.2193 3.23617 10.2193 2.79489V2.79489ZM12.37 16.4169C12.4251 16.3067 12.4802 16.2514 12.4802 16.1412L12.4804 4.72516H17.83V16.1412C17.83 16.2514 17.8851 16.3618 17.9402 16.4169L19.8152 19.2847C18.1055 20.2223 16.6167 21.7665 15.624 23.6415H7.73791L12.37 16.4169ZM2.16745 35.1126C1.39535 35.1126 0.954087 34.2854 1.34023 33.6236L7.02063 24.7996H15.0724C13.6938 28.3292 14.4105 32.2996 16.7268 35.1126H2.16745ZM31.5064 35.1126H18.2158C15.8995 32.7963 14.962 29.4873 15.734 26.2887H33.9884C34.1539 27.0056 34.2641 27.7226 34.2641 28.4945C34.2643 30.9764 33.2716 33.3477 31.5068 35.1125L31.5064 35.1126Z" fill="#475036"/>
<path d="M29.6861 27.0601C28.5282 27.0601 27.5354 27.9977 27.5354 29.2108C27.5354 30.3688 28.473 31.3616 29.6861 31.3616C30.8995 31.3616 31.8369 30.4239 31.8369 29.2108C31.8369 28.0526 30.8442 27.0601 29.6861 27.0601V27.0601ZM29.6861 30.2586C29.1347 30.2586 28.6383 29.8173 28.6383 29.2108C28.6383 28.6593 29.0796 28.163 29.6861 28.163C30.2927 28.163 30.734 28.6043 30.734 29.2108C30.734 29.8174 30.2376 30.2586 29.6861 30.2586Z" fill="#475036"/>
<path d="M21.193 29.1006C20.035 29.1006 19.0422 30.0382 19.0422 31.2513C19.0422 32.4647 19.9799 33.4021 21.193 33.4021C22.351 33.4021 23.3437 32.4644 23.3437 31.2513C23.344 30.038 22.3512 29.1006 21.193 29.1006V29.1006ZM21.193 32.2991C20.6415 32.2991 20.1452 31.8579 20.1452 31.2513C20.1452 30.6448 20.5864 30.2035 21.193 30.2035C21.7444 30.2035 22.2408 30.6448 22.2408 31.2513C22.2408 31.8579 21.7444 32.2991 21.193 32.2991Z" fill="#475036"/>
<path d="M8.67451 28.1631C7.46114 28.1631 6.41333 29.1558 6.41333 30.4243C6.41333 31.6927 7.40603 32.6854 8.67451 32.6854C9.94298 32.6854 10.9357 31.6927 10.9357 30.4243C10.9357 29.1558 9.88787 28.1631 8.67451 28.1631V28.1631ZM8.67451 31.5272C8.06796 31.5272 7.51652 31.0308 7.51652 30.3692C7.51652 29.7073 8.01288 29.2112 8.67451 29.2112C9.28106 29.2112 9.83249 29.7076 9.83249 30.3692C9.83274 31.0309 9.28128 31.5272 8.67451 31.5272Z" fill="#475036"/>
<path d="M13.5826 22.0408C14.7406 22.0408 15.7334 21.1031 15.7334 19.89C15.7334 18.6766 14.7957 17.7393 13.5826 17.7393C12.3693 17.7393 11.4319 18.6769 11.4319 19.89C11.4319 21.1034 12.4246 22.0408 13.5826 22.0408V22.0408ZM13.5826 18.8973C14.1341 18.8973 14.6304 19.3386 14.6304 19.9451C14.6304 20.5517 14.1892 20.9929 13.5826 20.9929C12.9761 20.9929 12.5348 20.5517 12.5348 19.9451C12.5348 19.3386 13.0312 18.8973 13.5826 18.8973Z" fill="#475036"/>
</svg>
