<svg width="101" height="81" viewBox="0 0 101 81" fill="none" xmlns="http://www.w3.org/2000/svg">
<path d="M77.335 0.0871226C78.2562 0.0871226 79.1774 0.0871226 80.0987 0.0871226C99.2401 0.318059 103.232 3.78212 99.9822 19.1499C97.4744 31.0117 93.7638 42.7055 90.5138 54.4413C88.2875 62.503 78.9727 63.5738 72.0634 64.4135C57.1956 66.219 45.7568 73.0002 33.9085 79.2145C27.8181 82.4056 25.5406 81.2089 23.0584 76.5062C15.8931 62.881 8.54873 49.3397 1.17878 35.7774C-1.07315 31.6415 -0.151883 29.4581 4.40316 25.8681C9.16292 22.1311 14.3065 21.0184 19.6548 19.3808C27.639 16.9665 31.196 10.0594 38.7195 6.99424C41.3553 5.92353 44.0422 3.84509 46.7548 3.8241C57.2211 3.78211 66.8174 -0.584698 77.335 0.0661238" fill="#D7E3E1"/>
</svg>
