<svg width="56" height="80" viewBox="0 0 56 80" fill="none" xmlns="http://www.w3.org/2000/svg">
<path d="M27.8974 71.7516C28.4482 71.09 29.1886 70.1931 30.067 69.1126C30.1062 69.0568 30.1493 69.003 30.1951 68.9546C35.7607 62.1001 46.6262 48.1591 50.4457 39.3293L50.4988 39.2191C51.2863 37.547 51.9034 35.7693 52.3174 33.9211C52.7222 32.1159 52.9378 30.2226 52.9378 28.264C52.9378 21.2568 50.1338 14.9127 45.604 10.3222C41.0742 5.73213 34.812 2.89077 27.8979 2.89077C20.9807 2.89077 14.7172 5.73144 10.1867 10.3202C5.65895 14.913 2.85492 21.2572 2.85492 28.2637C2.85492 30.2243 3.07056 32.1209 3.4773 33.9288C3.89665 35.7972 4.52299 37.5924 5.32978 39.286L5.36362 39.3634C9.19139 48.1919 20.024 62.0883 25.5836 68.9336C25.644 68.9961 25.6991 69.062 25.7475 69.1359C26.6174 70.2063 27.3506 71.0938 27.8966 71.7501L27.8974 71.7516ZM33.8067 69.0286C35.003 69.3715 36.0573 69.8153 36.9052 70.3357C38.5209 71.3207 39.4691 72.6264 39.4691 74.129C39.4691 75.9833 38.0021 77.5527 35.6333 78.5861C33.6315 79.4581 30.8926 80 27.8961 80C24.8996 80 22.1606 79.4581 20.1588 78.5861C17.7908 77.5527 16.3231 75.9834 16.3231 74.129C16.3231 72.631 17.2726 71.3254 18.8849 70.3357C19.7309 69.8139 20.7871 69.3688 21.9887 69.0266C16.0802 61.6463 6.42405 48.9557 2.76749 40.5477C1.86975 38.6611 1.17109 36.6574 0.701329 34.5631C0.244171 32.5265 0 30.416 0 28.2652C0 20.4599 3.12319 13.3923 8.16987 8.27862C13.2232 3.16477 20.1967 0 27.8956 0C35.597 0 42.5731 3.16477 47.6196 8.27862C52.6661 13.3925 55.7895 20.4601 55.7895 28.2652C55.7895 30.412 55.5466 32.5198 55.0908 34.555C54.629 36.6164 53.9403 38.5977 53.0598 40.4656L53.0532 40.4824C49.4099 48.9068 39.722 61.6376 33.8047 69.0285L33.8067 69.0286ZM23.9953 71.5096C22.5136 71.8007 21.2563 72.2518 20.3566 72.8032C19.6141 73.2543 19.1768 73.7195 19.1768 74.1297C19.1768 74.7173 19.9823 75.3634 21.2848 75.9316C22.9522 76.6577 25.289 77.1089 27.8967 77.1089C30.5044 77.1089 32.8411 76.6577 34.5086 75.9316C35.8105 75.3635 36.6166 74.7167 36.6166 74.1297C36.6166 73.7236 36.1793 73.2597 35.4369 72.8045C34.5451 72.2525 33.2897 71.804 31.8022 71.5123C30.0824 73.6193 28.9922 74.9015 28.9804 74.9163L28.8357 75.0628C28.2445 75.5866 27.3461 75.5247 26.8293 74.9264C26.8161 74.9116 25.7226 73.6254 23.9968 71.5101L23.9953 71.5096ZM27.8961 16.5379C31.0921 16.5379 33.9877 17.8503 36.0806 19.9715L36.1595 20.0569C38.2065 22.1735 39.469 25.0706 39.469 28.265C39.469 31.5036 38.1739 34.4377 36.0805 36.5584L35.9963 36.6371C33.9068 38.7132 31.0464 39.9934 27.896 39.9934C24.7046 39.9934 21.8103 38.681 19.715 36.555C17.6182 34.4377 16.323 31.5036 16.323 28.265C16.323 25.0296 17.6182 22.099 19.7116 19.9771C21.8049 17.8505 24.6998 16.5379 27.8961 16.5379ZM34.0628 22.0161C32.4863 20.4187 30.3047 19.4297 27.8961 19.4297C25.4875 19.4297 23.3053 20.4187 21.7294 22.0161C20.1522 23.6109 19.1769 25.8222 19.1769 28.265C19.1769 30.7056 20.1529 32.9168 21.7294 34.5138C23.3032 36.1146 25.4841 37.1016 27.8961 37.1016C30.2748 37.1016 32.4272 36.1422 33.9964 34.5871L34.0627 34.5145C35.6392 32.917 36.6152 30.7063 36.6152 28.2657C36.6152 25.8581 35.6684 23.6756 34.1337 22.0842L34.0628 22.0161Z" fill="black"/>
</svg>
