<svg width="80" height="81" viewBox="0 0 80 81" fill="none" xmlns="http://www.w3.org/2000/svg">
<path d="M51.4965 62.2655V74.0448L51.4945 74.1292C51.5313 77.3962 48.6287 79.4732 44.8244 80.4114C42.9939 80.8634 40.9322 81.0547 38.9297 80.9866C36.9047 80.9172 34.9187 80.5809 33.2635 79.9804C30.2196 78.8762 28.1838 76.8924 28.5072 73.9897V62.2656C24.5132 60.2207 21.1375 57.1408 18.7372 53.3829C16.2453 49.4821 14.8013 44.8549 14.8013 39.8997C14.8013 32.9661 17.6221 26.6826 22.1825 22.1322L22.192 22.1227C26.7545 17.5765 33.0512 14.7635 40.0012 14.7635C46.9524 14.7635 53.2519 17.5772 57.8139 22.126L57.8234 22.1355C62.3811 26.6864 65.2013 32.9672 65.2013 39.8995C65.2013 44.8549 63.7564 49.4807 61.2666 53.3814C58.8677 57.1391 55.4906 60.2189 51.498 62.2654L51.4965 62.2655ZM48.0813 75.5091H31.7095C32.1614 76.2293 33.0868 76.8093 34.2613 77.2348C35.6318 77.7325 37.3018 78.0116 39.021 78.0708C40.7628 78.1307 42.5469 77.9646 44.1234 77.5766C45.8821 77.1429 47.3558 76.4464 48.0813 75.5091ZM48.5611 68.6755H31.4414V72.5811H48.5611V68.6755ZM31.4414 64.9647H48.5611V61.3592C48.5665 60.8119 48.8791 60.2864 49.4094 60.0386C53.2683 58.2414 56.5279 55.3699 58.7992 51.8143C60.9928 48.3791 62.2649 44.2904 62.2649 39.9002C62.2649 33.7645 59.7745 28.2108 55.7498 24.1971C51.7204 20.1765 46.1525 17.6924 40.0011 17.6924C33.8498 17.6924 28.282 20.1765 24.258 24.191C20.2273 28.2101 17.7368 33.764 17.7368 39.8997C17.7368 44.2906 19.0104 48.38 21.2039 51.8152C23.4528 55.3368 26.67 58.1865 30.4805 59.9844C31.0422 60.1906 31.4428 60.7291 31.4428 61.3595V64.9649L31.4414 64.9647ZM38.5325 1.46364C38.5325 0.655575 39.1898 0 39.9999 0C40.81 0 41.4673 0.655575 41.4673 1.46364V11.4981C41.4673 12.3062 40.81 12.9618 39.9999 12.9618C39.1898 12.9618 38.5325 12.3062 38.5325 11.4981V1.46364ZM11.7148 13.7562C11.1429 13.1857 11.1429 12.2565 11.7148 11.686C12.2868 11.1155 13.2184 11.1155 13.7903 11.686L20.9047 18.7823C21.4767 19.3528 21.4767 20.2821 20.9047 20.8526C20.3328 21.423 19.4012 21.423 18.8292 20.8526L11.7148 13.7562ZM59.0953 61.0164C58.5233 60.446 58.5233 59.5167 59.0953 58.9462C59.6672 58.3757 60.5988 58.3757 61.1708 58.9462L68.2852 66.0412C68.8571 66.6116 68.8571 67.5409 68.2852 68.1114C67.7132 68.6819 66.7816 68.6819 66.2097 68.1114L59.0953 61.0164ZM66.2097 11.6858C66.7816 11.1153 67.7132 11.1153 68.2852 11.6858C68.8571 12.2563 68.8571 13.1855 68.2852 13.756L61.1708 20.8524C60.5988 21.4229 59.6672 21.4229 59.0953 20.8524C58.5233 20.2819 58.5233 19.3527 59.0953 18.7822L66.2097 11.6858ZM18.8292 58.946C19.4012 58.3756 20.3328 58.3756 20.9047 58.946C21.4767 59.5165 21.4767 60.4458 20.9047 61.0163L13.7903 68.1112C13.2184 68.6817 12.2868 68.6817 11.7148 68.1112C11.1429 67.5407 11.1429 66.6115 11.7148 66.041L18.8292 58.946ZM78.5326 38.4337C79.3428 38.4337 80 39.0893 80 39.8974C80 40.7054 79.3428 41.361 78.5326 41.361H68.474C67.6639 41.361 67.0067 40.7054 67.0067 39.8974C67.0067 39.0893 67.6639 38.4337 68.474 38.4337H78.5326ZM11.526 38.4337C12.3361 38.4337 12.9933 39.0893 12.9933 39.8974C12.9933 40.7054 12.3361 41.361 11.526 41.361H1.46736C0.657242 41.361 0 40.7054 0 39.8974C0 39.0893 0.657242 38.4337 1.46736 38.4337H11.526Z" fill="black"/>
</svg>
