<?xml version="1.0" encoding="UTF-8"?>
<svg width="400" height="400" viewBox="0 0 400 400" fill="none" xmlns="http://www.w3.org/2000/svg">
  <rect width="400" height="400" fill="#F5F5F5"/>
  <path d="M200 160C188.954 160 180 168.954 180 180C180 191.046 188.954 200 200 200C211.046 200 220 191.046 220 180C220 168.954 211.046 160 200 160ZM200 190C193.373 190 188 185.627 188 179C188 172.373 193.373 168 200 168C206.627 168 212 172.373 212 179C212 185.627 206.627 190 200 190Z" fill="#CCCCCC"/>
  <path d="M160 240C160 240 180 220 200 220C220 220 240 240 240 240" stroke="#CCCCCC" stroke-width="2" stroke-linecap="round"/>
</svg>