<svg xmlns="http://www.w3.org/2000/svg" width="224.689" height="36.687" viewBox="0 0 224.689 36.687">
    <g id="Group_684" data-name="Group 684" transform="translate(-686.877 -2449.925)">
        <g id="Group_603" data-name="Group 603">
            <g id="Group_602" data-name="Group 602">
            <path id="Path_830" data-name="Path 830" d="M852.686,2454.542v6.827c.149.013.281.033.413.034.706,0,1.411,0,2.116,0,.16,0,.321.031.56.056-.127.224-.205.384-.3.531-.854,1.289-1.707,2.578-2.571,3.859a1.284,1.284,0,0,0-.24.764q.018,2.457,0,4.912a.628.628,0,0,0,.34.628c.553.329,1.085.691,1.625,1.041a2.536,2.536,0,0,1,.262.186.221.221,0,0,1-.009.384,2.846,2.846,0,0,1-.3.2c-1.313.818-2.634,1.622-3.936,2.457a1.139,1.139,0,0,1-1.282.04c-2.064-1.107-4.139-2.194-6.21-3.289a2.326,2.326,0,0,1-.354-.211c-.294-.229-.29-.448.024-.655.384-.252.775-.494,1.175-.721a.513.513,0,0,0,.3-.508c-.01-1.453,0-2.907-.005-4.361,0-.074-.013-.149-.025-.285-1.088-.018-2.168-.008-3.288,0-.013.152-.034.285-.034.417,0,1.867,0,3.733-.007,5.6a.572.572,0,0,0,.331.584,7.342,7.342,0,0,1,.7.438c.39.266.384.452-.02.714-.141.092-.291.169-.438.252-1.2.674-2.411,1.335-3.6,2.028a1.154,1.154,0,0,1-1.246.033c-1.784-.949-3.581-1.873-5.372-2.81-.182-.1-.469-.16-.418-.415.031-.158.23-.311.388-.409.532-.33,1.08-.634,1.621-.949v-13.662c0-.107,0-.214,0-.321a.862.862,0,0,0-.427-.761c-.954-.64-1.9-1.291-2.846-1.943a3.2,3.2,0,0,1-.465-.371c-.23-.233-.218-.4.023-.625a2.2,2.2,0,0,1,.3-.213c1.367-.876,2.74-1.742,4.1-2.631a.849.849,0,0,1,1.014-.025c1.288.769,2.6,1.506,3.882,2.278a.745.745,0,0,0,.842.007c1.827-1,3.672-1.965,5.495-2.97a1.222,1.222,0,0,1,1.361,0c1.4.817,2.841,1.57,4.253,2.369a.757.757,0,0,0,.885-.021c1.474-.935,2.96-1.851,4.442-2.773.091-.057.186-.108.273-.17a.775.775,0,0,1,.934,0q2.767,1.638,5.555,3.241a.855.855,0,0,1,.475.849c-.01,5.156.019,10.313-.021,15.469a3.45,3.45,0,0,0,1.77,3.19c.613.381.612.554.015.979-1.222.871-2.453,1.73-3.665,2.616a1.1,1.1,0,0,1-1.234.121,6.611,6.611,0,0,1-2.753-2.151,4.9,4.9,0,0,1-.917-2.88q.011-7.092,0-14.184c0-.153.005-.307-.005-.459a.8.8,0,0,0-.382-.7C854.773,2455.631,853.757,2455.106,852.686,2454.542Zm-11.717.2c-.017.152-.033.224-.033.3q.006,5.156.016,10.311c0,.01.019.022.031.029a.29.29,0,0,0,.061.011c.056-.077.119-.161.177-.247q1.017-1.526,2.035-3.052a2.018,2.018,0,0,1,.375-.514,2.653,2.653,0,0,1,.648-.259c0-1.464,0-2.944,0-4.425a.683.683,0,0,0-.406-.62C842.925,2455.771,841.979,2455.272,840.969,2454.74Zm-.551,17.745V2454.6c-.643.006-.87.232-.87.866q0,7.937-.007,15.872a.916.916,0,0,0,.541.962C840.178,2472.343,840.266,2472.4,840.418,2472.485Zm11.741-18.14c-.521-.253-.69-.161-.716.374,0,.046,0,.092,0,.137q0,3.067,0,6.135c0,.131.021.261.035.417l.681-.031Zm-.673,12.1a1.734,1.734,0,0,0-.037.215c0,1.341-.009,2.683,0,4.025,0,.451.187.65.727.837.01-1.7.007-3.38.005-5.077Z"/>
            <path id="Path_831" data-name="Path 831" d="M773.425,2486.038c.208-.015.417-.043.625-.044a5.01,5.01,0,0,0,2.183-.466,2.776,2.776,0,0,0,1.039-.815,3,3,0,0,0,.416-.708,1.146,1.146,0,0,0-.842-1.628,2.611,2.611,0,0,0-1.495.076c-.759.233-1.5.519-2.242.81-.484.19-.946.433-1.422.644a12.25,12.25,0,0,1-7.368.872,6.938,6.938,0,0,1-4.02-2.236,4.241,4.241,0,0,1-1.108-2.846,6.723,6.723,0,0,1,1.994-5.107,1.457,1.457,0,0,0,.456-1.141c-.012-3.642-.007-7.284-.007-10.926,0-.107,0-.214,0-.321a.883.883,0,0,0-.495-.819q-.664-.366-1.325-.737a2.963,2.963,0,0,1-.314-.191.469.469,0,0,1-.033-.831,1.892,1.892,0,0,1,.188-.131c1.189-.785,2.383-1.561,3.564-2.357a1.053,1.053,0,0,1,1.2-.071c1.719.942,3.445,1.869,5.161,2.818.633.35.672.614.082,1.038a2.183,2.183,0,0,0-.913,2.011c.039,3.076.029,6.152,0,9.227a1.379,1.379,0,0,0,.757,1.34,3.873,3.873,0,0,0,3.092.443,2.4,2.4,0,0,0,.469-.184,1.042,1.042,0,0,0,.613-.994c-.008-.979,0-1.958,0-2.938,0-2.463-.015-4.927.008-7.391a1.2,1.2,0,0,0-.731-1.243c-.4-.187-.78-.424-1.167-.642a2.042,2.042,0,0,1-.308-.2.452.452,0,0,1-.018-.747,1.765,1.765,0,0,1,.181-.14c1.109-.794,2.226-1.575,3.322-2.386a1.13,1.13,0,0,1,1.4-.064c1.785,1.073,3.581,2.126,5.369,3.2.477.285.51.539.13.954-.269.294-.554.573-.847.842a1.755,1.755,0,0,0-.585,1.386c.013,3.152-.008,6.3.014,9.456a2.574,2.574,0,0,1-.837,1.959,5.306,5.306,0,0,1-3.022,1.434,10.875,10.875,0,0,1-6.676-1.169c-.463-.238-.9-.524-1.367-.756a5.615,5.615,0,0,0-5.693.2,3.484,3.484,0,0,0-1.3,1.4,1.912,1.912,0,0,0,.372,2.394,4.049,4.049,0,0,0,2.2,1.063,7.667,7.667,0,0,0,3.627-.343c1.083-.327,2.145-.725,3.211-1.107a12.2,12.2,0,0,1,5.125-.856,6.329,6.329,0,0,1,3.1,1.042,3.879,3.879,0,0,1,1.7,4.033,4.439,4.439,0,0,1-1.942,3.148,6.406,6.406,0,0,1-3.933,1.323,6.216,6.216,0,0,1-1.21-.235,1.978,1.978,0,0,1-.394-.192Z"/>
            <path id="Path_832" data-name="Path 832" d="M699.636,2470.922v-15.557H687.574a1.493,1.493,0,0,1-.367-.008c-.121-.032-.3-.094-.326-.18s.082-.238.155-.345a.911.911,0,0,1,.211-.174q2.687-2.047,5.37-4.1a1.865,1.865,0,0,1,1.191-.4c4.751.007,9.5,0,14.255.011a6.6,6.6,0,0,1,1.407.167,3.012,3.012,0,0,1,2.278,2.114,7.149,7.149,0,0,1,.329,2.353q.01,7.8,0,15.606c0,.513-.1.637-.6.764a12.671,12.671,0,0,0-7.26,5.074c-.367.5-.428.531-1.036.393a26.391,26.391,0,0,0-6.213-.524,62.378,62.378,0,0,0-6.554.464c-.213.025-.427.052-.641.056-.321.007-.409-.137-.283-.438a1.3,1.3,0,0,1,.111-.2,10.306,10.306,0,0,1,6.837-4.857,11.551,11.551,0,0,1,2.651-.228C699.256,2470.926,699.423,2470.922,699.636,2470.922Zm.54.044c.552.089,1.068.153,1.575.259.523.109,1.042.246,1.556.393.489.141.97.312,1.48.478a2,2,0,0,0,.053-.287c0-2.11.006-4.219-.005-6.329a.567.567,0,0,0-.174-.391,8.005,8.005,0,0,0-1.187-.847,1.984,1.984,0,0,0-2.021.048,9.149,9.149,0,0,0-1.041.815.751.751,0,0,0-.26.648c.01,1.62,0,3.24.005,4.861C700.157,2470.719,700.168,2470.824,700.176,2470.966Zm.044-15.57a.666.666,0,0,0-.044.134q-.006,2.317-.006,4.636a.607.607,0,0,0,.073.3,3.964,3.964,0,0,0,1.315,1.385,1.976,1.976,0,0,0,1.725.159,4,4,0,0,0,1.245-.765.831.831,0,0,0,.323-.709c-.017-1.515-.008-3.03-.009-4.545a1.037,1.037,0,0,0-.021-.363.492.492,0,0,0-.233-.235.77.77,0,0,0-.317-.028q-1.886,0-3.772,0A2.679,2.679,0,0,0,700.22,2455.4Zm4.559,9.054a12.13,12.13,0,0,0-.015-2.675,3.548,3.548,0,0,1-2.346.89,3.3,3.3,0,0,1-2.207-1.279,13.7,13.7,0,0,0,.052,3.1,3.265,3.265,0,0,1,2.245-1.009A3.546,3.546,0,0,1,704.779,2464.45Z"/>
            <path id="Path_833" data-name="Path 833" d="M726.151,2456.793a3.613,3.613,0,0,1,.683.206q3.4,1.778,6.783,3.576a1.359,1.359,0,0,1,.2.122c.315.24.336.495.037.758s-.607.516-.927.752a.751.751,0,0,0-.322.666q.008,3.739,0,7.481a.643.643,0,0,0,.331.6c.733.474,1.453.967,2.178,1.453l.19.129c.622.43.638.649.058,1.1-1.155.908-2.324,1.8-3.47,2.721a.831.831,0,0,1-1.006.092c-2.047-1-4.108-1.98-6.153-2.989a.727.727,0,0,0-.907.1c-1.146.945-2.316,1.861-3.468,2.8a1.042,1.042,0,0,1-.89.261,9.149,9.149,0,0,1-3.879-1.577,5.864,5.864,0,0,1-2.261-3.767,8.786,8.786,0,0,1,1.866-7.487,20.813,20.813,0,0,1,7.091-5.508c.986-.485,2.024-.866,3.045-1.278A6.379,6.379,0,0,1,726.151,2456.793ZM724.9,2467.64h0c0-1.391-.008-2.782.006-4.173a.871.871,0,0,0-.411-.809q-1.4-.924-2.784-1.864a.592.592,0,0,0-.761,0,11.99,11.99,0,0,0-1.153.9,4.7,4.7,0,0,0-1.471,3.814,7.914,7.914,0,0,0,4.947,6.895,1.9,1.9,0,0,0,.844.15c.555-.016.781-.286.782-.84Q724.9,2469.681,724.9,2467.64Z"/>
            <path id="Path_834" data-name="Path 834" d="M865.484,2469.489a9.415,9.415,0,0,1,2.669-6.43,23.205,23.205,0,0,1,9.625-6.126,1.969,1.969,0,0,1,1.676.127c2.144,1.151,4.3,2.277,6.452,3.42.7.373.719.628.1,1.128-.226.183-.443.381-.683.544a.843.843,0,0,0-.354.792c.008,1.638,0,3.275,0,4.912,0,.8.011,1.591-.006,2.387a.706.706,0,0,0,.364.678c.759.489,1.5,1,2.254,1.505.089.059.18.117.265.182.407.314.423.561.021.88-1.225.97-2.462,1.924-3.687,2.894a.719.719,0,0,1-.851.055c-.92-.453-1.846-.894-2.769-1.34-1.158-.559-2.32-1.11-3.47-1.685a.7.7,0,0,0-.873.092c-1.134.935-2.292,1.842-3.429,2.773a1.237,1.237,0,0,1-1.147.271,10.055,10.055,0,0,1-3.279-1.269,5.849,5.849,0,0,1-2.62-3.888C865.616,2470.766,865.569,2470.124,865.484,2469.489Zm11.806-1.864h0c0-1.39-.005-2.781,0-4.171a.878.878,0,0,0-.391-.822c-.945-.623-1.882-1.257-2.821-1.889a.594.594,0,0,0-.688-.024,5,5,0,0,0-2.681,4.456,7.16,7.16,0,0,0,1.878,4.94,9.189,9.189,0,0,0,2.952,2.215,1.648,1.648,0,0,0,1.111.17c.486-.118.632-.292.633-.795Q877.292,2469.665,877.29,2467.625Z"/>
            <path id="Path_835" data-name="Path 835" d="M812.374,2459.347c.693.387,1.39.768,2.079,1.164a.47.47,0,0,0,.593,0l-.176-.744a1.539,1.539,0,0,1,1.207.521,1.062,1.062,0,0,0,.371.312,3.262,3.262,0,0,1,1.975,3.882,5.709,5.709,0,0,1-1.119,2.239c-.056.068-.105.141-.178.24a6.329,6.329,0,0,0,1.563.794.354.354,0,0,0,.221,0,.534.534,0,0,1,.689.191.356.356,0,0,0,.191.11c.749.189,1.5.362,2.248.562.442.118.87.286,1.309.414.219.064.45.083.673.131.433.092.863.2,1.3.283a3.952,3.952,0,0,0,.859.111,1.036,1.036,0,0,0,.989-1.216c-.256.011-.5.029-.751.03-.52,0-1.04-.007-1.586-.012a2.073,2.073,0,0,1,.482-1.072c-.77.065-1.489.137-2.21.185a9.876,9.876,0,0,1-2.566-.041,5.017,5.017,0,0,1-1.088-.348,1.6,1.6,0,0,1-.945-1.962,2.235,2.235,0,0,1,.818-1.3,3.63,3.63,0,0,1,2.622-.906,7.95,7.95,0,0,0,1.286-.095l-.75.854a2.372,2.372,0,0,0,1-.446,1.923,1.923,0,0,1,1.675-.373c-.152.29-.536.39-.556.752a2.62,2.62,0,0,0,1.738-.526,2.113,2.113,0,0,1-1.339,1.793,6.832,6.832,0,0,1-3.137.167,1.163,1.163,0,0,1-.307-.092,2.872,2.872,0,0,0-1.711-.172.83.83,0,0,0-.586,1.289,1.383,1.383,0,0,0,.631.5,4.056,4.056,0,0,0,2.08.153c1.141-.218,2.294-.374,3.473-.561a3.874,3.874,0,0,1-.022-.569,3.385,3.385,0,0,1,.132-.538c.354.178.665.329.971.49a1.878,1.878,0,0,1,1.122,1.415.668.668,0,0,0,.069.213,2.761,2.761,0,0,1-.135,2.908,1.255,1.255,0,0,0-.117.427.966.966,0,0,1-.841.934c-.013-.026-.04-.055-.036-.078.112-.638-.008-.787-.644-.863-.455-.055-.905-.146-1.357-.215-.179-.027-.361-.037-.573-.058v1.749a2.107,2.107,0,0,0,.867.009,1.538,1.538,0,0,1,.488.047.5.5,0,0,1,.4.5,1.573,1.573,0,0,0,.057.291c.34.064.658.1.966.186a1.009,1.009,0,0,1,.853.94c.039.425.145.843.221,1.264.116.64-.241,1.008-.92.922l.077-.56-.5-.133c-.153.2-.442.256-.434.565,0,.037-.043.079-.074.111a1.316,1.316,0,0,1-1.768.044l.363-.868h-.477c-.025.055-.052.085-.048.109.1.529-.226.747-.647.9a9.667,9.667,0,0,1-2.8.484,28.658,28.658,0,0,1-5.049-.091c-.667-.084-1.328-.217-2.028-.333-.065.267-.262.259-.51.185a3.825,3.825,0,0,0-.433-.017,1.746,1.746,0,0,1-.456-.151,2.714,2.714,0,0,1-.373-.288v.484c-.471.327-.8-.2-1.257-.234-.045.27-.245.283-.471.281a3.255,3.255,0,0,1-1.524-.378c-.524.372-.949,0-1.445-.152l-.878.713-1.213-.924c-.075.284,0,.582-.276.725a1.628,1.628,0,0,0-.022-.9.637.637,0,0,1,.06-.583l.337.508c0-.272.052-.465-.179-.577-.341-.165-.68-.335-.984-.485l-.629.187c-.016.451.177.59.566.4.125-.06.248-.126.406-.207a.33.33,0,0,1-.23.411c-.167.071-.346.114-.52.17l-.277-.274c-.408.387-.1.966-.479,1.288l-1.441-.392-.345.47-.854-.343c-.143-.015-.375.422-.716.084a2.315,2.315,0,0,1-.424.173.834.834,0,0,1-.487,0,1.383,1.383,0,0,0-.759-.072,51.388,51.388,0,0,1-6.29.222,8.04,8.04,0,0,1-1.276-.153,1.2,1.2,0,0,1-1.072-1.2,1.375,1.375,0,0,0-.906-.1l-.408,1.256c-.127-.136-.191-.213-.264-.281-.2-.183-.313-.145-.37.118-.019.086-.029.175-.047.288-.192-.009-.32-.027-.206-.249.083-.162.01-.278-.134-.485l-.189.456c-.331.056-.539-.166-.746-.361-.143-.135-.239-.318-.375-.462a2.372,2.372,0,0,0-.367-.252l-.1.834c-.44-.034-.781-.318-.761-.7.038-.747.116-1.493.191-2.239a.5.5,0,0,1,.427-.428c.22-.055.447-.082.7-.128.109-.3.222-.612.339-.926s.178-.353.508-.3c.2.031.391.067.588.087a1.181,1.181,0,0,0,.253-.023l.6-1.337a10.719,10.719,0,0,0-2.555.837,1.475,1.475,0,0,0-.371.331c-.123.135-.225.288-.321.412-.586-.343-.651-.617-.42-1.484a1.511,1.511,0,0,1-.35-1.873,3.569,3.569,0,0,1,1.8-1.883,1.217,1.217,0,0,0,.6-.527,1.28,1.28,0,0,1,1.164-.7c.4-.011.793,0,1.251,0l-.18.892a2.364,2.364,0,0,0,.314.063,19.843,19.843,0,0,0,4.721-.152,1,1,0,0,0,.955-.844.576.576,0,0,0-.712-.725,5.665,5.665,0,0,0-1.177.5,3.1,3.1,0,0,1-2.532.251,2.9,2.9,0,0,1-1.722-1.822l1.5.464.037-.068-.768-.79a1.335,1.335,0,0,1,1.252.153.917.917,0,0,0,.751.244l-.262-.617c.035-.038.059-.079.073-.075a6.987,6.987,0,0,0,1.822.163,4.222,4.222,0,0,1,1.222.177,2.075,2.075,0,0,1,1.46,2.469,1.7,1.7,0,0,1-1.1,1.256,7.37,7.37,0,0,1-2.288.457c-1.087.044-2.175.082-3.262.124-.15.006-.3.02-.481.033l.235.836a1.109,1.109,0,0,0-.315.054,1.006,1.006,0,0,1-1.1-.19,5.554,5.554,0,0,1-.542-.423.551.551,0,0,0-.711-.051,1.863,1.863,0,0,0-.865.917.689.689,0,0,0,.51,1.018,2.539,2.539,0,0,0,1.362-.071c1.426-.409,2.848-.834,4.273-1.249.617-.179,1.238-.344,1.856-.52a7.275,7.275,0,0,0,2.627-1.273c.142-.115.27-.247.367-.336l-.142-1.82c-.291-.27-.672-.636-.214-1.21-.179-.292-.359-.574-.529-.863-.215-.369-.192-.484.108-.793a.36.36,0,0,0,.1-.225.354.354,0,0,1,.22-.364.219.219,0,0,0,.106-.168c-.015-.328.194-.417.489-.437l-.261-.938.892-.364.292.806c.227-.093.442-.182.65.01.032.03.135-.026.206-.025.113,0,.26-.023.332.037a.424.424,0,0,0,.364.094c.187-.02.476.357.506.624a4.993,4.993,0,0,1,.021.5,1.419,1.419,0,0,0,.321,1.017.665.665,0,0,1,.1.774.274.274,0,0,0-.044.169,9.155,9.155,0,0,0,.368,1.168,2.121,2.121,0,0,1,.185,1.158c-.055.423-.106.847-.162,1.3l-.2.079c.026.028.041.059.065.066.818.265.824.269,1.351-.4.549-.7,1.079-1.409,1.627-2.108a.778.778,0,0,0,.143-.8c-.213-.638-.383-1.29-.565-1.937a.79.79,0,0,1,.535-1.122.542.542,0,0,0,.24-.178c.22-.339.214-.343.609-.375.129-.187.213-.415.374-.507s.376-.017.6-.017c.115-.358.426-.42.816-.347v-1.412h1.387v1.389c.356-.068.66-.077.811.26.6-.114.619-.1.928.411a.64.64,0,0,1,.8.4c.047.1.2.162.323.217.343.162.48.339.382.679a.586.586,0,0,0,.185.678q-.22.571-.443,1.143c-.161.413-.328.824-.48,1.241a.6.6,0,0,0-.037.342c.107.365.117.362-.084.74.161-.064.264-.1.359-.143a1.024,1.024,0,0,1,1.466.242c.266.274.559.523.874.815l.282-.171a3.988,3.988,0,0,1-.111-.44.58.58,0,0,1,.32-.65.432.432,0,0,1,.624.186c.06.1.113.2.208.372l.159-.491c-.09-.094-.178-.179-.256-.271a.9.9,0,0,0-.617-.341c-.387-.049-.465-.176-.461-.54l.477-.149c0-.094,0-.168,0-.242a.658.658,0,0,1,.388-.655,2.538,2.538,0,0,0,1.17-1.032c-.094-.084-.187-.179-.291-.261-.565-.445-1.135-.885-1.7-1.333a1.277,1.277,0,0,1-.307-.333.319.319,0,0,1,0-.29.338.338,0,0,1,.284-.074,1.124,1.124,0,0,1,.3.176l-.354-.017c.129.386.294.549.79.758Zm-8.389,13.675.518-.34c-.213-.095-.331-.192-.433-.176-.067.01-.119.178-.158.283-.018.05.012.118.019.177l-.605-.643a1.338,1.338,0,0,0,.629,1.076c.059-.085.12-.134.116-.177A.658.658,0,0,0,803.985,2473.022Zm6.348,1.132a.662.662,0,0,0,.48.334l.064-.469-.559.147c.066-.328.43-.146.6-.375l-.028-.415-1,.228C810.078,2473.841,810.2,2474,810.333,2474.154Zm-12.6-2.361c-.222-.095-.195-.268-.158-.476l.606-.095.119-.38c-.154-.157-.266-.107-.419-.017a4.386,4.386,0,0,1-.94.458,3.489,3.489,0,0,1-2.373-.219c-.149-.061-.3-.12-.53-.213a1.845,1.845,0,0,0,1.483.876,2.123,2.123,0,0,1-1.184.769.58.58,0,0,0-.483.453l1.128.329a4.625,4.625,0,0,0,.643-.436,1.148,1.148,0,0,1,.909-.355c.34.028.677.1,1.026.155-.04-.167-.025-.317.2-.364.037-.007.052-.119.077-.182l.352.328-.542.036c.189.4.547.48.82.676l-.147.279a1.013,1.013,0,0,0,.953.406v-1.045a3.614,3.614,0,0,1-1-.907,1.961,1.961,0,0,1,.457.289c.347.284.689.569,1.171.263.046-.029.122-.007.18-.022a.369.369,0,0,0,.257-.42c-.032-.194-.236-.442-.361-.387-.158.07-.221-.034-.321-.078-.135-.06-.267-.124-.4-.185l-.128.255a1.131,1.131,0,0,0-.79-.344v.235h-.7Zm10.441,1.021c-.058.313-.429.5-.345.876a3.631,3.631,0,0,0,.485-.642c.083-.14-.067-.169-.151-.222a1.689,1.689,0,0,1,.041-.267q.285-.92.579-1.836a3.9,3.9,0,0,0,.031-1.607h-2.453a37.352,37.352,0,0,0,.058,4.679h.277c0,.452-.034.9.009,1.337a.992.992,0,0,1-.53,1.009.8.8,0,0,1-.555-.934,9.737,9.737,0,0,0,.005-1.146c-.006-.321-.028-.336-.431-.438,0,.683-.006,1.355.007,2.026a.467.467,0,0,0,.137.312c.273.238.566.453.866.689.222-.2.407-.379.61-.539a.571.571,0,0,0,.229-.514c-.013-.489,0-.978-.007-1.468a3.162,3.162,0,0,0-.078-.448A3.547,3.547,0,0,0,808.179,2472.814Zm-12-6.637c-.284.259-.5.454-.712.648a3.629,3.629,0,0,1-1.408.834c-.967.291-1.918.634-2.885.925a11.573,11.573,0,0,1-1.7.4,8.447,8.447,0,0,0-1.728.4,6.087,6.087,0,0,1-1.011.3,6.371,6.371,0,0,1-1.274.129.851.851,0,0,1-.875-1,1.778,1.778,0,0,1,1.787-1.446,2.291,2.291,0,0,1,.722.366,3.624,3.624,0,0,1,.33.317,4.047,4.047,0,0,0,.358.24l.057-.062-.209-.375c.255.032.4.3.7.174l-.591-.958c.15,0,.287,0,.424,0,1.409-.029,2.819-.043,4.228-.094a4.293,4.293,0,0,0,1.954-.448,1.622,1.622,0,0,0,.832-1.94,1.88,1.88,0,0,0-1.806-1.367,10.073,10.073,0,0,1-1.1-.047c-.339-.028-.676-.08-1.089-.131l.484.594-.065.092a9.085,9.085,0,0,1-1.03-.178,8.031,8.031,0,0,1-.931-.394l-.056.094.958.848a7.938,7.938,0,0,1-1.874-.215.634.634,0,0,0,.066.144,2.79,2.79,0,0,0,2.453,1,4.2,4.2,0,0,0,1.649-.535,1.937,1.937,0,0,1,1.1-.26.744.744,0,0,1,.713.879,1.354,1.354,0,0,1-1.292,1.22,25.757,25.757,0,0,1-5.23.12,2.656,2.656,0,0,1-.3-.064c.472-.49.5-.545.47-.88l-.9.488.192-.467a1.811,1.811,0,0,0-1.223.635,1.486,1.486,0,0,1-.539.4,3.694,3.694,0,0,0-1.513,1.3,2.079,2.079,0,0,0-.356,1.213,1.05,1.05,0,0,0,.576.975c.086.047.166.1.258.164-.587.485-.65.814-.326,1.219.035-.027.084-.048.1-.084a2.1,2.1,0,0,1,1.519-1.072c.684-.162,1.358-.369,2.038-.554.088-.024.18-.036.328-.065a4,4,0,0,0-.668,1.471c-.107.527-.25.621-.792.63a2.109,2.109,0,0,1-.412-.026c-.476-.092-.525-.075-.685.386a6.765,6.765,0,0,0-.357,2.3,1.882,1.882,0,0,0,.9,1.665l.445-.363-.356-.569c.425.082.518.423.606.77a.638.638,0,0,0,.385-.711c-.025-.253-.23-.357-.459-.371-.254-.015-.334-.168-.382-.379a1.638,1.638,0,0,1,.26-1.359c.335,0,.656,0,.978,0,.367,0,.5.1.568.446.014.076.02.154.034.264a1.446,1.446,0,0,0,.5-.951,1.724,1.724,0,0,1,.121-.487,4.307,4.307,0,0,1,3.5-2.429,1.169,1.169,0,0,1,.526.1c.407.174.8.383,1.205.565a4.073,4.073,0,0,0,2.049.409,1.98,1.98,0,0,0,1.4-.688c-.1-.3-.347-.541-.3-.939a3.888,3.888,0,0,0,1.127,1.319,2.028,2.028,0,0,0,.3-.125.748.748,0,0,1,.884.058,5.2,5.2,0,0,0,1.814.754,2.753,2.753,0,0,1,1.339.54.139.139,0,0,0,.08.042.962.962,0,0,0,.425-.035.321.321,0,0,0,.077-.451c-.065-.123-.136-.243-.221-.393.371.042.407.337.54.588l.508-.4a3.171,3.171,0,0,1-.007.629,1.012,1.012,0,0,0,.408,1.05,10.656,10.656,0,0,0,1.056.719.935.935,0,0,0,.277.073v-4.651h-2.7v.959c.69.166.74.215.778.719l-.9-.094v-.073l.708-.135c-.591-.393-.971.018-1.386.34-.971-.647-1.913-1.3-2.887-1.909-.431-.267-.726-.8-1.344-.733-.565-.3-1.182-.527-1.471-1.152l-.219.109Zm24.187,2.724c-.171-.138-.3-.316-.468-.365a21,21,0,0,1-3.28-1.423,14.955,14.955,0,0,0-1.681-.733,11.164,11.164,0,0,0-1.476-.317.471.471,0,0,0-.5.238,3.972,3.972,0,0,0-.629,2.514l.528.067a2.279,2.279,0,0,1,.781-1.776,3.051,3.051,0,0,0-.505,2.026c-.827-.07-1.6-.129-2.374-.2a1.248,1.248,0,0,0-1.5.91c-.288.8-.544,1.621-.795,2.438-.142.461-.018.612.466.647.317.022.409-.071.392-.4-.005-.1-.1-.22.075-.348l.084.469a.733.733,0,0,0,.144-.921,1.238,1.238,0,0,1,.233-1.325,1.063,1.063,0,0,1,1.127-.457c.521.117,1.046.22,1.569.332.624.134,1.248.27,1.813.393a4.341,4.341,0,0,0,.946-1.882c.2.539-.114,1.016-.2,1.546a3.28,3.28,0,0,0,.429.173,4.275,4.275,0,0,0,2.964-.181,4.235,4.235,0,0,1,1.864-.417,1.8,1.8,0,0,0,.3-.055C820.388,2469.566,819.966,2469.371,820.37,2468.9Zm5.832,6.355a.8.8,0,0,0-.293-1.167.5.5,0,0,1-.283-.467q-.027-.435-.069-.869a.476.476,0,0,0-.6-.482,1.918,1.918,0,0,1-1.145-.127l-.116-2.308c.21.046.373.086.538.117.6.111,1.2.259,1.806.316.46.043.849.106.979.658.323-.268.191-.539.075-.8a1.151,1.151,0,0,0,.626-.838,7.2,7.2,0,0,0,.071-1.272.8.8,0,0,0-.207-.495,1.235,1.235,0,0,1-.3-.744,1.193,1.193,0,0,0-.71-1l-.052.245-.87-.73c-.113.337-.113.337.352,1.051-.023.016-.046.045-.07.045a22.679,22.679,0,0,0-3.823.488,5.672,5.672,0,0,1-1.188.087,2.743,2.743,0,0,1-1.484-.421,1,1,0,0,1-.23-1.549,1.573,1.573,0,0,1,1.436-.56,9.188,9.188,0,0,1,1.264.224,6.476,6.476,0,0,0,3.005,0,1.544,1.544,0,0,0,1.115-1.106c-.526.153-1.035.3-1.542.448a1.512,1.512,0,0,1-.939.063c.526-.165.6-.63.828-.995a3.169,3.169,0,0,0-.756.379,2.714,2.714,0,0,1-1.835.411l.475-.413a2.338,2.338,0,0,0-.3-.1,3.284,3.284,0,0,0-2.478.605,2.17,2.17,0,0,0-.8,1.1,1.342,1.342,0,0,0,.383,1.543,3.018,3.018,0,0,0,1.732.663,20.05,20.05,0,0,0,3.3-.153,5.049,5.049,0,0,1,1.917-.028.988.988,0,0,1,.221.142c-.707.1-.974.3-1.108.828a1.5,1.5,0,0,1,1.127-.315l-.485.213a1.009,1.009,0,0,0,1.371.021,1.07,1.07,0,0,1-.309,1.678,1.542,1.542,0,0,1-.883.147c-.889-.137-1.768-.333-2.649-.514-.853-.176-1.7-.363-2.557-.541a1.04,1.04,0,0,0-.251.013c.031.07.036.108.056.121.422.268.426.268.29.745-.064.225.039.336.231.421a1.049,1.049,0,0,1,.647,1.019,1.577,1.577,0,0,0,.5,1.146,2.781,2.781,0,0,0,1.354.739,7.581,7.581,0,0,0,.955.094c.312.022.448.1.541.4a1.479,1.479,0,0,1,.087.494c-.014.423-.057.845-.092,1.321a.511.511,0,0,0,.626.055c.119-.056.15-.3.229-.478Zm-27.159-1.21a22.922,22.922,0,0,1-9.877.191,1.738,1.738,0,0,1,.143,1.242.53.53,0,0,0,.356.663,3.609,3.609,0,0,0,1.052.273,38.786,38.786,0,0,0,6.011-.095c.61-.051,1.218-.126,1.824-.209.409-.056.5-.184.492-.577C799.039,2475.049,799.043,2474.564,799.043,2474.046Zm13.987,1.789c.138.053.249.1.363.139a14.894,14.894,0,0,0,4.208.634,30.992,30.992,0,0,0,4.587-.2,3.557,3.557,0,0,0,1.42-.332.455.455,0,0,0,.248-.536c-.114-.47-.257-.934-.387-1.4a25.022,25.022,0,0,1-5.251.526,14.6,14.6,0,0,1-5.188-.583Zm-14.423-8.879a4.286,4.286,0,0,0-.622-.339,1.288,1.288,0,0,1-.85-.679l-.254.054c-.127-.208-.235-.392-.351-.571a.758.758,0,0,1-.184-.641l.57.917.224-.136c.312.561.884.737,1.387,1.025.162-.572.6-1.045.455-1.7l.317.088a6.018,6.018,0,0,0,.1-.78,2.827,2.827,0,0,0-.1-.8,1.434,1.434,0,0,1-.093-.837c.088-.336-.19-.575-.548-.532a2.119,2.119,0,0,0-.268.061,7.791,7.791,0,0,0-2.416,1.185c-.366.247-.4.453-.1.762a2.218,2.218,0,0,0,.2.173,2.535,2.535,0,0,0,.345,1.6,3.158,3.158,0,0,1,.221.694c.027.093.045.189.079.338l.3-.33c.2.844.867,1.108,1.52,1.415l.086-.3c.175.089.217.342.491.348l.337-1.642.176.018c.038-.376.07-.723.11-1.069a.978.978,0,0,0-.237-.849l-.054.75-.259.067A3.531,3.531,0,0,1,798.607,2466.956Zm15.639-5.183c-.285.265-.556.523-.834.775a.929.929,0,0,1-.287.2c-.477.17-.541.338-.27.828h.485l-.246.573.372.327a3.479,3.479,0,0,1,.485-.551,2.918,2.918,0,0,1,.615-.274l-.2-.422c.244.164.4.284.562.375a.592.592,0,0,0,.934-.306,4.419,4.419,0,0,0,.167-.564.883.883,0,0,1-.564,1.289,1.486,1.486,0,0,0-.916.693l2.362.934c.091-.312.219-.654.291-1.008a3.656,3.656,0,0,0-1.081-3.682,1.563,1.563,0,0,1-.262-.418.84.84,0,0,0-.807-.5l.242.672-.921,1.008.516.458c-.152.054-.369.176-.4.136A2.016,2.016,0,0,1,814.246,2461.773Zm-7.66-.293-.1-.085.29-.819h-1.086c.114.308.349.535.286.9l-.561-.364v1.177l.535-.234a1.025,1.025,0,0,1-.524.909.492.492,0,0,1-.743-.416.375.375,0,0,1,.427-.329c.039,0,.079-.034.114-.05-.034-.51-.145-.571-.628-.357-.084-.218-.115-.481-.438-.548a1.817,1.817,0,0,0-.147.281,2.652,2.652,0,0,0-.065.348c-.506.068-.536.115-.406.638a1.583,1.583,0,0,1,.17,0c.186.019.384.031.4.28a.431.431,0,0,1-.381.4c-.34.076-.5-.02-.705-.448.317-.1.123-.3.091-.473-.037-.194-.1-.383-.149-.574l-.1.009c-.064.2-.215.418-.176.595a8.83,8.83,0,0,0,.519,1.664,17.366,17.366,0,0,1,5.925.065c.293-.795.567-1.538.836-2.283.008-.021-.047-.065-.1-.131l-.234.4-.178-.328-.087.06-.216.724.2.126c-.16.315-.3.434-.523.462a.484.484,0,0,1-.518-.465c-.011-.266.112-.377.429-.388.041,0,.082-.007.181-.017-.049-.163-.052-.34-.142-.426s-.269-.082-.418-.12c0-.28.011-.58-.34-.689-.3.173-.244.448-.239.7-.491.053-.508.074-.441.572.217-.053.4-.018.446.239a.432.432,0,0,1-.3.463.635.635,0,0,1-.724-.128.693.693,0,0,1-.19-.825l.461.154v-.905Zm12.067,11.625c-.2-.163-.344-.29-.5-.408a.86.86,0,0,1-.131-1.382c.248-.278.511-.543.767-.813a1.109,1.109,0,0,0-.53.145,2.756,2.756,0,0,1-1.728.348.667.667,0,0,0-.79.506c-.015.043-.023.1-.054.124-.1.057-.223.16-.3.134a.537.537,0,0,0-.686.281.24.24,0,0,1-.421.027.547.547,0,0,0-.665-.126c-.179.074-.31.05-.383-.112-.144-.316-.444-.352-.718-.408-.333-.068-.333-.048-.37-.41a.671.671,0,0,0-.083-.25,1.187,1.187,0,0,0-1.051-.564l-.651,2.163.354.153.589-1.429c.088.068.173.125.247.193.3.281.613.556.9.85a.9.9,0,0,0,.686.286,3.557,3.557,0,0,1,1.033.178c.416.135.491.364.361.777a1.2,1.2,0,0,0-.087.828h.5l-.033-.248c.2-.124.387-.249.583-.361a1.268,1.268,0,0,1,.489-.232,3.338,3.338,0,0,1,1.039.072A2.174,2.174,0,0,0,818.653,2473.1Zm-26.068-1.071a1.841,1.841,0,0,1-1.315,1.061c-.062.513-.063.517.383.684a8.338,8.338,0,0,0,3.832.5l.721-.074.225-.6c-.406-.419-.73-.541-1.019-.272a.786.786,0,0,1-.876.134,3.484,3.484,0,0,1-1.148-.443l.561-.827a1.42,1.42,0,0,0,1.174-.332c-.584-.111-1-.573-1.647-.477l.283-.372a6.982,6.982,0,0,0-.764-.6,1.069,1.069,0,0,0-.646-.177,3.155,3.155,0,0,0-1.82.792,5.844,5.844,0,0,0-.412.523Zm10.7-7.111c.048,1.355.094,2.649.14,3.934a13.367,13.367,0,0,0,2.681-.026v-3.908Zm5.707,0c-.932.008-1.793,0-2.647.033v3.921h2.545Zm7.119,8.8c.142.411.37.665.84.624a6.545,6.545,0,0,1,.779.018,1.171,1.171,0,0,0,.716-.236,10.188,10.188,0,0,1,1.319-.718c.382-.176.462-.332.241-.7-.07-.117-.171-.215-.246-.329a3.091,3.091,0,0,1-.158-.315l1.335-.357c-.031-.183-.006-.4-.09-.458-.332-.229-.328-.457-.134-.775.123-.2-.026-.393-.274-.371a1.092,1.092,0,0,0-.518.147c-.567.413-1.125.842-1.662,1.292a.455.455,0,0,0-.043.754,8.494,8.494,0,0,0,.633.594c.083.078.16.162.23.232-.418.192-.815.347-1.184.552a1.138,1.138,0,0,1-1.25-.006A.391.391,0,0,0,816.111,2473.718Zm-2.942-1.085c-.187.15-.328.265-.472.378s-.311.25-.477.359c-.195.128-.321.269-.252.526a.885.885,0,0,1-1.087.983,2.831,2.831,0,0,1-.442-.234,1.414,1.414,0,0,0-.137-.056l-.3.221c.185.139.429.18.551.472-.2-.1-.332-.159-.462-.23a.458.458,0,0,0-.479.011c-.4.226-.79.454-1.235.71a2.61,2.61,0,0,0,1.866.615l-.46-.53a1.1,1.1,0,0,1,1,.275,1.06,1.06,0,0,0,.783.312c-.385-.209,0-.221-.035-.392l-.673-.6a1.209,1.209,0,0,1,.2-.06,1.042,1.042,0,0,1,.874.424c.158.174.317.346.495.541l.1-.254a1.259,1.259,0,0,0,.773.35c.034-.325-.319-.3-.371-.508s-.088-.442-.129-.654c-.247-.112-.567-.134-.6-.452-.038-.38.3-.528.542-.7,0-.1,0-.181,0-.257-.023-.511.062-.608.577-.635.17-.009.341,0,.614,0Zm-14.3-10.9c0-.273-.014-.577,0-.879a.464.464,0,0,0-.3-.508,2.951,2.951,0,0,0-.549-.224,1.052,1.052,0,0,0-.867.07c.038.385.351.262.557.3.067.268-.369.384-.154.657h.413a2.159,2.159,0,0,1-.251.383.3.3,0,0,1-.416-.029c-.126-.109-.127-.2.009-.333.12-.121.082-.286-.112-.374-.063-.029-.1-.114-.166-.192l-.446.217c-.009.136.021.264-.03.33-.135.176-.023.246.1.307a1.063,1.063,0,0,0,.247.056c0,.351-.077.522-.282.575a.382.382,0,0,1-.494-.244l.363-.331-.6-.053c.38-.2.441-.507.431-.925a2.389,2.389,0,0,0-1.04,1.23.412.412,0,0,0,.013.3c.177.332.376.652.571.984.5-.261.948-.523,1.42-.733C797.781,2462.109,798.291,2461.945,798.865,2461.731Zm1.913,6.987c.217-.288.41-.543.6-.8a.882.882,0,0,0,.183-.259,5.251,5.251,0,0,1,1.449-2.619l-.369-.572a8.1,8.1,0,0,1-2.017,2.757l-.845-.155-.4,1.243C799.673,2468.883,800.254,2468.688,800.778,2468.718Zm-.44,3.889c-.691-.085-1.051.366-.831,1.069a.545.545,0,0,1,.005.334.554.554,0,0,0,.351.83,1.071,1.071,0,0,1,.33.217.73.73,0,0,0,.823.207c.3-.1.442-.3.361-.561.179-.079.369-.1.449-.209a1.125,1.125,0,0,0-.041-1.195.672.672,0,0,1-.1-.329.787.787,0,0,0-.889-.678A2.064,2.064,0,0,0,800.338,2472.607Zm-13.405,1.862c.781-.258.785-.257,1.224.472h.956l-.083-.989,1.374-.135c-.1-.4-.465-.617-1.085-.654-.324.372-.479.995-1.213.87.095-.241.267-.451.1-.7h-1.158A1.733,1.733,0,0,0,786.933,2474.469Zm3.648-.376a1.745,1.745,0,0,0,1.438.1c-.233-.089-.445-.166-.654-.252s-.426-.187-.4-.483.006-.576.36-.718a4.286,4.286,0,0,0,.66-.423l-2.139-.436c-.122.324-.506.559-.471,1.014.164.048.312.081.452.135a2.391,2.391,0,0,1,.452.216A.638.638,0,0,1,790.581,2474.093Zm15.712-10.19c-.775.053-1.387.085-2,.142-.35.033-.7.108-1.043.165a.257.257,0,0,0-.237.325c.017.067.191.115.3.131a1.219,1.219,0,0,0,.317-.041,16.135,16.135,0,0,1,5.077-.06c.157.028.387.1.44-.106.071-.277-.211-.262-.369-.281C807.9,2464.069,807.018,2463.981,806.293,2463.9Zm17.62,11.138.9-.1c.031-.425.073-.818.084-1.211s-.065-.44-.459-.444a2.319,2.319,0,0,1-.637-.022,1.626,1.626,0,0,0-1.4.371c-.065.04-.1.131-.15.2a.73.73,0,0,0,.758.035c.421-.164.56-.091.685.358C823.765,2474.492,823.835,2474.753,823.913,2475.041Zm-21.178,1.423c.034-.363.064-.645.088-.929.007-.088-.038-.227,0-.259.316-.24.076-.491.027-.733-.017-.083-.108-.149-.138-.233-.129-.361-.125-.362-.511-.352l-.243.7.528.878c-.4-.173-.437-.617-.771-.67l-.488.653.314.507.193-.092c.137.1.346.3.379.271.207-.162.257.038.363.113C802.527,2476.354,802.581,2476.378,802.735,2476.464Zm10.534-10.712a8.084,8.084,0,0,1,3.668,1.1l.358-.463c-.159,0-.255-.026-.321.007s-.1.126-.179.231c-.091-.119-.206-.2-.2-.278a1.828,1.828,0,0,1,.129-.436l-.7-.389a2.126,2.126,0,0,1-.056.309c-.074.207-.226.247-.382.1-.063-.061-.146-.156-.138-.226.034-.285-.153-.415-.371-.6-.079.124-.149.224-.208.33a.285.285,0,0,1-.381.156.247.247,0,0,1-.16-.332c.019-.065.043-.128.075-.223-.323.076-.549-.312-.848-.068C813.593,2465.281,813.593,2465.281,813.269,2465.752Zm9.054,8.457c-.321-.37-.312-.5.027-.727.125-.085.266-.148.4-.223.088-.05.176-.1.3-.178a1.917,1.917,0,0,1-1.172-.887.336.336,0,0,0-.437-.165,1.869,1.869,0,0,0-.269.387,2.162,2.162,0,0,0-.069.486.716.716,0,0,1,.548.488,1.017,1.017,0,0,1-.248.921Zm-12.808-9.05c.292.217.394.591.8.622.077,0,.145.146.214.227l.771.908c.145-.092.252-.172.37-.231.219-.112.261-.2.113-.369-.363-.412-.735-.818-1.116-1.214a.537.537,0,0,0-.577-.19C809.9,2464.976,809.727,2465.066,809.515,2465.159Zm6.369,5.845-1.035-.285c-.144.322-.437.339-.725.289-.524-.091-1.043-.216-1.564-.323-.092-.019-.187-.022-.323-.038a2.641,2.641,0,0,1,.4.454c.149.29.375.417.666.275.207-.1.343-.042.392.146.069.261.249.262.446.264.281-.4.281-.4.75-.078.087-.1.217-.188.262-.309.088-.239.192-.375.47-.271C815.668,2471.144,815.743,2471.074,815.884,2471Zm5.015,1.892c.135-.419-.191-.531-.367-.736l-.6.1c.136.156.214.242.288.331a.542.542,0,0,1-.159.911c-.091.054-.2.086-.29.133a2.674,2.674,0,0,0-.945.735,10.664,10.664,0,0,0,1.926-.055C820.276,2473.753,820.335,2473.25,820.9,2472.9Zm6.047,1.187c.2-.011.416.112.5-.144.062-.181-.063-.377-.336-.471a2.539,2.539,0,0,0-1.266-.22l.064.71a1.058,1.058,0,0,1,.7,1.167l.413.1C827.164,2474.825,826.984,2474.478,826.946,2474.083Zm-14.915-1.959-.464.292.189-.633-.083-.038-.27.346-.059-.031.111-.655-.077-.013-.441,1.15.948.9c.61-.445.679-.514.726-.732-.167,0-.235.291-.487.16l.307-.477a.931.931,0,0,0-.509.281C811.682,2472.429,812.154,2472.358,812.031,2472.124Zm-1.788-6.154a8.136,8.136,0,0,1,.681,2.647c.191,0,.364.113.539-.025a.643.643,0,0,0-.058-.143c-.293-.369-.3-.385.033-.694.17-.157.13-.291.01-.434-.322-.388-.646-.775-.974-1.158A1.854,1.854,0,0,0,810.243,2465.97Zm-.825,8.277-.056.569a4.093,4.093,0,0,1,.38-.3,3.581,3.581,0,0,1,.4-.185l-.4-.792-.843.839-.083-.082c-.042.335-.048.329-.337.63a.456.456,0,0,0-.134.472C809.022,2475.282,809.117,2474.693,809.418,2474.247Zm-23.968-1.432a.82.82,0,0,0-.7.134c-.215.141-.268.371.014.486a2.079,2.079,0,0,1,.239.132,8.689,8.689,0,0,0,.007.886c.025.253-.139.558.186.757A7.573,7.573,0,0,1,785.45,2472.815Zm21.159-13.066v.537a6.783,6.783,0,0,1,2.357.42A3.448,3.448,0,0,0,806.609,2459.749Zm-.88,0a3.934,3.934,0,0,0-2.223,1.059c.375-.118.73-.252,1.1-.338s.743-.122,1.126-.181Zm.929-1.112v-.557l-.292.02.119-.407h-.654l.207.448-.384-.143c0,.149,0,.256,0,.362a1.526,1.526,0,0,0,.027.185l.36-.117-.192.381c.123.024.211.046.3.056.074.008.15,0,.243,0v-.327Zm-3.422,8.767h-.1a4.164,4.164,0,0,0-.268,2.976c.223-.095.131-.285.117-.436a4.657,4.657,0,0,1,.214-2.028A1.948,1.948,0,0,0,803.236,2467.4Zm-1.809,4.3c-.644-.265-1.256-.526-1.875-.77-.194-.076-.356.023-.544.168l.772.3a.176.176,0,0,0,.086.015c.3-.064.484.131.661.318A.521.521,0,0,0,801.427,2471.7Zm-4.992-12.491c-.085.077-.259.172-.249.237.03.19-.2.411.021.554a.427.427,0,0,1,.2.35.22.22,0,0,0,.3.2c.165-.041.3-.163.239-.324a1.139,1.139,0,0,1-.158-.665c.007-.038-.089-.1-.138-.144Zm29.57,16.705-.117-.419-.709.033c-.094.185-.185.36-.271.538a1.25,1.25,0,0,0-.055.167A1.147,1.147,0,0,0,826.005,2475.912Zm-11.67-2.382-.073-.092c-.423.2-.919-.145-1.369.209a1.77,1.77,0,0,0,1.23.439Zm-5.876-.4c-.13.193-.251.369-.368.548a.576.576,0,0,0-.042.127c.507.274.961.007,1.13-.675Zm-5.953-4.077c-.275-.01-.517-.03-.758-.024-.158,0-.156.109-.1.224l.474.048-.491.594c.445.353.679.369.849.06l-.471-.08C802.155,2469.584,802.49,2469.466,802.506,2469.056Zm-2.767,7.244c.452-.265.323-.686.425-1.028-.413-.093-.55.038-1.066.992l.593-.179Zm7.5-2.478c.032.142.019.339.094.381a10.469,10.469,0,0,0,1.11.524c.047.02.181-.062.206-.125s-.029-.166-.079-.226a.491.491,0,0,0-.2-.1C808.018,2474.131,807.667,2473.993,807.237,2473.822Zm10.9-9.741c.126-.711-.122-1.175-.687-1.31A1.291,1.291,0,0,0,818.137,2464.081Zm-3.232-.133c-.4-.2-.935.084-1.21.732.238-.062.5.1.694-.126C814.567,2464.347,814.743,2464.139,814.905,2463.948Zm-14.235,12.369.115-.491.076.013.068.624c.224-.3.294-.533.176-.789-.136-.3-.426-.144-.63-.226C800.224,2475.894,800.264,2476.057,800.67,2476.317Zm8.761-7.293.078.036a1.289,1.289,0,0,0,.1-.4,2.92,2.92,0,0,0-.5-1.52,1.59,1.59,0,0,0-.03.615C809.172,2468.184,809.31,2468.6,809.431,2469.024Zm-8.068.757v-1.49l-.458.7-.426.124Zm.9-2.706c-.253-.209.118-.307.052-.472-.227.041-.333.112-.341.3a.477.477,0,0,0,.124.349c.244.2.39-.125.646-.16l-.079.451.083.04a2.442,2.442,0,0,0,.208-.3.332.332,0,0,0-.14-.434c-.141-.107-.253-.031-.36.07C802.392,2466.975,802.322,2467.025,802.26,2467.075Zm14.831-5.4c.035.646.448.929,1,1.2A1.612,1.612,0,0,0,817.091,2461.678Zm.729,3.575c.371-.815.249-1.052-.175-1.27C817.421,2464.418,817.6,2464.8,817.82,2465.253Zm-15.706,7.985c.2-.561-.208-.887-.328-1.414l-.3.445a.94.94,0,0,1,.4.713C801.881,2473.059,802.017,2473.137,802.114,2473.238Zm-5.2-.062c-.377-.524-.718-.569-1.088-.192l.835.364Zm20.562-8.219c-.119.255-.215.457-.308.659-.137.3-.136.3.209.513A1.025,1.025,0,0,0,817.476,2464.957Zm3.611,6.652c.4-.138.468-.248.427-.65a.669.669,0,0,0-.571-.664c0,.029-.005.074.011.086a.528.528,0,0,1,.169.785C821.059,2471.276,821.1,2471.445,821.087,2471.609Zm-8.513-4.981c.135-.454.544-.662.615-1.089-.223.273-.447.506-.839.309l-.1.472Zm-6.875-7.533c-.006.345.105.446.461.453.319.006.377-.06.386-.453Zm15.379,14.9a.375.375,0,0,0,.3-.4.368.368,0,0,0-.31-.343.363.363,0,0,0-.311.427A.332.332,0,0,0,821.078,2474Zm-23.967-1.239c.061.673.266.884.677.726A.816.816,0,0,0,797.111,2472.759Zm19.125,1.506-.326-.507a3.306,3.306,0,0,0-.809.264l.024.112.535-.06C815.708,2474.321,815.708,2474.321,816.236,2474.265Zm1.2-12.641c-.309-.616-.713-.874-1.172-.741C816.651,2461.146,816.912,2461.567,817.437,2461.624Zm-5.739,5.785.353.36c.074-.237.126-.41.182-.582.113-.349.091-.393-.294-.555C811.9,2466.889,812.058,2467.193,811.7,2467.409Zm-5.311-7.062v-.634l-.494.03v.581Zm3.093,6.642.645-.521-.113-.231-.792.619c.136.2.117.5.471.57Zm.329,1.427.817.081c-.023-.041-.035-.084-.062-.1a.9.9,0,0,0-.15-.068c.231-.367.231-.367.136-.584l-.76.566Zm4.357,4.915c.082-.079.243-.166.24-.247a.436.436,0,0,0-.218-.3,4.025,4.025,0,0,0-.624-.2l-.049.085Zm-1.235-8.092a.29.29,0,1,0-.309.331C812.769,2465.591,812.93,2465.408,812.931,2465.239Zm-.877,3.471c-.09-.354.114-.748-.359-.981a.7.7,0,0,1-.091.742c-.021.021.057.187.125.23S811.9,2468.71,812.054,2468.71Zm-2.147,2.226-.093.522c.281-.172.281-.172.465-.039l-.126.448a.977.977,0,0,0,.394-.622Zm-1.742,5.347c-.086-.24-.086-.24-.9-.595C807.245,2476.048,807.42,2476.168,808.165,2476.283Zm.823-10.723.3.087c-.029.266-.286.464-.164.746.106-.345.572-.609.244-1.108Zm-5.733.944c-.121-.083-.17-.113-.216-.147-.319-.24-.316-.4-.006-.653.039-.032.034-.117.056-.2-.437.149-.562.334-.482.667C802.675,2466.455,802.832,2466.551,803.255,2466.5Zm-.788,2.055c.1-.123.114-.23-.059-.268a3.779,3.779,0,0,0-.624-.09c-.051,0-.107.107-.2.21Zm9.266,5.492-.075-.274-.469.1c-.213.048-.272.164-.16.364Zm2.372-12.993a.763.763,0,0,0-.489-.854C813.659,2460.752,813.673,2460.775,814.1,2461.058Zm-1.229-1.293c.046.5.081.552.532.726A.764.764,0,0,0,812.876,2459.765Zm-8.127-.216.084.074.591-.248-.466-.381Zm8.094,14.947-.114-.058-.4.369.514.337Zm-16.136-.964c.1.134.156.221.22.3s.12.145.224.27a.628.628,0,0,0-.152-.767Zm10.084-14.258.075.115.56.044c-.086-.236-.128-.447-.355-.426C806.97,2459.017,806.884,2459.18,806.791,2459.274Zm-19.6,15.367.6.516a.419.419,0,0,0-.152-.533A.312.312,0,0,0,787.188,2474.641Zm37.844.747-.135-.058a3.157,3.157,0,0,0-.248.456c-.047.128-.316.23-.075.436A2.548,2.548,0,0,0,825.032,2475.388Zm-26.953-2.148c-.177.31-.011.531.083.782l.267-.085Zm15.011-9.517c-.284.143-.567-.185-.869.007C812.541,2464.041,812.767,2464.041,813.09,2463.723Zm-3.183,9.564.061.007.05-.125c.025.025.068.05.07.077.01.154.093.174.247.119l.044-.4h-.472Zm-1.81-13.622.1-.081c-.061-.119-.1-.274-.2-.343-.048-.034-.208.089-.395.177Zm.825.512.1-.075c-.055-.126-.083-.286-.178-.362-.051-.041-.218.064-.431.136Zm-6.5,1.158.433-.5C802.405,2460.793,802.387,2460.813,802.423,2461.335Zm.519,10.963a.336.336,0,0,0-.511.171c-.013.025.071.1.124.179Zm.194-11.671.477-.376C803.162,2460.11,803.117,2460.15,803.136,2460.627Zm-3.815,14.889.366-.354-.366-.339Zm10.379-14.707c.057-.232.093-.41-.089-.5-.119-.056-.25,0-.307.167Zm-5.725-.749.5-.344C804.068,2459.489,804.034,2459.509,803.975,2460.06Zm7.117,13.682c.251.052.314-.065.279-.242-.013-.068-.1-.174-.145-.173-.174,0-.137.156-.145.269A1.1,1.1,0,0,0,811.092,2473.742Zm-7.935-1.1-.4.377.168.246C802.992,2473.032,803.277,2472.983,803.157,2472.642Zm7.271.353.141.3.332-.125C810.838,2472.884,810.671,2472.911,810.428,2473Zm3.973-11.777c.212-.426.212-.426-.127-.533Zm-10.1,10.413c-.405.171-.286.329-.121.551Zm-6.4,2.238c-.107-.09-.168-.182-.229-.182s-.133.086-.169.152c-.011.02.078.136.126.138C797.7,2473.981,797.778,2473.924,797.905,2473.869Zm-10.189,1.852c-.233.255-.233.255.077.442Zm16.072-3.667c-.29.238-.29.238.053.505Zm6.879-1.646-.5.091C810.473,2470.775,810.505,2470.767,810.667,2470.408Zm.8,4.206.271-.359C811.394,2474.189,811.379,2474.317,811.466,2474.614Zm-15.015-.5.428-.02-.292-.337Zm9.465.915.133-.018a2.618,2.618,0,0,0-.035-.306c0-.009-.129-.021-.156.007C805.727,2474.852,805.8,2474.952,805.916,2475.033Zm.36-.778-.133-.018c-.138.123-.148.237.108.405Zm.161.468c-.161.081-.171.193-.061.319a.122.122,0,0,0,.12,0C806.621,2474.913,806.593,2474.8,806.437,2474.723Zm-.206.347c-.083.1-.16.151-.157.2s.076.1.119.156c.039-.037.106-.072.111-.113A.8.8,0,0,0,806.231,2475.07Zm-18.406.548.143-.034a1.632,1.632,0,0,0-.06-.241.741.741,0,0,0-.153.027Zm23.126-1.14.027.146.309-.078a.786.786,0,0,0-.031-.118C811.153,2474.439,811.052,2474.459,810.951,2474.478Zm-.74-1.756-.01.107h.36l.005-.07Zm1.283.96.139-.024-.1-.267-.081.023Zm-.487-.78c-.005.318.106.269.276.179Z"/>
            <path id="Path_836" data-name="Path 836" d="M756.72,2461.523q0,4.752,0,9.5c0,.137.011.276,0,.413a.7.7,0,0,0,.434.731c.552.3,1.087.629,1.628.948a2.08,2.08,0,0,1,.3.2.208.208,0,0,1,.019.324,1.613,1.613,0,0,1-.283.231c-1.187.814-2.382,1.618-3.561,2.444a.928.928,0,0,1-1.065.061c-1.8-.918-3.611-1.815-5.416-2.724-.643-.324-.664-.57-.105-1.02.924-.744.815-.407.816-1.707q0-7.3,0-14.6a7.639,7.639,0,0,0-.087-1.141,1.247,1.247,0,0,0-.945-1.07,1.491,1.491,0,0,1-.339-.139.249.249,0,0,1,.02-.465,1.611,1.611,0,0,1,.3-.114l7.321-2.279c.073-.023.148-.039.223-.055.562-.12.737.016.737.584Q756.722,2456.588,756.72,2461.523Z"/>
            <path id="Path_837" data-name="Path 837" d="M909.1,2461.464v9.407a3.124,3.124,0,0,1,0,.321.926.926,0,0,0,.584,1.023c.548.269,1.064.6,1.588.921.383.23.4.384.035.635-1.26.87-2.529,1.726-3.79,2.593a.8.8,0,0,1-.9-.012c-1.611-.816-3.227-1.621-4.841-2.431-.26-.13-.521-.259-.776-.4-.4-.218-.432-.482-.095-.791a5.368,5.368,0,0,1,.613-.483.838.838,0,0,0,.379-.777c-.009-2.662,0-5.323,0-7.984q0-3.695-.005-7.388a5.79,5.79,0,0,0-.091-.956,1.234,1.234,0,0,0-.907-1.048,1.775,1.775,0,0,1-.38-.159c-.221-.132-.214-.327.011-.457a1.2,1.2,0,0,1,.257-.1l7.406-2.3c.059-.018.116-.041.176-.055.549-.126.74.019.741.576q0,4.932,0,9.865Z"/>
            <path id="Path_838" data-name="Path 838" d="M889.753,2467.339c0-1.377-.013-2.754.009-4.131a.754.754,0,0,0-.453-.762c-.621-.333-1.215-.718-1.845-1.03-.469-.232-.537-.644-.041-.969q2.016-1.322,4-2.7a1.019,1.019,0,0,1,1.193-.067c.911.5,1.83.994,2.743,1.494q1.491.816,2.977,1.64c.107.059.216.116.318.184.289.191.311.348.057.576-.181.164-.385.3-.58.45-.16.119-.319.239-.484.35a.72.72,0,0,0-.357.7c.005.061,0,.122,0,.184,0,2.57.01,5.141-.01,7.711a.938.938,0,0,0,.573.98c.564.274,1.1.6,1.643.919.4.233.414.387.027.659-1.379.966-2.765,1.924-4.145,2.89a.691.691,0,0,1-.773.05c-1.913-.967-3.83-1.924-5.741-2.894-.408-.207-.434-.478-.092-.791a4.326,4.326,0,0,1,.577-.453.862.862,0,0,0,.406-.814c-.01-1.392,0-2.785,0-4.177Z"/>
            <path id="Path_839" data-name="Path 839" d="M742.595,2476.651c-.161-.063-.293-.1-.414-.164q-2.812-1.408-5.622-2.823c-.041-.02-.081-.043-.121-.067-.343-.208-.385-.458-.088-.736a6.629,6.629,0,0,1,.756-.6.584.584,0,0,0,.268-.539q-.011-4.245,0-8.492a.741.741,0,0,0-.432-.733c-.606-.326-1.2-.674-1.8-1.014a1.874,1.874,0,0,1-.308-.2.384.384,0,0,1-.035-.6,1.679,1.679,0,0,1,.289-.225c1.295-.874,2.6-1.733,3.88-2.627a1.113,1.113,0,0,1,1.313-.08c1.941,1.077,3.892,2.137,5.839,3.2.04.022.081.043.12.068.34.22.36.371.044.63s-.656.5-1,.739a.857.857,0,0,0-.393.775q.011,3.97,0,7.942a.828.828,0,0,0,.5.838c.546.276,1.07.6,1.6.9.08.045.164.085.239.137.247.174.25.3.015.505a2.236,2.236,0,0,1-.186.135q-2,1.391-4,2.778A4.4,4.4,0,0,1,742.595,2476.651Z"/>
            <path id="Path_840" data-name="Path 840" d="M689.249,2464.919v-5c0-.153,0-.306.008-.459a.634.634,0,0,1,.372-.581c1.817-.95,3.629-1.911,5.444-2.866a1.285,1.285,0,0,1,.3-.117.409.409,0,0,1,.554.379,2.367,2.367,0,0,1,.014.367c0,2.845-.008,5.689,0,8.534a7.218,7.218,0,0,1-1.68,4.6,12.573,12.573,0,0,1-5.578,3.891,1.532,1.532,0,0,1-.176.053c-.2.053-.41.091-.55-.1s.022-.343.131-.484a5.555,5.555,0,0,0,1.17-3.589c-.024-1.544-.006-3.089-.006-4.634Z"/>
            <path id="Path_841" data-name="Path 841" d="M891.94,2453.676a3.594,3.594,0,0,1,1.707-3.068,2.338,2.338,0,0,1,2.787.131,2.277,2.277,0,0,1,.706,2.529,5.414,5.414,0,0,1-1.611,2.415,10.617,10.617,0,0,1-1.089.839,2.434,2.434,0,0,1-.486.257.873.873,0,0,1-1.277-.42,5.311,5.311,0,0,1-.621-1.765C892,2454.28,891.975,2453.958,891.94,2453.676Z"/>
            <path id="Path_842" data-name="Path 842" d="M739.571,2453.739a3.577,3.577,0,0,1,2.111-3.306,2.279,2.279,0,0,1,2.411.393,2.141,2.141,0,0,1,.736,2.148,3.632,3.632,0,0,1-.558,1.4,6.891,6.891,0,0,1-2.2,2.185,3.447,3.447,0,0,1-.7.329.745.745,0,0,1-.99-.342,6.709,6.709,0,0,1-.5-1.078A5.364,5.364,0,0,1,739.571,2453.739Z"/>
            <path id="Path_843" data-name="Path 843" d="M803.456,2476.009c.174.076.349.147.519.229.087.042.2.085.24.16a.425.425,0,0,0,.494.211.4.4,0,0,1-.621-.062.842.842,0,0,0-.341-.189C803.58,2476.294,803.46,2476.2,803.456,2476.009Z"/>
            <path id="Path_844" data-name="Path 844" d="M790.243,2475.959v-1.075c.452-.086.734,0,.882.275a.554.554,0,0,1,0,.644C790.942,2476.042,790.655,2476.093,790.243,2475.959Zm.318-.983v.87c.231-.028.366-.128.379-.334A.51.51,0,0,0,790.561,2474.976Z"/>
            <path id="Path_845" data-name="Path 845" d="M794.9,2475c.134.055.229.076.23.1a4.369,4.369,0,0,1-.023.849c-.036.2-.245.265-.441.25a.419.419,0,0,1-.425-.351c-.037-.251-.031-.509-.045-.785h.323c0,.247-.014.475.007.7.008.085.1.161.154.242.073-.081.2-.155.21-.244A5.941,5.941,0,0,0,794.9,2475Z"/>
            <path id="Path_846" data-name="Path 846" d="M793.248,2476.056l.337.064-.006.079h-.721v-1.124h.729l.008.089-.38.044c-.173.277.055.3.206.353C793.462,2475.788,792.953,2475.705,793.248,2476.056Z"/>
            <path id="Path_847" data-name="Path 847" d="M797.1,2475.4c-.025.155-.36.055-.258.277.044.1.21.137.406.252l-.678.076-.059-1.12.7-.055c-.114.23-.446.092-.377.343C796.853,2475.265,797,2475.323,797.1,2475.4Z"/>
            <path id="Path_848" data-name="Path 848" d="M798.546,2474.783l-.246.131v.844c-.228-.024-.228-.024-.291-.812l-.314-.073A.767.767,0,0,1,798.546,2474.783Z"/>
            <path id="Path_849" data-name="Path 849" d="M792.09,2476.227l-.275-.015v-1.231h.275Z"/>
            <path id="Path_850" data-name="Path 850" d="M813.617,2475.333l-.108.392a1.8,1.8,0,0,1-.069-1.178c.45-.05.307.412.523.611a2.017,2.017,0,0,1,.2-.23c.086-.071.188-.174.281-.172.172,0,.133.17.135.286,0,.29,0,.58,0,.9l-.3-.044-.045-.53-.367.391Z"/>
            <path id="Path_851" data-name="Path 851" d="M817.133,2475.027v1.206c-.33,0-.323-.356-.542-.463-.168.054.083.461-.3.346V2475c.216.036.216.036.493.371a1.033,1.033,0,0,0,.061-.157,1.7,1.7,0,0,0,.016-.208Z"/>
            <path id="Path_852" data-name="Path 852" d="M820.562,2475.46a.588.588,0,1,1,1.16.034.65.65,0,0,1-.573.658A.661.661,0,0,1,820.562,2475.46Zm.856.026c0-.289-.115-.492-.288-.49s-.3.222-.269.5c.02.184,0,.419.255.469C821.277,2476,821.414,2475.764,821.418,2475.486Z"/>
            <path id="Path_853" data-name="Path 853" d="M815.369,2474.863a.643.643,0,0,1-.013,1.282.647.647,0,0,1-.552-.675A.619.619,0,0,1,815.369,2474.863Zm.005,1.084c.311-.266.368-.431.241-.718-.033-.074-.119-.184-.171-.178a.4.4,0,0,0-.253.152C815.047,2475.4,815.113,2475.648,815.374,2475.947Z"/>
            <path id="Path_854" data-name="Path 854" d="M820.475,2476.137c-.355.019-.406-.328-.668-.452l-.062.5c-.123.074-.221.062-.225-.09-.01-.364,0-.728,0-1.1a.564.564,0,0,1,.636,0c.225.19.089.415-.007.622Zm-.68-.645c.208.056.233-.075.233-.2s-.02-.253-.233-.221Z"/>
            <path id="Path_855" data-name="Path 855" d="M818.286,2476.235v-1.189a.606.606,0,0,1,.718.2.723.723,0,0,1,.054.774C818.922,2476.237,818.743,2476.291,818.286,2476.235Zm.288-.112c.413-.387.393-.692,0-.885Z"/>
            <path id="Path_856" data-name="Path 856" d="M822.973,2474.939l-.326-.144c.223-.244.487-.187.752-.224-.307.353-.16.758-.2,1.138-.006.071-.089.135-.137.2l-.093-.038Z"/>
            <path id="Path_857" data-name="Path 857" d="M822.031,2475.975c0-.364-.009-.727.008-1.09,0-.063.111-.121.171-.182l.107.043c0,.377.007.754-.007,1.13,0,.053-.1.1-.159.155Z"/>
            <path id="Path_858" data-name="Path 858" d="M797.835,2464.5v-.308c-.4,0-.43-.348-.524-.621-.586.25-.586.25-.828-.084.158-.045.316-.088.473-.136.322-.1.444-.04.545.282.032.1.051.208.074.3.092.153.379-.012.389.288,0,.132.208.17.339.068a2.39,2.39,0,0,0,.275-.3,2.914,2.914,0,0,1-.332,1.531,1.883,1.883,0,0,1-1.057-1.077.555.555,0,0,0,.662.043c-.053.115-.107.231-.181.389l.546.376.113-.721Z"/>
            <path id="Path_859" data-name="Path 859" d="M798.083,2463.6c-.319-.571-.238-.719.466-.894C798.641,2463.144,797.954,2463.148,798.083,2463.6Z"/>
            <path id="Path_860" data-name="Path 860" d="M798.071,2460.865l.338-.215c-.033-.347-.489.128-.462-.312a.692.692,0,0,1,.7.312c.109.2-.012.4-.229.594Z"/>
            <path id="Path_861" data-name="Path 861" d="M795.509,2462.269l.307-.205c.139.128.154.264.027.355-.161.114-.23-.08-.334-.151Z"/>
            <path id="Path_862" data-name="Path 862" d="M795.509,2462.268c-.029-.261-.133-.53.125-.759q-.061.381-.125.76Z"/>
            <path id="Path_863" data-name="Path 863" d="M800.562,2473.415c-.057.073-.114.215-.213.255a.736.736,0,0,1-.473.047c-.13-.044-.141-.207-.042-.349.064-.092.082-.215.14-.313s.135-.241.2-.241a.411.411,0,0,1,.275.19A1.518,1.518,0,0,1,800.562,2473.415Z"/>
            <path id="Path_864" data-name="Path 864" d="M800.9,2473.474a.774.774,0,0,1-.232-.921l.683.364C801.4,2473.252,801.155,2473.358,800.9,2473.474Z"/>
            <path id="Path_865" data-name="Path 865" d="M801.662,2473.594l-.124.824a2.207,2.207,0,0,1-.327-.224c-.135-.138-.309-.278-.166-.509C801.174,2473.476,801.355,2473.452,801.662,2473.594Z"/>
            <path id="Path_866" data-name="Path 866" d="M800.459,2474.341c.368-.186.651-.073.7.279.019.139-.031.275-.177.244a.382.382,0,0,0-.467.18l-.049-.11v-.607Z"/>
            <path id="Path_867" data-name="Path 867" d="M800.463,2474.327a2.051,2.051,0,0,1-.116.194c-.163.213-.257.214-.4-.017a4.044,4.044,0,0,1-.213-.468c.5-.183.58-.141.722.307Z"/>
            </g>
        </g>
    </g>
</svg>