<?xml version="1.0" encoding="utf-8"?>
<!-- Generator: Adobe Illustrator 24.2.0, SVG Export Plug-In . SVG Version: 6.00 Build 0)  -->
<svg version="1.1" id="Слой_1" xmlns="http://www.w3.org/2000/svg" xmlns:xlink="http://www.w3.org/1999/xlink" x="0px" y="0px"
	 viewBox="0 0 96 96" style="enable-background:new 0 0 96 96;" xml:space="preserve">
<path d="M94.9,87.9c-0.3-1.6-3.1-16-9.2-20.5c-3.9-2.7-8.3-4.6-12.9-5.6c-3-4.7-9.5-6.7-12.1-7.2c-0.4-1.1-0.7-2.3-0.9-3.5
	c1.5-0.8,2.7-2.2,3.3-3.8c0.9-2.7,2.4-9.2,2.9-11.2c1.1-1.2,1.9-2.7,2.3-4.4c0.4-1.6,0.5-3.3,0.1-4.9c1.1-1.9,3.1-6.9,0.2-14.6
	C66.6,7.1,64.1,3.9,61,3c-1.4-0.5-3-0.4-4.4,0.1c-6.9-3.4-20.5-6-27.4,6.3c-6.3,11.2-3.4,16.9-1.6,19c-0.2,1.6-0.1,3.2,0.4,4.7
	c0.4,1.2,1,2.4,2,3.3c0.5,2.1,2,8.2,3,11c0.6,1.6,1.8,2.9,3.3,3.8c-0.2,1.2-0.5,2.3-0.9,3.4c-2.5,0.5-4.8,1.8-6.4,3.8
	c-0.6,0.8-1.1,1.7-1.4,2.7c-4.5,0.8-11.6,2.2-17.3,6.4C4.2,72,1.4,86.4,1.1,88c0,0.2,0,0.5,0,0.7c0.1,0.2,0.1,0.5,0.3,0.6
	s0.3,0.4,0.5,0.5c0.2,0.1,0.4,0.2,0.7,0.3c0.1,0,0.2,0,0.3,0c0.4,0,0.8-0.2,1.2-0.4c0.3-0.3,0.5-0.7,0.6-1.1
	c0.7-4,3.6-15.1,7.8-18.3c4.6-3.4,10.3-4.8,14.6-5.6c0,1.2,0.1,2.5,0.4,3.7c1.8,7.6,3,12.9,3.6,15.3c-1.2,0.7-2.2,1.7-2.7,3
	c-0.5,1.3-0.5,2.7,0,4c0.5,1.3,1.4,2.4,2.6,3.1c1.2,0.7,2.6,0.9,4,0.7c1.4-0.2,2.6-1,3.5-2c0.9-1.1,1.3-2.4,1.3-3.8
	s-0.6-2.7-1.5-3.7c-0.9-1-2.2-1.7-3.6-1.9c-0.6-2.3-1.9-7.6-3.6-15.4c-0.3-1.2-0.4-2.4-0.4-3.6l0.8-0.2c1.6-0.4,3-1.3,4.1-2.6
	L46.4,72v14.8c0,0.5,0.2,0.9,0.5,1.3c0.3,0.3,0.8,0.5,1.3,0.5c0.5,0,0.9-0.2,1.3-0.5c0.3-0.3,0.5-0.8,0.5-1.3V72l10.7-10.4
	c1,1,2.3,1.8,3.7,2.1c0.7,0.2,1.6,0.3,2.7,0.5c1.1,0.2,2,0.4,3.1,0.6c0.5,1.5,0.5,3.1,0,4.6l-0.2,0.8c-1.2-0.2-2.4-0.2-3.6,0
	s-2.3,0.7-3.3,1.4c-1,0.7-1.8,1.6-2.4,2.6c-0.6,1-1,2.1-1.2,3.3l-1.6,13c-0.1,0.5,0.1,1,0.4,1.3c0.1,0.2,0.3,0.3,0.5,0.5
	c0.2,0.1,0.4,0.2,0.7,0.2l2.7,0.3c0.2,0,0.5,0,0.7-0.1c0.2-0.1,0.5-0.2,0.6-0.3c0.2-0.2,0.3-0.3,0.5-0.6c0.1-0.2,0.2-0.4,0.2-0.7
	l0.2-2.4c0-0.5-0.1-0.9-0.4-1.3c-0.3-0.4-0.7-0.6-1.2-0.6l-0.8-0.1l1.1-8.6c0.1-0.7,0.3-1.4,0.7-2s0.9-1.1,1.5-1.5
	c0.6-0.4,1.3-0.7,2-0.8c0.7-0.1,1.4-0.1,2.1,0.1l2.9,0.7c0.7,0.2,1.3,0.5,1.9,0.9c0.6,0.4,1,1,1.4,1.6c0.3,0.6,0.6,1.3,0.6,2
	c0.1,0.7,0,1.4-0.3,2.1l-3.1,8.2l-0.7-0.3c-0.4-0.2-0.9-0.2-1.3,0c-0.4,0.2-0.8,0.5-1,0.9l-0.9,2.2c-0.1,0.2-0.1,0.5-0.1,0.7
	c0,0.2,0,0.5,0.1,0.7c0.1,0.2,0.2,0.4,0.4,0.6c0.2,0.2,0.4,0.3,0.6,0.4l2.6,1l0.2,0.1c0.1,0,0.3,0,0.4,0c0.4,0,0.7-0.1,1-0.3
	c0.3-0.2,0.5-0.5,0.7-0.9l4.6-12.1c0.4-1.1,0.5-2.3,0.5-3.5s-0.4-2.3-1-3.4c-0.6-1.1-1.3-2-2.3-2.7c-0.9-0.7-2-1.3-3.2-1.6l0.2-0.7
	c0.5-1.4,0.6-2.9,0.5-4.5c3.3,0.9,6.5,2.3,9.3,4.3c4.2,3.1,7.1,14.2,7.8,18.3c0.1,0.4,0.3,0.8,0.6,1.1c0.3,0.3,0.7,0.4,1.2,0.4
	c0.1,0,0.2,0,0.3,0c0.2,0,0.5-0.1,0.7-0.3c0.2-0.1,0.4-0.3,0.5-0.5c0.1-0.2,0.2-0.4,0.3-0.7C94.9,88.4,94.9,88.1,94.9,87.9z
	 M36.2,88.8c0,0.4-0.1,0.9-0.4,1.2c-0.2,0.4-0.6,0.6-1,0.8C34.4,91,34,91,33.5,90.9c-0.4-0.1-0.8-0.3-1.1-0.6
	c-0.3-0.3-0.5-0.7-0.6-1.1c-0.1-0.4,0-0.9,0.1-1.3c0.2-0.4,0.5-0.7,0.8-1c0.4-0.2,0.8-0.4,1.2-0.4c0.6,0,1.1,0.2,1.6,0.6
	C35.9,87.7,36.2,88.2,36.2,88.8z M32.4,11C39.6-1.9,55,6.2,55.7,6.5c0.3,0.2,0.6,0.2,1,0.2c0.3,0,0.7-0.1,0.9-0.3
	c0.3-0.2,0.7-0.3,1.1-0.3c0.4,0,0.8,0,1.1,0.1c1.9,0.6,3.8,3.2,5.3,7.2c0.9,2.3,1.3,4.7,1.2,7.1c-1.7-2.8-4.2-5.1-7.2-6.6
	c-0.2-0.1-0.4-0.2-0.7-0.2c-0.2,0-0.5,0-0.7,0s-0.4,0.2-0.6,0.3c-0.2,0.1-0.3,0.3-0.5,0.5c0,0-2.7,3.5-16.4,4.6
	c-5.2,0.4-8.8,1.8-10.8,4.3l-0.2,0.3C28.7,21.4,28.8,17.4,32.4,11z M33.4,34.7c-0.1-0.3-0.2-0.5-0.4-0.7c-0.2-0.2-0.4-0.4-0.6-0.5
	c-0.5-0.5-0.8-1.1-1-1.8c-0.4-1-0.4-2.1-0.2-3.1v-0.1c0.2-0.3,0.2-0.6,0.2-0.9c0-0.2,0-4.1,9.1-4.8c11.2-0.9,16.1-3.3,18.1-5
	c3.5,2.2,5.8,5.6,5.9,8.8c0,0.2,0,0.4,0.1,0.5c0.7,1.7,0,5.3-1.5,6.5c-0.3,0.3-0.5,0.6-0.6,1c0,0.1-1.9,8.4-2.9,11.3
	c-1.1,3.3-8.9,3.9-11.6,3.9c-3.3,0.1-10.5-0.8-11.6-3.9C35.4,43,33.4,34.8,33.4,34.7z M48.2,68.8L37.7,58.2c0.9-1.8,1.6-3.8,2-5.8
	c2.6,0.7,5.3,1.1,8,1.1h0.5c2.7,0,5.4-0.4,8-1.1c0.3,1.4,0.7,2.8,1.2,4.2c0,0.1,0.1,0.2,0.1,0.3c0.3,0.7,0.6,1.3,0.9,1.9L48.2,68.8z
	 M63.3,59.1c1,0.4,1.9,0.9,2.8,1.4l-0.8-0.2C64.6,60.1,63.8,59.7,63.3,59.1L63.3,59.1z"/>
</svg>
