<svg width="275" height="72" viewBox="0 0 275 72" fill="none" xmlns="http://www.w3.org/2000/svg">
<path d="M12.8849 45.7177C12.8849 57.8041 19.3214 61.47 26.0603 61.3732C32.0974 61.2764 36.2593 58.7962 38.7395 51.8637L49.3379 57.0177C45.4784 67.12 36.0658 70.9915 26.0603 71.0883C13.0785 71.1851 0 62.8613 0 45.7177C0 28.574 13.0785 20.2502 26.0603 20.347C36.0658 20.4438 45.4784 24.3154 49.3379 34.4176L38.7395 39.5716C36.2593 32.6391 32.0974 30.1589 26.0603 30.0622C19.3214 29.9654 12.8849 33.6312 12.8849 45.7177" fill="black"/>
<path d="M98.3371 20.9395V70.483H85.4521V60.5743C81.6895 67.906 75.8338 71.2815 69.2038 71.2815C55.3389 71.2815 54.0443 59.3886 54.0443 48.8871V20.9515H66.9293V48.8871C66.9293 57.3077 67.3285 63.0545 72.8696 63.0545C76.3419 63.0545 85.4521 61.1671 85.4521 38.4823V20.9395H98.3371Z" fill="black"/>
<path d="M134.173 20.1527V31.4528C122.776 31.4528 117.235 36.4011 117.235 54.5368V70.4827H104.35V20.9391H117.235V30.0493C120.405 23.1169 125.849 20.1406 133.979 20.1406H134.173V20.1527Z" fill="black"/>
<path d="M167.384 46.6121V45.8136C161.54 49.6731 146.38 45.4144 146.38 57.404C146.38 67.6152 167.384 67.8088 167.384 46.6V46.6121ZM180.268 40.0547V70.4705H167.384V62.8363C156.676 75.322 133.495 74.8259 133.495 57.3919C133.495 34.5015 167.384 46.5879 167.384 37.2841C167.384 31.2349 162.532 30.0492 158.769 30.0492C155.6 30.0492 148.957 30.8477 147.675 38.6634L135.492 35.9896C137.173 24.3024 148.97 20.5277 158.576 20.6366C169.174 20.7333 180.281 25.1977 180.281 40.0547" fill="black"/>
<path d="M224.138 9.20351C224.138 13.6679 220.52 17.2732 216.068 17.2732C211.616 17.2732 207.998 13.6558 207.998 9.20351C207.998 4.75125 211.616 1.13379 216.068 1.13379C220.52 1.13379 224.138 4.75125 224.138 9.20351ZM222.65 20.9512H209.765V70.4947H222.65V20.9512V20.9512Z" fill="black"/>
<path d="M197.218 56.5454C197.218 61.893 198.997 63.5868 205.24 63.5868V70.495C189.681 70.495 184.333 65.5468 184.333 52.9522V0.734863H197.218V56.5454Z" fill="black"/>
<path d="M275 42.5472V70.4828H262.115V42.5472C262.115 34.1266 261.329 28.3798 255.775 28.3798C252.303 28.3798 242.89 30.2672 242.89 52.952V70.4828H230.018V20.9513H242.89V31.0536C246.75 23.6251 252.799 20.1528 259.429 20.1528C273.294 20.1528 274.976 32.0457 274.976 42.5351" fill="black"/>
</svg>
