<svg xmlns="http://www.w3.org/2000/svg" width="172.516" height="74.49" viewBox="0 0 172.516 74.49">
    <g id="Group_684" data-name="Group 684" transform="translate(-434.174 -2423.917)">
        <g id="Group_598" data-name="Group 598">
        <g id="Group_597" data-name="Group 597">
            <path id="Path_814" data-name="Path 814" d="M456.313,2475.35c-1.411-1.117-2.83-2.135-4.13-3.287a38.2,38.2,0,0,1-11.589-18.726,39.2,39.2,0,0,1-1.4-12.547,21.962,21.962,0,0,1,3.125-10.978,11.983,11.983,0,0,1,7.842-5.705,10.327,10.327,0,0,1,6.892,1.128,19.29,19.29,0,0,1,9.014,10.15,32.29,32.29,0,0,1,2.489,11.1,72.17,72.17,0,0,1-6.817,34.681,41.364,41.364,0,0,1-7.2,10.955,20.356,20.356,0,0,1-7.344,5.275,11.434,11.434,0,0,1-7.393.655,7.173,7.173,0,0,1-5.352-6.015,16.213,16.213,0,0,1,1.45-10.087,26.44,26.44,0,0,1,9.609-10.982,1.038,1.038,0,0,1,1.257-.047,72.577,72.577,0,0,0,9.069,4.27C455.978,2475.252,456.131,2475.292,456.313,2475.35Z"/>
            <path id="Path_815" data-name="Path 815" d="M504.24,2451.713h5.069v4.9l.131.049c.1-.15.209-.3.3-.449a10.78,10.78,0,0,1,11.484-5.079,8.83,8.83,0,0,1,6.922,5.845c.053.133.1.268.182.483.267-.423.5-.8.737-1.165,2.64-4.043,6.42-5.691,11.163-5.3a9.233,9.233,0,0,1,5.737,2.325,10.1,10.1,0,0,1,3.013,6.013,31.409,31.409,0,0,1,.414,4.772c.046,6.281.02,12.563.018,18.844,0,.157-.019.314-.031.507-.209.013-.385.032-.561.033-1.314,0-2.628-.016-3.941.01-.442.008-.581-.115-.579-.572q.026-6.183.008-12.365c-.006-2.411.038-4.826-.089-7.232a16.353,16.353,0,0,0-.716-3.959,5.551,5.551,0,0,0-5.39-4.124c-3.527-.284-5.78,1.5-7.391,4.391a11.153,11.153,0,0,0-1.361,5.493q-.021,8.856-.008,17.71v.618h-5.088v-.713c0-6.156.007-12.311-.011-18.466a12.9,12.9,0,0,0-.984-5.319,5.97,5.97,0,0,0-5.451-3.7c-3.917-.242-6.829,2.006-7.985,6.066a15.663,15.663,0,0,0-.528,4.323q0,8.584,0,17.17v.627h-5.07Z"/>
            <path id="Path_816" data-name="Path 816" d="M461,2491.209a24.28,24.28,0,0,1,1.666-7.523c3.327-8.717,6.69-17.424,10.855-25.785a35.158,35.158,0,0,1,8.09-10.891,12.027,12.027,0,0,1,3.1-2.005c2.633-1.144,4.6.205,4.681,3.07a18.993,18.993,0,0,1-1.086,6.563,45.57,45.57,0,0,1-6.363,11.893,82.139,82.139,0,0,1-6.73,8.217,1.315,1.315,0,0,0-.277.813,27.313,27.313,0,0,1-5.833,16.809,9.794,9.794,0,0,1-3.743,3.1c-1.906.833-3.487.123-4.016-1.873A20.007,20.007,0,0,1,461,2491.209Z"/>
            <path id="Path_817" data-name="Path 817" d="M606.671,2483.462H601.6v-.663c-.005-6.119.012-12.238-.029-18.356a12.61,12.61,0,0,0-1.2-5.652,6.189,6.189,0,0,0-5.466-3.54c-5.424-.4-8.555,3.67-9.274,7.5a14.306,14.306,0,0,0-.237,2.572c-.02,5.759-.011,11.518-.011,17.277v.851h-5.068v-31.724h5.057v5.15l.122.048c.1-.151.213-.3.312-.452a12.021,12.021,0,0,1,15.111-4.522,9.489,9.489,0,0,1,4.9,5.885,16.945,16.945,0,0,1,.857,5.359c.023,6.659.016,13.318.019,19.977C606.69,2483.256,606.679,2483.343,606.671,2483.462Z"/>
            <path id="Path_818" data-name="Path 818" d="M554.966,2476.871c.5.319.9.59,1.311.835a13.288,13.288,0,0,0,8.721,1.953,8.729,8.729,0,0,0,1.412-.33,3.982,3.982,0,0,0,1.553-6.756,16.509,16.509,0,0,0-3.048-2c-1.742-.932-3.583-1.682-5.307-2.642a8.338,8.338,0,0,1-4.22-4.97A9,9,0,0,1,560.64,2452a14.786,14.786,0,0,1,12,.267.661.661,0,0,1,.373.439c.027,1.544.017,3.088.017,4.743-.234-.128-.4-.215-.555-.3a12.558,12.558,0,0,0-7.595-1.774,4.81,4.81,0,0,0-4.178,2.553,4.133,4.133,0,0,0,1.383,5.406,39.141,39.141,0,0,0,4.124,2.2c1.545.8,3.161,1.48,4.635,2.392,5.247,3.245,4.775,11.647-.774,14.69a15.005,15.005,0,0,1-8.04,1.605,15.335,15.335,0,0,1-6.589-1.638.771.771,0,0,1-.485-.793C554.98,2480.183,554.966,2478.583,554.966,2476.871Z"/>
        </g>
        </g>
    </g>
</svg>