<svg xmlns="http://www.w3.org/2000/svg" width="186.483" height="32.99" viewBox="0 0 186.483 32.99">
    <g id="Group_684" data-name="Group 684" transform="translate(-989.916 -2541.594)">
    <g id="Group_599" data-name="Group 599">
        <path id="Path_819" data-name="Path 819" d="M989.916,2554.929c.589-.347.505-1,.665-1.529a16.73,16.73,0,0,1,19.859-11.366c8.275,1.9,14,10.239,12.642,18.406a16.716,16.716,0,0,1-32.5,2.324c-.161-.523-.077-1.182-.666-1.529Z"/>
        <path id="Path_820" data-name="Path 820" d="M1114.11,2567.168a9.08,9.08,0,1,1,9.234-9.063A8.826,8.826,0,0,1,1114.11,2567.168Zm-4.146-9.1a5.965,5.965,0,0,0,.7,3.025,3.958,3.958,0,0,0,6.907.116,5.821,5.821,0,0,0-.073-6.311,3.9,3.9,0,0,0-6.792.157A5.9,5.9,0,0,0,1109.964,2558.063Z"/>
        <path id="Path_821" data-name="Path 821" d="M1126.092,2558.024q0-3.76,0-7.521c0-.586-.084-1.2.837-1.163,2.674.114,5.373-.285,8.025.218,4.633.877,7.345,4.578,6.987,9.388a8.393,8.393,0,0,1-8.16,7.844c-2.21.118-4.431,0-6.645.062-.892.025-1.068-.344-1.057-1.132C1126.114,2563.155,1126.092,2560.589,1126.092,2558.024Zm4.724.087c0,1.284-.006,2.569,0,3.852,0,.445-.1.884.588,1.055a4.444,4.444,0,0,0,5.359-2.807c.958-2.735-.007-5.785-2.126-6.721-2.578-1.138-3.825-.373-3.825,2.345Z"/>
        <path id="Path_822" data-name="Path 822" d="M1031.164,2555.716c0-1.69.073-3.384-.025-5.068-.066-1.133.363-1.332,1.4-1.33,3.469,0,3.468-.039,3.469,3.455,0,2.331-.036,4.663.014,6.993.05,2.308.961,3.3,2.909,3.333,2.026.031,3.052-1.005,3.1-3.352.066-2.971.057-5.945,0-8.915-.019-1.049.139-1.536,1.39-1.524,3.472.034,3.505-.033,3.463,3.466a65.846,65.846,0,0,1-.181,8.729c-.523,3.6-3.317,5.641-7.629,5.665-4.284.024-7.327-2.035-7.756-5.517a48.927,48.927,0,0,1-.043-5.935Z"/>
        <path id="Path_823" data-name="Path 823" d="M1142.549,2566.833l4.818-13.077c.081-.218.158-.438.239-.656,1.517-4.128,1.77-4.257,6.247-3.779.757.08.938.476,1.15,1.056,1.863,5.08,3.714,10.164,5.651,15.216.428,1.114.127,1.336-.9,1.247a5.677,5.677,0,0,0-1.4,0c-1.64.271-2.639-.3-2.883-2.018-.137-.965-.695-1.358-1.7-1.253a11.357,11.357,0,0,1-2.62,0c-1.922-.253-3.272.215-3.523,2.384a.9.9,0,0,1-1.056.886C1145.3,2566.808,1144.029,2566.833,1142.549,2566.833Zm9.216-12.817c-.487,1.417-.817,2.378-1.149,3.338-.963,2.79-.638,3.146,2.36,2.67.487-.077.787-.148.588-.728C1153.009,2557.686,1152.464,2556.072,1151.765,2554.016Z"/>
        <path id="Path_824" data-name="Path 824" d="M1064.426,2566.833c2.132-5.759,4.187-11.314,6.25-16.866.119-.322.261-.628.719-.623,1.517.018,3.034.009,4.551,0,.61,0,.731.449.9.9,1.92,5.183,3.834,10.369,5.783,15.541.358.951-.033,1.117-.85,1.053a4.579,4.579,0,0,0-1.222.006c-1.855.362-3-.278-3.265-2.222-.122-.886-.68-1.092-1.49-1.043a12.766,12.766,0,0,1-2.622-.009c-1.994-.3-3.39.184-3.673,2.423-.08.638-.451.863-1.083.848C1067.158,2566.811,1065.893,2566.833,1064.426,2566.833Zm9.219-12.812c-.5,1.454-.83,2.43-1.167,3.4-.934,2.7-.935,2.667,1.943,2.6.875-.019,1.34-.1.937-1.143C1074.8,2557.442,1074.323,2555.964,1073.645,2554.021Z"/>
        <path id="Path_825" data-name="Path 825" d="M1056.44,2567.14a11.668,11.668,0,0,1-6.563-2.037c-.694-.483-.929-.822-.322-1.631,1.005-1.342,1.815-2.413,3.609-.9a5.055,5.055,0,0,0,3.69.768c.784-.062,1.556-.213,1.739-1.139.191-.963-.5-1.375-1.244-1.626-1.21-.41-2.454-.719-3.669-1.115-2.823-.919-4.278-2.749-4.131-5.144.153-2.5,1.862-4.359,4.605-5.013a10.611,10.611,0,0,1,8.485,1.658c.822.526,1.052.993.274,1.725a4.819,4.819,0,0,0-.763.954c-.556.892-1.095,1.126-2.054.381a5.544,5.544,0,0,0-3.577-1.2c-.9.022-1.882.062-2.071,1.153-.173,1,.673,1.4,1.463,1.675.877.3,1.781.532,2.671.8,3.625,1.1,5.194,2.963,4.89,5.812-.289,2.711-2.679,4.607-6.159,4.876C1057.024,2567.16,1056.731,2567.14,1056.44,2567.14Z"/>
        <path id="Path_826" data-name="Path 826" d="M1159.348,2549.557a2.5,2.5,0,0,1,.387-.174c4.851-.286,4.85-.286,6.917,4.081.391.828.793,1.652,1.315,2.736.985-2.083,1.9-3.872,2.673-5.717a1.6,1.6,0,0,1,1.828-1.161c1.275.088,2.561.022,3.83.022.3.575-.141.909-.344,1.28-1.005,1.838-1.93,3.733-3.089,5.47-1.906,2.857-3,5.873-2.474,9.342.181,1.188-.349,1.431-1.452,1.424-3.481-.022-3.578.019-3.446-3.419a9.546,9.546,0,0,0-1.473-5.593C1162.387,2555.181,1160.938,2552.4,1159.348,2549.557Z"/>
        <path id="Path_827" data-name="Path 827" d="M1096.39,2549.344c2.158,0,4.318.05,6.473-.022,1.014-.034,1.374.309,1.254,1.291a6.1,6.1,0,0,0,0,1.4c.1.878-.171,1.289-1.14,1.213-.985-.078-1.986.045-2.971-.034-.959-.076-1.167.32-1.157,1.2.041,3.673-.029,7.349.044,11.021.023,1.15-.309,1.46-1.452,1.451-3.452-.026-3.452.025-3.452-3.454,0-2.916-.046-5.833.023-8.748.026-1.1-.218-1.629-1.422-1.471-.688.09-1.41-.069-2.094.034-1.515.229-1.758-.434-1.809-1.829-.063-1.694.4-2.24,2.109-2.088C1092.647,2549.471,1094.524,2549.344,1096.39,2549.344Z"/>
    </g>
    </g>
</svg>